<svg xmlns="http://www.w3.org/2000/svg" viewBox="107.3 -5 640 138"><path d="M119.7 1.8h29.5l6.3 6.4v23l-6.3 6.4h-21.5v19.2h27.8v8H126l-6.3-5.6V36l6.3-6.3h21.5V9.9h-27.8V1.8zm53.3 0h23l6.3 6.4v50.5l-6.4 6.3h-23.1l-6.3-6.3V8l6.5-6.2zM194.3 57V9.8h-19.8V57h19.8zm34.3-.2h5.2v8h-19.7v-8h6.4V9.6h-6.4v-8h8.2l6.3 6.3v48.9zm21.3-55h23.2l6.3 6.3v19.8l-4 4 4 4v22.6l-6.4 6.4h-23.2l-6.3-6.4V35.9l4-4-4-4v-20l6.4-6.1zm21.5 26.1V9.7h-19.8v18.2h19.8zm0 28.9v-21h-19.8v21h19.8zM137.3 91.1h-15.5v9h12l3.5 3.5v14.8l-3.6 3.5h-12.9l-3.6-3.5V90.1l3.6-3.5h16.4V91l.1.1zm-4.5 13.5h-11.1v12.9h11.1v-12.9zm18.8 21.8h-4.9v-6.1h4.9v6.1zm9.3-39.6h16.4l3.5 3.5v12.9l-3.5 3.6h-12v10.7h15.5v4.5h-16.4l-3.5-3.1v-13l3.5-3.5h12V91.1h-15.5v-4.3zm46.1 3.4v12l-2.2 2.2 2.2 2.2v11.8l-3.5 3.5H187v-4.5h15.5v-10.8h-15.1v-4.5h15.1v-11H187v-4.5h16.5l3.5 3.6zm17.6 17.2h-12.9v-4.7h12.9v4.7zm4.5-20.6h16.4l3.5 3.5v12.9l-3.5 3.6h-12v10.7H249v4.5h-16.4l-3.5-3.1v-13l3.5-3.5h12V91.1h-15.5v-4.3zm41.6 0h4.5V122h-4.5v-11.8h-11.9l-3.5-3.5v-20h4.5v19.1h11v-19h-.1zm40.6-84.3h3v121.7h-3zm27.6 50.8c0-.6.1-1.1.4-1.5.3-.4.6-.6.9-.6.4 0 .8-.2 1-.6.3-.4.4-.9.4-1.5V9.6c0-.6.2-1 .6-1.5s.9-.6 1.4-.6h17c.6 0 1.1-.2 1.5-.6.4-.4.7-.9.7-1.4V3.7c0-.6.2-1 .6-1.4.4-.4.9-.6 1.5-.6h1.3c.6 0 1.1.2 1.5.6.4.4.7.9.7 1.4v1.8c0 .6.2 1 .6 1.4s.8.6 1.4.6h.6c.6 0 1-.2 1.5-.5.4-.3.6-.8.6-1.3s.2-1 .6-1.4c.4-.4.9-.6 1.4-.6h1.3c.6 0 1.1.2 1.5.6.4.4.6.9.6 1.5V11c0 .6-.2 1-.6 1.4-.4.4-.9.6-1.5.6h-6c-.6 0-1 .2-1.4.6-.4.4-.6.9-.6 1.5v22.1c0 .6.2 1.1.6 1.5.4.4.8.7 1.4.7h.6c.6 0 1-.2 1.5-.7.4-.4.6-.9.6-1.5V18.5c0-.6.2-1.1.6-1.5.4-.4.9-.7 1.4-.7h1.3c.6 0 1.1.2 1.5.7.4.4.6.9.6 1.5v24.3c0 .6-.2 1-.6 1.5-.4.4-.9.6-1.5.6h-6c-.6 0-1 .2-1.4.6s-.6.9-.6 1.4v2.2c0 .6.2 1.1.6 1.5.4.4.8.6 1.4.6h6c.6 0 1.1.2 1.5.6.4.4.6.9.6 1.5v1.3c0 .6-.2 1.1-.6 1.5-.4.4-.9.6-1.5.6h-11.5c-.6 0-1-.2-1.4-.6-.4-.4-.6-.9-.6-1.5V15.2c0-.6-.2-1-.7-1.5-.4-.4-.9-.6-1.5-.6h-11.4c-.6 0-1 .2-1.4.6-.4.4-.6.9-.6 1.5v3c0 .6.2 1 .6 1.5.4.4.9.6 1.4.6h7.2c.6 0 1 .2 1.5.6.4.4.6.9.6 1.5v32.3c0 .6-.2 1.1-.6 1.5-.4.4-.9.6-1.5.6h-4.7c-.6 0-1-.2-1.4-.6-.4-.4-.6-.9-.6-1.5v-1.3c0-.6.2-1.1.5-1.5.3-.4.7-.6 1.1-.6.4 0 .8-.2 1.1-.6.3-.4.5-.9.5-1.5V27.9c0-.6-.2-1-.6-1.4s-.9-.6-1.5-.6h-1.7c-.6 0-1 .2-1.4.6-.4.4-.6.9-.6 1.4v26.8c0 .6-.2 1.1-.6 1.5-.4.4-.9.6-1.5.6h-4.3c-.6 0-1-.2-1.4-.6-.4-.4-.5-.9-.5-1.5v-1.4zm45.9-47.2c0-.6.2-1.1.6-1.5.4-.4.9-.6 1.4-.6h4.4c.6 0 1.1-.1 1.5-.4.4-.2.6-.5.6-.8 0-.3.2-.6.6-.8.4-.2.9-.4 1.5-.4h1.3c.6 0 1 .1 1.5.4.4.2.6.5.6.8 0 .3.2.6.6.8.6.3 1.1.4 1.6.4h5c.6 0 1.1.2 1.5.6.4.4.6.9.6 1.5v1.4c0 .6-.2 1.1-.6 1.5-.4.4-.9.6-1.5.6h-5c-.6 0-1.1.2-1.5.6-.4.4-.6.9-.6 1.5v4.6c0 .6.1 1 .4 1.5.3.4.6.6 1 .6s.7-.2 1-.6c.3-.4.4-.9.4-1.5v-1.1c0-.6.2-1.1.6-1.5.4-.4.9-.6 1.5-.6h.8c.6 0 1 .2 1.4.6.4.4.6.9.6 1.5v1.1c0 .6.1 1 .2 1.5.1.4.3.6.5.6s.4.2.5.6.2.9.2 1.5v1.3c0 .6-.2 1.1-.6 1.5s-.8.7-1.4.7h-11.6c-.6 0-1.1.2-1.5.5s-.6.8-.6 1.4c0 .6.2 1 .6 1.4s.9.6 1.5.6h11.9c.4 0 .8.2 1.1.6.3.4.5.9.5 1.5v24.7c0 .6-.2 1.1-.6 1.5-.4.4-.9.6-1.4.6h-17c-.6 0-1.1-.2-1.5-.6-.4-.4-.6-.9-.6-1.5V38.3c0-.6-.1-1.1-.3-1.5-.2-.4-.4-.6-.7-.6-.3 0-.5-.2-.7-.6-.2-.4-.3-.9-.3-1.5v-1.3c0-.6.1-1.1.3-1.5.2-.4.4-.6.7-.6.7 0 1-.1 1-.2v-4.3c0-.6-.1-1.1-.3-1.5-.2-.4-.4-.6-.7-.6-.3 0-.5-.2-.7-.6-.2-.4-.3-.9-.3-1.5v-1.3c0-.6.2-1 .6-1.5.4-.4.9-.6 1.4-.6h4.4c.6 0 1.1-.2 1.5-.6.4-.4.6-.9.6-1.5v-4.6c0-.6-.2-1-.6-1.5-.4-.4-.9-.6-1.5-.6h-4.4c-.6 0-1-.2-1.4-.6-.4-.4-.6-.9-.6-1.5V6.1zm17.5 29.5c0-.6-.2-1.1-.6-1.5-.4-.4-.9-.6-1.5-.6h-5.8c-.6 0-1 .2-1.5.6-.4.4-.6.9-.6 1.5v1.5c0 .6.2 1.1.6 1.5.4.4.9.6 1.5.6h5.8c.6 0 1.1-.2 1.5-.6.4-.4.6-.9.6-1.5v-1.5zm-2.1 15.6c.6 0 1.1-.2 1.5-.6.4-.4.6-.9.6-1.5v-2.2c0-.6-.2-1.1-.6-1.5-.4-.4-.9-.6-1.5-.6h-5.8c-.6 0-1 .2-1.5.6-.4.4-.6.9-.6 1.5v2.2c0 .6.2 1.1.6 1.5.4.4.9.6 1.5.6h5.8zm24.6-28.9c0 .6-.1 1.2-.4 1.8-.3.7-.6 1.2-.9 1.5-.4.4-.5.8-.5 1.3s.2.9.5 1.3c.3.3.6.8.9 1.5.3.7.4 1.3.4 1.8v20.7c0 .6-.2 1.1-.6 1.5-.4.4-.9.6-1.4.6h-5.3c-.6 0-1 .1-1.5.4s-.6.5-.6.8c0 .3-.2.6-.6.8-.4.2-.9.4-1.5.4h-1.4c-.6 0-1.1-.2-1.5-.6-.4-.4-.6-.9-.6-1.5v-51c0-.6.2-1 .6-1.4.4-.4.9-.6 1.5-.6h10.9c.6 0 1 .2 1.4.6.4.4.6.9.6 1.4v18.7zm-7.5 2.1c.6 0 1-.2 1.4-.6.4-.4.5-.9.5-1.5v-13c0-.6-.2-1.1-.5-1.5-.4-.4-.8-.6-1.4-.6-.6 0-1 .2-1.4.6s-.6.9-.6 1.5v13c0 .6.2 1.1.6 1.5.4.4.8.6 1.4.6zm1.9 7.6c0-.6-.2-1-.5-1.4-.4-.4-.8-.6-1.4-.6-.6 0-1 .2-1.4.6-.4.4-.6.9-.6 1.4v14.7c0 .6.2 1.1.6 1.5.4.4.8.6 1.4.6.6 0 1-.2 1.4-.6.4-.4.5-.9.5-1.5V32zm-48.9 88.6c0 .4-.2.8-.5 1.2-.3.3-.7.5-1.2.5h-28.8c-.4 0-.8-.2-1.2-.5-.3-.3-.5-.7-.5-1.2V79.8c0-.4.2-.8.5-1.2.3-.3.7-.5 1.2-.5h28.8c.4 0 .8.2 1.2.5.3.3.5.7.5 1.2v40.8zm-4.5-36.3c0-.4-.2-.8-.5-1.2s-.7-.5-1.2-.5h-19.7c-.5 0-.9.2-1.2.5s-.5.7-.5 1.2v31.8c0 .5.2.9.5 1.2.3.3.7.5 1.2.5h19.7c.5 0 .9-.2 1.2-.5.3-.3.5-.7.5-1.2V84.3zm-1.7 29.2c0 .4-.2.8-.5 1.2s-.7.5-1.2.5h-16.3c-.4 0-.8-.2-1.2-.5s-.5-.7-.5-1.2v-1.1c0-.4.2-.8.5-1.2s.7-.5 1.2-.5h4.2c.4 0 .8-.2 1.2-.5.4-.3.5-.7.5-1.2v-5.5c0-.4-.2-.8-.5-1.2-.4-.3-.8-.5-1.2-.5h-4.2c-.4 0-.8-.2-1.2-.5s-.5-.7-.5-1.2v-1c0-.5.2-.9.5-1.2s.7-.5 1.2-.5h4.2c.4 0 .8-.2 1.2-.5.4-.3.5-.7.5-1.2v-3.9c0-.4-.2-.8-.5-1.1-.4-.3-.8-.5-1.2-.5h-4.2c-.4 0-.8-.2-1.2-.5s-.5-.7-.5-1.2v-1.1c0-.5.2-.9.5-1.2.3-.3.7-.5 1.2-.5h16.3c.5 0 .8.2 1.2.5.3.3.5.7.5 1.2v1.1c0 .4-.2.8-.5 1.2s-.7.5-1.2.5h-4.2c-.4 0-.8.2-1.2.5s-.5.7-.5 1.1v3.9c0 .4.2.8.5 1.2s.7.5 1.2.5h4.2c.4 0 .8.2 1.2.5s.5.8.5 1.2v1c0 .5-.2.8-.5 1.2s-.7.5-1.2.5h-4.2c-.4 0-.8.2-1.2.5s-.5.7-.5 1.2v5.5c0 .5.1.9.4 1.2.3.3.7.5 1.1.5.4 0 .8-.2 1.1-.5.3-.3.4-.7.4-1.2v-2c0-.4.2-.8.5-1.2.3-.3.7-.5 1.2-.5h1.1c.5 0 .8.2 1.2.5s.5.7.5 1.2v6.5zm22.5-18.8c0 .4-.1.9-.3 1.5-.2.5-.4.9-.6 1.2-.3.3-.4.6-.4 1s.1.7.4 1c.3.3.5.7.6 1.2s.3 1 .3 1.5v12c0 .4-.1 1-.4 1.5-.2.6-.5 1-.9 1.3l-1.1 1.2c-.3.4-.7.6-1.3.9-.6.2-1.1.3-1.5.3h-.2c-.5 0-.9.1-1.2.4-.3.3-.5.6-.5 1.1 0 .4-.2.8-.5 1.1-.3.3-.7.4-1.2.4h-1.2c-.4 0-.8-.2-1.2-.5-.3-.3-.5-.7-.5-1.2V79.8c0-.4.2-.8.5-1.2s.7-.5 1.1-.5h8.2c.5 0 .9.2 1.2.5.3.3.5.7.5 1.2v14.9zm-7.2 0c0 .5.1.9.4 1.2.3.3.6.5.9.5.4 0 .7-.2.9-.5s.4-.7.4-1.2V84.3c0-.4-.1-.8-.4-1.2s-.6-.5-.9-.5c-.4 0-.7.2-.9.5-.3.3-.4.7-.4 1.2v10.4zm2.7 7.7c0-.4-.1-.8-.4-1.2-.3-.3-.6-.5-1-.5s-.7.2-.9.5c-.3.3-.4.7-.4 1.2v10.8c0 .4.1.8.4 1.2.3.3.6.5.9.5.4 0 .7-.2 1-.5s.4-.7.4-1.2v-10.8zm5.9-22.6c0-.5.2-.8.5-1.2.3-.3.7-.5 1.2-.5h15.7c.4 0 .8.2 1.2.5.3.3.5.7.5 1.2v1.1c0 .5-.2.9-.5 1.2-.3.3-.7.5-1.2.5h-15.7c-.4 0-.8-.2-1.2-.5-.3-.3-.5-.7-.5-1.2v-1.1zm0 11.7c0-.5.2-.9.5-1.2s.7-.5 1.2-.5h15.7c.4 0 .8.2 1.2.5.3.3.5.7.5 1.2v1.1c0 .4-.2.8-.5 1.2-.3.3-.7.5-1.2.5h-4.2c-.4 0-.8.2-1.2.5-.3.3-.5.7-.5 1.2v21c0 .4-.1 1-.3 1.5-.2.6-.5 1-.8 1.4l-.9 1c-.3.4-.7.7-1.1.9-.4.3-.8.4-1 .4-.3 0-.5-.2-.7-.5s-.3-.7-.3-1.2v-1.1c0-.5.1-.9.2-1.2.1-.3.2-.5.4-.5s.3-.2.4-.5c.1-.3.1-.7.1-1.2V95.9c0-.4-.2-.8-.5-1.2-.3-.3-.7-.5-1.2-.5h-4.2c-.4 0-.8-.2-1.2-.5s-.4-.7-.4-1.1v-1.1zm0 28c0-.5 0-.9.1-1.2.1-.3.2-.5.4-.5s.3-.2.4-.5c.1-.3.2-.7.2-1.2V99.2c0-.4.2-.8.5-1.2.3-.3.7-.5 1.2-.5h1.1c.4 0 .8.2 1.2.5.3.3.5.7.5 1.2V117c0 .4-.1 1-.3 1.5-.2.6-.5 1-.8 1.4l-.9 1c-.3.4-.7.7-1.1.9-.5.3-.9.4-1.2.4-.4 0-.6-.2-.9-.5-.2-.3-.3-.7-.3-1.2v-1zm16.1-22c.5 0 .9.2 1.2.5s.5.7.5 1.2v16.9c0 .5.1.9.2 1.2.1.3.2.5.4.5s.3.2.4.5c.1.3.1.7.1 1.2v1.1c0 .4-.1.8-.4 1.2s-.5.5-.9.5c-.3 0-.7-.1-1.1-.4-.5-.3-.8-.6-1.2-.9l-.9-1c-.3-.4-.6-.8-.8-1.4-.2-.6-.3-1.1-.3-1.5V99.2c0-.4.2-.8.5-1.2.3-.3.7-.5 1.2-.5h1.1zm14.6 16.8c.5 0 .9-.2 1.2-.5.3-.3.5-.7.5-1.2V104c0-.4-.2-.8-.5-1.2-.3-.3-.7-.5-1.2-.5h-5.4c-.4 0-.8-.2-1.2-.5-.3-.3-.5-.7-.5-1.2v-1.1c0-.5.2-.9.5-1.2.3-.4.7-.5 1.2-.5h5.4c.5 0 .9-.2 1.2-.5.3-.3.5-.7.5-1.1v-8.6c0-.4-.2-.8-.5-1.1-.3-.3-.7-.5-1.2-.5h-5.4c-.4 0-.8-.2-1.2-.5-.3-.4-.5-.8-.5-1.2v-1.1c0-.5.2-.8.5-1.2.3-.3.7-.5 1.2-.5h5.4c.5 0 .9-.2 1.2-.5.3-.3.5-.7.5-1.2 0-.4.2-.8.5-1.1.3-.3.7-.5 1.2-.5h1.1c.5 0 .9.2 1.2.5.3.3.5.7.5 1.2v40.8c0 .4-.2.8-.5 1.2-.3.3-.7.5-1.2.5h-1.1c-.5 0-.8-.2-1.2-.5s-.5-.7-.5-1.2v-.2c0-.4-.2-.8-.5-1.2-.3-.3-.7-.5-1.2-.5h-5.4c-.4 0-.8-.2-1.2-.5-.3-.3-.5-.7-.5-1.2V116c0-.5.2-.8.5-1.2.3-.3.7-.5 1.2-.5h5.4zm15.9-34.5c0 .4.2.8.5 1.2.3.3.7.5 1.2.5h5.4c.5 0 .9.2 1.2.5.3.3.5.7.5 1.2v1.1c0 .5-.2.9-.5 1.2-.3.4-.7.5-1.2.5h-5.4c-.5 0-.9.2-1.2.5-.3.3-.5.7-.5 1.1v8.6c0 .4.2.8.5 1.1.3.3.7.5 1.2.5h5.4c.5 0 .9.2 1.2.5.3.4.5.8.5 1.2v1.1c0 .5-.2.8-.5 1.2-.3.3-.7.5-1.2.5h-5.4c-.5 0-.9.2-1.2.5-.3.4-.5.7-.5 1.2v8.7c0 .4.2.8.5 1.2.3.3.7.5 1.2.5h5.4c.5 0 .9.2 1.2.5.3.3.5.7.5 1.2v1.1c0 .5-.2.8-.5 1.2-.3.3-.7.5-1.2.5h-5.4c-.5 0-.9.2-1.2.5-.3.3-.5.7-.5 1.2v.2c0 .4-.2.8-.5 1.2-.3.3-.7.5-1.2.5h-1.1c-.5 0-.8-.2-1.2-.5s-.5-.7-.5-1.2v-41c0-.4.2-.8.5-1.2.3-.3.7-.5 1.2-.5h1.1c.5 0 .9.2 1.2.5.4.4.5.8.5 1.2zm17.7 28.2c.5 0 .9-.2 1.2-.5.3-.3.5-.7.5-1.2V91.4c0-.5-.1-.9-.3-1.2-.2-.3-.4-.5-.7-.5-.3 0-.6-.1-1.1-.3-.4-.2-.8-.5-1.2-.8l-1-.9c-.4-.3-.7-.7-.9-1.3-.3-.5-.4-1.1-.4-1.5v-4.3c0-.4.2-.8.5-1.2.3-.3.7-.5 1.2-.5h1.2c.5 0 .9.2 1.2.5.3.3.5.7.5 1.2v2.9c0 .4 0 .8.1 1.2.1.3.2.5.4.5s.3-.2.4-.5c.1-.3.1-.7.1-1.2v-3.8c0-.4.2-.8.5-1.1s.7-.5 1.2-.5h1.1c.4 0 .8.2 1.2.5.3.3.5.7.5 1.1v3.8c0 .4.1.8.4 1.2s.5.5.8.5c.4 0 .7.2.9.5.3.3.4.7.4 1.2V88c0 .5-.1.9-.4 1.2-.3.3-.6.5-.9.5-.3 0-.6.2-.8.5-.2.3-.4.7-.4 1.2v14.9c0 .5.1.9.4 1.2.2.3.5.5.8.5.4 0 .7.2.9.5.3.3.4.7.4 1.2v1.1c0 .4-.1.8-.4 1.2-.3.3-.6.5-.9.5-.3 0-.6.2-.8.5-.2.3-.4.7-.4 1.2v6.5c0 .4-.2.8-.5 1.2-.3.3-.7.5-1.2.5h-1.1c-.5 0-.9-.2-1.2-.5s-.5-.7-.5-1.2v-6.5c0-.4-.2-.8-.5-1.2-.3-.3-.7-.5-1.2-.5h-2.2c-.4 0-.8-.2-1.2-.5-.3-.3-.5-.7-.5-1.2v-1.1c0-.5.2-.9.5-1.2.3-.3.7-.5 1.2-.5h2.2zm15.1 9c0 .4-.1 1-.4 1.5-.2.6-.5 1-.8 1.3L465 121c-.3.4-.7.6-1.2.9-.5.2-.9.3-1.3.3-.3 0-.6-.2-.8-.5s-.4-.7-.4-1.2v-1.1c0-.5.1-.9.2-1.2.2-.3.4-.5.6-.5.3 0 .5-.2.6-.5.1-.3.2-.7.2-1.2V89.9c0-.5.2-.9.5-1.2.3-.3.7-.5 1.2-.5h1.1c.4 0 .8.2 1.2.5s.5.7.5 1.2V117zm10.3 5.3c-.5 0-.9-.2-1.2-.5s-.5-.7-.5-1.2V85.9c0-.4-.2-.8-.5-1.2s-.7-.5-1.2-.5H467c-.5 0-1-.1-1.5-.3-.5-.2-1-.5-1.3-.8l-1.2-1.2c-.4-.4-.6-.8-.9-1.2-.2-.5-.3-.9-.3-1.2 0-.3.2-.6.5-.9.3-.3.7-.4 1.2-.4h1.1c.5 0 .9.1 1.2.2s.5.3.5.6c0 .2.2.4.5.6.3.2.7.2 1.2.2h10.9c.4 0 .8.2 1.2.5.3.3.5.7.5 1.2v39.1c0 .4-.2.8-.5 1.2-.3.3-.7.5-1.2.5h-1.2zm-8.6-4.5c.3 0 .5-.2.6-.5.1-.3.2-.7.2-1.2V89.9c0-.5.2-.9.5-1.2s.7-.5 1.2-.5h1.1c.5 0 .9.2 1.2.5s.5.7.5 1.2V117c0 .4-.1 1-.4 1.5-.2.6-.5 1-.8 1.3L472 121c-.3.4-.8.6-1.2.9s-.9.3-1.2.3c-.4 0-.6-.2-.9-.5-.2-.3-.4-.7-.4-1.2v-1.1c0-.5.1-.9.2-1.2.2-.2.3-.4.6-.4zm16 1.7c0-.5.1-.9.3-1.2.2-.3.4-.5.8-.5.3 0 .5-.2.6-.5.2-.3.3-.7.3-1.2V81.6c0-.4.2-.8.5-1.2.4-.3.8-.5 1.2-.5h22.5c.4 0 .8-.1 1.2-.2s.5-.4.5-.6c0-.3.2-.5.5-.6s.8-.2 1.2-.2h1.1c.5 0 .8.1 1.2.3.3.2.5.5.5.7s-.1.7-.3 1.1-.5.9-.8 1.2l-1 1c-.3.4-.7.7-1.3.9-.6.3-1.1.4-1.5.4h-3.3c-.5 0-.9.2-1.2.5-.3.3-.5.7-.5 1.2v1.2c0 .5.2.9.5 1.2.3.3.8.5 1.2.5h6.5c.5 0 .9.2 1.2.5.3.3.5.7.5 1.2v1.1c0 .4-.2.8-.5 1.2-.3.3-.7.5-1.2.5h-6.5c-.5 0-.9.2-1.2.5-.3.3-.5.7-.5 1.2v.2c0 .5.2.9.5 1.2.3.3.8.5 1.2.5h6.5c.5 0 .9.2 1.2.5.3.3.5.8.5 1.2V112c0 .4-.2.8-.5 1.2s-.7.5-1.2.5h-1.1c-.5 0-.8-.2-1.2-.5s-.5-.7-.5-1.2v-9.3c0-.4-.2-.8-.5-1.2-.4-.3-.8-.5-1.2-.5h-11.8c-.5 0-.9.2-1.2.5s-.5.7-.5 1.2v10.1c0 .5-.2.9-.5 1.2-.3.3-.7.5-1.2.5H495c-.5 0-.9-.2-1.2-.5-.3-.3-.5-.7-.5-1.2V98.3c0-.5.2-.9.5-1.2s.7-.5 1.2-.5h6.3c.5 0 .9-.2 1.2-.5.3-.3.5-.7.5-1.2v-.2c0-.5-.2-.9-.5-1.2-.3-.3-.7-.5-1.3-.5h-8.1c-.5 0-.8.2-1.2.5-.3.3-.5.7-.5 1.2v22.4c0 .5-.1 1-.3 1.6-.2.6-.5 1-.9 1.3l-1.2 1.2c-.3.4-.7.6-1.2.9s-1 .3-1.3.3c-.4 0-.8-.2-1.1-.5-.3-.3-.4-.7-.4-1.2v-1.2zm8.2-35.6c-.5 0-.8.2-1.2.5-.3.3-.5.7-.5 1.2v1.2c0 .5.2.9.5 1.2.3.3.7.5 1.2.5h8.1c.5 0 .9-.2 1.3-.5.3-.3.5-.7.5-1.2v-1.2c0-.5-.2-.8-.5-1.2-.3-.3-.7-.5-1.3-.5h-8.1zm12.7 19c.4 0 .8.2 1.2.5.3.3.5.7.5 1.2v3.1c0 .5.1 1.1.3 1.7.2.6.4 1.1.7 1.5l3.9 5.6c.3.4.7.7 1.2 1s1 .4 1.5.4h.5c.5 0 .9.2 1.2.5.3.3.5.7.5 1.2v1.1c0 .5-.2.9-.5 1.2-.3.3-.7.5-1.2.5h-2.9c-.5 0-1-.1-1.5-.4-.5-.3-.9-.6-1.2-1l-3.8-5.4c-.3-.4-.6-.6-1-.6s-.7.2-1 .6l-3.8 5.4c-.3.4-.7.8-1.2 1-.5.3-1 .4-1.5.4h-3c-.5 0-.9-.2-1.2-.5-.3-.3-.5-.7-.5-1.2v-1.1c0-.4.2-.8.5-1.2.3-.3.7-.5 1.2-.5h.6c.4 0 .9-.1 1.5-.4.5-.2.9-.6 1.2-1l3.8-5.6c.3-.4.5-.9.7-1.5.2-.6.3-1.2.3-1.7v-3.1c0-.4.2-.8.5-1.2.3-.3.7-.5 1.2-.5h1.3zm48.1-23.4c0 .4-.1.8-.3 1.3-.2.5-.5.9-.9 1.3l-1.2 1.1c-.3.4-.7.6-1.3.9-.6.2-1.1.3-1.6.3h-25.3c-.4 0-.8-.2-1.2-.5-.3-.3-.5-.7-.5-1.2v-1.1c0-.5.2-.9.5-1.2.3-.3.7-.5 1.2-.5h24.4c.5 0 .9-.1 1.2-.2.3-.2.5-.4.5-.6s.2-.5.5-.6c.3-.2.7-.2 1.2-.2h1.1c.5 0 .9.1 1.2.4.3.1.5.4.5.8zm-.1 10.6c0 .5-.2.8-.5 1.2-.3.3-.7.5-1.2.5h-28.4c-.5 0-.9-.2-1.2-.5s-.5-.7-.5-1.2V89c0-.5.2-.8.5-1.2s.7-.5 1.2-.5h28.4c.5 0 .9.2 1.2.5.3.3.5.7.5 1.2v1.1zm.1 30.5c0 .5-.2.8-.5 1.2-.3.3-.7.5-1.2.5h-3.9c-.4 0-.9-.1-1.5-.3-.6-.2-1.1-.5-1.5-.7l-5.8-4.3c-.4-.3-.8-.4-1.4-.4-.5 0-1 .2-1.3.4l-5.6 4.3c-.4.3-.9.5-1.5.7-.6.2-1.1.3-1.6.3h-4.4c-.5 0-.9-.2-1.2-.5-.3-.3-.5-.7-.5-1.2v-1.1c0-.5.2-.9.5-1.2.3-.3.7-.5 1.2-.5h3c.4 0 1-.1 1.6-.3.6-.2 1.1-.5 1.5-.7l3.3-2.6c.4-.3.5-.6.5-1s-.2-.7-.5-1l-6.6-4.9c-.4-.3-.7-.6-1-1.2-.3-.5-.4-1-.4-1.5v-9.2c0-.5.2-.9.5-1.2.3-.3.7-.5 1.2-.5h1.1c.5 0 .9.2 1.2.5.3.3.5.7.5 1.2v6.7c0 .5.1 1 .4 1.5.3.5.6.9.9 1.2l5.8 4.4c.4.3.8.4 1.3.4s1-.1 1.4-.4l5.6-4.4c.4-.3.7-.6.9-1.2.3-.5.4-1 .4-1.5v-6.7c0-.5.2-.9.5-1.2.3-.3.7-.5 1.2-.5h1.1c.5 0 .8.2 1.2.5.3.3.5.7.5 1.2v9.2c0 .4-.1.9-.4 1.5-.3.5-.6.9-1 1.2l-6.3 4.8c-.4.3-.6.6-.6 1s.2.7.6 1l3.5 2.7c.4.3.9.5 1.5.7.6.2 1.2.3 1.6.3h2.5c.5 0 .9.2 1.2.5.3.3.5.7.5 1.2v1.1zm8.8 1.6c-.5 0-.9-.2-1.2-.5-.3-.3-.5-.7-.5-1.2V95.3c0-.5-.1-.9-.4-1.2-.3-.3-.6-.5-.9-.5-.4 0-.7-.2-.9-.5-.3-.3-.4-.7-.4-1.2v-1.1c0-.5.2-.9.5-1.2.3-.3.7-.5 1.2-.5h1.1c.4 0 .8-.2 1.2-.5.3-.3.5-.7.5-1.2v-7.7c0-.4.2-.8.5-1.2.3-.3.7-.5 1.2-.5h1.1c.4 0 .8.2 1.2.5.3.3.5.7.5 1.2v8.6c0 .5-.1 1-.3 1.4-.2.5-.4.8-.6 1.1-.2.3-.5.6-.6 1.1-.2.5-.3 1-.3 1.4v27c0 .4-.2.8-.5 1.2-.3.3-.7.5-1.2.5h-1.2zm16.4-6.1c0 .5.2.9.5 1.2.3.3.7.5 1.2.5h7.8c.5 0 .8.2 1.2.5.3.3.5.7.5 1.2v1.1c0 .4-.2.8-.5 1.2s-.7.5-1.2.5h-8.7c-.4 0-1-.1-1.5-.3-.6-.2-1-.5-1.3-.9l-1.2-1.2c-.4-.3-.6-.7-.9-1.3-.2-.6-.3-1.1-.3-1.5v-13c0-.4-.2-.8-.5-1.2-.3-.3-.7-.5-1.2-.5h-1.8c-.4 0-.8-.2-1.2-.5-.3-.3-.5-.7-.5-1.2v-1.1c0-.5.2-.9.5-1.2.3-.3.7-.5 1.2-.5h1.8c.4 0 .8-.2 1.2-.5.3-.3.5-.7.5-1.2V79.8c0-.4.2-.8.5-1.1.3-.3.7-.5 1.2-.5h1.2c.4 0 .8.2 1.2.5.3.3.5.7.5 1.1v16.5c0 .4.2.8.5 1.2.3.3.7.5 1.2.5h3.3c.4 0 .8-.2 1.2-.5.3-.3.5-.7.5-1.2V79.8c0-.4.2-.8.5-1.1.3-.3.7-.5 1.2-.5h1.1c.5 0 .8.2 1.2.5.3.3.5.7.5 1.2v17.4c0 .5-.1 1-.3 1.5-.2.5-.5 1-.8 1.3l-1.2 1.2c-.3.3-.8.6-1.3.8s-1.1.4-1.5.4H581c-.5 0-.9.2-1.2.5-.3.3-.5.7-.5 1.2v11.9zm17.4-23.8c0-.5-.1-.9-.2-1.2s-.3-.5-.5-.5-.4-.2-.5-.5c-.1-.3-.2-.7-.2-1.2v-1.2c0-.4.1-.8.3-1.2.2-.3.5-.5.8-.5h3.1c.4 0 .8.2 1.2.5.4.3.5.7.5 1.2v23.7c0 .5.1 1 .3 1.5.2.5.5.9.7 1.2.3.3.6.4.8.2.2-.1.3-.4.3-.9v-.2c0-.4.2-.8.5-1.2.3-.3.7-.5 1.2-.5h3.3c.4 0 .9-.1 1.4-.4.5-.3.9-.6 1.2-1l1-1.2c.3-.4.5-.8.7-1.3.2-.5.3-.9.3-1.2 0-.3.2-.6.5-.8.3-.2.7-.3 1.2-.3h1.1c.5 0 .9.1 1.2.3.3.2.5.5.5.8 0 .3.1.7.3 1.1.2.5.5.9.7 1.2l1.3 1.4c.3.4.7.6 1.3.9.5.2 1 .4 1.5.4h3.4c.5 0 .9.2 1.2.5.3.3.5.7.5 1.2v1.2c0 .4-.2.8-.5 1.2-.3.3-.7.5-1.2.5h-5.3c-.4 0-.9-.1-1.5-.4-.5-.2-1-.5-1.3-.9l-1.2-1.4c-.4-.3-.7-.5-1.1-.5-.4 0-.7.2-1 .6l-1 1.2c-.3.4-.7.7-1.2 1-.5.3-1 .4-1.5.4h-4.7c-.4 0-.7.1-.9.2-.1.2-.1.4.2.6.3.3.6.5 1.2.6.5.2 1 .3 1.5.3h17.8c.5 0 .9.2 1.2.5.3.3.5.7.5 1.2v1.1c0 .4-.2.8-.5 1.2s-.7.5-1.2.5h-19.6c-.4 0-1-.1-1.5-.3-.6-.2-1-.5-1.3-.8l-1.2-1.1c-.4-.4-.8-.5-1.2-.5-.5 0-.9.2-1.2.5l-1 1c-.4.4-.8.6-1.2.9s-.8.3-1.2.3c-.3 0-.5-.2-.8-.5-.2-.3-.3-.7-.3-1.2v-1.1c0-.5.1-.9.2-1.2.1-.3.3-.5.5-.5s.4-.1.5-.3.2-.5.2-.9V92.3zm2.9-9c-.3.4-.7.5-1.1.5s-.9-.2-1.2-.5l-.8-.8c-.3-.4-.5-.8-.5-1.2s.2-.8.5-1.2l.8-.8c.4-.3.8-.5 1.2-.5s.8.2 1.1.5l.8.8c.4.4.5.8.5 1.2s-.2.8-.5 1.2l-.8.8zm26.2-3c.5 0 .9.2 1.2.5.3.4.5.8.5 1.2v5.4c0 .5-.1 1-.3 1.5-.2.5-.5 1-.8 1.3l-1.3 1.2c-.4.4-.8.6-1.4.9-.5.2-1 .3-1.5.3h-3.1c-.5 0-.9.1-1.2.2s-.5.3-.5.5.2.3.5.4.7.2 1.2.2h6.7c.5 0 .9.2 1.2.5.3.3.5.7.5 1.2v1.1c0 .4-.2.8-.5 1.2-.3.3-.7.5-1.2.5h-20.7c-.4 0-.8-.2-1.2-.5-.3-.3-.5-.7-.5-1.2v-1.1c0-.5.2-.9.5-1.2.3-.3.7-.5 1.2-.5h6.2c.4 0 .8-.1 1.2-.2.3-.1.5-.3.5-.4 0-.2-.2-.4-.5-.5-.3-.1-.7-.2-1.2-.2H605c-.4 0-.8-.2-1.2-.5-.3-.3-.5-.7-.5-1.2V82c0-.4.2-.8.5-1.2.3-.4.7-.5 1.2-.5h6.2c.4 0 .8-.1 1.2-.3.3-.2.5-.4.5-.7 0-.3.2-.5.5-.8.3-.2.7-.3 1.2-.3h1.2c.5 0 .9.1 1.2.3.3.2.5.5.5.8 0 .3.2.5.5.7.3.2.7.3 1.2.3h6.6zm-1.2 30c-.5 0-.8-.2-1.2-.5-.3-.3-.5-.7-.5-1.2v-2.8c0-.4-.2-.8-.5-1.2-.3-.3-.7-.5-1.2-.5h-11.8c-.4 0-.8.2-1.2.5-.3.3-.5.7-.5 1.2v2.8c0 .4-.2.8-.5 1.2-.3.3-.7.5-1.2.5h-1.1c-.5 0-.8-.2-1.2-.5s-.5-.7-.5-1.2v-7.2c0-.4.2-.8.5-1.2.3-.3.7-.5 1.2-.5h20.7c.5 0 .9.2 1.2.5.3.3.5.7.5 1.2v7.2c0 .4-.2.8-.5 1.2-.3.3-.7.5-1.2.5h-1zm-13.3-22.2c.4 0 .8-.2 1.1-.5.3-.3.5-.7.5-1.2v-.1c0-.4-.2-.8-.5-1.2-.3-.3-.7-.5-1.1-.5h-1.8c-.4 0-.8.2-1.2.5-.3.3-.5.7-.5 1.2v.1c0 .5.2.9.5 1.2s.7.5 1.2.5h1.8zm10 0c.4 0 .8-.2 1.2-.5s.5-.7.5-1.2v-.1c0-.4-.2-.8-.5-1.2-.3-.3-.7-.5-1.2-.5H619c-.5 0-.9.2-1.2.5-.3.3-.5.7-.5 1.2v.1c0 .5.2.9.5 1.2.3.3.7.5 1.2.5h2.3zm17.8 3.4c-.2 0-.4.2-.5.5-.2.3-.3.7-.3 1.2v27.4c0 .4-.2.8-.5 1.2-.3.3-.7.5-1.2.5h-1.1c-.5 0-.9-.2-1.2-.5-.3-.3-.5-.7-.5-1.2V93.2c0-.4-.1-.8-.3-1.2-.2-.3-.4-.5-.6-.5s-.5-.2-.6-.5-.2-.7-.2-1.1v-1.2c0-.5.1-.9.2-1.2.2-.3.4-.5.6-.5s.5-.2.6-.5c.2-.3.3-.7.3-1.2v-5.6c0-.4.2-.8.5-1.2.3-.3.7-.5 1.2-.5h1.1c.5 0 .8.2 1.2.5.3.3.5.7.5 1.2v5.6c0 .4.1.8.3 1.2.2.3.3.5.5.5s.5.2.6.5c.2.3.3.7.3 1.2v1.2c0 .4-.1.8-.3 1.1s-.4.5-.6.5zm18.7 21.3c0-.4-.2-.8-.5-1.2-.4-.3-.8-.5-1.2-.5h-14.2c-.4 0-.8-.2-1.2-.5-.4-.3-.5-.7-.5-1.2v-.7c0-.4.2-.8.5-1.2.4-.4.8-.5 1.2-.5H656c.4 0 .8-.1 1.2-.2.4-.1.5-.3.5-.5s.2-.4.5-.5c.3-.1.7-.2 1.2-.2h1.1c.5 0 .8.1 1.2.2.3.1.5.3.5.5s.1.4.3.5c.2.1.4.2.6.2.3 0 .5.2.7.5.2.4.3.8.3 1.2v.7c0 .4-.1.8-.3 1.2-.2.3-.4.5-.7.5-.2 0-.4.2-.6.5-.2.3-.3.7-.3 1.2v7.8c0 .4-.2.8-.5 1.2s-.7.5-1.2.5h-11.2c-.4 0-.8-.2-1.2-.5-.4-.3-.5-.7-.5-1.2v-.7c0-.4.2-.8.5-1.2.4-.3.8-.5 1.2-.5h6.7c.4 0 .8-.2 1.2-.5.4-.3.5-.7.5-1.2v-3.7zm-3 2.6c0 .5-.2.8-.5 1.2-.3.3-.7.5-1.2.5h-10.7c-.4 0-.8-.2-1.2-.5s-.5-.7-.5-1.2v-1.9c0-.4.2-.8.5-1.2.3-.3.7-.5 1.2-.5h1.1c.4 0 .8 0 1.1.1.3.1.5.2.5.4s.2.3.5.5c.3.1.7.2 1.2.2h6.3c.4 0 .8.2 1.2.5.3.3.5.7.5 1.2v.7zm-9.3-11.2c0 .3-.2.5-.5.7-.3.2-.7.3-1.2.3h-1.1c-.4 0-.8-.2-1.2-.5-.3-.3-.5-.7-.5-1.2V87.7c0-.4.2-.8.5-1.2.4-.3.8-.5 1.2-.5h6c.4 0 .8-.1 1.2-.3.3-.2.5-.4.5-.6 0-.3-.2-.5-.5-.7-.3-.2-.7-.3-1.2-.3h-6c-.4 0-.8-.2-1.2-.5-.4-.3-.5-.7-.5-1.2v-1.1c0-.4.2-.8.5-1.2.4-.4.8-.5 1.2-.5h6c.4 0 .8-.1 1.2-.2.3-.1.5-.3.5-.6s.2-.4.5-.6c.3-.1.7-.2 1.2-.2h1.1c.4 0 .8.1 1.2.2.3.1.5.3.5.6 0 .2.2.4.5.6.3.1.7.2 1.2.2h1.5c.5 0 .9-.1 1.2-.2.3-.1.5-.3.5-.6s.2-.4.5-.6c.3-.1.7-.2 1.2-.2h1.1c.4 0 .8.1 1.2.4.3.2.5.5.5.9v3.1c0 .4-.2.8-.5 1.2-.3.3-.7.5-1.2.5h-6c-.4 0-.8.1-1.2.3-.3.2-.5.4-.5.7 0 .3.2.5.5.6.3.2.7.3 1.2.3h6c.5 0 .8.2 1.2.5.3.3.5.7.5 1.2v15.7c0 .4-.2.8-.5 1.2-.3.3-.7.5-1.2.5h-1.1c-.5 0-.9-.1-1.2-.3s-.5-.4-.5-.7c0-.3-.2-.5-.5-.7-.3-.2-.7-.3-1.2-.3h-1.5c-.5 0-.8.1-1.2.3-.3.2-.5.4-.5.7 0 .3-.2.5-.5.7-.3.2-.7.3-1.2.3H652c-.4 0-.8-.1-1.2-.3s-.5-.4-.5-.7c0-.3-.2-.5-.5-.7-.3-.2-.7-.3-1.2-.3h-1.5c-.5 0-.8.1-1.2.3-.3.2-.4.5-.4.8zm1.7-13.6c-.5 0-.8.1-1.2.4s-.5.6-.5.9c0 .4.2.7.5 1s.7.4 1.2.4h1.5c.5 0 .8-.1 1.2-.4s.5-.6.5-1-.2-.7-.5-.9-.7-.4-1.2-.4h-1.5zm1.5 9c.5 0 .8-.1 1.2-.4.3-.3.5-.6.5-.9 0-.4-.2-.7-.5-1s-.7-.4-1.2-.4h-1.5c-.5 0-.8.1-1.2.4s-.5.6-.5 1 .2.7.5.9c.3.3.7.4 1.2.4h1.5zm7.7-9c-.5 0-.8.1-1.2.4s-.5.6-.5.9c0 .4.2.7.5 1s.7.4 1.2.4h1.5c.5 0 .9-.1 1.2-.4s.5-.6.5-1-.2-.7-.5-.9-.7-.4-1.2-.4h-1.5zm1.5 9c.5 0 .9-.1 1.2-.4.3-.3.5-.6.5-.9 0-.4-.2-.7-.5-1s-.7-.4-1.2-.4h-1.5c-.5 0-.8.1-1.2.4s-.5.6-.5 1 .2.7.5.9c.3.3.7.4 1.2.4h1.5zm12.5-4c-.4 0-.8-.2-1.2-.5-.3-.3-.5-.7-.5-1.2V79.8c0-.4.2-.8.5-1.2.3-.3.7-.5 1.2-.5h1.2c.5 0 .9.2 1.2.5.3.3.5.7.5 1.2v14.1c0 .5-.2.9-.5 1.2-.3.3-.7.5-1.2.5h-1.2zm30.4 16.6c0 .4-.2.8-.5 1.2-.3.3-.7.5-1.2.5H698c-.5 0-.9 0-1.2-.1s-.5-.1-.5-.2v-9.5c0-.4-.2-.8-.5-1.2-.3-.3-.7-.5-1.2-.5h-19.8c-.5 0-.9.2-1.2.5-.3.3-.5.7-.5 1.2v8.1c0 .4-.2.8-.5 1.2-.3.3-.7.5-1.2.5h-1.2c-.4 0-.8-.2-1.2-.5-.3-.3-.5-.7-.5-1.2V99.7c0-.5.1-.9.3-1.2.2-.3.5-.5.7-.5h29.4c.4 0 .8.2 1.2.5.3.3.5.7.5 1.2v12.5zm0 8.4c0 .4-.2.8-.5 1.2-.3.3-.7.5-1.2.5h-9c-.4 0-1-.1-1.5-.3s-1-.5-1.4-.9l-1.1-1.2c-.4-.3-.6-.7-.9-1.3-.2-.6-.3-1.1-.3-1.5 0-.4-.1-.7-.4-.8s-.5 0-.9.4l-4.8 4.6c-.4.3-.8.6-1.4.8s-1.1.3-1.5.3h-5.6c-.4 0-.8-.2-1.2-.5-.3-.3-.5-.7-.5-1.2v-1.1c0-.5.2-.9.5-1.2.3-.3.7-.5 1.2-.5h3.8c.5 0 1-.1 1.6-.3.6-.2 1-.5 1.4-.8l4.2-4c.4-.4.7-.8.9-1.3s.4-1.1.4-1.5v-3.3c0-.5.2-.9.5-1.2.3-.3.7-.5 1.2-.5h1.1c.5 0 .8.2 1.2.5.3.3.5.7.5 1.2v4c0 .4.1.8.3 1.2.2.3.5.5.9.5.3 0 .6.2.8.5.2.3.4.7.4 1.2v2.3c0 .5.2.9.5 1.2.3.3.7.5 1.2.5h8.1c.4 0 .8.2 1.2.5.3.3.5.7.5 1.2v.8zm-22.4-25c-.5 0-.9-.2-1.2-.5-.3-.3-.5-.7-.5-1.2V79.8c0-.4.2-.8.5-1.2.3-.3.7-.5 1.2-.5h1.1c.4 0 .8.2 1.2.5.3.3.5.7.5 1.2v14.1c0 .5-.2.9-.5 1.2-.3.3-.7.5-1.2.5h-1.1zm22.4-14.7c0 .5-.2.9-.5 1.2-.3.3-.7.5-1.2.5h-7.6c-.4 0-.8.2-1.2.5s-.5.7-.5 1.2v6c0 .4-.1 1-.3 1.5-.2.6-.5 1-.9 1.3l-1.2 1.2c-.3.4-.7.6-1.1.9s-.8.4-1.1.4c-.4 0-.6-.2-.8-.5-.2-.3-.3-.7-.3-1.2v-1.1c0-.5.1-.9.2-1.2.1-.3.3-.5.5-.5s.4-.2.5-.5.2-.7.2-1.2v-9.6c0-.4.2-.8.5-1.2.3-.3.7-.5 1.2-.5h12c.4 0 .8.2 1.2.5.3.3.5.7.5 1.2v1.1zm0 12.9c0 .5-.2.9-.5 1.2-.3.3-.7.5-1.2.5h-.5c-.5 0-1-.1-1.5-.4-.6-.2-1-.5-1.4-.9l-1.2-1.2c-.3-.3-.6-.8-.8-1.3-.2-.6-.3-1.1-.3-1.5v-4.1c0-.5.2-.9.5-1.2.3-.3.7-.5 1.2-.5h1.1c.5 0 .8.2 1.2.5.3.3.5.7.5 1.2v3.2c0 .4.1.8.4 1.2.3.3.6.5 1.1.5.4 0 .8.2 1.1.5.3.3.4.7.4 1.2v1.1zm4.7-14c0-.4.2-.8.5-1.2.3-.3.7-.5 1.2-.5H736c.4 0 .8.2 1.2.5.3.3.5.7.5 1.2V117c0 .4-.1 1-.3 1.5-.2.6-.5 1-.8 1.3l-1.2 1.2c-.4.4-.8.6-1.4.9-.6.2-1.1.3-1.5.3h-25.2c-.4 0-.8-.1-1.2-.2-.3-.1-.5-.3-.5-.5V79.8zm27.5 4.5c0-.4-.2-.8-.5-1.2-.3-.3-.7-.5-1.2-.5h-19.7c-.5 0-.9.2-1.2.5-.3.3-.5.7-.5 1.2v31.8c0 .5.2.9.5 1.2.3.3.7.5 1.2.5h19.7c.5 0 .9-.2 1.2-.5.3-.3.5-.7.5-1.2V84.3zm-1.8 4.8c0 .4-.2.8-.5 1.2-.3.3-.7.5-1.2.5h-16.2c-.4 0-.8-.2-1.2-.5-.3-.3-.5-.7-.5-1.2V88c0-.4.2-.8.5-1.2.3-.3.7-.5 1.2-.5h16.2c.4 0 .8.2 1.2.5.3.3.5.7.5 1.2v1.1zm-18.1 21.5c.4 0 .8-.2 1.1-.5.3-.3.4-.7.4-1.2v-7c0-.4-.1-.8-.4-1.2-.3-.3-.7-.5-1.1-.5-.4 0-.7-.2-1-.5s-.4-.7-.4-1.2v-1.2c0-.4.2-.8.5-1.2.3-.3.7-.5 1.2-.5h16.3c.4 0 .8.2 1.2.5.3.3.5.7.5 1.2v1.2c0 .4-.1.8-.4 1.2-.3.3-.6.5-1 .5s-.7.2-1 .5c-.3.3-.5.7-.5 1.2v7c0 .5.2.9.5 1.2.3.3.6.5 1 .5s.8.2 1 .5c.3.3.4.7.4 1.2v1.1c0 .5-.2.9-.5 1.2-.3.3-.7.5-1.2.5h-.5c-.4 0-.9-.1-1.5-.3-.5-.2-1-.5-1.3-.9l-1.3-1.2c-.3-.3-.6-.8-.8-1.3-.2-.6-.3-1.1-.3-1.5V102c0-.4-.2-.8-.5-1.2-.3-.3-.7-.5-1.2-.5h-1.4c-.5 0-.9.2-1.2.5-.3.3-.5.7-.5 1.2v7.9c0 .4-.1 1-.3 1.5-.2.6-.5 1-.8 1.3l-1.2 1.2c-.4.4-.8.6-1.4.9-.5.2-1.1.3-1.5.3h-.5c-.4 0-.8-.2-1.2-.5-.3-.3-.5-.7-.5-1.2v-1.1c0-.5.1-.9.4-1.2.2-.3.6-.5.9-.5z" fill="#1d2084"/></svg>