<?xml version="1.0" encoding="utf-8"?>
<!-- Generator: Adobe Illustrator 19.0.0, SVG Export Plug-In . SVG Version: 6.00 Build 0)  -->
<svg version="1.1" id="图层_1" xmlns="http://www.w3.org/2000/svg" xmlns:xlink="http://www.w3.org/1999/xlink" x="0px" y="0px"
	 viewBox="300 -60 550 200" style="enable-background:new 300 -60 550 200;" xml:space="preserve">
<style type="text/css">
	.st0{fill:#1D2084;}
</style>
<g>
	<g>
		<path class="st0" d="M320.9-22.2h29.5l6.3,6.4v23l-6.3,6.4h-21.5v19.2h27.8v8h-29.5l-6.3-5.6V12l6.3-6.3h21.5v-19.8h-27.8V-22.2z"
			/>
		<path class="st0" d="M374.2-22.2h23l6.3,6.4v50.5l-6.4,6.3H374l-6.3-6.3V-16L374.2-22.2z M395.5,33v-47.2h-19.8V33H395.5z"/>
		<path class="st0" d="M429.8,32.8h5.2v8h-19.7v-8h6.4v-47.2h-6.4v-8h8.2l6.3,6.3V32.8z"/>
		<path class="st0" d="M451.1-22.2h23.2l6.3,6.3V3.9l-4,4l4,4v22.6l-6.4,6.4H451l-6.3-6.4V11.9l4-4l-4-4v-20L451.1-22.2z M472.6,3.9
			v-18.2h-19.8V3.9H472.6z M472.6,32.8v-21h-19.8v21H472.6z"/>
		<path class="st0" d="M338.5,67.1H323v9h12l3.5,3.5v14.8l-3.6,3.5H322l-3.6-3.5V66.1l3.6-3.5h16.4v4.4H338.5z M334,80.6h-11.1v12.9
			H334V80.6z"/>
		<path class="st0" d="M352.8,102.4h-4.9v-6.1h4.9V102.4z"/>
		<path class="st0" d="M362.1,62.8h16.4l3.5,3.5v12.9l-3.5,3.6h-12v10.7H382v4.5h-16.4l-3.5-3.1v-13l3.5-3.5h12V67.1h-15.5V62.8z"/>
		<path class="st0" d="M408.2,66.2v12l-2.2,2.2l2.2,2.2v11.8l-3.5,3.5h-16.5v-4.5h15.5V82.6h-15.1v-4.5h15.1v-11h-15.5v-4.5h16.5
			L408.2,66.2z"/>
		<path class="st0" d="M425.8,83.4h-12.9v-4.7h12.9V83.4z"/>
		<path class="st0" d="M430.3,62.8h16.4l3.5,3.5v12.9l-3.5,3.6h-12v10.7h15.5v4.5h-16.4l-3.5-3.1v-13l3.5-3.5h12V67.1h-15.5V62.8z"
			/>
		<path class="st0" d="M471.9,62.8h4.5v35.2h-4.5V86.2H460l-3.5-3.5v-20h4.5v19.1h11V62.8H471.9z"/>
	</g>
	<g>
		<path class="st0" d="M539.5,31.5c0-0.6,0.1-1.2,0.4-1.6c0.3-0.4,0.6-0.6,0.9-0.6c0.4,0,0.8-0.2,1.1-0.6s0.4-0.9,0.4-1.6V-14
			c0-0.6,0.2-1.1,0.6-1.5c0.4-0.4,0.9-0.7,1.5-0.7h17.7c0.6,0,1.1-0.2,1.6-0.6s0.7-0.9,0.7-1.5v-1.9c0-0.6,0.2-1.1,0.6-1.5
			s0.9-0.6,1.5-0.6h1.4c0.6,0,1.1,0.2,1.6,0.6s0.7,0.9,0.7,1.5v1.9c0,0.6,0.2,1.1,0.6,1.5c0.4,0.4,0.9,0.6,1.4,0.6h0.6
			c0.6,0,1.1-0.2,1.5-0.5s0.6-0.8,0.6-1.4s0.2-1.1,0.6-1.4c0.4-0.4,0.9-0.6,1.5-0.6h1.4c0.6,0,1.1,0.2,1.6,0.7
			c0.4,0.4,0.6,0.9,0.6,1.5v5.4c0,0.6-0.2,1.1-0.6,1.5s-0.9,0.6-1.6,0.6h-6.3c-0.6,0-1.1,0.2-1.5,0.7c-0.4,0.4-0.6,0.9-0.6,1.5v23
			c0,0.6,0.2,1.1,0.6,1.6c0.4,0.5,0.9,0.7,1.4,0.7h0.6c0.6,0,1.1-0.2,1.5-0.7s0.6-1,0.6-1.6V-4.8c0-0.6,0.2-1.1,0.6-1.6
			c0.4-0.5,0.9-0.7,1.5-0.7h1.4c0.6,0,1.1,0.2,1.6,0.7c0.4,0.5,0.6,1,0.6,1.6v25.3c0,0.6-0.2,1.1-0.6,1.5c-0.4,0.4-0.9,0.7-1.6,0.7
			h-6.3c-0.6,0-1.1,0.2-1.5,0.6s-0.6,0.9-0.6,1.5v2.3c0,0.6,0.2,1.1,0.6,1.5c0.4,0.4,0.9,0.6,1.5,0.6h6.3c0.6,0,1.1,0.2,1.6,0.6
			c0.4,0.4,0.6,0.9,0.6,1.6v1.4c0,0.6-0.2,1.1-0.6,1.5c-0.4,0.4-0.9,0.7-1.6,0.7h-12c-0.6,0-1.1-0.2-1.5-0.7
			c-0.4-0.4-0.6-0.9-0.6-1.5v-41c0-0.6-0.2-1.1-0.7-1.5s-1-0.7-1.6-0.7h-11.9c-0.6,0-1.1,0.2-1.5,0.7c-0.4,0.4-0.6,0.9-0.6,1.5V-5
			c0,0.6,0.2,1.1,0.6,1.5c0.4,0.4,0.9,0.6,1.5,0.6h7.5c0.6,0,1.1,0.2,1.5,0.6s0.7,0.9,0.7,1.6v33.6c0,0.6-0.2,1.1-0.7,1.5
			c-0.4,0.4-0.9,0.7-1.5,0.7h-4.9c-0.6,0-1.1-0.2-1.5-0.7c-0.4-0.4-0.6-1-0.6-1.5v-1.4c0-0.6,0.2-1.2,0.5-1.6s0.7-0.6,1.2-0.6
			c0.4,0,0.8-0.2,1.2-0.6c0.3-0.4,0.5-0.9,0.5-1.6V5c0-0.6-0.2-1.1-0.6-1.5c-0.4-0.4-0.9-0.6-1.5-0.6H550c-0.6,0-1.1,0.2-1.5,0.6
			S548,4.4,548,5V33c0,0.6-0.2,1.1-0.6,1.5c-0.4,0.4-0.9,0.7-1.6,0.7h-4.4c-0.6,0-1.1-0.2-1.4-0.7c-0.4-0.4-0.6-1-0.6-1.5v-1.4
			H539.5z"/>
		<path class="st0" d="M587.3-17.7c0-0.6,0.2-1.1,0.6-1.5c0.4-0.4,0.9-0.6,1.5-0.6h4.6c0.6,0,1.1-0.1,1.6-0.4
			c0.4-0.2,0.6-0.5,0.6-0.9c0-0.3,0.2-0.6,0.7-0.9c0.4-0.2,1-0.4,1.6-0.4h1.4c0.6,0,1.1,0.1,1.5,0.4c0.4,0.2,0.7,0.5,0.7,0.9
			c0,0.3,0.2,0.6,0.7,0.9c0.4,0.2,1,0.4,1.5,0.4h5.2c0.6,0,1.2,0.2,1.6,0.6c0.4,0.4,0.7,0.9,0.7,1.5v1.5c0,0.6-0.2,1.1-0.7,1.5
			c-0.4,0.4-1,0.7-1.6,0.7h-5.2c-0.6,0-1.1,0.2-1.5,0.7c-0.4,0.4-0.7,0.9-0.7,1.5V-7c0,0.6,0.1,1.1,0.4,1.5c0.3,0.4,0.6,0.7,1.1,0.7
			c0.4,0,0.7-0.2,1-0.7c0.3-0.4,0.4-0.9,0.4-1.5v-1.2c0-0.6,0.2-1.2,0.7-1.6c0.4-0.4,0.9-0.7,1.5-0.7h0.9c0.6,0,1.1,0.2,1.5,0.7
			c0.4,0.4,0.6,1,0.6,1.6V-7c0,0.6,0.1,1.1,0.2,1.5c0.2,0.4,0.3,0.7,0.6,0.7s0.4,0.2,0.5,0.7c0.1,0.4,0.2,0.9,0.2,1.5v1.4
			c0,0.6-0.2,1.2-0.7,1.6c-0.4,0.4-1,0.7-1.6,0.7h-12.1c-0.6,0-1.1,0.2-1.5,0.6s-0.7,0.8-0.7,1.4s0.2,1.1,0.7,1.4s1,0.6,1.5,0.6
			h12.4c0.5,0,0.8,0.2,1.2,0.7s0.5,0.9,0.5,1.5V33c0,0.6-0.2,1.1-0.6,1.5c-0.4,0.4-0.9,0.7-1.5,0.7h-17.7c-0.6,0-1.1-0.2-1.5-0.7
			c-0.4-0.4-0.7-0.9-0.7-1.5V16c0-0.6-0.1-1.1-0.3-1.5s-0.4-0.7-0.8-0.7c-0.3,0-0.5-0.2-0.7-0.6c-0.2-0.4-0.3-0.9-0.3-1.6v-1.4
			c0-0.6,0.1-1.2,0.3-1.6c0.2-0.4,0.4-0.7,0.7-0.7c0.7,0,1-0.1,1-0.2V3.1c0-0.6-0.1-1.1-0.3-1.6c-0.2-0.4-0.4-0.6-0.8-0.6
			c-0.3,0-0.5-0.2-0.7-0.7c-0.2-0.4-0.3-1-0.3-1.6v-1.4c0-0.6,0.2-1.1,0.6-1.5c0.4-0.4,0.9-0.7,1.5-0.7h4.6c0.6,0,1.1-0.2,1.6-0.7
			c0.4-0.4,0.6-0.9,0.6-1.5V-12c0-0.6-0.2-1.1-0.6-1.5c-0.4-0.4-0.9-0.7-1.6-0.7h-4.6c-0.6,0-1.1-0.2-1.5-0.7
			c-0.4-0.4-0.6-1-0.6-1.5L587.3-17.7L587.3-17.7z M605.5,13c0-0.6-0.2-1.2-0.6-1.6c-0.4-0.4-0.9-0.7-1.6-0.7h-6.1
			c-0.6,0-1.1,0.2-1.5,0.7c-0.4,0.4-0.7,1-0.7,1.6v1.6c0,0.6,0.2,1.1,0.7,1.6s0.9,0.6,1.5,0.6h6.1c0.6,0,1.1-0.2,1.6-0.6
			c0.4-0.4,0.6-0.9,0.6-1.6V13z M603.3,29.2c0.6,0,1.1-0.2,1.6-0.6c0.4-0.4,0.6-0.9,0.6-1.6v-2.3c0-0.6-0.2-1.1-0.6-1.6
			c-0.4-0.4-0.9-0.6-1.6-0.6h-6.1c-0.6,0-1.1,0.2-1.5,0.6S595,24,595,24.8V27c0,0.6,0.2,1.1,0.7,1.6c0.4,0.4,0.9,0.6,1.5,0.6H603.3z
			 M629-0.8c0,0.6-0.1,1.2-0.4,1.9c-0.3,0.7-0.6,1.2-0.9,1.6C627.2,3.1,627,3.5,627,4s0.2,1,0.6,1.3c0.3,0.3,0.6,0.8,0.9,1.5
			c0.3,0.7,0.4,1.3,0.4,1.9v21.5c0,0.6-0.2,1.1-0.6,1.5c-0.4,0.4-0.9,0.7-1.5,0.7h-5.5c-0.6,0-1.1,0.1-1.5,0.4
			c-0.4,0.2-0.7,0.5-0.7,0.9c0,0.3-0.2,0.6-0.6,0.9c-0.4,0.2-0.9,0.4-1.5,0.4h-1.5c-0.6,0-1.2-0.2-1.6-0.7c-0.4-0.4-0.6-0.9-0.6-1.5
			v-53.1c0-0.6,0.2-1.1,0.6-1.5c0.4-0.4,0.9-0.6,1.6-0.6h11.3c0.6,0,1.1,0.2,1.5,0.6s0.6,0.9,0.6,1.5V-0.8z M621.1,1.3
			c0.6,0,1-0.2,1.4-0.6s0.6-0.9,0.6-1.6v-13.5c0-0.6-0.2-1.1-0.6-1.5c-0.4-0.4-0.8-0.7-1.4-0.7s-1.1,0.2-1.4,0.7
			c-0.4,0.4-0.6,0.9-0.6,1.5v13.5c0,0.6,0.2,1.1,0.6,1.6C620.1,1.1,620.6,1.3,621.1,1.3z M623.1,9.3c0-0.6-0.2-1.1-0.6-1.5
			c-0.4-0.4-0.8-0.6-1.4-0.6s-1.1,0.2-1.4,0.6c-0.4,0.4-0.6,0.9-0.6,1.5v15.3c0,0.6,0.2,1.1,0.6,1.6c0.4,0.4,0.9,0.6,1.4,0.6
			s1-0.2,1.4-0.6s0.6-0.9,0.6-1.6V9.3z"/>
		<path class="st0" d="M546.2,89.8c0.5,0,0.9-0.2,1.2-0.5s0.5-0.8,0.5-1.2v-9c0-0.5-0.2-0.9-0.5-1.2c-0.3-0.4-0.7-0.5-1.2-0.5h-5.6
			c-0.5,0-0.9-0.2-1.2-0.5s-0.5-0.7-0.5-1.2v-1.1c0-0.5,0.2-0.9,0.5-1.3c0.3-0.4,0.7-0.6,1.2-0.6h5.6c0.5,0,0.9-0.2,1.2-0.5
			s0.5-0.7,0.5-1.2v-9c0-0.5-0.2-0.9-0.5-1.2s-0.7-0.5-1.2-0.5h-5.6c-0.5,0-0.9-0.2-1.2-0.6c-0.3-0.4-0.5-0.8-0.5-1.3v-1.1
			c0-0.5,0.2-0.9,0.5-1.2s0.7-0.5,1.2-0.5h5.6c0.5,0,0.9-0.2,1.2-0.5s0.5-0.7,0.5-1.2s0.2-0.9,0.5-1.2s0.8-0.5,1.2-0.5h1.1
			c0.5,0,0.9,0.2,1.3,0.5c0.3,0.3,0.5,0.7,0.5,1.2v42.4c0,0.5-0.2,0.9-0.5,1.2c-0.3,0.4-0.8,0.5-1.3,0.5h-1.1
			c-0.5,0-0.9-0.2-1.2-0.5c-0.4-0.3-0.5-0.8-0.5-1.2v-0.2c0-0.5-0.2-0.9-0.5-1.2c-0.3-0.3-0.7-0.5-1.2-0.5h-5.6
			c-0.5,0-0.9-0.2-1.2-0.5c-0.3-0.4-0.5-0.8-0.5-1.2v-1.2c0-0.5,0.2-0.9,0.5-1.2c0.3-0.3,0.7-0.5,1.2-0.5L546.2,89.8L546.2,89.8z
			 M562.8,53.8c0,0.5,0.2,0.9,0.5,1.2s0.7,0.5,1.2,0.5h5.6c0.5,0,0.9,0.2,1.2,0.5s0.5,0.7,0.5,1.2v1.1c0,0.5-0.2,0.9-0.5,1.3
			c-0.3,0.4-0.8,0.6-1.2,0.6h-5.6c-0.5,0-0.9,0.2-1.2,0.5s-0.5,0.7-0.5,1.2v9c0,0.5,0.2,0.9,0.5,1.2s0.7,0.5,1.2,0.5h5.6
			c0.5,0,0.9,0.2,1.2,0.6c0.3,0.4,0.5,0.8,0.5,1.3v1.1c0,0.5-0.2,0.9-0.5,1.2s-0.8,0.5-1.2,0.5h-5.6c-0.5,0-0.9,0.2-1.2,0.5
			c-0.3,0.4-0.5,0.8-0.5,1.2v9c0,0.5,0.2,0.9,0.5,1.2s0.7,0.5,1.2,0.5h5.6c0.5,0,0.9,0.2,1.2,0.5s0.5,0.7,0.5,1.2v1.2
			c0,0.5-0.2,0.9-0.5,1.2c-0.3,0.4-0.8,0.5-1.2,0.5h-5.6c-0.5,0-0.9,0.2-1.2,0.5s-0.5,0.7-0.5,1.2v0.2c0,0.5-0.2,0.9-0.5,1.2
			c-0.3,0.4-0.8,0.5-1.3,0.5h-1.1c-0.5,0-0.9-0.2-1.2-0.5c-0.4-0.3-0.5-0.8-0.5-1.2V53.8c0-0.5,0.2-0.9,0.5-1.2
			c0.4-0.3,0.8-0.5,1.2-0.5h1.1c0.5,0,0.9,0.2,1.3,0.5C562.6,53,562.8,53.5,562.8,53.8z"/>
		<path class="st0" d="M581.1,83.2c0.5,0,0.9-0.2,1.2-0.5s0.5-0.7,0.5-1.2V65.9c0-0.5-0.1-0.9-0.3-1.2s-0.4-0.5-0.7-0.5
			s-0.6-0.1-1.1-0.3c-0.5-0.2-0.9-0.5-1.2-0.8l-1-0.9c-0.4-0.3-0.7-0.7-0.9-1.3s-0.4-1.1-0.4-1.6v-4.5c0-0.5,0.2-0.9,0.5-1.2
			s0.7-0.5,1.2-0.5h1.2c0.5,0,0.9,0.2,1.2,0.5s0.5,0.7,0.5,1.2v3c0,0.5,0,0.9,0.1,1.2s0.2,0.5,0.4,0.5s0.3-0.2,0.4-0.5
			s0.1-0.8,0.1-1.2V54c0-0.5,0.2-0.9,0.5-1.2s0.8-0.5,1.3-0.5h1.1c0.5,0,0.9,0.2,1.2,0.5s0.5,0.7,0.5,1.2v3.9c0,0.5,0.1,0.9,0.4,1.2
			s0.5,0.5,0.9,0.5s0.7,0.2,0.9,0.5c0.3,0.3,0.4,0.7,0.4,1.2v1.2c0,0.5-0.1,0.9-0.4,1.3c-0.3,0.3-0.6,0.5-0.9,0.5
			c-0.3,0-0.6,0.2-0.9,0.5s-0.4,0.7-0.4,1.2v15.5c0,0.5,0.1,0.9,0.4,1.2c0.2,0.3,0.5,0.5,0.9,0.5s0.7,0.2,0.9,0.5
			c0.3,0.3,0.4,0.8,0.4,1.3v1.1c0,0.5-0.1,0.9-0.4,1.2c-0.3,0.3-0.6,0.5-0.9,0.5c-0.3,0-0.6,0.2-0.9,0.5c-0.2,0.3-0.4,0.7-0.4,1.2
			v6.7c0,0.5-0.2,0.9-0.5,1.2c-0.3,0.4-0.7,0.5-1.2,0.5h-1.1c-0.5,0-0.9-0.2-1.3-0.5c-0.3-0.3-0.5-0.8-0.5-1.2v-6.7
			c0-0.5-0.2-0.9-0.5-1.2s-0.8-0.5-1.2-0.5h-2.3c-0.5,0-0.9-0.2-1.2-0.5c-0.3-0.4-0.5-0.8-0.5-1.2v-1c0-0.5,0.2-0.9,0.5-1.3
			c0.3-0.3,0.7-0.5,1.2-0.5H581.1z M597,92.6c0,0.5-0.1,1-0.4,1.6c-0.2,0.6-0.5,1-0.9,1.3l-1.3,1.3c-0.3,0.4-0.7,0.7-1.2,0.9
			s-1,0.3-1.3,0.3s-0.6-0.2-0.9-0.5c-0.2-0.3-0.4-0.8-0.4-1.2v-1.1c0-0.5,0.1-0.9,0.2-1.2c0.2-0.3,0.4-0.5,0.6-0.5
			c0.3,0,0.5-0.2,0.6-0.5s0.2-0.7,0.2-1.2V64.4c0-0.5,0.2-0.9,0.5-1.3s0.8-0.5,1.2-0.5h1.1c0.5,0,0.9,0.2,1.2,0.5s0.5,0.8,0.5,1.3
			v28.3H597z M607.6,98.1c-0.5,0-0.9-0.2-1.3-0.5c-0.3-0.3-0.5-0.8-0.5-1.2V60.2c0-0.5-0.2-0.9-0.5-1.2s-0.8-0.5-1.2-0.5h-7.5
			c-0.5,0-1-0.1-1.6-0.3s-1-0.5-1.4-0.8l-1.2-1.2c-0.4-0.4-0.7-0.8-0.9-1.3s-0.3-0.9-0.3-1.3c0-0.3,0.2-0.6,0.5-0.9s0.8-0.4,1.2-0.4
			h1.1c0.5,0,0.9,0.1,1.3,0.2c0.3,0.2,0.5,0.4,0.5,0.6s0.2,0.4,0.5,0.6c0.3,0.2,0.8,0.2,1.2,0.2h11.3c0.5,0,0.9,0.2,1.2,0.5
			c0.3,0.4,0.5,0.8,0.5,1.2v40.7c0,0.5-0.2,0.9-0.5,1.2s-0.7,0.5-1.2,0.5H607.6z M598.6,93.4c0.3,0,0.5-0.2,0.6-0.5s0.2-0.7,0.2-1.2
			V64.4c0-0.5,0.2-0.9,0.5-1.3c0.3-0.3,0.7-0.5,1.2-0.5h1.2c0.5,0,0.9,0.2,1.2,0.5s0.5,0.8,0.5,1.3v28.3c0,0.5-0.1,1-0.4,1.6
			c-0.2,0.6-0.5,1-0.9,1.3l-1.2,1.3c-0.4,0.4-0.8,0.7-1.3,0.9c-0.5,0.2-0.9,0.3-1.3,0.3c-0.4,0-0.7-0.2-0.9-0.5s-0.4-0.8-0.4-1.2
			v-1.1c0-0.5,0.1-0.9,0.2-1.2C598.1,93.6,598.3,93.4,598.6,93.4z"/>
		<path class="st0" d="M615.3,95.1c0-0.5,0.1-0.9,0.3-1.3c0.2-0.3,0.5-0.5,0.8-0.5s0.5-0.2,0.7-0.5s0.3-0.8,0.3-1.3V55.6
			c0-0.5,0.2-0.9,0.5-1.2c0.4-0.3,0.8-0.5,1.3-0.5h23.4c0.5,0,0.9-0.1,1.2-0.3s0.5-0.4,0.5-0.6c0-0.3,0.2-0.5,0.6-0.6
			s0.8-0.2,1.3-0.2h1.2c0.5,0,0.9,0.1,1.2,0.3c0.4,0.2,0.5,0.5,0.5,0.8s-0.1,0.7-0.3,1.2s-0.5,0.9-0.8,1.2l-1,1
			c-0.3,0.4-0.7,0.7-1.3,0.9c-0.6,0.3-1.1,0.4-1.6,0.4h-3.4c-0.5,0-0.9,0.2-1.3,0.5c-0.4,0.4-0.5,0.8-0.5,1.2V61
			c0,0.5,0.2,0.9,0.5,1.3c0.4,0.3,0.8,0.5,1.3,0.5h6.8c0.5,0,0.9,0.2,1.3,0.5c0.3,0.3,0.5,0.8,0.5,1.3v1.1c0,0.5-0.2,0.9-0.5,1.2
			s-0.8,0.5-1.3,0.5h-6.8c-0.5,0-0.9,0.2-1.3,0.5c-0.4,0.4-0.5,0.8-0.5,1.2v0.3c0,0.5,0.2,0.9,0.5,1.3c0.4,0.3,0.8,0.5,1.3,0.5h6.8
			c0.5,0,0.9,0.2,1.3,0.5s0.5,0.8,0.5,1.3v14.2c0,0.5-0.2,0.9-0.5,1.2c-0.3,0.4-0.8,0.5-1.3,0.5h-1.1c-0.5,0-0.9-0.2-1.2-0.5
			c-0.4-0.3-0.5-0.8-0.5-1.2v-9.6c0-0.5-0.2-0.9-0.6-1.2c-0.4-0.3-0.8-0.5-1.3-0.5h-12.3c-0.5,0-0.9,0.2-1.3,0.5
			c-0.4,0.4-0.5,0.8-0.5,1.2v10.5c0,0.5-0.2,0.9-0.5,1.3c-0.3,0.3-0.8,0.5-1.2,0.5H626c-0.5,0-0.9-0.2-1.3-0.5
			c-0.3-0.3-0.5-0.8-0.5-1.3v-15c0-0.5,0.2-0.9,0.5-1.3c0.3-0.4,0.8-0.5,1.3-0.5h6.6c0.5,0,1-0.2,1.3-0.5s0.5-0.8,0.5-1.3v-0.3
			c0-0.5-0.2-0.9-0.5-1.2c-0.3-0.4-0.8-0.5-1.3-0.5h-8.5c-0.5,0-0.9,0.2-1.2,0.5s-0.5,0.8-0.5,1.2v23.3c0,0.5-0.1,1-0.3,1.6
			c-0.2,0.6-0.5,1-0.9,1.3l-1.2,1.3c-0.3,0.4-0.8,0.7-1.3,0.9c-0.5,0.2-1,0.3-1.4,0.3c-0.5,0-0.8-0.2-1.1-0.5s-0.4-0.8-0.4-1.3v-1
			H615.3z M623.8,58c-0.5,0-0.9,0.2-1.2,0.5c-0.4,0.4-0.5,0.8-0.5,1.2V61c0,0.5,0.2,0.9,0.5,1.3s0.8,0.5,1.2,0.5h8.5
			c0.5,0,1-0.2,1.3-0.5s0.5-0.8,0.5-1.3v-1.2c0-0.5-0.2-0.9-0.5-1.2c-0.3-0.4-0.8-0.5-1.3-0.5L623.8,58L623.8,58z M637,77.9
			c0.5,0,0.9,0.2,1.2,0.5s0.5,0.7,0.5,1.2v3.2c0,0.5,0.1,1.1,0.3,1.7c0.2,0.6,0.5,1.1,0.7,1.5l4,5.8c0.3,0.4,0.7,0.8,1.3,1
			s1.1,0.4,1.6,0.4h0.6c0.5,0,0.9,0.2,1.3,0.5c0.3,0.4,0.5,0.8,0.5,1.2v1.1c0,0.5-0.2,0.9-0.5,1.3c-0.3,0.3-0.8,0.5-1.3,0.5h-3.1
			c-0.5,0-1-0.1-1.6-0.4s-1-0.6-1.2-1.1l-3.9-5.6c-0.3-0.4-0.7-0.6-1.1-0.6s-0.7,0.2-1,0.6l-4,5.6c-0.3,0.4-0.7,0.8-1.2,1.1
			c-0.6,0.3-1.1,0.4-1.5,0.4h-3.1c-0.5,0-0.9-0.2-1.3-0.5c-0.3-0.3-0.5-0.8-0.5-1.3v-0.9c0-0.5,0.2-0.9,0.5-1.2
			c0.3-0.4,0.8-0.5,1.3-0.5h0.6c0.5,0,1-0.1,1.5-0.4c0.5-0.2,1-0.6,1.3-1l4-5.8c0.3-0.4,0.5-0.9,0.7-1.5c0.2-0.6,0.3-1.2,0.3-1.7
			v-3.2c0-0.5,0.2-0.9,0.5-1.2s0.8-0.5,1.3-0.5h1.3V77.9z"/>
		<path class="st0" d="M655,66.9c0-0.5-0.1-0.9-0.2-1.2c-0.2-0.3-0.3-0.5-0.5-0.5s-0.4-0.2-0.5-0.5s-0.2-0.8-0.2-1.2v-1.2
			c0-0.5,0.1-0.9,0.3-1.2s0.5-0.5,0.8-0.5h3.2c0.5,0,0.9,0.2,1.2,0.5c0.4,0.3,0.5,0.7,0.5,1.2V87c0,0.5,0.1,1,0.3,1.5
			s0.5,0.9,0.8,1.2s0.6,0.4,0.8,0.2s0.3-0.5,0.3-0.9v-0.2c0-0.5,0.2-0.9,0.5-1.2s0.7-0.5,1.2-0.5h3.4c0.4,0,0.9-0.1,1.5-0.4
			c0.5-0.3,1-0.6,1.2-1l1-1.3c0.3-0.4,0.5-0.8,0.7-1.3s0.3-0.9,0.3-1.2c0-0.3,0.2-0.6,0.5-0.8s0.7-0.3,1.2-0.3h1.1
			c0.5,0,0.9,0.1,1.2,0.3c0.3,0.2,0.5,0.5,0.5,0.8s0.1,0.7,0.3,1.2s0.5,0.9,0.8,1.3l1.3,1.5c0.3,0.4,0.7,0.7,1.3,0.9
			s1.1,0.4,1.6,0.4h3.5c0.5,0,0.9,0.2,1.3,0.5c0.3,0.3,0.5,0.8,0.5,1.2v1.2c0,0.5-0.2,0.9-0.5,1.2c-0.3,0.3-0.7,0.5-1.2,0.5h-5.5
			c-0.5,0-1-0.1-1.5-0.4s-1-0.6-1.4-0.9l-1.3-1.5c-0.4-0.3-0.8-0.5-1.2-0.5s-0.8,0.2-1,0.6l-1,1.2c-0.3,0.4-0.7,0.7-1.3,1
			c-0.5,0.3-1.1,0.4-1.5,0.4h-4.8c-0.5,0-0.8,0.1-0.9,0.2c-0.2,0.2-0.1,0.4,0.2,0.6c0.3,0.3,0.7,0.5,1.2,0.7s1.1,0.3,1.5,0.3H685
			c0.5,0,0.9,0.2,1.2,0.5s0.5,0.8,0.5,1.2v1.1c0,0.5-0.2,0.9-0.5,1.2c-0.3,0.4-0.8,0.5-1.3,0.5h-20.4c-0.5,0-1-0.1-1.6-0.3
			s-1.1-0.5-1.4-0.8l-1.2-1.1c-0.4-0.4-0.8-0.5-1.3-0.5s-0.9,0.2-1.2,0.5l-1,1c-0.4,0.4-0.8,0.7-1.3,0.9c-0.5,0.2-0.9,0.3-1.3,0.3
			c-0.3,0-0.6-0.2-0.8-0.5s-0.3-0.8-0.3-1.2v-1.1c0-0.5,0.1-0.9,0.2-1.2c0.1-0.3,0.3-0.5,0.5-0.5s0.4-0.1,0.5-0.3
			c0.2-0.2,0.2-0.5,0.2-0.9V66.9H655z M658,57.5c-0.3,0.4-0.7,0.5-1.2,0.5s-0.9-0.2-1.3-0.5l-0.8-0.8c-0.3-0.4-0.5-0.8-0.5-1.2
			c0-0.5,0.2-0.9,0.5-1.2l0.8-0.8c0.4-0.3,0.8-0.5,1.3-0.5s0.9,0.2,1.2,0.5l0.8,0.8c0.4,0.4,0.5,0.8,0.5,1.2c0,0.5-0.2,0.9-0.5,1.2
			L658,57.5z M685.2,54.3c0.5,0,0.9,0.2,1.3,0.5c0.3,0.4,0.5,0.8,0.5,1.2v5.6c0,0.5-0.1,1-0.4,1.6c-0.2,0.6-0.5,1-0.9,1.4l-1.3,1.2
			c-0.4,0.4-0.8,0.7-1.4,0.9c-0.6,0.2-1.1,0.3-1.6,0.3h-3.3c-0.5,0-0.9,0.1-1.3,0.2c-0.3,0.1-0.5,0.3-0.5,0.5s0.2,0.3,0.5,0.5
			c0.3,0.1,0.8,0.2,1.3,0.2h7c0.5,0,0.9,0.2,1.3,0.5c0.3,0.3,0.5,0.8,0.5,1.3v1.1c0,0.5-0.2,0.9-0.5,1.2c-0.3,0.3-0.8,0.5-1.3,0.5
			h-21.6c-0.5,0-0.9-0.2-1.2-0.5s-0.5-0.7-0.5-1.2v-1.1c0-0.5,0.2-0.9,0.5-1.3c0.3-0.4,0.7-0.5,1.2-0.5h6.5c0.5,0,0.9-0.1,1.2-0.2
			c0.3-0.1,0.5-0.3,0.5-0.5s-0.2-0.4-0.5-0.5c-0.3-0.1-0.7-0.2-1.2-0.2h-6.5c-0.5,0-0.9-0.2-1.2-0.5s-0.5-0.8-0.5-1.2v-9.3
			c0-0.5,0.2-0.9,0.5-1.2c0.3-0.4,0.7-0.5,1.2-0.5h6.5c0.5,0,0.9-0.1,1.2-0.3s0.5-0.4,0.5-0.7s0.2-0.6,0.5-0.8s0.7-0.3,1.2-0.3h1.2
			c0.5,0,0.9,0.1,1.2,0.3s0.5,0.5,0.5,0.8s0.2,0.5,0.5,0.7s0.8,0.3,1.3,0.3C678.2,54.4,685.2,54.4,685.2,54.3z M684.1,85.6
			c-0.5,0-0.9-0.2-1.2-0.5s-0.5-0.8-0.5-1.2v-2.9c0-0.5-0.2-0.9-0.5-1.2s-0.8-0.5-1.2-0.5h-12.3c-0.5,0-0.9,0.2-1.2,0.5
			s-0.5,0.8-0.5,1.2v2.9c0,0.5-0.2,0.9-0.5,1.2c-0.4,0.3-0.8,0.5-1.2,0.5h-1.2c-0.5,0-0.9-0.2-1.2-0.5s-0.5-0.8-0.5-1.2v-7.5
			c0-0.5,0.2-0.9,0.5-1.2c0.3-0.3,0.7-0.5,1.2-0.5h21.6c0.5,0,0.9,0.2,1.3,0.5s0.5,0.8,0.5,1.2v7.5c0,0.5-0.2,0.9-0.5,1.2
			s-0.8,0.5-1.3,0.5H684.1z M670.2,62.5c0.5,0,0.9-0.2,1.2-0.5s0.5-0.7,0.5-1.2v-0.1c0-0.5-0.2-0.9-0.5-1.2s-0.7-0.5-1.2-0.5h-1.8
			c-0.5,0-0.9,0.2-1.2,0.5s-0.5,0.7-0.5,1.2v0.1c0,0.5,0.2,0.9,0.5,1.2s0.8,0.5,1.2,0.5H670.2z M680.6,62.5c0.5,0,0.9-0.2,1.2-0.5
			s0.5-0.7,0.5-1.2v-0.1c0-0.5-0.2-0.9-0.5-1.2S681,59,680.6,59h-2.3c-0.5,0-0.9,0.2-1.2,0.5s-0.5,0.7-0.5,1.2v0.1
			c0,0.5,0.2,0.9,0.5,1.2s0.7,0.5,1.2,0.5H680.6z"/>
		<path class="st0" d="M699.6,96.4c0,0.5-0.2,0.9-0.5,1.2c-0.3,0.4-0.7,0.5-1.2,0.5h-4.4c-0.5,0-0.9-0.2-1.2-0.5s-0.5-0.8-0.5-1.2
			v-1.1c0-0.5,0.1-0.9,0.4-1.2c0.3-0.3,0.7-0.5,1.1-0.5c0.5,0,0.8-0.2,1.2-0.5s0.5-0.7,0.5-1.2v-18c0-0.5,0.2-0.9,0.5-1.2
			c0.3-0.4,0.8-0.5,1.3-0.5h0.6c0.5,0,0.9-0.2,1.2-0.5s0.5-0.7,0.5-1.2v-2.8c0-0.5-0.2-0.9-0.5-1.2c-0.3-0.3-0.8-0.5-1.2-0.5h-0.6
			c-0.5,0-0.9-0.2-1.3-0.5c-0.3-0.3-0.5-0.7-0.5-1.2v-1.1c0-0.5,0.2-0.9,0.5-1.3c0.3-0.4,0.8-0.6,1.3-0.6h26.5
			c0.5,0,0.9,0.2,1.2,0.6s0.5,0.8,0.5,1.3v0.9c0,0.5-0.2,0.9-0.5,1.2c-0.4,0.3-0.8,0.5-1.2,0.5c-0.5,0-0.9,0.2-1.3,0.5
			s-0.5,0.8-0.5,1.2v2.8c0,0.5,0.2,0.9,0.5,1.2c0.3,0.3,0.8,0.5,1.3,0.5s0.9,0.2,1.2,0.5c0.4,0.4,0.5,0.8,0.5,1.2v1
			c0,0.5-0.2,0.9-0.5,1.3c-0.4,0.4-0.8,0.5-1.2,0.5h-21.8c-0.5,0-0.9,0.2-1.3,0.5c-0.3,0.3-0.5,0.8-0.5,1.2L699.6,96.4L699.6,96.4z
			 M720.3,53.1c0-0.3,0.2-0.5,0.5-0.7s0.8-0.3,1.2-0.3h1c0.5,0,0.9,0.1,1.2,0.4c0.4,0.3,0.5,0.6,0.5,1v3.3c0,0.5-0.2,0.9-0.5,1.2
			c-0.4,0.4-0.8,0.5-1.2,0.5h-26.4c-0.5,0-0.9-0.2-1.2-0.5c-0.3-0.4-0.5-0.8-0.5-1.2v-1.2c0-0.5,0.2-0.9,0.5-1.2s0.7-0.5,1.2-0.5
			h21.8c0.5,0,0.9-0.1,1.2-0.3C720.1,53.6,720.3,53.3,720.3,53.1z M705.3,65.8c-0.5,0-0.9,0.2-1.2,0.5s-0.5,0.8-0.5,1.2v2.8
			c0,0.5,0.2,0.9,0.5,1.2c0.3,0.3,0.8,0.5,1.2,0.5h9.6c0.5,0,0.9-0.2,1.2-0.5s0.5-0.7,0.5-1.2v-2.8c0-0.5-0.2-0.9-0.5-1.2
			c-0.3-0.3-0.7-0.5-1.2-0.5H705.3z"/>
		<path class="st0" d="M758.6,52.2c0.5,0,0.9,0.2,1.3,0.5c0.3,0.3,0.5,0.7,0.5,1.2v14.1c0,0.5,0.1,0.9,0.4,1.2
			c0.3,0.3,0.5,0.5,0.9,0.5c0.3,0,0.6,0.2,0.9,0.5s0.4,0.8,0.4,1.2v1.1c0,0.5-0.2,0.9-0.5,1.3c-0.3,0.4-0.8,0.5-1.2,0.5h-3.7
			c-0.5,0-0.9-0.2-1.2-0.5S756,73,756,72.5V58.5c0-0.5-0.2-0.9-0.5-1.2s-0.7-0.5-1.2-0.5h-15.1c-0.5,0-0.9,0.2-1.3,0.5
			c-0.3,0.4-0.5,0.8-0.5,1.2v14.1c0,0.5-0.2,0.9-0.5,1.3c-0.3,0.4-0.8,0.5-1.2,0.5H732c-0.5,0-0.9-0.2-1.2-0.5
			c-0.3-0.4-0.5-0.8-0.5-1.3v-1.1c0-0.5,0.1-0.9,0.4-1.2c0.2-0.4,0.6-0.5,0.9-0.5c0.3,0,0.6-0.2,0.8-0.5s0.3-0.8,0.3-1.2V53.1
			c0-0.3,0.2-0.5,0.5-0.7s0.8-0.3,1.2-0.3h24.3V52.2z M738.3,74.4c0.5,0,0.9,0.2,1.1,0.5s0.3,0.7,0.3,1.2l-3.3,15.6
			c-0.1,0.5,0,0.9,0.2,1.2s0.6,0.5,1.1,0.5h17c0.5,0,0.9-0.2,1.2-0.5s0.5-0.7,0.5-1.2v-8.7c0-0.5,0.2-0.9,0.5-1.2
			c0.4-0.3,0.8-0.5,1.2-0.5h1.2c0.5,0,0.9,0.2,1.2,0.5s0.5,0.8,0.5,1.2v13.3c0,0.5-0.2,0.9-0.5,1.2c-0.3,0.4-0.7,0.5-1.2,0.5H733
			c-0.5,0-0.9-0.2-1.2-0.5s-0.5-0.8-0.5-1.2v-2.1c0-0.5,0-1,0.1-1.7s0.2-1.3,0.2-1.7l3-14.6c0.1-0.5,0.4-0.9,0.8-1.2
			c0.4-0.3,0.9-0.5,1.4-0.5h1.5V74.4z"/>
		<path class="st0" d="M768.2,53.8c0-0.5,0.2-0.9,0.5-1.2s0.7-0.5,1.2-0.5h29.9c0.5,0,0.9,0.2,1.2,0.5s0.5,0.7,0.5,1.2v38.8
			c0,0.5-0.1,1-0.4,1.6c-0.2,0.6-0.5,1-0.8,1.3l-1.2,1.3c-0.4,0.4-0.8,0.7-1.4,0.9c-0.6,0.2-1.1,0.3-1.6,0.3H770
			c-0.5,0-0.9-0.1-1.2-0.2c-0.3-0.1-0.5-0.3-0.5-0.5V53.8z M797,58.5c0-0.5-0.2-0.9-0.5-1.2c-0.3-0.4-0.8-0.5-1.2-0.5h-20.5
			c-0.5,0-0.9,0.2-1.2,0.5s-0.5,0.8-0.5,1.2v33.1c0,0.5,0.2,0.9,0.5,1.2c0.3,0.3,0.7,0.5,1.2,0.5h20.5c0.5,0,0.9-0.2,1.2-0.5
			s0.5-0.7,0.5-1.2V58.5z M795,63.5c0,0.5-0.2,0.9-0.5,1.2s-0.7,0.5-1.2,0.5h-16.9c-0.5,0-0.9-0.2-1.2-0.5s-0.5-0.7-0.5-1.2v-1.1
			c0-0.5,0.2-0.9,0.5-1.2s0.8-0.5,1.2-0.5h16.9c0.5,0,0.9,0.2,1.2,0.5s0.5,0.7,0.5,1.2V63.5z M776.2,85.9c0.5,0,0.8-0.2,1.1-0.5
			s0.5-0.7,0.5-1.2v-7.2c0-0.5-0.2-0.9-0.5-1.2c-0.3-0.3-0.7-0.5-1.1-0.5c-0.4,0-0.8-0.2-1-0.5s-0.4-0.8-0.4-1.2v-1.2
			c0-0.5,0.2-0.9,0.5-1.2c0.3-0.3,0.8-0.5,1.2-0.5h16.9c0.5,0,0.9,0.2,1.2,0.5s0.5,0.7,0.5,1.2v1.2c0,0.5-0.1,0.9-0.4,1.2
			c-0.3,0.3-0.6,0.5-1.1,0.5c-0.4,0-0.8,0.2-1.1,0.5s-0.5,0.7-0.5,1.2v7.2c0,0.5,0.2,0.9,0.5,1.2c0.3,0.3,0.7,0.5,1.1,0.5
			c0.4,0,0.8,0.2,1.1,0.5s0.4,0.8,0.4,1.3v1.1c0,0.5-0.2,0.9-0.5,1.2c-0.3,0.3-0.7,0.5-1.2,0.5H793c-0.5,0-1-0.1-1.6-0.3
			s-1-0.5-1.4-0.9l-1.3-1.2c-0.3-0.3-0.6-0.8-0.9-1.4c-0.3-0.6-0.4-1.1-0.4-1.6v-8.2c0-0.5-0.2-0.9-0.5-1.2s-0.8-0.5-1.2-0.5h-1.5
			c-0.5,0-0.9,0.2-1.2,0.5s-0.5,0.7-0.5,1.2v8.2c0,0.5-0.1,1-0.4,1.6c-0.2,0.6-0.5,1-0.9,1.4l-1.3,1.2c-0.4,0.4-0.8,0.7-1.4,0.9
			c-0.6,0.2-1.1,0.3-1.6,0.3h-0.5c-0.5,0-0.9-0.2-1.2-0.5s-0.5-0.7-0.5-1.2v-1.1c0-0.5,0.1-0.9,0.4-1.3
			C775.3,86.1,775.8,85.9,776.2,85.9z"/>
	</g>
	<g>
		<rect x="512.5" y="-21.5" class="st0" width="3" height="121.7"/>
	</g>
</g>
</svg>
