<?xml version="1.0" encoding="utf-8"?>
<!-- Generator: Adobe Illustrator 19.0.0, SVG Export Plug-In . SVG Version: 6.00 Build 0)  -->
<svg version="1.1" id="图层_1" xmlns="http://www.w3.org/2000/svg" xmlns:xlink="http://www.w3.org/1999/xlink" x="0px" y="0px"
	 viewBox="430 -100 300 300" style="enable-background:new 430 -100 300 300;" xml:space="preserve">
<style type="text/css">
	.st0{fill:#202183;}
</style>
<g>
	<g>
		<path class="st0" d="M459.7,8.5h13.7l2.9,3v10.7l-2.9,3h-10v9h12.9v3.7h-13.7l-2.9-2.6V24.4l2.9-3h10v-9.2h-12.9V8.5z"/>
		<path class="st0" d="M485.5,8.5h10.7l3,3v23.5l-3,2.9h-10.7l-2.9-2.9V11.4L485.5,8.5z M495.4,34.1v-22h-9.2v22H495.4z"/>
		<path class="st0" d="M512.4,34.1h2.4v3.7h-9.2v-3.7h3v-22h-3V8.4h3.8l2.9,2.9V34.1z"/>
		<path class="st0" d="M523.3,8.4h10.8l2.9,3v9.2l-1.8,1.9l1.8,1.9v10.5l-3,3h-10.8l-2.9-3V24.3l1.8-1.8l-1.8-1.8v-9.3L523.3,8.4z
			 M533.3,20.6v-8.5h-9.2v8.5H533.3z M533.3,34.1v-9.8h-9.2v9.8H533.3z"/>
		<path class="st0" d="M558.9,34.9h-18.4v-3.1h18.4V34.9z"/>
		<path class="st0" d="M474.4,85.8h-16.2V81l12.5-20.9h-12.5v-3.7h16.2v4.9L462,82.1h12.4V85.8z"/>
		<path class="st0" d="M493.7,82v3.7h-13.2l-3-3V56.5h16.2v3.7h-12.4v8.7h12.4v3.7h-12.4V82H493.7z"/>
		<path class="st0" d="M513,69.5l-1.8,1.9l1.8,1.8v9.6l-2.9,3h-13.2V56.5H510l2.9,3V69.5z M500.6,60.2v9.2h8.7l0-9.2H500.6z
			 M509.3,73.2h-8.7v8.9h8.7V73.2z"/>
		<path class="st0" d="M532.3,82.1v3.7H528l-3-3v-7.8h-5.2v10.7h-3.7V56.5h13.2l3,3v12.6l-3,3h-0.6v7H532.3z M528.6,60.2h-8.7v11.1
			h8.7V60.2z"/>
		<path class="st0" d="M551.5,85.8l-1.6-7.8h-9.1l-1.6,7.8h-3.8l5.8-29.3h8.1l6,29.3H551.5z M544.3,60.2l-2.8,14.1h7.6l-2.9-14.1
			H544.3z"/>
		<path class="st0" d="M583.4,83.2h-4.4L574.1,68v17.8h-3.7V56.5h3.7l7,22.5l6.6-22.5h3.8v29.3h-3.7V68.1L583.4,83.2z"/>
		<path class="st0" d="M607.1,56.5h3.7v26.3l-3,3h-10.2l-3-3V56.5h3.7v25.6h8.7V56.5z"/>
		<path class="st0" d="M626.5,66v-6.5h-8.7v9.7h9.5l3,2.9v10.6l-3,3H617l-3-3V76h3.7v6.1h8.7V73H617l-3-3V58.8l3-3h10.3l3,3V66
			H626.5z"/>
		<path class="st0" d="M633.4,82.1h2.9V60.2h-2.9v-3.7h9.5v3.7H640v21.9h2.9v3.7h-9.5V82.1z"/>
		<path class="st0" d="M658.5,67.9v-7.7h-8.7v21.9h8.7v-7.3h3.7v8l-3,3h-10.2l-3-3V59.5l3-3h10.2l3,3v8.4H658.5z"/>
		<path class="st0" d="M458.2,104.5h16.1v3.7H462v10.2h12.4v3.7H462v11.7h-3.7V104.5z"/>
		<path class="st0" d="M493.6,130v3.7h-13.2l-3-3v-26.3h16.2v3.7h-12.4v8.7h12.4v3.7h-12.4v9.4H493.6z"/>
		<path class="st0" d="M509.2,114v-6.5h-8.7v9.7h9.5l3,2.9v10.6l-3,3h-10.2l-3-3V124h3.7v6.1h8.7V121h-9.4l-3-3v-11.2l3-3H510l3,3
			v7.2H509.2z"/>
		<path class="st0" d="M516.2,104.5h16.2v3.7h-6.2v25.6h-3.7v-25.6h-6.3V104.5z"/>
		<path class="st0" d="M535.5,130.1h2.9v-21.9h-2.9v-3.7h9.5v3.7h-2.9v21.9h2.9v3.7h-9.5V130.1z"/>
		<path class="st0" d="M552,104.5l6,25.6h0.5l5.8-25.6h3.8l-6.9,29.4h-5.9l-7.1-29.4H552z"/>
		<path class="st0" d="M587.2,133.8l-1.6-7.8h-9.1l-1.6,7.8h-3.8l5.8-29.3h8.1l6,29.3H587.2z M580.1,108.2l-2.8,14.1h7.6l-2.9-14.1
			H580.1z"/>
		<path class="st0" d="M610.3,130.1v3.7h-13.2l-2.9-3v-26.4h3.7v25.6H610.3z"/>
	</g>
	<g>
		<g>
			<polygon class="st0" points="481.6,-75 463.4,-60.1 486.7,-47.1 505.6,-61.9 			"/>
		</g>
		<g>
			<polygon class="st0" points="488.6,-43.6 488.6,-20.4 506.9,-33.3 506.9,-57.1 			"/>
		</g>
		<g>
			<polygon class="st0" points="462.9,-54.3 462.9,-30.9 483.6,-20.4 483.6,-43.2 			"/>
		</g>
	</g>
	<g>
		<rect x="457.8" y="152" class="st0" width="204" height="3"/>
	</g>
</g>
</svg>
