<svg id="图层_1" xmlns="http://www.w3.org/2000/svg" viewBox="300 -60 550 200"><style>.st0{fill:#1d2084}</style><path class="st0" d="M320.9-22.2h29.5l6.3 6.4v23l-6.3 6.4h-21.5v19.2h27.8v8h-29.5l-6.3-5.6V12l6.3-6.3h21.5v-19.8h-27.8v-8.1zM374.2-22.2h23l6.3 6.4v50.5l-6.4 6.3H374l-6.3-6.3V-16l6.5-6.2zM395.5 33v-47.2h-19.8V33h19.8zM429.8 32.8h5.2v8h-19.7v-8h6.4v-47.2h-6.4v-8h8.2l6.3 6.3v48.9zM451.1-22.2h23.2l6.3 6.3V3.9l-4 4 4 4v22.6l-6.4 6.4H451l-6.3-6.4V11.9l4-4-4-4v-20l6.4-6.1zm21.5 26.1v-18.2h-19.8V3.9h19.8zm0 28.9v-21h-19.8v21h19.8zM338.5 67.1H323v9h12l3.5 3.5v14.8l-3.6 3.5H322l-3.6-3.5V66.1l3.6-3.5h16.4V67h.1zM334 80.6h-11.1v12.9H334V80.6zM352.8 102.4h-4.9v-6.1h4.9v6.1zM362.1 62.8h16.4l3.5 3.5v12.9l-3.5 3.6h-12v10.7H382V98h-16.4l-3.5-3.1v-13l3.5-3.5h12V67.1h-15.5v-4.3zM408.2 66.2v12l-2.2 2.2 2.2 2.2v11.8l-3.5 3.5h-16.5v-4.5h15.5V82.6h-15.1v-4.5h15.1v-11h-15.5v-4.5h16.5l3.5 3.6zM425.8 83.4h-12.9v-4.7h12.9v4.7zM430.3 62.8h16.4l3.5 3.5v12.9l-3.5 3.6h-12v10.7h15.5V98h-16.4l-3.5-3.1v-13l3.5-3.5h12V67.1h-15.5v-4.3zM471.9 62.8h4.5V98h-4.5V86.2H460l-3.5-3.5v-20h4.5v19.1h11v-19h-.1z"/><g><path class="st0" d="M539.5 31.5c0-.6.1-1.2.4-1.6.3-.4.6-.6.9-.6.4 0 .8-.2 1.1-.6s.4-.9.4-1.6V-14c0-.6.2-1.1.6-1.5.4-.4.9-.7 1.5-.7h17.7c.6 0 1.1-.2 1.6-.6s.7-.9.7-1.5v-1.9c0-.6.2-1.1.6-1.5s.9-.6 1.5-.6h1.4c.6 0 1.1.2 1.6.6s.7.9.7 1.5v1.9c0 .6.2 1.1.6 1.5.4.4.9.6 1.4.6h.6c.6 0 1.1-.2 1.5-.5s.6-.8.6-1.4.2-1.1.6-1.4c.4-.4.9-.6 1.5-.6h1.4c.6 0 1.1.2 1.6.7.4.4.6.9.6 1.5v5.4c0 .6-.2 1.1-.6 1.5s-.9.6-1.6.6h-6.3c-.6 0-1.1.2-1.5.7-.4.4-.6.9-.6 1.5v23c0 .6.2 1.1.6 1.6.4.5.9.7 1.4.7h.6c.6 0 1.1-.2 1.5-.7s.6-1 .6-1.6V-4.8c0-.6.2-1.1.6-1.6.4-.5.9-.7 1.5-.7h1.4c.6 0 1.1.2 1.6.7.4.5.6 1 .6 1.6v25.3c0 .6-.2 1.1-.6 1.5-.4.4-.9.7-1.6.7h-6.3c-.6 0-1.1.2-1.5.6s-.6.9-.6 1.5v2.3c0 .6.2 1.1.6 1.5.4.4.9.6 1.5.6h6.3c.6 0 1.1.2 1.6.6.4.4.6.9.6 1.6v1.4c0 .6-.2 1.1-.6 1.5-.4.4-.9.7-1.6.7h-12c-.6 0-1.1-.2-1.5-.7-.4-.4-.6-.9-.6-1.5v-41c0-.6-.2-1.1-.7-1.5s-1-.7-1.6-.7h-11.9c-.6 0-1.1.2-1.5.7-.4.4-.6.9-.6 1.5V-5c0 .6.2 1.1.6 1.5.4.4.9.6 1.5.6h7.5c.6 0 1.1.2 1.5.6s.7.9.7 1.6v33.6c0 .6-.2 1.1-.7 1.5-.4.4-.9.7-1.5.7h-4.9c-.6 0-1.1-.2-1.5-.7-.4-.4-.6-1-.6-1.5v-1.4c0-.6.2-1.2.5-1.6s.7-.6 1.2-.6c.4 0 .8-.2 1.2-.6.3-.4.5-.9.5-1.6V5c0-.6-.2-1.1-.6-1.5-.4-.4-.9-.6-1.5-.6H550c-.6 0-1.1.2-1.5.6s-.5.9-.5 1.5v28c0 .6-.2 1.1-.6 1.5-.4.4-.9.7-1.6.7h-4.4c-.6 0-1.1-.2-1.4-.7-.4-.4-.6-1-.6-1.5v-1.4h.1zM587.3-17.7c0-.6.2-1.1.6-1.5.4-.4.9-.6 1.5-.6h4.6c.6 0 1.1-.1 1.6-.4.4-.2.6-.5.6-.9 0-.3.2-.6.7-.9.4-.2 1-.4 1.6-.4h1.4c.6 0 1.1.1 1.5.4.4.2.7.5.7.9 0 .3.2.6.7.9.4.2 1 .4 1.5.4h5.2c.6 0 1.2.2 1.6.6.4.4.7.9.7 1.5v1.5c0 .6-.2 1.1-.7 1.5-.4.4-1 .7-1.6.7h-5.2c-.6 0-1.1.2-1.5.7-.4.4-.7.9-.7 1.5V-7c0 .6.1 1.1.4 1.5.3.4.6.7 1.1.7.4 0 .7-.2 1-.7.3-.4.4-.9.4-1.5v-1.2c0-.6.2-1.2.7-1.6.4-.4.9-.7 1.5-.7h.9c.6 0 1.1.2 1.5.7.4.4.6 1 .6 1.6V-7c0 .6.1 1.1.2 1.5.2.4.3.7.6.7s.4.2.5.7c.1.4.2.9.2 1.5v1.4c0 .6-.2 1.2-.7 1.6-.4.4-1 .7-1.6.7h-12.1c-.6 0-1.1.2-1.5.6s-.7.8-.7 1.4.2 1.1.7 1.4 1 .6 1.5.6h12.4c.5 0 .8.2 1.2.7s.5.9.5 1.5V33c0 .6-.2 1.1-.6 1.5-.4.4-.9.7-1.5.7h-17.7c-.6 0-1.1-.2-1.5-.7-.4-.4-.7-.9-.7-1.5V16c0-.6-.1-1.1-.3-1.5s-.4-.7-.8-.7c-.3 0-.5-.2-.7-.6-.2-.4-.3-.9-.3-1.6v-1.4c0-.6.1-1.2.3-1.6.2-.4.4-.7.7-.7.7 0 1-.1 1-.2V3.1c0-.6-.1-1.1-.3-1.6-.2-.4-.4-.6-.8-.6-.3 0-.5-.2-.7-.7-.2-.4-.3-1-.3-1.6v-1.4c0-.6.2-1.1.6-1.5.4-.4.9-.7 1.5-.7h4.6c.6 0 1.1-.2 1.6-.7.4-.4.6-.9.6-1.5V-12c0-.6-.2-1.1-.6-1.5-.4-.4-.9-.7-1.6-.7h-4.6c-.6 0-1.1-.2-1.5-.7-.4-.4-.6-1-.6-1.5l.1-1.3zM605.5 13c0-.6-.2-1.2-.6-1.6-.4-.4-.9-.7-1.6-.7h-6.1c-.6 0-1.1.2-1.5.7-.4.4-.7 1-.7 1.6v1.6c0 .6.2 1.1.7 1.6s.9.6 1.5.6h6.1c.6 0 1.1-.2 1.6-.6.4-.4.6-.9.6-1.6V13zm-2.2 16.2c.6 0 1.1-.2 1.6-.6.4-.4.6-.9.6-1.6v-2.3c0-.6-.2-1.1-.6-1.6-.4-.4-.9-.6-1.6-.6h-6.1c-.6 0-1.1.2-1.5.6s-.7.9-.7 1.7V27c0 .6.2 1.1.7 1.6.4.4.9.6 1.5.6h6.1zM629-.8c0 .6-.1 1.2-.4 1.9-.3.7-.6 1.2-.9 1.6-.5.4-.7.8-.7 1.3s.2 1 .6 1.3c.3.3.6.8.9 1.5.3.7.4 1.3.4 1.9v21.5c0 .6-.2 1.1-.6 1.5-.4.4-.9.7-1.5.7h-5.5c-.6 0-1.1.1-1.5.4-.4.2-.7.5-.7.9 0 .3-.2.6-.6.9-.4.2-.9.4-1.5.4h-1.5c-.6 0-1.2-.2-1.6-.7-.4-.4-.6-.9-.6-1.5v-53.1c0-.6.2-1.1.6-1.5.4-.4.9-.6 1.6-.6h11.3c.6 0 1.1.2 1.5.6s.6.9.6 1.5V-.8zm-7.9 2.1c.6 0 1-.2 1.4-.6s.6-.9.6-1.6v-13.5c0-.6-.2-1.1-.6-1.5-.4-.4-.8-.7-1.4-.7s-1.1.2-1.4.7c-.4.4-.6.9-.6 1.5V-.9c0 .6.2 1.1.6 1.6.4.4.9.6 1.4.6zm2 8c0-.6-.2-1.1-.6-1.5-.4-.4-.8-.6-1.4-.6s-1.1.2-1.4.6c-.4.4-.6.9-.6 1.5v15.3c0 .6.2 1.1.6 1.6.4.4.9.6 1.4.6s1-.2 1.4-.6.6-.9.6-1.6V9.3zM546.2 89.8c.5 0 .9-.2 1.2-.5s.5-.8.5-1.2v-9c0-.5-.2-.9-.5-1.2-.3-.4-.7-.5-1.2-.5h-5.6c-.5 0-.9-.2-1.2-.5s-.5-.7-.5-1.2v-1.1c0-.5.2-.9.5-1.3s.7-.6 1.2-.6h5.6c.5 0 .9-.2 1.2-.5s.5-.7.5-1.2v-9c0-.5-.2-.9-.5-1.2s-.7-.5-1.2-.5h-5.6c-.5 0-.9-.2-1.2-.6-.3-.4-.5-.8-.5-1.3v-1.1c0-.5.2-.9.5-1.2s.7-.5 1.2-.5h5.6c.5 0 .9-.2 1.2-.5s.5-.7.5-1.2.2-.9.5-1.2.8-.5 1.2-.5h1.1c.5 0 .9.2 1.3.5.3.3.5.7.5 1.2v42.4c0 .5-.2.9-.5 1.2-.3.4-.8.5-1.3.5h-1.1c-.5 0-.9-.2-1.2-.5-.4-.3-.5-.8-.5-1.2v-.2c0-.5-.2-.9-.5-1.2-.3-.3-.7-.5-1.2-.5h-5.6c-.5 0-.9-.2-1.2-.5-.3-.4-.5-.8-.5-1.2v-1.2c0-.5.2-.9.5-1.2.3-.3.7-.5 1.2-.5h5.6zm16.6-36c0 .5.2.9.5 1.2s.7.5 1.2.5h5.6c.5 0 .9.2 1.2.5s.5.7.5 1.2v1.1c0 .5-.2.9-.5 1.3s-.8.6-1.2.6h-5.6c-.5 0-.9.2-1.2.5s-.5.7-.5 1.2v9c0 .5.2.9.5 1.2s.7.5 1.2.5h5.6c.5 0 .9.2 1.2.6.3.4.5.8.5 1.3v1.1c0 .5-.2.9-.5 1.2s-.8.5-1.2.5h-5.6c-.5 0-.9.2-1.2.5-.3.4-.5.8-.5 1.2v9c0 .5.2.9.5 1.2s.7.5 1.2.5h5.6c.5 0 .9.2 1.2.5s.5.7.5 1.2v1.2c0 .5-.2.9-.5 1.2-.3.4-.8.5-1.2.5h-5.6c-.5 0-.9.2-1.2.5s-.5.7-.5 1.2v.2c0 .5-.2.9-.5 1.2-.3.4-.8.5-1.3.5h-1.1c-.5 0-.9-.2-1.2-.5-.4-.3-.5-.8-.5-1.2V53.8c0-.5.2-.9.5-1.2.4-.3.8-.5 1.2-.5h1.1c.5 0 .9.2 1.3.5.3.4.5.9.5 1.2zM581.1 83.2c.5 0 .9-.2 1.2-.5s.5-.7.5-1.2V65.9c0-.5-.1-.9-.3-1.2s-.4-.5-.7-.5-.6-.1-1.1-.3c-.5-.2-.9-.5-1.2-.8l-1-.9c-.4-.3-.7-.7-.9-1.3s-.4-1.1-.4-1.6v-4.5c0-.5.2-.9.5-1.2s.7-.5 1.2-.5h1.2c.5 0 .9.2 1.2.5s.5.7.5 1.2v3c0 .5 0 .9.1 1.2s.2.5.4.5.3-.2.4-.5.1-.8.1-1.2V54c0-.5.2-.9.5-1.2s.8-.5 1.3-.5h1.1c.5 0 .9.2 1.2.5s.5.7.5 1.2v3.9c0 .5.1.9.4 1.2s.5.5.9.5.7.2.9.5c.3.3.4.7.4 1.2v1.2c0 .5-.1.9-.4 1.3-.3.3-.6.5-.9.5-.3 0-.6.2-.9.5s-.4.7-.4 1.2v15.5c0 .5.1.9.4 1.2.2.3.5.5.9.5s.7.2.9.5c.3.3.4.8.4 1.3v1.1c0 .5-.1.9-.4 1.2-.3.3-.6.5-.9.5-.3 0-.6.2-.9.5-.2.3-.4.7-.4 1.2v6.7c0 .5-.2.9-.5 1.2-.3.4-.7.5-1.2.5h-1.1c-.5 0-.9-.2-1.3-.5-.3-.3-.5-.8-.5-1.2v-6.7c0-.5-.2-.9-.5-1.2s-.8-.5-1.2-.5h-2.3c-.5 0-.9-.2-1.2-.5-.3-.4-.5-.8-.5-1.2v-1c0-.5.2-.9.5-1.3.3-.3.7-.5 1.2-.5h2.3zm15.9 9.4c0 .5-.1 1-.4 1.6-.2.6-.5 1-.9 1.3l-1.3 1.3c-.3.4-.7.7-1.2.9s-1 .3-1.3.3-.6-.2-.9-.5c-.2-.3-.4-.8-.4-1.2v-1.1c0-.5.1-.9.2-1.2.2-.3.4-.5.6-.5.3 0 .5-.2.6-.5s.2-.7.2-1.2V64.4c0-.5.2-.9.5-1.3s.8-.5 1.2-.5h1.1c.5 0 .9.2 1.2.5s.5.8.5 1.3v28.3h.3zm10.6 5.5c-.5 0-.9-.2-1.3-.5-.3-.3-.5-.8-.5-1.2V60.2c0-.5-.2-.9-.5-1.2s-.8-.5-1.2-.5h-7.5c-.5 0-1-.1-1.6-.3s-1-.5-1.4-.8l-1.2-1.2c-.4-.4-.7-.8-.9-1.3s-.3-.9-.3-1.3c0-.3.2-.6.5-.9s.8-.4 1.2-.4h1.1c.5 0 .9.1 1.3.2.3.2.5.4.5.6s.2.4.5.6c.3.2.8.2 1.2.2h11.3c.5 0 .9.2 1.2.5.3.4.5.8.5 1.2v40.7c0 .5-.2.9-.5 1.2s-.7.5-1.2.5h-1.2zm-9-4.7c.3 0 .5-.2.6-.5s.2-.7.2-1.2V64.4c0-.5.2-.9.5-1.3.3-.3.7-.5 1.2-.5h1.2c.5 0 .9.2 1.2.5s.5.8.5 1.3v28.3c0 .5-.1 1-.4 1.6-.2.6-.5 1-.9 1.3l-1.2 1.3c-.4.4-.8.7-1.3.9-.5.2-.9.3-1.3.3s-.7-.2-.9-.5-.4-.8-.4-1.2v-1.1c0-.5.1-.9.2-1.2.3-.5.5-.7.8-.7zM615.3 95.1c0-.5.1-.9.3-1.3.2-.3.5-.5.8-.5s.5-.2.7-.5.3-.8.3-1.3V55.6c0-.5.2-.9.5-1.2.4-.3.8-.5 1.3-.5h23.4c.5 0 .9-.1 1.2-.3s.5-.4.5-.6c0-.3.2-.5.6-.6s.8-.2 1.3-.2h1.2c.5 0 .9.1 1.2.3.4.2.5.5.5.8s-.1.7-.3 1.2-.5.9-.8 1.2l-1 1c-.3.4-.7.7-1.3.9-.6.3-1.1.4-1.6.4h-3.4c-.5 0-.9.2-1.3.5-.4.4-.5.8-.5 1.2V61c0 .5.2.9.5 1.3.4.3.8.5 1.3.5h6.8c.5 0 .9.2 1.3.5.3.3.5.8.5 1.3v1.1c0 .5-.2.9-.5 1.2s-.8.5-1.3.5h-6.8c-.5 0-.9.2-1.3.5-.4.4-.5.8-.5 1.2v.3c0 .5.2.9.5 1.3.4.3.8.5 1.3.5h6.8c.5 0 .9.2 1.3.5s.5.8.5 1.3v14.2c0 .5-.2.9-.5 1.2-.3.4-.8.5-1.3.5h-1.1c-.5 0-.9-.2-1.2-.5-.4-.3-.5-.8-.5-1.2v-9.6c0-.5-.2-.9-.6-1.2-.4-.3-.8-.5-1.3-.5h-12.3c-.5 0-.9.2-1.3.5-.4.4-.5.8-.5 1.2v10.5c0 .5-.2.9-.5 1.3-.3.3-.8.5-1.2.5h-1c-.5 0-.9-.2-1.3-.5-.3-.3-.5-.8-.5-1.3v-15c0-.5.2-.9.5-1.3s.8-.5 1.3-.5h6.6c.5 0 1-.2 1.3-.5s.5-.8.5-1.3v-.3c0-.5-.2-.9-.5-1.2-.3-.4-.8-.5-1.3-.5h-8.5c-.5 0-.9.2-1.2.5s-.5.8-.5 1.2v23.3c0 .5-.1 1-.3 1.6-.2.6-.5 1-.9 1.3l-1.2 1.3c-.3.4-.8.7-1.3.9-.5.2-1 .3-1.4.3-.5 0-.8-.2-1.1-.5s-.4-.8-.4-1.3v-1h-.5zm8.5-37.1c-.5 0-.9.2-1.2.5-.4.4-.5.8-.5 1.2V61c0 .5.2.9.5 1.3s.8.5 1.2.5h8.5c.5 0 1-.2 1.3-.5s.5-.8.5-1.3v-1.2c0-.5-.2-.9-.5-1.2-.3-.4-.8-.5-1.3-.5l-8.5-.1zM637 77.9c.5 0 .9.2 1.2.5s.5.7.5 1.2v3.2c0 .5.1 1.1.3 1.7.2.6.5 1.1.7 1.5l4 5.8c.3.4.7.8 1.3 1s1.1.4 1.6.4h.6c.5 0 .9.2 1.3.5.3.4.5.8.5 1.2V96c0 .5-.2.9-.5 1.3-.3.3-.8.5-1.3.5h-3.1c-.5 0-1-.1-1.6-.4s-1-.6-1.2-1.1l-3.9-5.6c-.3-.4-.7-.6-1.1-.6s-.7.2-1 .6l-4 5.6c-.3.4-.7.8-1.2 1.1-.6.3-1.1.4-1.5.4h-3.1c-.5 0-.9-.2-1.3-.5-.3-.3-.5-.8-.5-1.3v-.9c0-.5.2-.9.5-1.2.3-.4.8-.5 1.3-.5h.6c.5 0 1-.1 1.5-.4.5-.2 1-.6 1.3-1l4-5.8c.3-.4.5-.9.7-1.5.2-.6.3-1.2.3-1.7v-3.2c0-.5.2-.9.5-1.2s.8-.5 1.3-.5h1.3v-.2zM655 66.9c0-.5-.1-.9-.2-1.2-.2-.3-.3-.5-.5-.5s-.4-.2-.5-.5-.2-.8-.2-1.2v-1.2c0-.5.1-.9.3-1.2s.5-.5.8-.5h3.2c.5 0 .9.2 1.2.5.4.3.5.7.5 1.2V87c0 .5.1 1 .3 1.5s.5.9.8 1.2.6.4.8.2.3-.5.3-.9v-.2c0-.5.2-.9.5-1.2s.7-.5 1.2-.5h3.4c.4 0 .9-.1 1.5-.4.5-.3 1-.6 1.2-1l1-1.3c.3-.4.5-.8.7-1.3s.3-.9.3-1.2c0-.3.2-.6.5-.8s.7-.3 1.2-.3h1.1c.5 0 .9.1 1.2.3.3.2.5.5.5.8s.1.7.3 1.2.5.9.8 1.3l1.3 1.5c.3.4.7.7 1.3.9s1.1.4 1.6.4h3.5c.5 0 .9.2 1.3.5.3.3.5.8.5 1.2v1.2c0 .5-.2.9-.5 1.2-.3.3-.7.5-1.2.5h-5.5c-.5 0-1-.1-1.5-.4s-1-.6-1.4-.9l-1.3-1.5c-.4-.3-.8-.5-1.2-.5s-.8.2-1 .6l-1 1.2c-.3.4-.7.7-1.3 1-.5.3-1.1.4-1.5.4h-4.8c-.5 0-.8.1-.9.2-.2.2-.1.4.2.6.3.3.7.5 1.2.7s1.1.3 1.5.3H685c.5 0 .9.2 1.2.5s.5.8.5 1.2v1.1c0 .5-.2.9-.5 1.2-.3.4-.8.5-1.3.5h-20.4c-.5 0-1-.1-1.6-.3s-1.1-.5-1.4-.8l-1.2-1.1c-.4-.4-.8-.5-1.3-.5s-.9.2-1.2.5l-1 1c-.4.4-.8.7-1.3.9-.5.2-.9.3-1.3.3-.3 0-.6-.2-.8-.5s-.3-.8-.3-1.2v-1.1c0-.5.1-.9.2-1.2.1-.3.3-.5.5-.5s.4-.1.5-.3c.2-.2.2-.5.2-.9V66.9h.5zm3-9.4c-.3.4-.7.5-1.2.5s-.9-.2-1.3-.5l-.8-.8c-.3-.4-.5-.8-.5-1.2 0-.5.2-.9.5-1.2l.8-.8c.4-.3.8-.5 1.3-.5s.9.2 1.2.5l.8.8c.4.4.5.8.5 1.2 0 .5-.2.9-.5 1.2l-.8.8zm27.2-3.2c.5 0 .9.2 1.3.5.3.4.5.8.5 1.2v5.6c0 .5-.1 1-.4 1.6-.2.6-.5 1-.9 1.4l-1.3 1.2c-.4.4-.8.7-1.4.9-.6.2-1.1.3-1.6.3h-3.3c-.5 0-.9.1-1.3.2-.3.1-.5.3-.5.5s.2.3.5.5c.3.1.8.2 1.3.2h7c.5 0 .9.2 1.3.5.3.3.5.8.5 1.3v1.1c0 .5-.2.9-.5 1.2-.3.3-.8.5-1.3.5h-21.6c-.5 0-.9-.2-1.2-.5s-.5-.7-.5-1.2v-1.1c0-.5.2-.9.5-1.3s.7-.5 1.2-.5h6.5c.5 0 .9-.1 1.2-.2.3-.1.5-.3.5-.5s-.2-.4-.5-.5c-.3-.1-.7-.2-1.2-.2h-6.5c-.5 0-.9-.2-1.2-.5s-.5-.8-.5-1.2V56c0-.5.2-.9.5-1.2.3-.4.7-.5 1.2-.5h6.5c.5 0 .9-.1 1.2-.3s.5-.4.5-.7.2-.6.5-.8.7-.3 1.2-.3h1.2c.5 0 .9.1 1.2.3s.5.5.5.8.2.5.5.7.8.3 1.3.3c.1.1 7.1.1 7.1 0zm-1.1 31.3c-.5 0-.9-.2-1.2-.5s-.5-.8-.5-1.2V81c0-.5-.2-.9-.5-1.2s-.8-.5-1.2-.5h-12.3c-.5 0-.9.2-1.2.5s-.5.8-.5 1.2v2.9c0 .5-.2.9-.5 1.2-.4.3-.8.5-1.2.5h-1.2c-.5 0-.9-.2-1.2-.5s-.5-.8-.5-1.2v-7.5c0-.5.2-.9.5-1.2.3-.3.7-.5 1.2-.5h21.6c.5 0 .9.2 1.3.5s.5.8.5 1.2v7.5c0 .5-.2.9-.5 1.2s-.8.5-1.3.5h-1.3zm-13.9-23.1c.5 0 .9-.2 1.2-.5s.5-.7.5-1.2v-.1c0-.5-.2-.9-.5-1.2s-.7-.5-1.2-.5h-1.8c-.5 0-.9.2-1.2.5s-.5.7-.5 1.2v.1c0 .5.2.9.5 1.2s.8.5 1.2.5h1.8zm10.4 0c.5 0 .9-.2 1.2-.5s.5-.7.5-1.2v-.1c0-.5-.2-.9-.5-1.2s-.8-.5-1.2-.5h-2.3c-.5 0-.9.2-1.2.5s-.5.7-.5 1.2v.1c0 .5.2.9.5 1.2s.7.5 1.2.5h2.3zM699.6 96.4c0 .5-.2.9-.5 1.2-.3.4-.7.5-1.2.5h-4.4c-.5 0-.9-.2-1.2-.5s-.5-.8-.5-1.2v-1.1c0-.5.1-.9.4-1.2.3-.3.7-.5 1.1-.5.5 0 .8-.2 1.2-.5s.5-.7.5-1.2v-18c0-.5.2-.9.5-1.2.3-.4.8-.5 1.3-.5h.6c.5 0 .9-.2 1.2-.5s.5-.7.5-1.2v-2.8c0-.5-.2-.9-.5-1.2-.3-.3-.8-.5-1.2-.5h-.6c-.5 0-.9-.2-1.3-.5-.3-.3-.5-.7-.5-1.2v-1.1c0-.5.2-.9.5-1.3s.8-.6 1.3-.6h26.5c.5 0 .9.2 1.2.6s.5.8.5 1.3v.9c0 .5-.2.9-.5 1.2-.4.3-.8.5-1.2.5-.5 0-.9.2-1.3.5s-.5.8-.5 1.2v2.8c0 .5.2.9.5 1.2.3.3.8.5 1.3.5s.9.2 1.2.5c.4.4.5.8.5 1.2v1c0 .5-.2.9-.5 1.3-.4.4-.8.5-1.2.5h-21.8c-.5 0-.9.2-1.3.5-.3.3-.5.8-.5 1.2l-.1 18.2zm20.7-43.3c0-.3.2-.5.5-.7s.8-.3 1.2-.3h1c.5 0 .9.1 1.2.4.4.3.5.6.5 1v3.3c0 .5-.2.9-.5 1.2-.4.4-.8.5-1.2.5h-26.4c-.5 0-.9-.2-1.2-.5-.3-.4-.5-.8-.5-1.2v-1.2c0-.5.2-.9.5-1.2s.7-.5 1.2-.5h21.8c.5 0 .9-.1 1.2-.3.5 0 .7-.3.7-.5zm-15 12.7c-.5 0-.9.2-1.2.5s-.5.8-.5 1.2v2.8c0 .5.2.9.5 1.2.3.3.8.5 1.2.5h9.6c.5 0 .9-.2 1.2-.5s.5-.7.5-1.2v-2.8c0-.5-.2-.9-.5-1.2-.3-.3-.7-.5-1.2-.5h-9.6zM758.6 52.2c.5 0 .9.2 1.3.5.3.3.5.7.5 1.2V68c0 .5.1.9.4 1.2.3.3.5.5.9.5.3 0 .6.2.9.5s.4.8.4 1.2v1.1c0 .5-.2.9-.5 1.3s-.8.5-1.2.5h-3.7c-.5 0-.9-.2-1.2-.5s-.4-.8-.4-1.3v-14c0-.5-.2-.9-.5-1.2s-.7-.5-1.2-.5h-15.1c-.5 0-.9.2-1.3.5-.3.4-.5.8-.5 1.2v14.1c0 .5-.2.9-.5 1.3s-.8.5-1.2.5H732c-.5 0-.9-.2-1.2-.5-.3-.4-.5-.8-.5-1.3v-1.1c0-.5.1-.9.4-1.2.2-.4.6-.5.9-.5.3 0 .6-.2.8-.5s.3-.8.3-1.2v-15c0-.3.2-.5.5-.7s.8-.3 1.2-.3h24.3v.1zm-20.3 22.2c.5 0 .9.2 1.1.5s.3.7.3 1.2l-3.3 15.6c-.1.5 0 .9.2 1.2s.6.5 1.1.5h17c.5 0 .9-.2 1.2-.5s.5-.7.5-1.2V83c0-.5.2-.9.5-1.2.4-.3.8-.5 1.2-.5h1.2c.5 0 .9.2 1.2.5s.5.8.5 1.2v13.3c0 .5-.2.9-.5 1.2-.3.4-.7.5-1.2.5H733c-.5 0-.9-.2-1.2-.5s-.5-.8-.5-1.2v-2.1c0-.5 0-1 .1-1.7s.2-1.3.2-1.7l3-14.6c.1-.5.4-.9.8-1.2.4-.3.9-.5 1.4-.5h1.5v-.1zM768.2 53.8c0-.5.2-.9.5-1.2s.7-.5 1.2-.5h29.9c.5 0 .9.2 1.2.5s.5.7.5 1.2v38.8c0 .5-.1 1-.4 1.6-.2.6-.5 1-.8 1.3l-1.2 1.3c-.4.4-.8.7-1.4.9-.6.2-1.1.3-1.6.3H770c-.5 0-.9-.1-1.2-.2-.3-.1-.5-.3-.5-.5V53.8zm28.8 4.7c0-.5-.2-.9-.5-1.2-.3-.4-.8-.5-1.2-.5h-20.5c-.5 0-.9.2-1.2.5s-.5.8-.5 1.2v33.1c0 .5.2.9.5 1.2.3.3.7.5 1.2.5h20.5c.5 0 .9-.2 1.2-.5s.5-.7.5-1.2V58.5zm-2 5c0 .5-.2.9-.5 1.2s-.7.5-1.2.5h-16.9c-.5 0-.9-.2-1.2-.5s-.5-.7-.5-1.2v-1.1c0-.5.2-.9.5-1.2s.8-.5 1.2-.5h16.9c.5 0 .9.2 1.2.5s.5.7.5 1.2v1.1zm-18.8 22.4c.5 0 .8-.2 1.1-.5s.5-.7.5-1.2V77c0-.5-.2-.9-.5-1.2-.3-.3-.7-.5-1.1-.5-.4 0-.8-.2-1-.5s-.4-.8-.4-1.2v-1.2c0-.5.2-.9.5-1.2.3-.3.8-.5 1.2-.5h16.9c.5 0 .9.2 1.2.5s.5.7.5 1.2v1.2c0 .5-.1.9-.4 1.2-.3.3-.6.5-1.1.5-.4 0-.8.2-1.1.5s-.5.7-.5 1.2v7.2c0 .5.2.9.5 1.2.3.3.7.5 1.1.5.4 0 .8.2 1.1.5s.4.8.4 1.3v1.1c0 .5-.2.9-.5 1.2-.3.3-.7.5-1.2.5h-.4c-.5 0-1-.1-1.6-.3s-1-.5-1.4-.9l-1.3-1.2c-.3-.3-.6-.8-.9-1.4-.3-.6-.4-1.1-.4-1.6v-8.2c0-.5-.2-.9-.5-1.2s-.8-.5-1.2-.5h-1.5c-.5 0-.9.2-1.2.5s-.5.7-.5 1.2v8.2c0 .5-.1 1-.4 1.6-.2.6-.5 1-.9 1.4l-1.3 1.2c-.4.4-.8.7-1.4.9-.6.2-1.1.3-1.6.3h-.5c-.5 0-.9-.2-1.2-.5s-.5-.7-.5-1.2v-1.1c0-.5.1-.9.4-1.3.2-.3.7-.5 1.1-.5z"/></g><g><path class="st0" d="M512.5-21.5h3v121.7h-3z"/></g></svg>