<?xml version="1.0" encoding="utf-8"?>
<!-- Generator: Adobe Illustrator 19.0.0, SVG Export Plug-In . SVG Version: 6.00 Build 0)  -->
<svg version="1.1" id="图层_1" xmlns="http://www.w3.org/2000/svg" xmlns:xlink="http://www.w3.org/1999/xlink" x="0px" y="0px"
	 viewBox="260 -260 600 600" style="enable-background:new 260 -260 600 600;" xml:space="preserve">
<style type="text/css">
	.st0{opacity:0.94;}
	.st1{enable-background:new    ;}
	.st2{fill:#FEE00D;stroke:#DABD00;stroke-width:6;stroke-linejoin:round;stroke-miterlimit:10;}
	.st3{fill:#FFE00E;stroke:#DABD00;stroke-width:6;stroke-linejoin:round;stroke-miterlimit:10;}
	.st4{fill:#ECD007;stroke:#DABD00;stroke-width:6;stroke-linejoin:round;stroke-miterlimit:10;}
	.st5{fill:#3A0633;}
	.st6{fill:#E35B1D;}
	.st7{fill:#190200;}
	.st8{fill:#FFFD00;}
	.st9{fill:#9610FF;}
	.st10{fill:#863270;}
	.st11{fill:#D854E1;}
	.st12{fill:#410D7A;}
	.st13{fill:#626361;}
	.st14{fill:#FFFFFF;}
	.st15{fill:#663301;}
</style>
<g class="st0">
	<g class="st1">
		<g>
			<polygon class="st2" points="2651.3,-363 2443.3,-210.8 2190.2,-333.7 2399.1,-488.9 			"/>
		</g>
		<g>
			<polygon class="st3" points="2651.3,-363 2651.5,-104.3 2442.6,48.9 2443.3,-210.8 			"/>
		</g>
		<g>
			<polygon class="st4" points="2443.3,-210.8 2442.6,48.9 2188.5,-78 2190.2,-333.7 			"/>
		</g>
	</g>
</g>
<g>
	<g transform="matrix( 1, 0, 0, 1, 58.2,8.55) ">
		<g>
			<g id="Layer0_1_FILL">
				<path class="st5" d="M431.2,7.3h-17.8l17.8,17.8V7.3 M473.3-2.6h-2.5l6,10h6.5L473.3-2.6 M432-11.3l5,4.9h16.6v0.1l13.7,13.7
					h4.6L452-11.3H432 M568.6,43.4V22.3l-10.5,10.6L568.6,43.4 M549.7-11.3V3.4l19,18.9V7.6L549.7-11.3 M539.4-11.3h-18.2
					l-26.8,26.8v7.8h10.4L539.4-11.3z"/>
				<path class="st6" d="M458.6,16l8.6,8.5V7.4L458.6,16z"/>
				<path class="st7" d="M458.6,16L458.6,16l-0.1,17.3l8.7-8.7L458.6,16 M479.9,20.1l-4.1-4l-4.1,4H479.9z"/>
				<path class="st8" d="M486.3,7.4h8.1v-8.1L486.3,7.4 M484.3,24.6l-4.4-4.5h-8.2l-4.4,4.5H484.3 M473.3-2.6h3.7L464-24.9h-13.7
					l8.9,13.6H452l19.8,18.7v0.1l5-0.1l-6-10H473.3z"/>
				<path class="st9" d="M503.1,43.4l-8.7-8.7l-9.8-9.8l-8.5,8.4l-8.9-8.7v19.3l17.7,17.8l0.1-0.1L503.1,43.4L503.1,43.4
					 M526.9,24.4h-4.7l63.3,63.3h4.7L526.9,24.4z"/>
				<path class="st10" d="M494.4,23.3v-7.8l-8.1-8.2h-3h-6.5l-5,0.1V7.4h-4.6v17.2l4.4-4.5l4.1-4l4.1,4l4.4,4.5h-17.1l8.9,8.7
					l8.5-8.4l9.8,9.8V23.3 M511.5,69h1.2v1.2l8.7-8.6l7.7,7.7h1.1v1.2l9.6-9.6l-17.5-17.5h-19.1l0,0L485,61.6h19.1L511.5,69z"/>
				<path class="st11" d="M437-6.4l-5-4.9L413.4,7.3h17.8h19.4v19.9l16.6,16.6V24.6l-8.7,8.7V16.1v-0.2l0.1,0.2l8.6-8.6L453.5-6.3
					v-0.1H437 M549.7-11.3h-10.3l-34.6,34.6h-10.4v11.3l8.7,8.7l19-19h4.7h22.9l8.4,8.5l10.5-10.6l-19-18.9V-11.3z"/>
				<path class="st12" d="M522.2,43.4l17.5,17.5l27,26.9h18.7l-63.3-63.3l-19,19H522.2 M520.6,69.3v10.4h1.2v-9.2h8.3v-1.2h-1.1
					H520.6 M512.7,69h-1.2H495l9.6,9.7l0.9-0.9l-7.7-7.6h14.8V69z"/>
			</g>
		</g>
	</g>
	<g transform="matrix( 1, 0, 0, 1, 58.2,8.55) ">
		<g>
			<g id="Layer0_1_MEMBER_0_FILL">
				<path class="st8" d="M535.1-24.9h-13.7L508.6-2.6h6.1l-12.5,20.9l31.3-29.5h-7.3L535.1-24.9z"/>
			</g>
		</g>
	</g>
	<g>
		<g transform="matrix( 1, 0, 0, 1, 58.2,8.55) ">
			<g>
				<g id="Layer0_6_MEMBER_0_FILL">
					<path d="M508.4,54.3l-0.1-6.4l-14.2-14.2l-6.4-0.1l-4.6,4.6l0.1,4.6l-4.3,4.3h-10.7l-9.7,9.7v16.4l10.3,10.4h16.3l9.8-9.8V63.1
						l4.4-4.4h4.5L508.4,54.3z"/>
				</g>
			</g>
		</g>
		<g transform="matrix( 1, 0, 0, 1, 58.2,8.55) ">
			<g>
				<g id="Layer0_6_MEMBER_1_FILL">
					<path d="M485.2,47.1l-5.1,5.1l5.1,5.1l5.1-5.1L485.2,47.1 M485.2,68.7l-2.8,2.8l2.8,2.9l2.9-2.9L485.2,68.7 M487.8,60.8
						l-2.6,2.6l2.6,2.6l2.6-2.6L487.8,60.8 M525.7,17l-5.1-5.2l-21.9,22l-11,11l5.1,5.1l11-11L525.7,17z"/>
					<path class="st13" d="M482.3,60.4l3-3l-5.1-5.1l-3,3L482.3,60.4 M485.2,47.1l-2.7-2.7l-5.1,5.1l2.8,2.7L485.2,47.1 M490.5,52.2
						l2.3-2.4l-5.1-5.1l-2.4,2.4L490.5,52.2 M493.2,55l-2.7-2.8l-5.1,5.1l2.7,2.7L493.2,55 M528,19.1l2.5-2.6l-2.2-2.2l-2.6,2.6
						L528,19.1 M520.6,11.7l2.6-2.6l-2.3-2.3l-2.6,2.6L520.6,11.7 M531.4,11.3l2.2,2.2l2.6-2.6L534,8.7L531.4,11.3 M526.5,1.3
						L524,3.9l2.3,2.3l2.6-2.6L526.5,1.3z"/>
					<path class="st14" d="M508.4,49.8l-0.1-6.4l-4.5-4.5l-11,11l-2.3,2.4l2.7,2.8l-5.1,5.1l-2.7-2.7l-3,3l-5.1-5.1l3-3l-2.8-2.7
						l5.1-5.1l2.7,2.7l2.4-2.4l11-11l-4.6-4.6l-6.4-0.1l-4.6,4.6l0.1,4.6l-4.3,4.3h-10.7l-9.7,9.7v16.4l10.3,10.4h16.3l9.8-9.8V58.6
						l4.4-4.4h4.5L508.4,49.8 M469.2,58l2.5-2.5l10.6,10.6l-2.6,2.6L469.2,58 M485.2,63.4l2.6-2.6l2.6,2.6l-2.6,2.6L485.2,63.4
						 M482.4,71.5l2.8-2.8l2.9,2.8l-2.9,2.9L482.4,71.5z"/>
					<path class="st15" d="M471.6,55.5l-2.5,2.5l10.6,10.6l2.6-2.6L471.6,55.5 M531.4,0.9l-2.6,2.6l-2.6,2.6l-3,3l-2.6,2.6l5.1,5.2
						l2.6-2.6l3.1-3.1l2.6-2.6l2.6-2.6L531.4,0.9z"/>
				</g>
			</g>
		</g>
	</g>
</g>
</svg>
