<?xml version="1.0" encoding="utf-8"?>
<!-- Generator: Adobe Illustrator 19.0.0, SVG Export Plug-In . SVG Version: 6.00 Build 0)  -->
<svg version="1.1" id="图层_1" xmlns="http://www.w3.org/2000/svg" xmlns:xlink="http://www.w3.org/1999/xlink" x="0px" y="0px"
	 viewBox="260 -260 600 600" style="enable-background:new 260 -260 600 600;" xml:space="preserve">
<style type="text/css">
	.st0{opacity:0.94;}
	.st1{enable-background:new    ;}
	.st2{fill:#FEE00D;stroke:#DABD00;stroke-width:6;stroke-linejoin:round;stroke-miterlimit:10;}
	.st3{fill:#FFE00E;stroke:#DABD00;stroke-width:6;stroke-linejoin:round;stroke-miterlimit:10;}
	.st4{fill:#ECD007;stroke:#DABD00;stroke-width:6;stroke-linejoin:round;stroke-miterlimit:10;}
	.st5{fill:#666666;}
	.st6{fill:#CACACA;}
	.st7{fill:#6ABB46;}
	.st8{fill:#F24E0F;}
	.st9{fill:#29495C;}
	.st10{fill:#869D14;}
	.st11{fill:#FF2D09;}
	.st12{fill:#EBEF19;}
	.st13{fill:#16826C;}
	.st14{fill:#FBFFE0;}
	.st15{fill:#002256;}
	.st16{fill:#C9E63A;}
	.st17{fill:#ADD819;}
	.st18{fill:#E76967;}
</style>
<g class="st0">
	<g class="st1">
		<g>
			<polygon class="st2" points="2911.3,-623 2703.3,-470.8 2450.2,-593.7 2659.1,-748.9 			"/>
		</g>
		<g>
			<polygon class="st3" points="2911.3,-623 2911.5,-364.3 2702.6,-211.1 2703.3,-470.8 			"/>
		</g>
		<g>
			<polygon class="st4" points="2703.3,-470.8 2702.6,-211.1 2448.5,-338 2450.2,-593.7 			"/>
		</g>
	</g>
</g>
<g>
	<g transform="matrix( 1, 0, 0, 1, 58.2,8.55) ">
		<g>
			<g id="Layer0_11_FILL_1_">
				<path class="st5" d="M553,0.5h0.3l-1.6-1.6h-9.2l1.6,1.6h0.1h2.2h2.2h2.1H553 M508.9-34.6l3.2,3.2l9.2-0.1l-3.2-3.2L508.9-34.6z
					"/>
				<path class="st6" d="M553.3,0.5H553l3.5,3.5L553,0.5h-2.3l3.6,3.5l-3.6-3.5h-2.1l3.5,3.5l-3.5-3.5h-2.2l3.5,3.5l-3.5-3.5h-2.2
					l3.5,3.5l-3.5-3.5h-0.1h-1.4v3l18.1,18.1l-0.4-16.2l-4.9-4.9H553.3z"/>
				<path d="M521.3-31.5l-9.2,0.1l30.4,30.3h9.2L521.3-31.5z"/>
			</g>
		</g>
		<g>
			<g id="Layer0_11_1_STROKES_1_">
				<path class="st5" d="M547.4,4.3c0.1,0.1,0.2,0.1,0.3,0.1c0.1,0,0.2,0,0.3-0.1c0.2-0.2,0.2-0.4,0-0.5l-2.9-2.9H544L547.4,4.3z"/>
				<path class="st5" d="M556.8,3.8l-2.9-2.9h-1.1l3.5,3.5c0.1,0.1,0.2,0.1,0.3,0.1c0.1,0,0.2,0,0.3-0.1C557,4.2,557,3.9,556.8,3.8z
					"/>
				<path class="st5" d="M554.1,4.3c0.1,0.1,0.2,0.1,0.3,0.1c0.1,0,0.2,0,0.3-0.1c0.1-0.2,0.1-0.4,0-0.5l-3-2.9h-1.1L554.1,4.3z"/>
				<path class="st5" d="M551.9,4.3c0.1,0.1,0.2,0.1,0.3,0.1c0.1,0,0.2,0,0.3-0.1c0.2-0.2,0.2-0.4,0-0.5l-2.9-2.9h-1.1L551.9,4.3z"
					/>
				<path class="st5" d="M549.7,4.3c0.1,0.1,0.2,0.1,0.3,0.1c0.1,0,0.2,0,0.3-0.1c0.2-0.2,0.2-0.4,0-0.5l-2.9-2.9h-1.1L549.7,4.3z"
					/>
			</g>
		</g>
	</g>
	<g transform="matrix( 1, 0, 0, 1, 58.2,8.55) ">
		<g>
			<g id="Layer0_12_FILL_1_">
				<path class="st7" d="M514.3,44.6l1,1l52,52.1v-4.5l-52.9-53V44.6 M482.6,21.9l-32.9,32.9h-0.1L436,68.6l9,0.1l19.6,0.1l8.2-8.1
					l7.2-7.3l31.3-31.3c-0.1,0-0.3,0-0.4,0c-0.1,0-0.3,0-0.5,0v-0.1h1v-0.2h-14.3h-5.2l0.1,0.1L482.6,21.9 M443.4-30.9h-4.6
					l45.4,45.3l2.2-2.2L443.4-30.9z"/>
				<path class="st8" d="M504.3,59.9c-0.2-0.2-0.4-0.3-0.7-0.3c-0.3,0-0.6,0-0.8,0.3l-10.2,10.2l0.1-9.5h-2.3v12.2
					c0,0.5,0.2,0.8,0.7,1c0.5,0.2,0.9,0.1,1.2-0.2l12.1-12.1c0.2-0.3,0.4-0.6,0.4-0.9C504.7,60.4,504.6,60.1,504.3,59.9 M531.9,0.3
					h5.3l-6.4-6.4l-6.3,6.4H531.9 M543.9-19.1h-7.3l-5.8,5.8v7.2L543.9-19.1z"/>
				<path class="st9" d="M514.3,35.5l0.1-1h-0.1V35.5z"/>
				<path class="st10" d="M511.2,22.1c0,0.3,0,0.6,0,0.9l0.2,26.5l3.9-4l-1-1v-4.5l52.9,53v-4.6l-12.2-12.3l-0.1-5.4
					c-0.1-0.6-0.1-1.2,0-1.7l-0.7-18.9l-12.6,12.6l-2.4-27.6l-12.7,12.7l-0.1-25.6l-12.2,13.2v-1h0.1V22.1h-0.1v-0.2h-3.1V22.1
					l-1-0.1v0.1c0.2,0,0.4,0,0.5,0C510.9,22.1,511,22.1,511.2,22.1 M464.6,68.8l-19.6-0.1l-4.5,4.5H464l12.5-12.5h-3.8L464.6,68.8
					 M452-26.7l-0.2-0.3h-0.1l-0.9-0.9V-28l-2.9-2.9h-4.5l43,43.1l2.3-2.3l-0.7-0.7l-1.6-27L473.6-5.1l-0.1-25.5l-12.7,12.7l-7.9-8
					h-0.1L452-26.7L452-26.7z"/>
				<path class="st11" d="M511.2,23c0-0.3,0-0.6,0-0.9l-31.3,31.3l27.4,0.1h4.1v-4L511.2,23"/>
				<path class="st12" d="M484.2,14.4l-7.6,7.5h6l9.1,0.1l-0.1-0.1h5.2L507,11.8l-0.1-0.1l0.5-0.4l6.9-6.9V-8c0-0.6,0-1.3,0-1.9
					l-0.1-5.9L488.7,9.9l-2.3,2.3L484.2,14.4"/>
				<polygon class="st12" points="530.8,-15.8 530.8,-13.3 536.6,-19.1 530.8,-19.1 				"/>
				<path class="st13" d="M507.4,11.3l-0.5,0.4l0.1,0.1l-10.1,10.1h14.3h3.1v0.2h0.1V4.4L507.4,11.3 M472.7,60.7h3.8h13.8h2.3h7.4
					l7.2-7.1l-27.4-0.1L472.7,60.7z"/>
				<path class="st14" d="M530.8-13.3v-2.5l-4.9,4.9l4.9,4.8V-13.3z"/>
				<path class="st15" d="M530.8-15.8H521l4.9,4.9L530.8-15.8z"/>
				<path class="st16" d="M515-16.5l2.6,2.6v7.9l6.7,6.6l0.2-0.2l6.3-6.4l-4.9-4.8l-4.9-4.9h9.8v-3.3h-13.2L515-16.5z"/>
				<path class="st17" d="M517.6-14l-2.6-2.6l-14-14.2l-53.1-0.2l2.9,2.9v0.1l0.9,0.9h0.1l0.2,0.3v0.1l0.8,0.7h0.1l7.9,8l12.7-12.7
					l0.1,25.5l12.7-12.7l1.6,27l0.7,0.7l25.6-25.7l0.1,5.9c0,0.6,0,1.3,0,1.9V4.4v17.6v12.4l-0.1,1l12.2-13.2l0.1,25.6l12.7-12.7
					l2.4,27.6l12.6-12.6l0.7,18.9c-0.1,0.5-0.1,1.1,0,1.7l0.1,5.4l12.2,12.3l0.4,0.3l-0.4-53l-0.1-0.2L531.9,0.3h-7.4l-0.2,0.2
					l-6.7-6.6V-14 M514.6,10.3v0.1V10.3L514.6,10.3z"/>
				<path class="st18" d="M514.6,10.5v-0.1h-0.1L514.6,10.5z"/>
			</g>
		</g>
	</g>
</g>
</svg>
