<?xml version="1.0" encoding="utf-8"?>
<!-- Generator: Adobe Illustrator 19.0.0, SVG Export Plug-In . SVG Version: 6.00 Build 0)  -->
<svg version="1.1" id="图层_1" xmlns="http://www.w3.org/2000/svg" xmlns:xlink="http://www.w3.org/1999/xlink" x="0px" y="0px"
	 viewBox="260 -260 600 600" style="enable-background:new 260 -260 600 600;" xml:space="preserve">
<style type="text/css">
	.st0{opacity:0.94;}
	.st1{enable-background:new    ;}
	.st2{fill:#FEE00D;stroke:#DABD00;stroke-width:6;stroke-linejoin:round;stroke-miterlimit:10;}
	.st3{fill:#FFE00E;stroke:#DABD00;stroke-width:6;stroke-linejoin:round;stroke-miterlimit:10;}
	.st4{fill:#ECD007;stroke:#DABD00;stroke-width:6;stroke-linejoin:round;stroke-miterlimit:10;}
	.st5{fill:#333333;}
	.st6{fill:#ECC843;}
	.st7{fill:#4A94D3;}
	.st8{fill:#255ED7;}
	.st9{fill:#6EB7EB;}
	.st10{fill:#2C67C4;}
	.st11{fill:#1921EA;}
	.st12{fill:#FF0000;}
	.st13{fill:#625FD7;}
	.st14{fill:#190200;}
	.st15{fill:#FFFFFF;}
	.st16{fill:#979797;}
	.st17{fill:#AAB5B8;}
	.st18{fill:#666666;}
	.st19{fill:#CACACA;}
	.st20{fill:#C4D0D3;}
</style>
<g class="st0">
	<g class="st1">
		<g>
			<polygon class="st2" points="2911.3,-623 2703.3,-470.8 2450.2,-593.7 2659.1,-748.9 			"/>
		</g>
		<g>
			<polygon class="st3" points="2911.3,-623 2911.5,-364.3 2702.6,-211.1 2703.3,-470.8 			"/>
		</g>
		<g>
			<polygon class="st4" points="2703.3,-470.8 2702.6,-211.1 2448.5,-338 2450.2,-593.7 			"/>
		</g>
	</g>
</g>
<g>
	<g transform="matrix( 1, 0, 0, 1, 58.2,8.55) ">
		<g>
			<g id="Layer0_2_FILL_1_">
				<path class="st5" d="M450.2,8.7l0.1-8.9l-6.2-6.2l-8.8-0.1l-6.1,6.2L429,8.4l6.2,6.3l8.8,0.2L450.2,8.7z"/>
			</g>
		</g>
	</g>
	<g transform="matrix( 1, 0, 0, 1, 58.2,8.55) ">
		<g>
			<g id="Layer0_3_FILL_1_">
				<path class="st6" d="M433.8-3.4h-9l9,8.9V-3.4 M455.4,3.5l-5.3,0.1h-5.4l-1.9,1.9h14.7L455.4,3.5z"/>
				<path class="st7" d="M442.8,23.6V5.5l-9-8.9v8.9v9.3l8.4,8.8H442.8z"/>
				<path class="st8" d="M522.3,69.8l16.7,16.8H562l16.8-16.8H522.3 M551.5,1.2l-15.9,15.9h23.4l15.9-15.9H551.5z"/>
				<path class="st9" d="M495.9,52.2v17.6l17.7,17.7h8.8h8.8L495.9,52.2 M451.5,60.9l8.8,0.1v-8.8L451.5,60.9 M469.3,61l-8.7,8.7
					h8.7V61 M460.1,69.7h0.2V61l-4.4,4.3L460.1,69.7 M442.8,43.3h8.5v-8.9L442.8,43.3L442.8,43.3 M442.8,52.1l8.4,0.1l-4.3,4.3
					l4.3,4.2v-8.5v-8.8L442.8,52.1 M460.7,6.5l9.3,9.2l14.5-14.5h11.7v-13.5v-18L460.1,5.8L460.7,6.5z"/>
				<path class="st10" d="M451.5,61l4.3,4.3l4.4-4.3H451.5L451.5,61 M469.3,61v8.7L478,61H469.3 M460.3,69.7h0.4l8.7-8.7h-9.1V69.7
					 M460.3,52.2h-9v8.5l0.2,0.2h0.1L460.3,52.2 M469,52.2l-8.7-0.1V61L469,52.2 M442.8,52.1l8.5-8.8h-8.5V52.1 M451.2,52.2
					l-8.4-0.1l4.2,4.4L451.2,52.2 M451.5,23.6h-8.8v8.9L451.5,23.6 M451.3,34.4h-8.5v8.8L451.3,34.4z"/>
				<path class="st11" d="M491.1,38.6l-4.4,4.4h-17.2l-9.2,9.1l8.7,0.1l-8.7,8.8h9.1h8.7l-8.7,8.7h8.4l9.1,9.1l9.1-9.1V52.2
					l35.3,35.3h-8.8l5.7,5.8h17.6l-6.6-6.6l-16.7-16.8l-23-23L491.1,38.6 M455.4,3.5l2.1,2h-14.7v18.1h8.8l-8.8,8.9v1.9h8.5
					l18.6-18.7l-9.3-9.2l-9.8-9.9h-17l9,8.9l1.9-1.9l5.4-5.4L455.4,3.5z"/>
				<path class="st12" d="M496.1-30.4v18l17.9-18H496.1 M535.6,17.1l15.9-15.9h-55.3h-11.7l-14.5,14.5l-18.6,18.7v8.9v8.8h9V36.1
					l5.5-5.5h6.5l16.1-16.2h15.4l17.2,17.3L535.6,17.1z"/>
				<path class="st13" d="M503.7,14.4h-15.4l-16.1,16.2h-6.5l-5.5,5.5v16.1l9.2-9.1h17.2l4.4-4.4l8.2,8.2l9.7-9.7h6.5l5.4-5.5
					L503.7,14.4z"/>
				<path class="st14" d="M444.7,3.6h5.4v-5.4L444.7,3.6z"/>
				<path class="st15" d="M450.1,3.6l5.3-0.1l-5.3-5.3V3.6z"/>
			</g>
		</g>
	</g>
	<g transform="matrix( 1, 0, 0, 1, 58.2,8.55) ">
		<g>
			<g id="Layer0_4_FILL_1_">
				<path d="M474.7,14.3l-0.8,0.8l18.3,18.2H549l1.1-1.1h-57.5L474.7,14.3z"/>
			</g>
		</g>
	</g>
	<g transform="matrix( 1, 0, 0, 1, 58.2,8.55) ">
		<g>
			<g id="Layer0_4_MEMBER_0_FILL_1_">
				<path d="M454.3,9.4l7.2,7.4l10.2,0.2l7.4-7.2l0.1-10.4L471.9-8l-10.4-0.1l-7.1,7.2L454.3,9.4z"/>
			</g>
		</g>
	</g>
	<g transform="matrix( 1, 0, 0, 1, 58.2,8.55) ">
		<g>
			<g id="Layer0_4_MEMBER_1_FILL_1_">
				<path class="st5" d="M462.6,16.8l10.2,0.2l7.4-7.2l0.1-10.4L473-8l-10.3-0.1l-7.2,7.2l-0.2,10.2L462.6,16.8z"/>
			</g>
		</g>
	</g>
	<g transform="matrix( 1, 0, 0, 1, 58.2,8.55) ">
		<g>
			<g id="Layer0_4_MEMBER_2_FILL_1_">
				<path class="st16" d="M464.4,14.6l8.3,0.2l5.9-5.9V0.4l-5.9-5.9h-8.4l-5.9,5.9v8.3L464.4,14.6z"/>
			</g>
		</g>
	</g>
	<g transform="matrix( 1, 0, 0, 1, 58.2,8.55) ">
		<g>
			<g id="Layer0_4_MEMBER_3_FILL_1_">
				<path class="st17" d="M473.6,13.9l5.6-5.5l0.1-7.8l-5.5-5.5H466l-5.3,5.4l-0.2,7.7l5.5,5.6L473.6,13.9z"/>
			</g>
		</g>
	</g>
	<g transform="matrix( 1, 0, 0, 1, 58.2,8.55) ">
		<g>
			<g id="Layer0_5_FILL_1_">
				<path class="st18" d="M462.2-23h-5.5L437.1-3.3h5.5L462.2-23z"/>
				<path class="st19" d="M477.3-23l2.1,2.1L462-3.3h2.3l17.4-17.4h-0.3l-3.3-3.3h-21.7L435.6-3.3h1.4L456.7-23h5.5H477.3z"/>
				<path class="st17" d="M490.6-20.8h-8.9L464.2-3.3h8.9L490.6-20.8z"/>
				<path class="st20" d="M481.7-20.8h8.9l-3.3-3.3H478l3.3,3.3H481.7z"/>
			</g>
		</g>
	</g>
</g>
</svg>
