<?xml version="1.0" encoding="utf-8"?>
<!-- Generator: Adobe Illustrator 19.0.0, SVG Export Plug-In . SVG Version: 6.00 Build 0)  -->
<svg version="1.1" id="图层_1" xmlns="http://www.w3.org/2000/svg" xmlns:xlink="http://www.w3.org/1999/xlink" x="0px" y="0px"
	 viewBox="260 -260 600 600" style="enable-background:new 260 -260 600 600;" xml:space="preserve">
<style type="text/css">
	.st0{opacity:0.94;}
	.st1{enable-background:new    ;}
	.st2{fill:#FEE00D;stroke:#DABD00;stroke-width:6;stroke-linejoin:round;stroke-miterlimit:10;}
	.st3{fill:#FFE00E;stroke:#DABD00;stroke-width:6;stroke-linejoin:round;stroke-miterlimit:10;}
	.st4{fill:#ECD007;stroke:#DABD00;stroke-width:6;stroke-linejoin:round;stroke-miterlimit:10;}
	.st5{fill:#F7131E;}
	.st6{fill:#FFFF1A;}
	.st7{fill:#EA2088;}
	.st8{fill:#A81045;}
	.st9{fill:#FBFFE0;}
	.st10{fill:#979797;}
	.st11{fill:#333333;}
	.st12{fill:#CACACA;}
</style>
<g class="st0">
	<g class="st1">
		<g>
			<polygon class="st2" points="2911.3,-623 2703.3,-470.8 2450.2,-593.7 2659.1,-748.9 			"/>
		</g>
		<g>
			<polygon class="st3" points="2911.3,-623 2911.5,-364.3 2702.6,-211.1 2703.3,-470.8 			"/>
		</g>
		<g>
			<polygon class="st4" points="2703.3,-470.8 2702.6,-211.1 2448.5,-338 2450.2,-593.7 			"/>
		</g>
	</g>
</g>
<g>
	<g transform="matrix( 1, 0, 0, 1, 58.2,8.55) ">
		<g>
			<g id="Layer0_9_FILL_2_">
				<polyline class="st5" points="547.3,52.7 552.5,57.9 561.3,57.9 547.3,43.8 538.3,52.8 538.3,88.4 547.3,97.4 547.3,52.7 				
					"/>
				<polyline class="st5" points="476.9,6.1 476.9,-12.9 455.2,-34.5 411.6,-34.5 436,-10.1 460.7,-10.1 476.9,6.1 				"/>
				<polyline class="st5" points="547.3,43.8 525.8,22.3 516.5,31.6 528.7,43.8 547.3,43.8 				"/>
				<polygon class="st5" points="511,-12 511,8.1 511,15.5 540.3,-13.7 571.2,-13.7 592,-34.5 533.5,-34.5 				"/>
				<polyline class="st6" points="529.4,61.7 529.4,79.4 538.3,88.4 538.3,52.8 529.4,61.7 				"/>
				<polyline class="st7" points="487.6,28.2 482.5,28.2 487.1,32.8 482.7,32.8 482.5,32.8 487.6,38 487.6,37.8 487.6,33.4 
					492.3,38 487.7,38 487.6,38 492.8,43.1 492.8,43 492.8,38.5 492.8,33.4 487.6,33.4 487.6,28.2 				"/>
				<polyline class="st7" points="503.1,43.6 498,43.6 498,38.5 492.8,38.5 497.5,43.1 492.9,43.1 492.8,43.1 503.1,53.3 
					503.1,43.6 				"/>
				<polyline class="st7" points="502.5,48.2 498,48.2 498,43.7 502.5,48.2 				"/>
				<polyline class="st7" points="493.7,-3.8 501.6,-11.9 485.6,-11.9 493.7,-3.8 				"/>
				<polygon class="st7" points="485.6,-29.2 476.9,-20.6 485.6,-11.9 490.1,-16.5 493.7,-19.9 497.1,-16.5 501.6,-11.9 
					501.6,-29.2 				"/>
				<path class="st8" d="M492.8,43l0.1,0.1h4.5l-4.7-4.6V43 M487.6,33.4v4.4l0.1,0.1h4.5L487.6,33.4 M498,48.2h4.5l-4.5-4.5V48.2
					 M498.2,13.3v4.5h4.5L498.2,13.3 M493.7,17.9h-0.2l-4.4,4.5h9v-0.1L493.7,17.9 M502.7,13.3v4.5l-4.5,4.4v0.1h-0.1l-4.5,4.4
					l-4.5-4.4l-4.5-4.5v-4.5h-4.5l-3.3-3.3V6.1l-10.9-11h-16.2l6.8,6.9l7.3,0l3.2,3.3l-7.2,0l17,17.1v4.8l5.8,5.7h4.5l-4.6-4.6h5.1
					v5.1h5.1v5.1h5.2v5.1h5.1v9.7l0.3,0.3h0.1l-9.4,9.3h1.8l9.5-9.3h15.1l-9.5,9.3h1.9l9.4-9.3h7.2v8.1l8.9-8.9l8.9-9h-18.6
					l-12.2-12.2l9.3-9.2L546.1,2h-8.4l3.4-3.3h8.3l6.8-6.8h-21.5L511,15.5v-6l-3.9,3.9H502.7 M489.1,13.3l-4.4,4.5l4.4-0.1V13.3
					 M498.1,17.8l-4.4-4.5l-4.5,4.5L498.1,17.8 M501.6-11.9l9.4,9.4v-17.4l-9.4-9.3V-11.9z"/>
				<path class="st6" d="M493.7,26.7l4.5-4.4h-9L493.7,26.7 M511-2.5l-9.4-9.4l-8,8l-8.1-8l-8.7-8.7v10V6.1v3.9l3.3,3.3h4.5v4.5
					l4.5,4.5l4.4-4.5h0.2l4.4,4.4v0.1h0.1v-0.1l4.5-4.4h-4.5v-4.5l4.5,4.5v-4.5h4.4l3.9-3.9V-6.8 M493.7,13.3l4.4,4.5l-8.9,0.1
					L493.7,13.3 M484.7,17.9l4.4-4.5v4.5L484.7,17.9z"/>
				<path class="st9" d="M501.6-11.9l-4.5-4.6h-7l-4.5,4.6H501.6z"/>
				<path d="M497.1-16.5l-3.4-3.4l-3.6,3.4H497.1z"/>
			</g>
		</g>
	</g>
	<g>
		<path class="st10" d="M597.3,78V63.8H592V78H597.3 M591.3,60.3h-5.2v21.3h5.2V60.3 M537.4,78V63.8h-5.2V78H537.4 M543.3,60.3H538
			v21.3h5.3V60.3 M549.3,57.4h-5.2v26.9h5.2V57.4 M585.4,57.4h-5.2v26.9h5.2V57.4z"/>
		<path class="st11" d="M598.2,74.5h1v-7.3h-1V74.5 M531.3,74.6v-7.4h-1.1v7.4H531.3z"/>
		<path class="st8" d="M560.4,63.5l-3.8,3.7l-1.6,1.6h1.8l1.7-1.6l3.7-3.7H560.4 M578.8,63.5h-1.6l-3.7,3.7l-1.6,1.6h1.9l1.6-1.6
			l3.5-3.4V63.5z"/>
		<path class="st12" d="M550.2,67.3v7.2h29.1v-7.2h-4l-1.6,1.6h-1.9l1.6-1.6h-15l-1.7,1.6h-1.8l1.6-1.6H550.2z"/>
	</g>
</g>
</svg>
