<?xml version="1.0" encoding="utf-8"?>
<!-- Generator: Adobe Illustrator 19.0.0, SVG Export Plug-In . SVG Version: 6.00 Build 0)  -->
<svg version="1.1" id="图层_1" xmlns="http://www.w3.org/2000/svg" xmlns:xlink="http://www.w3.org/1999/xlink" x="0px" y="0px"
	 viewBox="260 -260 600 600" style="enable-background:new 260 -260 600 600;" xml:space="preserve">
<style type="text/css">
	.st0{opacity:0.94;}
	.st1{enable-background:new    ;}
	.st2{fill:#FEE00D;stroke:#DABD00;stroke-width:6;stroke-linejoin:round;stroke-miterlimit:10;}
	.st3{fill:#FFE00E;stroke:#DABD00;stroke-width:6;stroke-linejoin:round;stroke-miterlimit:10;}
	.st4{fill:#ECD007;stroke:#DABD00;stroke-width:6;stroke-linejoin:round;stroke-miterlimit:10;}
	.st5{fill:#FDC703;}
	.st6{fill:#FD5900;}
	.st7{fill:#B2281D;}
	.st8{fill:#003BFF;}
	.st9{fill:#FFFD7F;}
	.st10{fill:#190200;}
	.st11{fill:#453738;}
	.st12{fill:#663333;}
	.st13{fill:#333333;}
</style>
<g class="st0">
	<g class="st1">
		<g>
			<polygon class="st2" points="2911.3,-623 2703.3,-470.8 2450.2,-593.7 2659.1,-748.9 			"/>
		</g>
		<g>
			<polygon class="st3" points="2911.3,-623 2911.5,-364.3 2702.6,-211.1 2703.3,-470.8 			"/>
		</g>
		<g>
			<polygon class="st4" points="2703.3,-470.8 2702.6,-211.1 2448.5,-338 2450.2,-593.7 			"/>
		</g>
	</g>
</g>
<g>
	<g transform="matrix( 1, 0, 0, 1, 58.2,8.55) ">
		<g>
			<g id="Layer0_0_FILL_2_">
				<path class="st5" d="M530.7,66.7v-10h-10L530.7,66.7 M520,45.2V34.7h-11.2l21.9,22V45.2H520 M520,25.4V14.8h-10.5V4.3h-10.6
					L520,25.4 M520,30v-4.6h-9.2l9.2,9.2V30 M460.4-25.6l6.4,6.5l3.8,3.8l-3.8,3.7l-4.8,4.7V10h6.4l26.2,26.2v12h-5.1v9.5l9,9
					l9.2-9.2V43.8l-28-28.2v-41.1v-0.1H460.4z"/>
				<path class="st6" d="M520,34.6l0.2,0.1l10.5,10.5v11.5L545.9,72h16l-42-42V34.6 M479.6-25.5v41.1l28,28.2l12.9,12.9h10l-21.9-22
					H520v-0.1l-9.2-9.2h9.2L498.9,4.3h10.6L479.6-25.5z"/>
				<polyline class="st7" points="520.2,34.7 520,34.7 520,45.2 530.7,45.2 520.2,34.7 				"/>
				<polyline class="st7" points="509.5,4.3 509.5,14.8 520,14.8 509.5,4.3 				"/>
				<polyline class="st8" points="489.5,57.7 489.5,77.6 507.7,95.7 507.7,57.5 498.5,66.7 489.5,57.7 				"/>
				<polygon class="st7" points="463.1,-15.3 466.8,-11.6 470.6,-15.3 				"/>
				<path class="st9" d="M468.5,10h-6.4v20.7l17.6,17.5h9.9h5.1v-12L468.5,10 M460.4-25.6l-8.6,8.6l10.2,10.1l4.8-4.7l-3.7-3.7
					l3.7-3.8L460.4-25.6z"/>
				<polyline class="st10" points="466.8,-19.1 463.1,-15.3 470.6,-15.3 466.8,-19.1 				"/>
				<polygon class="st7" points="462.1,-6.9 451.9,-17 441.7,-6.9 				"/>
			</g>
		</g>
	</g>
	<g transform="matrix( 1, 0, 0, 1, 58.2,8.55) ">
		<g>
			<g id="Layer0_7_FILL_1_">
				<path class="st11" d="M494.7-25.6h-0.8l-2.2,2.2h5.2L494.7-25.6z"/>
				<path class="st12" d="M493.8-25.6h0.8v-16.2l-0.8,0.8V-25.6z"/>
				<path d="M460.7-30.6v5.1h18.9v-5.1H460.7z"/>
				<path class="st13" d="M494.7-41.8l0.1-0.1h-34l-11.2,11.3h11.1h18.9h3.9L493.8-41L494.7-41.8z"/>
			</g>
		</g>
	</g>
	<g transform="matrix( 1, 0, 0, 1, 58.2,8.55) ">
		<g>
			<g id="Layer0_8_1_STROKES_1_">
				<path class="st10" d="M463.1-10.2h-2.5c-0.2,0-0.3-0.1-0.4-0.2l-1.7-1.8c-0.1-0.1-0.2-0.3-0.2-0.4v-0.6h-4.6v0.7
					c0,0.2-0.1,0.3-0.2,0.4l-1.8,1.7c-0.1,0.1-0.3,0.2-0.4,0.2h-2.5c-0.2,0-0.3-0.1-0.4-0.2l-1.7-1.8c-0.1-0.1-0.2-0.3-0.2-0.4
					l0.1-2.5c0-0.1,0.1-0.3,0.2-0.4l1.7-1.7c0.1-0.1,0.3-0.2,0.4-0.2h2.5c0.2,0,0.3,0.1,0.4,0.2l1.7,1.8c0.1,0.1,0.2,0.3,0.2,0.4
					v0.6h4.7l0-0.7c0-0.1,0.1-0.3,0.2-0.4l1.7-1.7c0.1-0.1,0.3-0.2,0.4-0.2h2.5c0.2,0,0.3,0.1,0.4,0.2l1.7,1.8
					c0.1,0.1,0.2,0.3,0.2,0.4v0.6h13.6c0.2,0,0.3,0.1,0.4,0.2l1.7,1.7c0.2,0.2,0.2,0.6,0,0.8c-0.2,0.2-0.6,0.2-0.8,0l-1.5-1.5h-13.4
					v0.7c0,0.2-0.1,0.3-0.2,0.4l-1.8,1.7C463.4-10.2,463.2-10.2,463.1-10.2z M460.9-11.4h2l1.4-1.4v-2l-1.4-1.4h-2l-1.4,1.4l-0.1,1
					v0.9L460.9-11.4z M449.1-11.4h2l1.4-1.4v-2l-1.4-1.4h-2l-1.4,1.4l-0.1,2L449.1-11.4z"/>
			</g>
		</g>
	</g>
	<polygon class="st7" points="565.9,52.3 571.6,58.1 571.6,113.4 562.7,104.3 562.7,101.1 565.9,104.3 	"/>
</g>
</svg>
