<?xml version="1.0" encoding="utf-8"?>
<!-- Generator: Adobe Illustrator 19.0.0, SVG Export Plug-In . SVG Version: 6.00 Build 0)  -->
<svg version="1.1" id="图层_1" xmlns="http://www.w3.org/2000/svg" xmlns:xlink="http://www.w3.org/1999/xlink" x="0px" y="0px"
	 viewBox="1060 -260 2200 600" style="enable-background:new 1060 -260 2200 600;" xml:space="preserve">
<style type="text/css">
	.st0{enable-background:new    ;}
	.st1{fill:#fa52cd;}
	.st2{fill:#0b0409;}
	.st3{fill:#802a65;}
	.st4{fill:#fa52cd;}
</style>
<g>
	<g class="st0">
		<g>
			<g>
				<polygon class="st1" points="3033.3,-177.8 3148.6,42.9 3033.3,265.1 2917.1,44.4 				"/>
				<path class="st2" d="M3033.3,268.1c-1.1,0-2.1-0.6-2.7-1.6L2914.4,45.8c-0.5-0.9-0.5-1.9,0-2.8l116.3-222.2
					c0.5-1,1.5-1.6,2.7-1.6l0,0c1.1,0,2.1,0.6,2.7,1.6l115.2,220.7c0.5,0.9,0.5,1.9,0,2.8L3036,266.5
					C3035.5,267.5,3034.5,268.1,3033.3,268.1L3033.3,268.1z M2920.4,44.4l112.9,214.2l111.9-215.7l-111.9-214.2L2920.4,44.4z"/>
			</g>
		</g>
		<g>
			<g>
				<polygon class="st3" points="3033.3,265.1 1283.7,257.8 1171.4,37.1 2917.1,44.4 				"/>
				<path class="st2" d="M3033.3,268.1L3033.3,268.1l-1749.7-7.3c-1.1,0-2.2-0.6-2.7-1.6L1168.7,38.4c-0.5-0.9-0.4-2,0.1-2.9
					s1.5-1.4,2.6-1.4l0,0l1745.7,7.3c1.1,0,2.1,0.6,2.6,1.6L3036,263.7c0.5,0.9,0.5,2.1-0.1,3
					C3035.4,267.6,3034.4,268.1,3033.3,268.1z M1285.5,254.8l1742.8,7.3L2915.2,47.4l-1738.9-7.3L1285.5,254.8z"/>
			</g>
		</g>
		<g>
			<g>
				<polygon class="st4" points="2917.1,44.4 1171.4,37.1 1283.7,-185.1 3033.3,-177.8 				"/>
				<path class="st2" d="M2917.1,47.4L2917.1,47.4l-1745.7-7.3c-1,0-2-0.5-2.5-1.4s-0.6-2-0.1-2.9L1281-186.5c0.5-1,1.5-1.6,2.7-1.6
					l0,0l1749.7,7.3c1,0,2,0.6,2.6,1.5c0.5,0.9,0.6,2,0.1,2.9L2919.7,45.8C2919.2,46.8,2918.2,47.4,2917.1,47.4z M1176.3,34.1
					l1739,7.3l113.1-216.2l-1742.9-7.3L1176.3,34.1z"/>
			</g>
		</g>
	</g>
</g>
</svg>
