<svg width="240" height="180" xmlns="http://www.w3.org/2000/svg"><style>.st0{enable-background:new}.st1{fill:#c80010}.st2{fill:#ff7171}.st3{fill:#1d2084}</style><path fill="none" id="canvas_background" d="M-1-1h242v182H-1z"/><g><g stroke="null" id="svg_1"><g id="svg_2" class="st0"><g id="svg_3"><path id="svg_4" class="st1" d="M78.869 109.641v28.902l-4.989 3.66.027-28.929z"/></g><g id="svg_5"><path id="svg_6" class="st2" d="M73.907 113.274l-.027 28.929-6.588-3.28.027-28.848z"/></g></g><g id="svg_7" class="st0"><g id="svg_8"><path id="svg_9" class="st1" d="M121.326 130.761l.027 28.929-4.988 3.66v-28.956z"/></g><g id="svg_10"><path id="svg_11" class="st2" d="M116.365 134.394v28.956l-6.615-3.28.054-28.848z"/></g></g><g id="svg_12"><g id="svg_13"><path id="svg_14" class="st3" d="M191.736 124.742l.163 49.643L0 79.628V28.332z"/></g><g id="svg_15"><g id="svg_16" class="st0"><g id="svg_17"><path id="svg_18" fill="#1639a3" d="M236.2 93.51l-41.752 30.012L2.71 27.112 41.211 0z"/></g><g id="svg_19"><path id="svg_20" fill="#0e52c3" d="M236.2 93.51v50.916l-41.59 28.739-.162-49.643z"/></g><g id="svg_21"><path id="svg_22" fill="#ffed00" d="M194.448 123.522l.162 49.643L2.711 78.408V27.112z"/></g></g></g><g id="svg_23"><path id="svg_24" fill="#fff" d="M190.028 126.478l.027 39.637L7.022 74.775V34.487z"/></g><g id="svg_25" opacity=".73"><g id="svg_26" class="st0"><g id="svg_27"><path id="svg_28" class="st3" d="M236.2 93.51l-20.958 15.182-191.736-96.22L41.21 0z"/></g><g id="svg_29"><path id="svg_30" class="st3" d="M236.2 93.51v50.916l-20.795 14.37-.163-50.212z"/></g></g></g></g></g></g></svg>