<svg width="240" height="180" xmlns="http://www.w3.org/2000/svg">
 <style type="text/css">.st0{enable-background:new    ;}
	.st1{fill:#C80010;}
	.st2{fill:#FF7171;}
	.st3{fill:#1D2084;}
	.st4{fill:#1639A3;}
	.st5{fill:#0E52C3;}
	.st6{fill:#FFED00;}
	.st7{fill:#FFFFFF;}
	.st8{opacity:0.73;}</style>

 <g>
  <title>background</title>
  <rect fill="none" id="canvas_background" height="182" width="242" y="-1" x="-1"/>
 </g>
 <g>
  <title>Layer 1</title>
  <g stroke="null" id="svg_1">
   <g stroke="null" id="svg_2" class="st0">
    <g stroke="null" id="svg_3">
     <polygon stroke="null" id="svg_4" points="78.86891174316406,109.64108276367188 78.86891174316406,138.54251098632812 73.88029479980469,142.20262145996094 73.90740966796875,113.27409362792969 " class="st1"/>
    </g>
    <g stroke="null" id="svg_5">
     <polygon stroke="null" id="svg_6" points="73.90740966796875,113.27409362792969 73.88029479980469,142.20262145996094 67.29206848144531,138.9220733642578 67.31918334960938,110.07487487792969 " class="st2"/>
    </g>
   </g>
   <g stroke="null" id="svg_7" class="st0">
    <g stroke="null" id="svg_8">
     <polygon stroke="null" id="svg_9" points="121.32637023925781,130.7613525390625 121.35346984863281,159.68991088867188 116.36485290527344,163.3500213623047 116.36485290527344,134.3943634033203 " class="st1"/>
    </g>
    <g stroke="null" id="svg_10">
     <polygon stroke="null" id="svg_11" points="116.36485290527344,134.3943634033203 116.36485290527344,163.3500213623047 109.74952697753906,160.0694580078125 109.80375671386719,131.22225952148438 " class="st2"/>
    </g>
   </g>
   <g stroke="null" id="svg_12">
    <g stroke="null" id="svg_13">
     <polygon stroke="null" id="svg_14" points="191.736328125,124.74247741699219 191.89898681640625,174.38462829589844 0,79.62805938720703 0,28.332077026367188 " class="st3"/>
    </g>
    <g stroke="null" id="svg_15">
     <g stroke="null" id="svg_16" class="st0">
      <g stroke="null" id="svg_17">
       <polygon stroke="null" id="svg_18" points="236.2000732421875,93.5094223022461 194.44754028320312,123.52244567871094 2.7111968994140625,27.112037658691406 41.21028137207031,0 " class="st4"/>
      </g>
      <g stroke="null" id="svg_19">
       <polygon stroke="null" id="svg_20" points="236.2000732421875,93.5094223022461 236.2000732421875,144.42581176757812 194.61019897460938,173.16458129882812 194.44754028320312,123.52244567871094 " class="st5"/>
      </g>
      <g stroke="null" id="svg_21">
       <polygon stroke="null" id="svg_22" points="194.44754028320312,123.52244567871094 194.61019897460938,173.16458129882812 2.7111968994140625,78.40801239013672 2.7111968994140625,27.112037658691406 " class="st6"/>
      </g>
     </g>
    </g>
    <g stroke="null" id="svg_23">
     <polygon stroke="null" id="svg_24" points="190.02825927734375,126.47764587402344 190.05538940429688,166.11544799804688 7.022010803222656,74.7750015258789 7.022010803222656,34.486515045166016 " class="st7"/>
    </g>
    <g stroke="null" id="svg_25" class="st8">
     <g stroke="null" id="svg_26" class="st0">
      <g stroke="null" id="svg_27">
       <polygon stroke="null" id="svg_28" points="236.2000732421875,93.5094223022461 215.24246215820312,108.69216918945312 23.506134033203125,12.471538543701172 41.21028137207031,0 " class="st3"/>
      </g>
      <g stroke="null" id="svg_29">
       <polygon stroke="null" id="svg_30" points="236.2000732421875,93.5094223022461 236.2000732421875,144.42581176757812 215.40512084960938,158.79519653320312 215.24246215820312,108.58370971679688 " class="st3"/>
      </g>
     </g>
    </g>
   </g>
  </g>
 </g>
</svg>