<svg width="48" height="26" xmlns="http://www.w3.org/2000/svg">
 <!-- Created with Method Draw - http://github.com/duopixel/Method-Draw/ -->

 <g>
  <title>background</title>
  <rect fill="none" id="canvas_background" height="28" width="50" y="-1" x="-1"/>
  <g display="none" overflow="visible" y="0" x="0" height="100%" width="100%" id="canvasGrid">
   <rect fill="url(#gridpattern)" stroke-width="0" y="0" x="0" height="100%" width="100%"/>
  </g>
 </g>
 <g>
  <title>Layer 1</title>
  <style transform="matrix(0.2113885570192986,0,0,0.2113885570192986,79.19672308938792,7.382745372739552) " type="text/css">.st0{fill:#FFFFFF;}</style>
  <g stroke="null" id="svg_117">
   <polygon stroke="null" id="svg_5" points="42.40930938720703,1.6311206817626953 42.40930938720703,3.2622523307800293 44.04042053222656,3.2622523307800293 44.04042053222656,4.8933844566345215 45.67155075073242,4.8933844566345215 45.67155075073242,13.049018383026123 44.04042053222656,13.049018383026123 44.04042053222656,14.680139064788818 42.40930938720703,14.680139064788818 42.40930938720703,16.31127119064331 22.835777282714844,16.31127119064331 22.835777282714844,17.942389965057373 21.20464515686035,17.942389965057373 21.20464515686035,19.573522090911865 19.57351303100586,19.573522090911865 19.57351303100586,21.204654216766357 17.9423828125,21.204654216766357 17.9423828125,17.942389965057373 16.3112735748291,17.942389965057373 16.3112735748291,16.31127119064331 4.893375873565674,16.31127119064331 4.893375873565674,14.680139064788818 3.262244701385498,14.680139064788818 3.262244701385498,13.049018383026123 1.6311125755310059,13.049018383026123 1.6311125755310059,4.8933844566345215 3.262244701385498,4.8933844566345215 3.262244701385498,3.2622523307800293 4.893375873565674,3.2622523307800293 4.893375873565674,1.6311206817626953 " class="st0"/>
   <rect stroke="null" transform="matrix(0.16311270418023313,0,0,0.16311270418023313,62.10329709787981,6.643520984953581) " id="svg_6" height="10" width="10" y="-10.729639" x="-330.738588"/>
   <rect stroke="null" transform="matrix(0.16311270418023313,0,0,0.16311270418023313,62.10329709787981,6.643520984953581) " id="svg_7" height="10" width="10" y="-0.729639" x="-340.738588"/>
   <rect stroke="null" transform="matrix(0.16311270418023313,0,0,0.16311270418023313,62.10329709787981,6.643520984953581) " id="svg_8" height="10" width="10" y="9.270361" x="-340.738588"/>
   <rect stroke="null" transform="matrix(0.16311270418023313,0,0,0.16311270418023313,62.10329709787981,6.643520984953581) " id="svg_9" height="10" width="10" y="19.270361" x="-340.738588"/>
   <rect stroke="null" transform="matrix(0.16311270418023313,0,0,0.16311270418023313,62.10329709787981,6.643520984953581) " id="svg_10" height="10" width="10" y="29.270361" x="-330.738588"/>
   <rect stroke="null" transform="matrix(0.16311270418023313,0,0,0.16311270418023313,62.10329709787981,6.643520984953581) " id="svg_11" height="10" width="10" y="-10.729639" x="-230.738588"/>
   <rect stroke="null" transform="matrix(0.16311270418023313,0,0,0.16311270418023313,62.10329709787981,6.643520984953581) " id="svg_12" height="10" width="10" y="-10.729639" x="-310.738588"/>
   <rect stroke="null" transform="matrix(0.16311270418023313,0,0,0.16311270418023313,62.10329709787981,6.643520984953581) " id="svg_13" height="10" width="10" y="29.270361" x="-290.738588"/>
   <rect stroke="null" transform="matrix(0.16311270418023313,0,0,0.16311270418023313,62.10329709787981,6.643520984953581) " id="svg_14" height="10" width="10" y="29.270361" x="-310.738588"/>
   <rect stroke="null" transform="matrix(0.16311270418023313,0,0,0.16311270418023313,62.10329709787981,6.643520984953581) " id="svg_15" height="10" width="10" y="-10.729639" x="-320.738588"/>
   <rect stroke="null" transform="matrix(0.16311270418023313,0,0,0.16311270418023313,62.10329709787981,6.643520984953581) " id="svg_16" height="10" width="10" y="-10.729639" x="-290.738588"/>
   <rect stroke="null" transform="matrix(0.16311270418023313,0,0,0.16311270418023313,62.10329709787981,6.643520984953581) " id="svg_17" height="10" width="10" y="9.270361" x="-280.738588"/>
   <rect stroke="null" transform="matrix(0.16311270418023313,0,0,0.16311270418023313,62.10329709787981,6.643520984953581) " id="svg_18" height="10" width="10" y="29.270361" x="-320.738588"/>
   <rect stroke="null" transform="matrix(0.16311270418023313,0,0,0.16311270418023313,62.10329709787981,6.643520984953581) " id="svg_19" height="10" width="10" y="-10.729639" x="-280.738588"/>
   <rect stroke="null" transform="matrix(0.16311270418023313,0,0,0.16311270418023313,62.10329709787981,6.643520984953581) " id="svg_20" height="10" width="10" y="-10.729639" x="-270.738588"/>
   <rect stroke="null" transform="matrix(0.16311270418023313,0,0,0.16311270418023313,62.10329709787981,6.643520984953581) " id="svg_21" height="10" width="10" y="-10.729639" x="-240.738588"/>
   <rect stroke="null" transform="matrix(0.16311270418023313,0,0,0.16311270418023313,62.10329709787981,6.643520984953581) " id="svg_22" height="10" width="10" y="9.270361" x="-240.738588"/>
   <rect stroke="null" transform="matrix(0.16311270418023313,0,0,0.16311270418023313,62.10329709787981,6.643520984953581) " id="svg_23" height="10" width="10" y="-0.729639" x="-280.738588"/>
   <rect stroke="null" transform="matrix(0.16311270418023313,0,0,0.16311270418023313,62.10329709787981,6.643520984953581) " id="svg_24" height="10" width="10" y="19.270361" x="-280.738588"/>
   <rect stroke="null" transform="matrix(0.16311270418023313,0,0,0.16311270418023313,62.10329709787981,6.643520984953581) " id="svg_25" height="10" width="10" y="29.270361" x="-280.738588"/>
   <rect stroke="null" transform="matrix(0.16311270418023313,0,0,0.16311270418023313,62.10329709787981,6.643520984953581) " id="svg_26" height="10" width="10" y="29.270361" x="-270.738588"/>
   <rect stroke="null" transform="matrix(0.16311270418023313,0,0,0.16311270418023313,62.10329709787981,6.643520984953581) " id="svg_27" height="10" width="10" y="-0.729639" x="-170.738588"/>
   <rect stroke="null" transform="matrix(0.16311270418023313,0,0,0.16311270418023313,62.10329709787981,6.643520984953581) " id="svg_28" height="10" width="10" y="-0.729639" x="-250.738588"/>
   <rect stroke="null" transform="matrix(0.16311270418023313,0,0,0.16311270418023313,62.10329709787981,6.643520984953581) " id="svg_29" height="10" width="10" y="9.270361" x="-250.738588"/>
   <rect stroke="null" transform="matrix(0.16311270418023313,0,0,0.16311270418023313,62.10329709787981,6.643520984953581) " id="svg_30" height="10" width="10" y="19.270361" x="-250.738588"/>
   <rect stroke="null" transform="matrix(0.16311270418023313,0,0,0.16311270418023313,62.10329709787981,6.643520984953581) " id="svg_31" height="10" width="10" y="-0.729639" x="-220.738588"/>
   <rect stroke="null" transform="matrix(0.16311270418023313,0,0,0.16311270418023313,62.10329709787981,6.643520984953581) " id="svg_32" height="10" width="10" y="29.270361" x="-250.738588"/>
   <rect stroke="null" transform="matrix(0.16311270418023313,0,0,0.16311270418023313,62.10329709787981,6.643520984953581) " id="svg_33" height="10" width="10" y="9.270361" x="-200.738588"/>
   <rect stroke="null" transform="matrix(0.16311270418023313,0,0,0.16311270418023313,62.10329709787981,6.643520984953581) " id="svg_34" height="10" width="10" y="19.270361" x="-200.738588"/>
   <rect stroke="null" transform="matrix(0.16311270418023313,0,0,0.16311270418023313,62.10329709787981,6.643520984953581) " id="svg_35" height="10" width="10" y="29.270361" x="-220.738588"/>
   <rect stroke="null" transform="matrix(0.16311270418023313,0,0,0.16311270418023313,62.10329709787981,6.643520984953581) " id="svg_36" height="10" width="10" y="9.270361" x="-220.738588"/>
   <rect stroke="null" transform="matrix(0.16311270418023313,0,0,0.16311270418023313,62.10329709787981,6.643520984953581) " id="svg_37" height="10" width="10" y="19.270361" x="-220.738588"/>
   <rect stroke="null" transform="matrix(0.16311270418023313,0,0,0.16311270418023313,62.10329709787981,6.643520984953581) " id="svg_38" height="10" width="10" y="-10.729639" x="-190.738588"/>
   <rect stroke="null" transform="matrix(0.16311270418023313,0,0,0.16311270418023313,62.10329709787981,6.643520984953581) " id="svg_39" height="10" width="10" y="-0.729639" x="-200.738588"/>
   <rect stroke="null" transform="matrix(0.16311270418023313,0,0,0.16311270418023313,62.10329709787981,6.643520984953581) " id="svg_40" height="10" width="10" y="29.270361" x="-180.738588"/>
   <rect stroke="null" transform="matrix(0.16311270418023313,0,0,0.16311270418023313,62.10329709787981,6.643520984953581) " id="svg_41" height="10" width="10" y="-40.729639" x="-340.738588"/>
   <rect stroke="null" transform="matrix(0.16311270418023313,0,0,0.16311270418023313,62.10329709787981,6.643520984953581) " id="svg_42" height="10" width="10" y="-40.729639" x="-330.738588"/>
   <rect stroke="null" transform="matrix(0.16311270418023313,0,0,0.16311270418023313,62.10329709787981,6.643520984953581) " id="svg_43" height="10" width="10" y="-40.729639" x="-320.738588"/>
   <rect stroke="null" transform="matrix(0.16311270418023313,0,0,0.16311270418023313,62.10329709787981,6.643520984953581) " id="svg_44" height="10" width="10" y="-40.729639" x="-310.738588"/>
   <rect stroke="null" transform="matrix(0.16311270418023313,0,0,0.16311270418023313,62.10329709787981,6.643520984953581) " id="svg_45" height="10" width="10" y="-40.729639" x="-300.738588"/>
   <rect stroke="null" transform="matrix(0.16311270418023313,0,0,0.16311270418023313,62.10329709787981,6.643520984953581) " id="svg_46" height="10" width="10" y="-40.729639" x="-290.738588"/>
   <rect stroke="null" transform="matrix(0.16311270418023313,0,0,0.16311270418023313,62.10329709787981,6.643520984953581) " id="svg_47" height="10" width="10" y="-40.729639" x="-280.738588"/>
   <rect stroke="null" transform="matrix(0.16311270418023313,0,0,0.16311270418023313,62.10329709787981,6.643520984953581) " id="svg_48" height="10" width="10" y="-40.729639" x="-270.738588"/>
   <rect stroke="null" transform="matrix(0.16311270418023313,0,0,0.16311270418023313,62.10329709787981,6.643520984953581) " id="svg_49" height="10" width="10" y="-40.729639" x="-260.738588"/>
   <rect stroke="null" transform="matrix(0.16311270418023313,0,0,0.16311270418023313,62.10329709787981,6.643520984953581) " id="svg_50" height="10" width="10" y="-40.729639" x="-250.738588"/>
   <rect stroke="null" transform="matrix(0.16311270418023313,0,0,0.16311270418023313,62.10329709787981,6.643520984953581) " id="svg_51" height="10" width="10" y="-40.729639" x="-240.738588"/>
   <rect stroke="null" transform="matrix(0.16311270418023313,0,0,0.16311270418023313,62.10329709787981,6.643520984953581) " id="svg_52" height="10" width="10" y="-40.729639" x="-230.738588"/>
   <rect stroke="null" transform="matrix(0.16311270418023313,0,0,0.16311270418023313,62.10329709787981,6.643520984953581) " id="svg_53" height="10" width="10" y="-40.729639" x="-220.738588"/>
   <rect stroke="null" transform="matrix(0.16311270418023313,0,0,0.16311270418023313,62.10329709787981,6.643520984953581) " id="svg_54" height="10" width="10" y="-40.729639" x="-210.738588"/>
   <rect stroke="null" transform="matrix(0.16311270418023313,0,0,0.16311270418023313,62.10329709787981,6.643520984953581) " id="svg_55" height="10" width="10" y="-40.729639" x="-200.738588"/>
   <rect stroke="null" transform="matrix(0.16311270418023313,0,0,0.16311270418023313,62.10329709787981,6.643520984953581) " id="svg_56" height="10" width="10" y="59.270361" x="-340.738588"/>
   <rect stroke="null" transform="matrix(0.16311270418023313,0,0,0.16311270418023313,62.10329709787981,6.643520984953581) " id="svg_57" height="10" width="10" y="59.270361" x="-330.738588"/>
   <rect stroke="null" transform="matrix(0.16311270418023313,0,0,0.16311270418023313,62.10329709787981,6.643520984953581) " id="svg_58" height="10" width="10" y="59.270361" x="-320.738588"/>
   <rect stroke="null" transform="matrix(0.16311270418023313,0,0,0.16311270418023313,62.10329709787981,6.643520984953581) " id="svg_59" height="10" width="10" y="59.270361" x="-310.738588"/>
   <rect stroke="null" transform="matrix(0.16311270418023313,0,0,0.16311270418023313,62.10329709787981,6.643520984953581) " id="svg_60" height="10" width="10" y="59.270361" x="-300.738588"/>
   <rect stroke="null" transform="matrix(0.16311270418023313,0,0,0.16311270418023313,62.10329709787981,6.643520984953581) " id="svg_61" height="10" width="10" y="59.270361" x="-290.738588"/>
   <rect stroke="null" transform="matrix(0.16311270418023313,0,0,0.16311270418023313,62.10329709787981,6.643520984953581) " id="svg_62" height="10" width="10" y="69.270361" x="-280.738588"/>
   <rect stroke="null" transform="matrix(0.16311270418023313,0,0,0.16311270418023313,62.10329709787981,6.643520984953581) " id="svg_63" height="10" width="10" y="79.270361" x="-280.738588"/>
   <rect stroke="null" transform="matrix(0.16311270418023313,0,0,0.16311270418023313,62.10329709787981,6.643520984953581) " id="svg_64" height="10" width="10" y="89.270361" x="-280.738588"/>
   <rect stroke="null" transform="matrix(0.16311270418023313,0,0,0.16311270418023313,62.10329709787981,6.643520984953581) " id="svg_65" height="10" width="10" y="59.270361" x="-240.738588"/>
   <rect stroke="null" transform="matrix(0.16311270418023313,0,0,0.16311270418023313,62.10329709787981,6.643520984953581) " id="svg_66" height="10" width="10" y="59.270361" x="-230.738588"/>
   <rect stroke="null" transform="matrix(0.16311270418023313,0,0,0.16311270418023313,62.10329709787981,6.643520984953581) " id="svg_67" height="10" width="10" y="59.270361" x="-220.738588"/>
   <rect stroke="null" transform="matrix(0.16311270418023313,0,0,0.16311270418023313,62.10329709787981,6.643520984953581) " id="svg_68" height="10" width="10" y="59.270361" x="-210.738588"/>
   <rect stroke="null" transform="matrix(0.16311270418023313,0,0,0.16311270418023313,62.10329709787981,6.643520984953581) " id="svg_69" height="10" width="10" y="59.270361" x="-200.738588"/>
   <rect stroke="null" transform="matrix(0.16311270418023313,0,0,0.16311270418023313,62.10329709787981,6.643520984953581) " id="svg_70" height="10" width="10" y="-40.729639" x="-350.738588"/>
   <rect stroke="null" transform="matrix(0.16311270418023313,0,0,0.16311270418023313,62.10329709787981,6.643520984953581) " id="svg_71" height="10" width="10" y="-30.729639" x="-360.738588"/>
   <rect stroke="null" transform="matrix(0.16311270418023313,0,0,0.16311270418023313,62.10329709787981,6.643520984953581) " id="svg_72" height="10" width="10" y="49.270361" x="-360.738588"/>
   <rect stroke="null" transform="matrix(0.16311270418023313,0,0,0.16311270418023313,62.10329709787981,6.643520984953581) " id="svg_73" height="10" width="10" y="-20.729639" x="-370.738588"/>
   <rect stroke="null" transform="matrix(0.16311270418023313,0,0,0.16311270418023313,62.10329709787981,6.643520984953581) " id="svg_74" height="10" width="10" y="39.270361" x="-370.738588"/>
   <rect stroke="null" transform="matrix(0.16311270418023313,0,0,0.16311270418023313,62.10329709787981,6.643520984953581) " id="svg_75" height="10" width="10" y="9.270361" x="-380.738588"/>
   <rect stroke="null" transform="matrix(0.16311270418023313,0,0,0.16311270418023313,62.10329709787981,6.643520984953581) " id="svg_76" height="10" width="10" y="19.270361" x="-380.738588"/>
   <rect stroke="null" transform="matrix(0.16311270418023313,0,0,0.16311270418023313,62.10329709787981,6.643520984953581) " id="svg_77" height="10" width="10" y="29.270361" x="-380.738588"/>
   <rect stroke="null" transform="matrix(0.16311270418023313,0,0,0.16311270418023313,62.10329709787981,6.643520984953581) " id="svg_78" height="10" width="10" y="59.270361" x="-350.738588"/>
   <rect stroke="null" transform="matrix(0.16311270418023313,0,0,0.16311270418023313,62.10329709787981,6.643520984953581) " id="svg_79" height="10" width="10" y="-10.729639" x="-380.738588"/>
   <rect stroke="null" transform="matrix(0.16311270418023313,0,0,0.16311270418023313,62.10329709787981,6.643520984953581) " id="svg_80" height="10" width="10" y="-0.729639" x="-380.738588"/>
   <rect stroke="null" transform="matrix(0.16311270418023313,0,0,0.16311270418023313,62.10329709787981,6.643520984953581) " id="svg_81" height="10" width="10" y="-40.729639" x="-190.738588"/>
   <rect stroke="null" transform="matrix(0.16311270418023313,0,0,0.16311270418023313,62.10329709787981,6.643520984953581) " id="svg_82" height="10" width="10" y="59.270361" x="-190.738588"/>
   <rect stroke="null" transform="matrix(0.16311270418023313,0,0,0.16311270418023313,62.10329709787981,6.643520984953581) " id="svg_83" height="10" width="10" y="-40.729639" x="-180.738588"/>
   <rect stroke="null" transform="matrix(0.16311270418023313,0,0,0.16311270418023313,62.10329709787981,6.643520984953581) " id="svg_84" height="10" width="10" y="-30.729639" x="-120.738588"/>
   <rect stroke="null" transform="matrix(0.16311270418023313,0,0,0.16311270418023313,62.10329709787981,6.643520984953581) " id="svg_85" height="10" width="10" y="-20.729639" x="-110.738588"/>
   <rect stroke="null" transform="matrix(0.16311270418023313,0,0,0.16311270418023313,62.10329709787981,6.643520984953581) " id="svg_86" height="10" width="10" y="-10.729639" x="-100.738588"/>
   <rect stroke="null" transform="matrix(0.16311270418023313,0,0,0.16311270418023313,62.10329709787981,6.643520984953581) " id="svg_87" height="10" width="10" y="-0.729639" x="-100.738588"/>
   <rect stroke="null" transform="matrix(0.16311270418023313,0,0,0.16311270418023313,62.10329709787981,6.643520984953581) " id="svg_88" height="10" width="10" y="9.270361" x="-100.738588"/>
   <rect stroke="null" transform="matrix(0.16311270418023313,0,0,0.16311270418023313,62.10329709787981,6.643520984953581) " id="svg_89" height="10" width="10" y="19.270361" x="-100.738588"/>
   <rect stroke="null" transform="matrix(0.16311270418023313,0,0,0.16311270418023313,62.10329709787981,6.643520984953581) " id="svg_90" height="10" width="10" y="29.270361" x="-100.738588"/>
   <rect stroke="null" transform="matrix(0.16311270418023313,0,0,0.16311270418023313,62.10329709787981,6.643520984953581) " id="svg_91" height="10" width="10" y="39.270361" x="-110.738588"/>
   <rect stroke="null" transform="matrix(0.16311270418023313,0,0,0.16311270418023313,62.10329709787981,6.643520984953581) " id="svg_92" height="10" width="10" y="49.270361" x="-120.738588"/>
   <rect stroke="null" transform="matrix(0.16311270418023313,0,0,0.16311270418023313,62.10329709787981,6.643520984953581) " id="svg_93" height="10" width="10" y="59.270361" x="-180.738588"/>
   <rect stroke="null" transform="matrix(0.16311270418023313,0,0,0.16311270418023313,62.10329709787981,6.643520984953581) " id="svg_94" height="10" width="10" y="69.270361" x="-250.738588"/>
   <rect stroke="null" transform="matrix(0.16311270418023313,0,0,0.16311270418023313,62.10329709787981,6.643520984953581) " id="svg_95" height="10" width="10" y="79.270361" x="-260.738588"/>
   <rect stroke="null" transform="matrix(0.16311270418023313,0,0,0.16311270418023313,62.10329709787981,6.643520984953581) " id="svg_96" height="10" width="10" y="89.270361" x="-270.738588"/>
   <rect stroke="null" transform="matrix(0.16311270418023313,0,0,0.16311270418023313,62.10329709787981,6.643520984953581) " id="svg_97" height="10" width="10" y="99.270361" x="-280.738588"/>
   <rect stroke="null" transform="matrix(0.16311270418023313,0,0,0.16311270418023313,62.10329709787981,6.643520984953581) " id="svg_98" height="10" width="10" y="29.270361" x="-190.738588"/>
   <rect stroke="null" transform="matrix(0.16311270418023313,0,0,0.16311270418023313,62.10329709787981,6.643520984953581) " id="svg_99" height="10" width="10" y="19.270361" x="-170.738588"/>
   <rect stroke="null" transform="matrix(0.16311270418023313,0,0,0.16311270418023313,62.10329709787981,6.643520984953581) " id="svg_100" height="10" width="10" y="9.270361" x="-230.738588"/>
   <rect stroke="null" transform="matrix(0.16311270418023313,0,0,0.16311270418023313,62.10329709787981,6.643520984953581) " id="svg_101" height="10" width="10" y="-10.729639" x="-180.738588"/>
   <rect stroke="null" transform="matrix(0.16311270418023313,0,0,0.16311270418023313,62.10329709787981,6.643520984953581) " id="svg_102" height="10" width="10" y="9.270361" x="-170.738588"/>
   <rect stroke="null" transform="matrix(0.16311270418023313,0,0,0.16311270418023313,62.10329709787981,6.643520984953581) " id="svg_103" height="10" width="10" y="9.270361" x="-140.738588"/>
   <rect stroke="null" transform="matrix(0.16311270418023313,0,0,0.16311270418023313,62.10329709787981,6.643520984953581) " id="svg_104" height="10" width="10" y="-10.729639" x="-140.738588"/>
   <rect stroke="null" transform="matrix(0.16311270418023313,0,0,0.16311270418023313,62.10329709787981,6.643520984953581) " id="svg_105" height="10" width="10" y="-0.729639" x="-140.738588"/>
   <rect stroke="null" transform="matrix(0.16311270418023313,0,0,0.16311270418023313,62.10329709787981,6.643520984953581) " id="svg_106" height="10" width="10" y="29.270361" x="-140.738588"/>
   <rect stroke="null" transform="matrix(0.16311270418023313,0,0,0.16311270418023313,62.10329709787981,6.643520984953581) " id="svg_107" height="10" width="10" y="-40.729639" x="-170.738588"/>
   <rect stroke="null" transform="matrix(0.16311270418023313,0,0,0.16311270418023313,62.10329709787981,6.643520984953581) " id="svg_108" height="10" width="10" y="-40.729639" x="-160.738588"/>
   <rect stroke="null" transform="matrix(0.16311270418023313,0,0,0.16311270418023313,62.10329709787981,6.643520984953581) " id="svg_109" height="10" width="10" y="59.270361" x="-170.738588"/>
   <rect stroke="null" transform="matrix(0.16311270418023313,0,0,0.16311270418023313,62.10329709787981,6.643520984953581) " id="svg_110" height="10" width="10" y="59.270361" x="-160.738588"/>
   <rect stroke="null" transform="matrix(0.16311270418023313,0,0,0.16311270418023313,62.10329709787981,6.643520984953581) " id="svg_111" height="10" width="10" y="-40.729639" x="-150.738588"/>
   <rect stroke="null" transform="matrix(0.16311270418023313,0,0,0.16311270418023313,62.10329709787981,6.643520984953581) " id="svg_112" height="10" width="10" y="59.270361" x="-150.738588"/>
   <rect stroke="null" transform="matrix(0.16311270418023313,0,0,0.16311270418023313,62.10329709787981,6.643520984953581) " id="svg_113" height="10" width="10" y="-40.729639" x="-140.738588"/>
   <rect stroke="null" transform="matrix(0.16311270418023313,0,0,0.16311270418023313,62.10329709787981,6.643520984953581) " id="svg_114" height="10" width="10" y="59.270361" x="-140.738588"/>
   <rect stroke="null" transform="matrix(0.16311270418023313,0,0,0.16311270418023313,62.10329709787981,6.643520984953581) " id="svg_115" height="10" width="10" y="-40.729639" x="-130.738588"/>
   <rect stroke="null" transform="matrix(0.16311270418023313,0,0,0.16311270418023313,62.10329709787981,6.643520984953581) " id="svg_116" height="10" width="10" y="59.270361" x="-130.738588"/>
  </g>
 </g>
</svg>