<svg width="72" height="46" xmlns="http://www.w3.org/2000/svg">
 <style type="text/css">.st0{fill:#FFFFFF;}</style>

 <g>
  <title>background</title>
  <rect fill="none" id="canvas_background" height="48" width="74" y="-1" x="-1"/>
 </g>
 <g>
  <title>Layer 1</title>
  <g stroke="null" id="svg_1">
   <polygon stroke="null" id="svg_2" points="63.36000061035156,2.880000114440918 63.36000061035156,5.760000228881836 66.23999786376953,5.760000228881836 66.23999786376953,8.639999389648438 69.1199951171875,8.639999389648438 69.1199951171875,23.03999900817871 66.23999786376953,23.03999900817871 66.23999786376953,25.919998168945312 63.36000061035156,25.919998168945312 63.36000061035156,28.799999237060547 31.68000030517578,28.799999237060547 31.68000030517578,31.68000030517578 28.799999237060547,31.68000030517578 28.799999237060547,34.55999755859375 25.919998168945312,34.55999755859375 25.919998168945312,37.439998626708984 23.040000915527344,37.439998626708984 23.040000915527344,31.68000030517578 20.15999984741211,31.68000030517578 20.15999984741211,28.799999237060547 8.639999389648438,28.799999237060547 8.639999389648438,25.919998168945312 5.760000228881836,25.919998168945312 5.760000228881836,23.03999900817871 2.8799991607666016,23.03999900817871 2.8799991607666016,8.639999389648438 5.760000228881836,8.639999389648438 5.760000228881836,5.760000228881836 8.639999389648438,5.760000228881836 8.639999389648438,2.880000114440918 " class="st0"/>
   <rect stroke="null" id="svg_3" height="2.88" width="2.88" y="8.64" x="11.52"/>
   <rect stroke="null" id="svg_4" height="2.88" width="2.88" y="11.52" x="11.52"/>
   <rect stroke="null" id="svg_5" height="2.88" width="2.88" y="14.399999" x="11.52"/>
   <rect stroke="null" id="svg_6" height="2.88" width="2.88" y="17.279999" x="11.52"/>
   <rect stroke="null" id="svg_7" height="2.88" width="2.88" y="20.159999" x="11.52"/>
   <rect stroke="null" id="svg_8" height="2.88" width="2.88" y="14.399999" x="20.159999"/>
   <rect stroke="null" id="svg_9" height="2.88" width="2.88" y="11.52" x="20.159999"/>
   <rect stroke="null" id="svg_10" height="2.88" width="2.88" y="14.399999" x="14.399999"/>
   <rect stroke="null" id="svg_11" height="2.88" width="2.88" y="17.279999" x="20.159999"/>
   <rect stroke="null" id="svg_12" height="2.88" width="2.88" y="8.64" x="20.159999"/>
   <rect stroke="null" id="svg_13" height="2.88" width="2.88" y="11.52" x="25.919999"/>
   <rect stroke="null" id="svg_14" height="2.88" width="2.88" y="14.399999" x="17.279999"/>
   <rect stroke="null" id="svg_15" height="2.88" width="2.88" y="20.159999" x="20.159999"/>
   <rect stroke="null" id="svg_16" height="2.88" width="2.88" y="8.64" x="28.799999"/>
   <rect stroke="null" id="svg_17" height="2.88" width="2.88" y="8.64" x="31.679999"/>
   <rect stroke="null" id="svg_18" height="2.88" width="2.88" y="8.64" x="25.919999"/>
   <rect stroke="null" id="svg_19" height="2.88" width="2.88" y="14.399999" x="28.799999"/>
   <rect stroke="null" id="svg_20" height="2.88" width="2.88" y="14.399999" x="25.919999"/>
   <rect stroke="null" id="svg_21" height="2.88" width="2.88" y="17.279999" x="25.919999"/>
   <rect stroke="null" id="svg_22" height="2.88" width="2.88" y="20.159999" x="28.799999"/>
   <rect stroke="null" id="svg_23" height="2.88" width="2.88" y="20.159999" x="31.679999"/>
   <rect stroke="null" id="svg_24" height="2.88" width="2.88" y="11.52" x="40.319998"/>
   <rect stroke="null" id="svg_25" height="2.88" width="2.88" y="14.399999" x="46.079998"/>
   <rect stroke="null" id="svg_26" height="2.88" width="2.88" y="14.399999" x="43.199998"/>
   <rect stroke="null" id="svg_27" height="2.88" width="2.88" y="8.64" x="40.319998"/>
   <rect stroke="null" id="svg_28" height="2.88" width="2.88" y="20.159999" x="40.319998"/>
   <rect stroke="null" id="svg_29" height="2.88" width="2.88" y="14.399999" x="31.679999"/>
   <rect stroke="null" id="svg_30" height="2.88" width="2.88" y="8.64" x="48.959998"/>
   <rect stroke="null" id="svg_31" height="2.88" width="2.88" y="17.279999" x="48.959998"/>
   <rect stroke="null" id="svg_32" height="2.88" width="2.88" y="20.159999" x="46.079998"/>
   <rect stroke="null" id="svg_33" height="2.88" width="2.88" y="20.159999" x="43.199998"/>
   <rect stroke="null" id="svg_34" height="2.88" width="2.88" y="20.159999" x="25.919999"/>
   <rect stroke="null" id="svg_35" height="2.88" width="2.88" y="14.399999" x="48.959998"/>
   <rect stroke="null" id="svg_36" height="2.88" width="2.88" y="0" x="11.52"/>
   <rect stroke="null" id="svg_37" height="2.88" width="2.88" y="0" x="14.399999"/>
   <rect stroke="null" id="svg_38" height="2.88" width="2.88" y="0" x="17.279999"/>
   <rect stroke="null" id="svg_39" height="2.88" width="2.88" y="0" x="20.159999"/>
   <rect stroke="null" id="svg_40" height="2.88" width="2.88" y="0" x="23.039999"/>
   <rect stroke="null" id="svg_41" height="2.88" width="2.88" y="0" x="25.919999"/>
   <rect stroke="null" id="svg_42" height="2.88" width="2.88" y="0" x="28.799999"/>
   <rect stroke="null" id="svg_43" height="2.88" width="2.88" y="0" x="31.679999"/>
   <rect stroke="null" id="svg_44" height="2.88" width="2.88" y="0" x="34.559999"/>
   <rect stroke="null" id="svg_45" height="2.88" width="2.88" y="0" x="37.439998"/>
   <rect stroke="null" id="svg_46" height="2.88" width="2.88" y="0" x="40.319998"/>
   <rect stroke="null" id="svg_47" height="2.88" width="2.88" y="0" x="43.199998"/>
   <rect stroke="null" id="svg_48" height="2.88" width="2.88" y="0" x="46.079998"/>
   <rect stroke="null" id="svg_49" height="2.88" width="2.88" y="0" x="48.959998"/>
   <rect stroke="null" id="svg_50" height="2.88" width="2.88" y="0" x="51.839998"/>
   <rect stroke="null" id="svg_51" height="2.88" width="2.88" y="28.799999" x="11.52"/>
   <rect stroke="null" id="svg_52" height="2.88" width="2.88" y="28.799999" x="14.399999"/>
   <rect stroke="null" id="svg_53" height="2.88" width="2.88" y="28.799999" x="34.559999"/>
   <rect stroke="null" id="svg_54" height="2.88" width="2.88" y="28.799999" x="37.439998"/>
   <rect stroke="null" id="svg_55" height="2.88" width="2.88" y="28.799999" x="40.319998"/>
   <rect stroke="null" id="svg_56" height="2.88" width="2.88" y="28.799999" x="43.199998"/>
   <rect stroke="null" id="svg_57" height="2.88" width="2.88" y="28.799999" x="17.279999"/>
   <rect stroke="null" id="svg_58" height="2.88" width="2.88" y="31.679999" x="20.159999"/>
   <rect stroke="null" id="svg_59" height="2.88" width="2.88" y="34.559999" x="20.159999"/>
   <rect stroke="null" id="svg_60" height="2.88" width="2.88" y="37.439998" x="20.159999"/>
   <rect stroke="null" id="svg_61" height="2.88" width="2.88" y="28.799999" x="31.679999"/>
   <rect stroke="null" id="svg_62" height="2.88" width="2.88" y="28.799999" x="46.079998"/>
   <rect stroke="null" id="svg_63" height="2.88" width="2.88" y="28.799999" x="48.959998"/>
   <rect stroke="null" id="svg_64" height="2.88" width="2.88" y="28.799999" x="51.839998"/>
   <rect stroke="null" id="svg_65" height="2.88" width="2.88" y="0" x="8.64"/>
   <rect stroke="null" id="svg_66" height="2.88" width="2.88" y="2.88" x="5.76"/>
   <rect stroke="null" id="svg_67" height="2.88" width="2.88" y="25.919999" x="5.76"/>
   <rect stroke="null" id="svg_68" height="2.88" width="2.88" y="5.76" x="2.88"/>
   <rect stroke="null" id="svg_69" height="2.88" width="2.88" y="23.039999" x="2.88"/>
   <rect stroke="null" id="svg_70" height="2.88" width="2.88" y="14.399999" x="0"/>
   <rect stroke="null" id="svg_71" height="2.88" width="2.88" y="17.279999" x="0"/>
   <rect stroke="null" id="svg_72" height="2.88" width="2.88" y="20.159999" x="0"/>
   <rect stroke="null" id="svg_73" height="2.88" width="2.88" y="28.799999" x="8.64"/>
   <rect stroke="null" id="svg_74" height="2.88" width="2.88" y="8.64" x="0"/>
   <rect stroke="null" id="svg_75" height="2.88" width="2.88" y="11.52" x="0"/>
   <rect stroke="null" id="svg_76" height="2.88" width="2.88" y="2.88" x="63.359997"/>
   <rect stroke="null" id="svg_77" height="2.88" width="2.88" y="5.76" x="66.239997"/>
   <rect stroke="null" id="svg_78" height="2.88" width="2.88" y="8.64" x="69.119997"/>
   <rect stroke="null" id="svg_79" height="2.88" width="2.88" y="11.52" x="69.119997"/>
   <rect stroke="null" id="svg_80" height="2.88" width="2.88" y="14.399999" x="69.119997"/>
   <rect stroke="null" id="svg_81" height="2.88" width="2.88" y="17.279999" x="69.119997"/>
   <rect stroke="null" id="svg_82" height="2.88" width="2.88" y="20.159999" x="69.119997"/>
   <rect stroke="null" id="svg_83" height="2.88" width="2.88" y="23.039999" x="66.239997"/>
   <rect stroke="null" id="svg_84" height="2.88" width="2.88" y="25.919999" x="63.359997"/>
   <rect stroke="null" id="svg_85" height="2.88" width="2.88" y="31.679999" x="28.799999"/>
   <rect stroke="null" id="svg_86" height="2.88" width="2.88" y="34.559999" x="25.919999"/>
   <rect stroke="null" id="svg_87" height="2.88" width="2.88" y="37.439998" x="23.039999"/>
   <rect stroke="null" id="svg_88" height="2.88" width="2.88" y="40.319998" x="20.159999"/>
   <rect stroke="null" id="svg_89" height="2.88" width="2.88" y="20.159999" x="34.559999"/>
   <rect stroke="null" id="svg_90" height="2.88" width="2.88" y="8.64" x="34.559999"/>
   <rect stroke="null" id="svg_91" height="2.88" width="2.88" y="11.52" x="48.959998"/>
   <rect stroke="null" id="svg_92" height="2.88" width="2.88" y="14.399999" x="57.599998"/>
   <rect stroke="null" id="svg_93" height="2.88" width="2.88" y="8.64" x="57.599998"/>
   <rect stroke="null" id="svg_94" height="2.88" width="2.88" y="11.52" x="57.599998"/>
   <rect stroke="null" id="svg_95" height="2.88" width="2.88" y="20.159999" x="57.599998"/>
   <rect stroke="null" id="svg_96" height="2.88" width="2.88" y="0" x="54.719998"/>
   <rect stroke="null" id="svg_97" height="2.88" width="2.88" y="28.799999" x="54.719998"/>
   <rect stroke="null" id="svg_98" height="2.88" width="2.88" y="10.08" x="35.999998"/>
   <rect stroke="null" id="svg_99" height="2.88" width="2.88" y="28.799999" x="57.599998"/>
   <rect stroke="null" id="svg_100" height="2.88" width="2.88" y="0" x="60.479997"/>
   <rect stroke="null" id="svg_101" height="2.88" width="2.88" y="28.799999" x="60.479997"/>
  </g>
 </g>
</svg>