<?xml version="1.0" encoding="utf-8"?>
<!-- Generator: Adobe Illustrator 19.0.0, SVG Export Plug-In . SVG Version: 6.00 Build 0)  -->
<svg version="1.1" id="图层_1" xmlns="http://www.w3.org/2000/svg" xmlns:xlink="http://www.w3.org/1999/xlink" x="0px" y="0px"
	 viewBox="-118 -11 290 150" style="enable-background:new -118 -11 290 150;" xml:space="preserve">
<style type="text/css">
	.st0{fill:#FFFFFF;}
</style>
<polygon class="st0" points="142,-2 142,8 152,8 152,18 162,18 162,68 152,68 152,78 142,78 142,88 22,88 22,98 12,98 12,108 2,108 
	2,118 -8,118 -8,98 -18,98 -18,88 -88,88 -88,78 -98,78 -98,68 -108,68 -108,18 -98,18 -98,8 -88,8 -88,-2 "/>
<rect x="-68" y="18" width="10" height="10"/>
<rect x="-78" y="28" width="10" height="10"/>
<rect x="-78" y="38" width="10" height="10"/>
<rect x="-78" y="48" width="10" height="10"/>
<rect x="-68" y="58" width="10" height="10"/>
<rect x="32" y="18" width="10" height="10"/>
<rect x="-48" y="18" width="10" height="10"/>
<rect x="-28" y="58" width="10" height="10"/>
<rect x="-48" y="58" width="10" height="10"/>
<rect x="-58" y="18" width="10" height="10"/>
<rect x="-28" y="18" width="10" height="10"/>
<rect x="-18" y="38" width="10" height="10"/>
<rect x="-58" y="58" width="10" height="10"/>
<rect x="-18" y="18" width="10" height="10"/>
<rect x="-8" y="18" width="10" height="10"/>
<rect x="22" y="18" width="10" height="10"/>
<rect x="22" y="38" width="10" height="10"/>
<rect x="-18" y="28" width="10" height="10"/>
<rect x="-18" y="48" width="10" height="10"/>
<rect x="-18" y="58" width="10" height="10"/>
<rect x="-8" y="58" width="10" height="10"/>
<rect x="92" y="28" width="10" height="10"/>
<rect x="12" y="28" width="10" height="10"/>
<rect x="12" y="38" width="10" height="10"/>
<rect x="12" y="48" width="10" height="10"/>
<rect x="42" y="28" width="10" height="10"/>
<rect x="12" y="58" width="10" height="10"/>
<rect x="62" y="38" width="10" height="10"/>
<rect x="62" y="48" width="10" height="10"/>
<rect x="42" y="58" width="10" height="10"/>
<rect x="42" y="38" width="10" height="10"/>
<rect x="42" y="48" width="10" height="10"/>
<rect x="72" y="18" width="10" height="10"/>
<rect x="62" y="28" width="10" height="10"/>
<rect x="82" y="58" width="10" height="10"/>
<rect x="-78" y="-12" width="10" height="10"/>
<rect x="-68" y="-12" width="10" height="10"/>
<rect x="-58" y="-12" width="10" height="10"/>
<rect x="-48" y="-12" width="10" height="10"/>
<rect x="-38" y="-12" width="10" height="10"/>
<rect x="-28" y="-12" width="10" height="10"/>
<rect x="-18" y="-12" width="10" height="10"/>
<rect x="-8" y="-12" width="10" height="10"/>
<rect x="2" y="-12" width="10" height="10"/>
<rect x="12" y="-12" width="10" height="10"/>
<rect x="22" y="-12" width="10" height="10"/>
<rect x="32" y="-12" width="10" height="10"/>
<rect x="42" y="-12" width="10" height="10"/>
<rect x="52" y="-12" width="10" height="10"/>
<rect x="62" y="-12" width="10" height="10"/>
<rect x="-78" y="88" width="10" height="10"/>
<rect x="-68" y="88" width="10" height="10"/>
<rect x="-58" y="88" width="10" height="10"/>
<rect x="-48" y="88" width="10" height="10"/>
<rect x="-38" y="88" width="10" height="10"/>
<rect x="-28" y="88" width="10" height="10"/>
<rect x="-18" y="98" width="10" height="10"/>
<rect x="-18" y="108" width="10" height="10"/>
<rect x="-18" y="118" width="10" height="10"/>
<rect x="22" y="88" width="10" height="10"/>
<rect x="32" y="88" width="10" height="10"/>
<rect x="42" y="88" width="10" height="10"/>
<rect x="52" y="88" width="10" height="10"/>
<rect x="62" y="88" width="10" height="10"/>
<rect x="-88" y="-12" width="10" height="10"/>
<rect x="-98" y="-2" width="10" height="10"/>
<rect x="-98" y="78" width="10" height="10"/>
<rect x="-108" y="8" width="10" height="10"/>
<rect x="-108" y="68" width="10" height="10"/>
<rect x="-118" y="38" width="10" height="10"/>
<rect x="-118" y="48" width="10" height="10"/>
<rect x="-118" y="58" width="10" height="10"/>
<rect x="-88" y="88" width="10" height="10"/>
<rect x="-118" y="18" width="10" height="10"/>
<rect x="-118" y="28" width="10" height="10"/>
<rect x="72" y="-12" width="10" height="10"/>
<rect x="72" y="88" width="10" height="10"/>
<rect x="82" y="-12" width="10" height="10"/>
<rect x="142" y="-2" width="10" height="10"/>
<rect x="152" y="8" width="10" height="10"/>
<rect x="162" y="18" width="10" height="10"/>
<rect x="162" y="28" width="10" height="10"/>
<rect x="162" y="38" width="10" height="10"/>
<rect x="162" y="48" width="10" height="10"/>
<rect x="162" y="58" width="10" height="10"/>
<rect x="152" y="68" width="10" height="10"/>
<rect x="142" y="78" width="10" height="10"/>
<rect x="82" y="88" width="10" height="10"/>
<rect x="12" y="98" width="10" height="10"/>
<rect x="2" y="108" width="10" height="10"/>
<rect x="-8" y="118" width="10" height="10"/>
<rect x="-18" y="128" width="10" height="10"/>
<rect x="72" y="58" width="10" height="10"/>
<rect x="92" y="48" width="10" height="10"/>
<rect x="32" y="38" width="10" height="10"/>
<rect x="82" y="18" width="10" height="10"/>
<rect x="92" y="38" width="10" height="10"/>
<rect x="122" y="38" width="10" height="10"/>
<rect x="122" y="18" width="10" height="10"/>
<rect x="122" y="28" width="10" height="10"/>
<rect x="122" y="58" width="10" height="10"/>
<rect x="92" y="-12" width="10" height="10"/>
<rect x="102" y="-12" width="10" height="10"/>
<rect x="92" y="88" width="10" height="10"/>
<rect x="102" y="88" width="10" height="10"/>
<rect x="112" y="-12" width="10" height="10"/>
<rect x="112" y="88" width="10" height="10"/>
<rect x="122" y="-12" width="10" height="10"/>
<rect x="122" y="88" width="10" height="10"/>
<rect x="132" y="-12" width="10" height="10"/>
<rect x="132" y="88" width="10" height="10"/>
</svg>
