<?xml version="1.0" encoding="utf-8"?>
<!-- Generator: Adobe Illustrator 19.0.0, SVG Export Plug-In . SVG Version: 6.00 Build 0)  -->
<svg version="1.1" id="图层_1" xmlns="http://www.w3.org/2000/svg" xmlns:xlink="http://www.w3.org/1999/xlink" x="0px" y="0px"
	 viewBox="-73 -11 200 150" style="enable-background:new -73 -11 200 150;" xml:space="preserve">
<style type="text/css">
	.st0{fill:#FFFFFF;}
</style>
<g>
	<polygon class="st0" points="97,-1 97,9 107,9 107,19 117,19 117,69 107,69 107,79 97,79 97,89 27,89 27,99 17,99 17,109 7,109 
		7,119 -3,119 -3,99 -13,99 -13,89 -43,89 -43,79 -53,79 -53,69 -63,69 -63,19 -53,19 -53,9 -43,9 -43,-1 	"/>
	<rect x="-33" y="19" width="10" height="10"/>
	<rect x="-33" y="29" width="10" height="10"/>
	<rect x="-23" y="59" width="10" height="10"/>
	<rect x="-13" y="59" width="10" height="10"/>
	<rect x="-33" y="59" width="10" height="10"/>
	<rect x="-3" y="39" width="10" height="10"/>
	<rect x="-3" y="29" width="10" height="10"/>
	<rect x="-23" y="39" width="10" height="10"/>
	<rect x="-3" y="49" width="10" height="10"/>
	<rect x="-3" y="19" width="10" height="10"/>
	<rect x="-13" y="39" width="10" height="10"/>
	<rect x="-33" y="-11" width="10" height="10"/>
	<rect x="-23" y="-11" width="10" height="10"/>
	<rect x="-13" y="-11" width="10" height="10"/>
	<rect x="-3" y="-11" width="10" height="10"/>
	<rect x="7" y="-11" width="10" height="10"/>
	<rect x="17" y="-11" width="10" height="10"/>
	<rect x="27" y="-11" width="10" height="10"/>
	<rect x="37" y="-11" width="10" height="10"/>
	<rect x="47" y="-11" width="10" height="10"/>
	<rect x="57" y="-11" width="10" height="10"/>
	<rect x="67" y="-11" width="10" height="10"/>
	<rect x="77" y="-11" width="10" height="10"/>
	<rect x="87" y="-11" width="10" height="10"/>
	<rect x="-33" y="89" width="10" height="10"/>
	<rect x="37" y="89" width="10" height="10"/>
	<rect x="47" y="89" width="10" height="10"/>
	<rect x="57" y="89" width="10" height="10"/>
	<rect x="67" y="89" width="10" height="10"/>
	<rect x="77" y="89" width="10" height="10"/>
	<rect x="-23" y="89" width="10" height="10"/>
	<rect x="-13" y="99" width="10" height="10"/>
	<rect x="-13" y="109" width="10" height="10"/>
	<rect x="-13" y="119" width="10" height="10"/>
	<rect x="27" y="89" width="10" height="10"/>
	<rect x="87" y="89" width="10" height="10"/>
	<rect x="-43" y="-11" width="10" height="10"/>
	<rect x="-53" y="-1" width="10" height="10"/>
	<rect x="-53" y="79" width="10" height="10"/>
	<rect x="-63" y="9" width="10" height="10"/>
	<rect x="-63" y="69" width="10" height="10"/>
	<rect x="-73" y="39" width="10" height="10"/>
	<rect x="-73" y="49" width="10" height="10"/>
	<rect x="-73" y="59" width="10" height="10"/>
	<rect x="-43" y="89" width="10" height="10"/>
	<rect x="-73" y="19" width="10" height="10"/>
	<rect x="-73" y="29" width="10" height="10"/>
	<rect x="97" y="-1" width="10" height="10"/>
	<rect x="107" y="9" width="10" height="10"/>
	<rect x="117" y="19" width="10" height="10"/>
	<rect x="117" y="29" width="10" height="10"/>
	<rect x="117" y="39" width="10" height="10"/>
	<rect x="117" y="49" width="10" height="10"/>
	<rect x="117" y="59" width="10" height="10"/>
	<rect x="107" y="69" width="10" height="10"/>
	<rect x="97" y="79" width="10" height="10"/>
	<rect x="17" y="99" width="10" height="10"/>
	<rect x="7" y="109" width="10" height="10"/>
	<rect x="-3" y="119" width="10" height="10"/>
	<rect x="-13" y="129" width="10" height="10"/>
	<rect x="17" y="39" width="10" height="10"/>
	<rect x="17" y="49" width="10" height="10"/>
	<rect x="27" y="19" width="10" height="10"/>
	<rect x="17" y="29" width="10" height="10"/>
	<rect x="27" y="59" width="10" height="10"/>
	<rect x="47" y="39" width="10" height="10"/>
	<rect x="47" y="49" width="10" height="10"/>
	<rect x="37" y="19" width="10" height="10"/>
	<rect x="47" y="29" width="10" height="10"/>
	<rect x="37" y="59" width="10" height="10"/>
	<rect x="77" y="39" width="10" height="10"/>
	<rect x="77" y="19" width="10" height="10"/>
	<rect x="77" y="29" width="10" height="10"/>
	<rect x="77" y="59" width="10" height="10"/>
</g>
</svg>
