<svg width="72" height="46" xmlns="http://www.w3.org/2000/svg"><path fill="none" d="M-1-1h74v48H-1z"/><g><g stroke="null"><path fill="#fff" d="M63.36 2.88v2.88h2.88v2.88h2.88v14.4h-2.88v2.88h-2.88v2.88H31.68v2.88H28.8v2.88h-2.88v2.88h-2.88v-5.76h-2.88V28.8H8.64v-2.88H5.76v-2.88H2.88V8.64h2.88V5.76h2.88V2.88z"/><path d="M11.52 8.64h2.88v2.88h-2.88zM11.52 11.52h2.88v2.88h-2.88zM11.52 14.4h2.88v2.88h-2.88zM11.52 17.28h2.88v2.88h-2.88zM11.52 20.16h2.88v2.88h-2.88zM20.16 14.4h2.88v2.88h-2.88zM20.16 11.52h2.88v2.88h-2.88zM14.4 14.4h2.88v2.88H14.4zM20.16 17.28h2.88v2.88h-2.88zM20.16 8.64h2.88v2.88h-2.88zM25.92 11.52h2.88v2.88h-2.88zM17.28 14.4h2.88v2.88h-2.88zM20.16 20.16h2.88v2.88h-2.88zM28.8 8.64h2.88v2.88H28.8zM31.68 8.64h2.88v2.88h-2.88zM25.92 8.64h2.88v2.88h-2.88zM28.8 14.4h2.88v2.88H28.8zM25.92 14.4h2.88v2.88h-2.88zM25.92 17.28h2.88v2.88h-2.88zM28.8 20.16h2.88v2.88H28.8zM31.68 20.16h2.88v2.88h-2.88zM40.32 11.52h2.88v2.88h-2.88zM46.08 14.4h2.88v2.88h-2.88z"/><path d="M43.2 14.4h2.88v2.88H43.2zM40.32 8.64h2.88v2.88h-2.88zM40.32 20.16h2.88v2.88h-2.88zM31.68 14.4h2.88v2.88h-2.88zM48.96 8.64h2.88v2.88h-2.88zM48.96 17.28h2.88v2.88h-2.88zM46.08 20.16h2.88v2.88h-2.88z"/><path d="M43.2 20.16h2.88v2.88H43.2zM25.92 20.16h2.88v2.88h-2.88zM48.96 14.4h2.88v2.88h-2.88zM11.52 0h2.88v2.88h-2.88zM14.4 0h2.88v2.88H14.4zM17.28 0h2.88v2.88h-2.88zM20.16 0h2.88v2.88h-2.88zM23.04 0h2.88v2.88h-2.88zM25.92 0h2.88v2.88h-2.88zM28.8 0h2.88v2.88H28.8zM31.68 0h2.88v2.88h-2.88zM34.56 0h2.88v2.88h-2.88z"/><path d="M37.44 0h2.88v2.88h-2.88zM40.32 0h2.88v2.88h-2.88zM43.2 0h2.88v2.88H43.2z"/><path d="M46.08 0h2.88v2.88h-2.88zM48.96 0h2.88v2.88h-2.88zM51.84 0h2.88v2.88h-2.88zM11.52 28.8h2.88v2.88h-2.88zM14.4 28.8h2.88v2.88H14.4zM34.56 28.8h2.88v2.88h-2.88z"/><path d="M37.44 28.8h2.88v2.88h-2.88zM40.32 28.8h2.88v2.88h-2.88zM43.2 28.8h2.88v2.88H43.2zM17.28 28.8h2.88v2.88h-2.88zM20.16 31.68h2.88v2.88h-2.88zM20.16 34.56h2.88v2.88h-2.88z"/><path d="M20.16 37.44h2.88v2.88h-2.88zM31.68 28.8h2.88v2.88h-2.88zM46.08 28.8h2.88v2.88h-2.88zM48.96 28.8h2.88v2.88h-2.88zM51.84 28.8h2.88v2.88h-2.88zM8.64 0h2.88v2.88H8.64zM5.76 2.88h2.88v2.88H5.76zM5.76 25.92h2.88v2.88H5.76zM2.88 5.76h2.88v2.88H2.88zM2.88 23.04h2.88v2.88H2.88zM0 14.4h2.88v2.88H0zM0 17.28h2.88v2.88H0zM0 20.16h2.88v2.88H0zM8.64 28.8h2.88v2.88H8.64zM0 8.64h2.88v2.88H0zM0 11.52h2.88v2.88H0zM63.36 2.88h2.88v2.88h-2.88zM66.24 5.76h2.88v2.88h-2.88zM69.12 8.64H72v2.88h-2.88zM69.12 11.52H72v2.88h-2.88zM69.12 14.4H72v2.88h-2.88zM69.12 17.28H72v2.88h-2.88zM69.12 20.16H72v2.88h-2.88zM66.24 23.04h2.88v2.88h-2.88zM63.36 25.92h2.88v2.88h-2.88zM28.8 31.68h2.88v2.88H28.8zM25.92 34.56h2.88v2.88h-2.88zM23.04 37.44h2.88v2.88h-2.88zM20.16 40.32h2.88v2.88h-2.88zM34.56 20.16h2.88v2.88h-2.88zM34.56 8.64h2.88v2.88h-2.88zM48.96 11.52h2.88v2.88h-2.88zM57.6 14.4h2.88v2.88H57.6zM57.6 8.64h2.88v2.88H57.6zM57.6 11.52h2.88v2.88H57.6zM57.6 20.16h2.88v2.88H57.6zM54.72 0h2.88v2.88h-2.88z"/><path d="M54.72 28.8h2.88v2.88h-2.88zM36 10.08h2.88v2.88H36zM57.6 28.8h2.88v2.88H57.6zM60.48 0h2.88v2.88h-2.88z"/><path d="M60.48 28.8h2.88v2.88h-2.88z"/></g></g></svg>