<?xml version="1.0" encoding="utf-8"?>
<!-- Generator: Adobe Illustrator 19.0.0, SVG Export Plug-In . SVG Version: 6.00 Build 0)  -->
<svg version="1.1" id="图层_1" xmlns="http://www.w3.org/2000/svg" xmlns:xlink="http://www.w3.org/1999/xlink" x="0px" y="0px"
	 viewBox="-13 -46 160 220" style="enable-background:new -13 -46 160 220;" xml:space="preserve">
<style type="text/css">
	.st0{fill:#FFFFFF;}
</style>
<g>
	<path class="st0" d="M140.3,40.4L117.9,49l10.4,7.7l-62.8,9l31.4-14.5l-4.7-3.1L140.3,40.4z"/>
	<path class="st0" d="M111.2-43.7l29.2,7.4l-24.9,23.4l17.2,4.4L55.6,37.3L89.4,1.5L73.9-2.4L111.2-43.7z"/>
	<g>
		<path d="M-5.3,126.2c0.1-0.1,13.7-8.2,13.7-8.2l1.8,3.4l1.7,0.1l2.9-2.2l3.2,4.8l3.6-2.2l0-1.8L-4.2,72.8l5-2.7l-0.3-1.3l-2-3.7
			l8-4.3l2.9,5.4l0.7,0.2l5.2-3.3l9.8,18l0.6-0.1l8.2-5.5l2.8,5.1l-0.1,0.6l1.8,0.1l12.1-7.9l2.5,4.7l8.7-5.6l3.1,5l4.4-3.5l3.4,5.4
			l4.4-2.8c0,0,17.5,32,17.6,32.2c0.1,0.2-4.2,2.3-4.2,2.3l-0.2,1.9l7.3,13.3l-3.2,1.8l-0.1,2l7.3,13.3l-45.6,27.5l-7.5-13.3
			l-1.8-0.3l-0.6,1l-3.2,1.5l-1.8-3.9l-1.5-0.8l-3.7,2.4l-2.9-4.8l-4.1,3.2l-4.6-9.2l-1.3-0.2l-3.4,2.9l-5.1-9.9l-4.3,2.9l-4.7-8.8
			l-1.5-0.2l-3.4,3L-5.3,126.2z"/>
		<path class="st0" d="M2.7,127.2l6.6-4.2l3.7,5.5l4.2-2.9l0.8,0.1l3.2,4.8l3-2.9l1,0.7L30,136l5.5-3.6L2.5,72.3l0.3-1.8l5.8-3.2
			l1.6,0.3l22.6,41.3l5.1-3.7l-9.8-17.9l7.9-4.9l0.9,0.6l9.7,17.7c0,0,5.3-2.6,5.6-3.3s-6.6-12.7-6.6-12.7l6.8-4.7l10.2,17.3
			l5.6-3.9l-6.5-11.8l0.1-1.2l2.8-1.4l2.6,4.7l3.9-2.5l0.7,0.1l16.4,30l0.3,1.6l-4.4,2.4l7.2,13.3l-0.1,0.8l-3.6,2l4.7,8l0,1
			l-33.9,20.9l-0.8-0.4l-4.7-8.6l-3.5,2.5l-1.3,0l-2.4-4.6l-3.8,2.9l-1-0.1l-2.8-5l-3.7,2.9l-1,0.1l-4.9-8.5l-3.2,2.2l-1.4-0.3
			l-5-8.9l-3.4,2.5l-0.8-0.2l-5.1-9L6,131.4l-1.2,0.7l-2.5-4.6L2.7,127.2z"/>
	</g>
</g>
</svg>
