<svg width="40" height="62" xmlns="http://www.w3.org/2000/svg">
 <style type="text/css">.st0{fill:#FFFFFF;}</style>

 <g>
  <title>background</title>
  <rect fill="none" id="canvas_background" height="64" width="42" y="-1" x="-1"/>
 </g>
 <g>
  <title>Layer 1</title>
  <g stroke="null" id="svg_1">
   <path stroke="null" id="svg_2" d="m40.672064,23.492586l-6.257241,2.402333l2.905147,2.150926l-17.542621,2.51407l8.771311,-4.050446l-1.312903,-0.865957l13.436307,-2.150926z" class="st0"/>
   <path stroke="null" id="svg_3" d="m32.543238,0l8.15676,2.067124l-6.955593,6.536582l4.804667,1.229101l-21.537199,12.793822l9.441729,-10.000411l-4.329787,-1.08943l10.419423,-11.536787z" class="st0"/>
   <g stroke="null" id="svg_4">
    <path stroke="null" id="svg_5" d="m0,47.460053c0.027934,-0.027934 3.826973,-2.290597 3.826973,-2.290597l0.502814,0.94976l0.47488,0.027934l0.810089,-0.61455l0.893892,1.340837l1.005628,-0.61455l0,-0.502814l-7.207,-13.212834l1.396706,-0.754221l-0.083802,-0.363143l-0.558682,-1.033562l2.234729,-1.201167l0.810089,1.508442l0.195539,0.055868l1.452574,-0.921826l2.737543,5.02814l0.167605,-0.027934l2.290597,-1.536376l0.782155,1.42464l-0.027934,0.167605l0.502814,0.027934l3.380027,-2.206795l0.698353,1.312903l2.430268,-1.56431l0.865957,1.396706l1.229101,-0.977694l0.94976,1.508442l1.229101,-0.782155c0,0 4.888469,8.938915 4.916403,8.994783c0.027934,0.055868 -1.173233,0.642485 -1.173233,0.642485l-0.055868,0.530748l2.03919,3.715237l-0.893892,0.502814l-0.027934,0.558682l2.03919,3.715237l-12.737954,7.68188l-2.095058,-3.715237l-0.502814,-0.083802l-0.167605,0.279341l-0.893892,0.419012l-0.502814,-1.08943l-0.419012,-0.223473l-1.033562,0.670419l-0.810089,-1.340837l-1.145299,0.893892l-1.284969,-2.569938l-0.363143,-0.055868l-0.94976,0.810089l-1.42464,-2.765477l-1.201167,0.810089l-1.312903,-2.458202l-0.419012,-0.055868l-0.94976,0.838023l-1.620178,-2.849279z"/>
    <path stroke="null" id="svg_6" d="m2.234729,47.739394l1.843651,-1.173233l1.033562,1.536376l1.173233,-0.810089l0.223473,0.027934l0.893892,1.340837l0.838023,-0.810089l0.279341,0.195539l1.340837,2.150926l1.536376,-1.005628l-9.218256,-16.7884l0.083802,-0.502814l1.620178,-0.893892l0.446946,0.083802l6.313109,11.536787l1.42464,-1.033562l-2.737543,-5.000206l2.206795,-1.368771l0.251407,0.167605l2.709609,4.944337c0,0 1.480508,-0.726287 1.56431,-0.921826s-1.843651,-3.547632 -1.843651,-3.547632l1.899519,-1.312903l2.849279,4.832601l1.56431,-1.08943l-1.815717,-3.296225l0.027934,-0.335209l0.782155,-0.391078l0.726287,1.312903l1.08943,-0.698353l0.195539,0.027934l4.581194,8.380233l0.083802,0.446946l-1.229101,0.670419l2.011256,3.715237l-0.027934,0.223473l-1.005628,0.558682l1.312903,2.234729l0,0.279341l-9.469663,5.838229l-0.223473,-0.111736l-1.312903,-2.402333l-0.977694,0.698353l-0.363143,0l-0.670419,-1.284969l-1.061496,0.810089l-0.279341,-0.027934l-0.782155,-1.396706l-1.033562,0.810089l-0.279341,0.027934l-1.368771,-2.374399l-0.893892,0.61455l-0.391078,-0.083802l-1.396706,-2.486136l-0.94976,0.698353l-0.223473,-0.055868l-1.42464,-2.51407l-1.005628,0.726287l-0.335209,0.195539l-0.698353,-1.284969l0.111736,-0.083802z" class="st0"/>
   </g>
  </g>
 </g>
</svg>