<?xml version="1.0" encoding="utf-8"?>
<!-- Generator: Adobe Illustrator 19.0.0, SVG Export Plug-In . SVG Version: 6.00 Build 0)  -->
<svg version="1.1" id="图层_1" xmlns="http://www.w3.org/2000/svg" xmlns:xlink="http://www.w3.org/1999/xlink" x="0px" y="0px"
	 viewBox="1376 -86 1200 300" style="enable-background:new 1376 -86 1200 300;" xml:space="preserve">
<style type="text/css">
	.st0{fill:#FFED00;}
	.st1{fill:#151A87;}
</style>
<g>
	<g>
		<path class="st0" d="M1455.1,41.5c-2.1,0-4-0.9-5.3-2.4c-1.2-1.4-1.9-3.2-1.9-5.1V23.6c-0.6,0.4-1.3,0.6-2.1,0.7l0,9.6
			c0,2-0.7,3.8-2.1,5.2c-1.4,1.5-3.3,2.3-5.4,2.3h-9.5c-2,0-3.9-0.8-5.3-2.3c-1.4-1.4-2.1-3.2-2.1-5.2v-2.3c0-2.1,0.7-3.9,2.1-5.3
			c1-1.1,2.3-1.8,3.7-2c-1.4-0.3-2.7-1-3.7-2c-1.4-1.4-2.1-3.2-2.1-5.2v-2.2c0-2.1,0.7-3.9,2.1-5.3c1.4-1.4,3.1-2.1,5-2.2l0-39.1
			c-1.9-0.1-3.7-0.9-5-2.3c-1.4-1.4-2.1-3.2-2.1-5.2v-2.4c0-2.1,0.7-3.9,2.2-5.3c1.3-1.4,3.1-2.1,4.9-2.2v-2c0-2,0.8-3.8,2.2-5.3
			c1.4-1.4,3.2-2.2,5.3-2.2h2.3c2.1,0,3.9,0.8,5.4,2.2c1.4,1.4,2.2,3.3,2.2,5.3v2.1c0.7,0.1,1.4,0.4,2.1,0.7V-51
			c0-2,0.8-3.8,2.2-5.2c1.4-1.4,3.2-2.2,5.2-2.2h33.5c2,0,3.8,0.8,5.2,2.2c1.4,1.4,2.2,3.2,2.2,5.2V8.7c0,1.9-0.7,3.7-2,5.2
			c-1.4,1.6-3.3,2.4-5.4,2.4h-23.6v7.9l23.6,0c2,0,3.8,0.8,5.2,2.2c1.4,1.4,2.2,3.3,2.2,5.3V34c0,2-0.7,3.8-2.1,5.2
			c-1.4,1.5-3.3,2.3-5.3,2.3H1455.1z M1445.8,7.5c0.7,0.1,1.4,0.4,2.1,0.7v-40.8c-0.6,0.4-1.4,0.6-2.1,0.8L1445.8,7.5z"/>
		<path class="st1" d="M1488.8-54.4c0.9,0,1.7,0.3,2.4,1c0.7,0.7,1,1.5,1,2.4V8.7c0,0.9-0.3,1.8-1,2.5c-0.7,0.7-1.5,1.1-2.4,1.1
			h-24.1c-1,0-1.8,0.3-2.5,1c-0.7,0.7-1,1.5-1,2.4v9c0,1,0.3,1.8,1,2.5c0.7,0.7,1.5,1,2.5,1h24.1c0.9,0,1.7,0.3,2.4,1
			c0.7,0.7,1,1.5,1,2.5V34c0,0.9-0.3,1.8-1,2.5c-0.7,0.7-1.5,1-2.4,1h-33.7c-0.9,0-1.7-0.4-2.3-1c-0.6-0.7-0.9-1.5-0.9-2.5v-85
			c0-0.9,0.3-1.7,1-2.4c0.7-0.7,1.5-1,2.4-1H1488.8 M1479.7,3c0.9,0,1.7-0.4,2.3-1.1c0.6-0.7,0.9-1.6,0.9-2.5v-41
			c0-0.9-0.3-1.8-0.9-2.4c-0.6-0.7-1.4-1.1-2.3-1.1c-0.9,0-1.6,0.4-2.3,1.1c-0.7,0.7-1,1.5-1,2.4v41c0,0.9,0.3,1.8,1,2.5
			C1478.1,2.6,1478.8,3,1479.7,3 M1464.5,3c1,0,1.8-0.4,2.5-1.1c0.7-0.7,1-1.6,1-2.5v-41c0-0.9-0.3-1.8-1-2.4
			c-0.7-0.7-1.5-1.1-2.5-1.1c-0.9,0-1.7,0.4-2.4,1.1c-0.6,0.7-0.9,1.5-0.9,2.4v41c0,0.9,0.3,1.8,0.9,2.5
			C1462.8,2.6,1463.6,3,1464.5,3 M1438.3-54.4c1,0,1.9,0.3,2.5,1c0.7,0.7,1,1.5,1,2.4v2.5c0,0.9,0.3,1.8,0.9,2.4c0.6,0.7,1.2,1,2,1
			c0.9,0,1.6,0.3,2.1,1c0.6,0.7,0.9,1.5,0.9,2.5v2.4c0,0.9-0.3,1.7-0.9,2.4c-0.6,0.7-1.3,1-2.1,1c-0.7,0-1.4,0.3-2,1
			c-0.6,0.7-0.9,1.5-0.9,2.4V7.8c0,1,0.3,1.9,0.9,2.6c0.6,0.7,1.2,1.1,2,1.1c0.9,0,1.6,0.3,2.1,1c0.6,0.7,0.9,1.5,0.9,2.5v2.2
			c0,0.9-0.3,1.7-0.9,2.4c-0.6,0.7-1.3,1-2.1,1c-0.7,0-1.4,0.4-2,1.1c-0.6,0.7-0.9,1.6-0.9,2.5V34c0,0.9-0.3,1.8-1,2.5
			c-0.7,0.7-1.5,1-2.5,1h-9.5c-0.9,0-1.7-0.4-2.4-1c-0.7-0.7-1-1.5-1-2.5v-2.3c0-1,0.3-1.8,1-2.5c0.7-0.7,1.4-1,2.4-1h0.3
			c0.9,0,1.7-0.3,2.4-1c0.7-0.7,1-1.5,1-2.5v-0.6c0-0.9-0.3-1.8-1-2.5c-0.7-0.7-1.5-1.1-2.4-1.1h-0.3c-0.9,0-1.7-0.3-2.4-1
			c-0.7-0.7-1-1.5-1-2.4v-2.2c0-1,0.3-1.8,1-2.5c0.7-0.7,1.4-1,2.4-1h0.3c0.9,0,1.7-0.3,2.4-1.1c0.7-0.7,1-1.6,1-2.6v-40.1
			c0-0.9-0.3-1.7-1-2.4c-0.7-0.7-1.5-1-2.4-1h-0.3c-0.9,0-1.7-0.3-2.4-1c-0.7-0.7-1-1.5-1-2.4v-2.4c0-1,0.3-1.8,1-2.5
			c0.7-0.7,1.4-1,2.4-1h0.3c0.9,0,1.7-0.3,2.4-1c0.7-0.7,1-1.5,1-2.4V-51c0-0.9,0.3-1.8,1-2.4c0.7-0.7,1.5-1,2.4-1H1438.3
			 M1488.8-62.4h-33.5c-3,0-5.9,1.2-8.1,3.4c-0.1,0.1-0.3,0.3-0.4,0.4c-0.1-0.1-0.3-0.3-0.4-0.4c-2.2-2.2-5.1-3.4-8.2-3.4h-2.3
			c-3,0-5.9,1.2-8.1,3.4c-1.9,1.9-3,4.3-3.3,6.8c-1.4,0.6-2.7,1.4-3.9,2.6c-2.1,2.1-3.3,5-3.3,8.1v2.4c0,3,1.1,5.7,3.2,7.9
			c1.1,1.2,2.5,2.1,3.9,2.7V4.2c-1.4,0.6-2.7,1.4-3.8,2.6c-2.1,2.2-3.3,5-3.3,8.1v2.2c0,2.7,0.9,5.2,2.6,7.2c-1.7,2-2.6,4.6-2.6,7.4
			V34c0,3,1.1,5.8,3.2,8c2.2,2.3,5.1,3.5,8.2,3.5h9.5c3.2,0,6.1-1.3,8.3-3.5c0.1-0.1,0.1-0.2,0.2-0.2c2.1,2.4,5.1,3.8,8.3,3.8h33.7
			c3.1,0,6-1.3,8.2-3.5c2.1-2.2,3.2-5,3.2-8v-2.3c0-3.1-1.2-6-3.3-8.2c-1.9-1.9-4.3-3-7-3.3c2.8-0.3,5.3-1.5,7.2-3.7
			c2-2.2,3.1-4.9,3.1-7.9V-51c0-3-1.2-5.9-3.3-8C1494.7-61.2,1491.8-62.4,1488.8-62.4L1488.8-62.4z"/>
	</g>
	<g>
		<path class="st0" d="M1568.4,41.5c-1.5,0-3-0.4-4.6-1c-1.5-0.7-2.8-1.5-3.9-2.6l-2.4-2.4c-0.7-0.6-1.3-1.3-1.8-2.1V34
			c0,2-0.7,3.8-2.1,5.2c-1.4,1.5-3.3,2.3-5.4,2.3h-2.2c-2,0-3.8-0.8-5.3-2.2c-1.5-1.5-2.2-3.3-2.2-5.3v-2.1
			c-0.7,1.4-1.5,2.6-2.5,3.5l-2.2,2.3c-1,1.1-2.4,2.1-4,2.8c-1.6,0.7-3.1,1-4.5,1c-2,0-3.9-0.9-5.2-2.4c-0.1-0.1-0.2-0.3-0.3-0.4
			c-0.2,0.2-0.4,0.4-0.6,0.6c-1.5,1.5-3.3,2.2-5.3,2.2h-2.4c-2,0-3.9-0.8-5.3-2.3c-1.4-1.4-2.1-3.2-2.1-5.2v-51
			c-0.9-0.4-1.9-1.2-2.7-2.7c-0.6-1.2-0.9-2.7-0.9-4.4v-2.2c0-1.9,0.6-3.6,1.9-5.1c1.2-1.3,2.7-2.2,4.4-2.4l0-17.2
			c0-2,0.8-3.8,2.2-5.2c1.4-1.4,3.3-2.2,5.3-2.2h2.3c1.9,0,3.7,0.7,5.1,1.9c1.4-1.3,3.2-1.9,5-1.9h2.1c1.9,0,3.7,0.6,5.1,1.8
			c1.3,1.1,2.2,2.6,2.4,4.2l31.6,0c2.1,0,4,0.8,5.4,2.3c1.4,1.5,2.1,3.3,2.1,5.2v13.2c0,2-0.7,3.9-2.1,5.3c-0.7,0.8-1.6,1.3-2.5,1.7
			c0.2,0.6,0.2,1.1,0.2,1.4v47.6c1.3,0.4,2.4,1.3,3.2,2.6c0.8,1.3,1.2,2.8,1.2,4.6V34c0,1.8-0.6,3.6-1.8,5
			C1572.3,40.6,1570.4,41.5,1568.4,41.5z M1521.6-24c0,0.1-0.1,0.2-0.1,0.3c-0.2,0.7-0.2,1.3-0.2,1.9v46.8c0.4-0.2,0.7-0.4,1.1-0.5
			v-47.6c0-1.1,0.4-3.7,4.5-4.3c0.9-0.1,1.9-0.2,3-0.2h2.2c2.1,0,4,0.8,5.4,2.4c0.3,0.3,0.6,0.7,0.8,1v-3.2c0-2,0.8-3.8,2.2-5.3
			c1.5-1.4,3.3-2.2,5.3-2.2h-11.8c-1.5,0-3.1-0.3-4.7-1c-1.5-0.6-2.8-1.4-3.9-2.2c-0.1-0.1-0.2-0.2-0.3-0.3l-1.2-1.2v8
			c0,1.3-0.2,2.6-0.5,3.9C1523.2-26.1,1522.5-24.9,1521.6-24z M1548.2-34.9c2.1,0,4,0.8,5.4,2.3c1.4,1.5,2.1,3.3,2.1,5.2v2.3
			c0.1-0.1,0.1-0.1,0.2-0.2c1-1,2.2-1.7,3.4-2.1c-0.8-1.2-1.2-2.6-1.2-4.1v-3.4H1548.2z"/>
		<path class="st1" d="M1528.7-54.3c1,0,1.8,0.3,2.5,0.9c0.7,0.6,1,1.3,1,2.2c0,0.9,0.4,1.7,1.1,2.2c0.7,0.6,1.6,0.8,2.5,0.8h32
			c1,0,1.9,0.3,2.5,1c0.7,0.7,1,1.5,1,2.5v13.2c0,1-0.3,1.9-1,2.6c-0.7,0.7-1.5,1-2.5,1h-2.2c-1,0-1.9-0.3-2.5-1
			c-0.7-0.7-1-1.5-1-2.5v-3.9c0-0.9-0.4-1.8-1.1-2.5c-0.7-0.7-1.5-1.1-2.4-1.1h-24.5c-1,0-2.1-0.2-3.2-0.7c-1.2-0.5-2.1-1-2.9-1.6
			l-2.5-2.5c-0.7-0.7-1.3-1.7-1.8-2.9c-0.5-1.2-0.7-2.2-0.7-3.1v-1.2c0-0.9,0.4-1.7,1.1-2.4c0.7-0.7,1.6-1,2.5-1H1528.7
			 M1516.5-54.3c1,0,1.8,0.3,2.5,1c0.7,0.7,1,1.5,1,2.4v19.4c0,1-0.1,2-0.4,3c-0.2,1-0.6,1.6-1.1,2c-0.3,0.3-0.6,1-0.9,2
			c-0.2,1-0.4,1.9-0.4,2.9V34c0,0.9-0.3,1.8-1,2.5c-0.7,0.7-1.5,1-2.5,1h-2.4c-0.9,0-1.7-0.4-2.4-1c-0.7-0.7-1-1.5-1-2.5v-51
			c0-1-0.2-1.8-0.5-2.5c-0.4-0.7-0.8-1-1.4-1c-0.5,0-0.9-0.3-1.2-1c-0.3-0.7-0.5-1.5-0.5-2.6v-2.2c0-0.9,0.3-1.8,0.9-2.5
			c0.6-0.7,1.4-1,2.3-1c0.9,0,1.7-0.4,2.2-1.1c0.6-0.7,0.9-1.5,0.9-2.4v-17.6c0-0.9,0.3-1.7,1-2.4c0.7-0.7,1.5-1,2.5-1H1516.5
			 M1548.2-30.9c1,0,1.9,0.4,2.5,1c0.7,0.7,1,1.5,1,2.5V34c0,0.9-0.3,1.8-1,2.5c-0.7,0.7-1.5,1-2.5,1h-2.2c-0.9,0-1.8-0.4-2.5-1
			c-0.7-0.7-1.1-1.5-1.1-2.5v-61.4c0-0.9,0.4-1.8,1.1-2.5c0.7-0.7,1.5-1,2.5-1H1548.2 M1563.6-23.6c0.9,0,1.7,0.1,2.4,0.2
			c0.7,0.1,1,0.2,1,0.3v47.7c0,1.1,0.2,1.9,0.7,2.6c0.4,0.7,1,1,1.6,1c0.6,0,1.1,0.3,1.5,1c0.4,0.7,0.6,1.5,0.6,2.5V34
			c0,0.9-0.3,1.8-0.9,2.5c-0.6,0.7-1.3,1-2.2,1c-0.9,0-1.9-0.2-3-0.7c-1-0.5-1.9-1.1-2.7-1.8l-2.5-2.5c-0.7-0.6-1.3-1.5-1.8-2.6
			c-0.5-1.2-0.7-2.2-0.7-3.1V-20c0-0.9,0.3-1.8,1-2.5c0.7-0.7,1.5-1.1,2.5-1.1H1563.6 M1532.1-23.6c1,0,1.8,0.4,2.5,1.1
			c0.7,0.7,1,1.6,1,2.5v46.7c0,0.9-0.2,2-0.7,3.1c-0.5,1.2-1.1,2-1.8,2.6l-2.4,2.5c-0.7,0.7-1.5,1.3-2.6,1.8
			c-1.1,0.5-2.1,0.7-2.9,0.7c-0.9,0-1.6-0.4-2.2-1c-0.6-0.7-0.9-1.5-0.9-2.5v-2.3c0-1,0.2-1.8,0.6-2.5c0.4-0.7,1-1,1.5-1
			c0.6,0,1.1-0.3,1.5-1c0.4-0.7,0.6-1.5,0.6-2.6v-47.7c0-0.1,0.4-0.2,1.1-0.3c0.7-0.1,1.6-0.2,2.5-0.2H1532.1 M1528.7-62.3h-2.1
			c-1.8,0-3.5,0.4-5,1.1c-1.6-0.8-3.3-1.1-5.1-1.1h-2.3c-3.1,0-6,1.2-8.2,3.3c-2.2,2.2-3.3,5-3.3,8.1v14.2c-1.3,0.6-2.5,1.6-3.5,2.7
			c-1.9,2.2-2.8,4.8-2.8,7.7v2.2c0,2.3,0.5,4.4,1.4,6.2c0.6,1.2,1.4,2.2,2.2,3V34c0,3,1.1,5.8,3.2,8c2.2,2.3,5.1,3.5,8.2,3.5h2.4
			c2,0,4-0.5,5.8-1.6c1.7,1,3.6,1.6,5.6,1.6c1.9,0,4-0.5,6.1-1.3c2.1-0.9,3.8-2.1,5.2-3.6c0.4,0.6,0.8,1.1,1.3,1.6
			c2.2,2.2,5.1,3.4,8.1,3.4h2.2c3.2,0,6.1-1.2,8.3-3.5c0.3-0.3,0.6-0.7,0.9-1.1c1.4,1.3,3,2.4,4.8,3.2c2.1,0.9,4.2,1.4,6.2,1.4
			c3.3,0,6.3-1.4,8.4-4c1.7-2.1,2.7-4.7,2.7-7.5v-2.3c0-2.5-0.6-4.7-1.8-6.7c-0.7-1.2-1.6-2.1-2.6-2.9v-44.5c0.4-0.3,0.8-0.7,1.1-1
			c2.1-2.2,3.3-5.1,3.3-8.1v-13.2c0-3-1.2-5.8-3.2-8c-2.2-2.3-5.1-3.5-8.3-3.5h-28.8c-0.7-1.2-1.6-2.4-2.7-3.3
			C1534.3-61.4,1531.6-62.3,1528.7-62.3L1528.7-62.3z M1528-31.6v-0.6c0.5,0.2,1,0.4,1.5,0.5C1529-31.6,1528.5-31.6,1528-31.6
			L1528-31.6z"/>
	</g>
	<g>
		<path class="st0" d="M1642.8,41.5c-1.5,0-3.1-0.4-4.8-1.2c-1.7-0.8-3-1.8-4-3c0,0-0.4-0.5-0.4-0.5l-0.2,0.3
			c-0.9,1.2-2.1,2.2-3.7,3.1c-1.7,0.9-3.4,1.4-5,1.4h-3.2c-1.6,0-3.1-0.5-4.3-1.4c-1.3,1-2.7,1.4-4.4,1.4h-2.3
			c-1.4,0-2.7-0.2-3.9-0.7c-1.4-0.6-2.3-1.4-2.8-2.2c-0.1,0-0.1,0-0.2,0h-16.8c-2,0-3.8-0.8-5.2-2.2c-1.4-1.4-2.2-3.2-2.2-5.2v-2.3
			c0-1.4,0.1-2.5,0.4-3.5c0.3-1.2,0.8-2.1,1.3-2.7c0-0.2,0-0.5,0-0.8V-3.9c0-0.4,0-0.7,0-0.9c-0.5-0.6-1-1.5-1.3-2.7
			c-0.2-1-0.4-2.1-0.4-3.5v-2.2c0-2.1,0.7-3.9,2.2-5.3c0.3-0.3,0.6-0.6,1-0.9c-0.8-1.2-1.3-2.7-1.3-4.2v-27.3c0-2,0.8-3.8,2.2-5.2
			c1.4-1.4,3.3-2.2,5.3-2.2h55.6c2,0,3.8,0.7,5.2,2.1c1.5,1.4,2.3,3.3,2.3,5.3v20.1c0,1.5-0.3,3.1-1,4.7c-0.7,1.6-1.6,3-2.7,4.1
			l-1.4,1.3c1.6,0.2,3.1,0.9,4.4,2.1c1.5,1.4,2.3,3.3,2.3,5.4v2.2c0,1.8-0.6,3.4-1.7,4.8c1,1.3,1.6,2.9,1.6,4.6v6.5
			c0,1.4-0.3,2.8-0.8,4.5c-0.5,1.7-1.2,3.1-2.1,4.3l-6.3,8.5c-0.1,0.1-0.1,0.3-0.1,0.6c0,0,0,0.1,0,0.1c0,0,0.1,0.1,0.1,0.1
			c0.3,0.3,0.7,0.6,1.2,0.9c0.6,0.3,0.9,0.3,0.9,0.3c2,0,3.8,0.8,5.2,2.4c1.2,1.4,1.9,3.2,1.9,5.2v2.2c0,2-0.7,3.8-2.1,5.2
			c-1.4,1.5-3.3,2.3-5.4,2.3H1642.8z M1620.2,24.3c0.3,0,0.7-0.1,1-0.1c0.2,0,0.5-0.1,0.8-0.3c0.3-0.1,0.5-0.3,0.6-0.4
			c0,0,0-0.1,0-0.3c0,0,0-0.1-0.1-0.2l-0.3-0.3c-0.1-0.1-0.2-0.2-0.2-0.3c-0.4-0.5-0.9-0.9-1.4-1.3c-0.2-0.1-0.3-0.2-0.4-0.2
			c0,0,0,0-0.1,0V24.3z M1632.9,9.2l0.7-1h-1.6c0.2,0.2,0.4,0.4,0.6,0.7L1632.9,9.2z"/>
		<path class="st1" d="M1644.4-54.3c0.9,0,1.8,0.3,2.5,1c0.7,0.7,1.1,1.5,1.1,2.4v20.1c0,1-0.2,2.1-0.7,3.2
			c-0.5,1.1-1.1,2.1-1.8,2.8l-2.5,2.4c-0.5,0.7-1.4,1.2-2.6,1.7c-1.2,0.5-2.2,0.7-3.1,0.7h-48.4c-1,0-1.8-0.4-2.5-1
			c-0.7-0.7-1-1.6-1-2.6v-27.3c0-0.9,0.3-1.7,1-2.4c0.7-0.7,1.5-1,2.5-1H1644.4 M1598.1-40.9h37c1,0,1.8-0.2,2.5-0.6
			c0.7-0.4,1-0.9,1-1.5c0-0.5-0.3-1-1-1.5c-0.7-0.5-1.5-0.7-2.5-0.7h-37c-1,0-1.8,0.2-2.5,0.7c-0.7,0.5-1,1-1,1.5c0,0.5,0.3,1,1,1.5
			C1596.3-41.1,1597.1-40.9,1598.1-40.9 M1598.1-29.3h37c1,0,1.8-0.1,2.5-0.4s1-0.7,1-1.2c0-0.5-0.3-0.8-1-1.2
			c-0.7-0.3-1.5-0.5-2.5-0.5h-37c-1,0-1.8,0.2-2.5,0.5c-0.7,0.3-1,0.7-1,1.2c0,0.5,0.3,0.9,1,1.2
			C1596.3-29.5,1597.1-29.3,1598.1-29.3 M1646-16.7c0.9,0,1.8,0.3,2.5,1c0.7,0.7,1,1.5,1,2.5v2.2c0,1-0.4,1.9-1,2.5
			c-0.7,0.7-1.5,1-2.5,1h-26.3c-0.9,0-1.8,0.3-2.5,1c-0.7,0.7-1,1.5-1,2.5V34c0,0.9-0.3,1.8-1,2.5c-0.7,0.7-1.5,1-2.4,1h-2.3
			c-0.9,0-1.7-0.1-2.4-0.4c-0.7-0.3-1-0.6-1-1s-0.4-0.8-1.1-1c-0.7-0.3-1.5-0.5-2.4-0.5h-16.8c-0.9,0-1.7-0.3-2.4-1
			c-0.7-0.7-1-1.5-1-2.4v-2.3c0-1,0.1-1.9,0.2-2.5c0.2-0.7,0.4-1,0.6-1c0.3,0,0.5-0.3,0.6-1c0.2-0.7,0.2-1.5,0.2-2.4V-3.9
			c0-1-0.1-1.8-0.2-2.5c-0.2-0.7-0.4-1-0.6-1c-0.2,0-0.4-0.3-0.6-1c-0.2-0.7-0.2-1.5-0.2-2.5v-2.2c0-1,0.3-1.9,1-2.5
			c0.7-0.7,1.5-1,2.4-1H1646 M1597.9-2.3h5.8c0.9,0,1.7-0.2,2.4-0.7c0.7-0.5,1-1.1,1-1.8s-0.3-1.3-1-1.8c-0.7-0.5-1.5-0.7-2.4-0.7
			h-5.8c-1,0-1.8,0.2-2.5,0.7c-0.7,0.5-1,1.1-1,1.8s0.3,1.3,1,1.8C1596.1-2.6,1596.9-2.3,1597.9-2.3 M1597.9,11.9h5.8
			c0.9,0,1.7-0.3,2.4-0.9c0.7-0.6,1-1.3,1-2.1c0-0.7-0.3-1.4-1-2c-0.7-0.6-1.5-0.9-2.4-0.9h-5.8c-1,0-1.8,0.3-2.5,0.9
			c-0.7,0.6-1,1.3-1,2c0,0.8,0.3,1.5,1,2.1C1596.1,11.6,1596.9,11.9,1597.9,11.9 M1597.9,25.3h5.8c0.9,0,1.7-0.2,2.4-0.7
			c0.7-0.5,1-1.1,1-1.8c0-0.7-0.3-1.2-1-1.8c-0.7-0.5-1.5-0.8-2.4-0.8h-5.8c-1,0-1.8,0.3-2.5,0.8c-0.7,0.5-1,1.1-1,1.8
			c0,0.7,0.3,1.3,1,1.8C1596.1,25,1596.9,25.3,1597.9,25.3 M1645.9-5.1c1,0,1.8,0.4,2.5,1.1c0.7,0.7,1,1.5,1,2.4v6.5
			c0,0.9-0.2,2-0.6,3.3c-0.4,1.3-0.9,2.3-1.5,3.1l-6.4,8.6c-0.5,0.8-0.8,1.8-0.8,2.9s0.3,2,1,2.8c0.6,0.7,1.4,1.4,2.4,1.9
			c1,0.5,1.9,0.8,2.8,0.8c0.9,0,1.6,0.3,2.2,1c0.6,0.7,0.9,1.5,0.9,2.5v2.2c0,0.9-0.3,1.8-1,2.5c-0.7,0.7-1.5,1.1-2.5,1.1h-3.1
			c-0.9,0-2-0.3-3.1-0.8c-1.1-0.5-2-1.2-2.6-1.9l-1.4-1.8c-0.7-0.7-1.4-1.1-2.2-1.1s-1.5,0.4-2,1.1l-1.3,1.6c-0.5,0.7-1.4,1.4-2.5,2
			s-2.1,0.9-3,0.9h-3.2c-0.9,0-1.7-0.4-2.4-1.1c-0.7-0.7-1-1.5-1-2.5v-2.2c0-1,0.3-1.9,0.9-2.5c0.6-0.7,1.3-1,2.2-1
			c0.9,0,1.8-0.2,2.6-0.7c0.9-0.5,1.6-1.1,2.1-1.8c0.5-0.7,0.7-1.6,0.6-2.6c0-1-0.4-1.9-1-2.7l-0.5-0.5c-0.7-0.8-1.4-1.5-2.3-2
			c-0.9-0.6-1.6-0.8-2.3-0.8c-0.7,0-1.2-0.3-1.7-1c-0.5-0.7-0.7-1.5-0.7-2.4v-1.7c0-0.9,0.3-1.7,1-2.4c0.7-0.7,1.5-1,2.4-1h2.3
			c1,0,2.1,0.3,3.2,0.8c1.1,0.5,1.9,1.2,2.5,2l1.4,1.7c0.6,0.7,1.3,1,2.1,1c0,0,0.1,0,0.1,0c0.9,0,1.6-0.4,2.1-1.1l3-4.4
			c0.5-0.8,1-1.5,1.4-2.2s0.6-1.1,0.6-1.3c0-0.1-0.3-0.3-1-0.5c-0.7-0.2-1.5-0.3-2.5-0.3h-15.2c-0.9,0-1.7-0.3-2.4-1
			c-0.7-0.7-1-1.5-1-2.5v-2.2c0-0.9,0.3-1.8,1-2.5c0.7-0.7,1.5-1.1,2.4-1.1H1645.9 M1644.4-62.3h-55.6c-3.1,0-6,1.2-8.2,3.3
			c-2.2,2.2-3.4,5-3.4,8.1v27.3c0,1.2,0.2,2.3,0.5,3.4c-1.5,2-2.4,4.5-2.4,7.1v2.2c0,1.7,0.2,3.1,0.5,4.5c0.3,1.2,0.7,2.2,1.2,3
			v24.8c-0.5,0.8-0.9,1.8-1.2,3.1c-0.3,1.3-0.5,2.8-0.5,4.4v2.3c0,3,1.2,5.9,3.3,8c2.2,2.2,5,3.4,8.1,3.4h15.2
			c0.8,0.8,1.9,1.4,3.1,1.9c1.6,0.6,3.4,1,5.4,1h2.3c1.5,0,3-0.3,4.4-0.9c1.4,0.6,2.8,0.9,4.3,0.9h3.2c2.3,0,4.6-0.6,6.9-1.9
			c0.7-0.4,1.4-0.8,2-1.3c0.8,0.6,1.7,1.1,2.7,1.6c2.2,1,4.4,1.6,6.5,1.6h3.1c3.2,0,6.1-1.3,8.3-3.6c2.1-2.2,3.2-5,3.2-8v-2.2
			c0-3-1-5.7-2.9-7.8c-1.2-1.4-2.7-2.4-4.3-3l3.6-4.8c1.1-1.5,2-3.3,2.7-5.5c0.7-2.1,1-3.9,1-5.7v-6.5c0-1.6-0.3-3.1-0.9-4.5
			c0.7-1.5,1-3.1,1-4.8v-2.2c0-3.2-1.2-6.1-3.5-8.3c-0.2-0.2-0.4-0.4-0.7-0.6c0.5-0.8,0.9-1.6,1.3-2.5c0.9-2.1,1.3-4.2,1.3-6.2
			v-20.1c0-3.1-1.3-6-3.5-8.2C1650.2-61.2,1647.4-62.3,1644.4-62.3L1644.4-62.3z"/>
	</g>
	<g>
		<path class="st0" d="M1665.8,41.5c-2,0-3.9-0.8-5.3-2.3c-1.4-1.4-2.1-3.2-2.1-5.2V18.1c0-2,0.7-3.9,2.1-5.3c0,0,0.1-0.1,0.1-0.1
			c0,0,0,0-0.1-0.1c-1.4-1.4-2.1-3.2-2.1-5.2V5.9c0-1.9,0.7-3.7,2-5.1c0.3-0.3,0.6-0.6,0.9-0.9c-0.4-0.3-0.7-0.6-1-1
			c-1.3-1.4-1.9-3.2-1.9-5.1v-16.1c0-1.9,0.7-3.7,1.9-5.1c-1.3-1.4-1.9-3.2-1.9-5.1v-1.2c0-2,0.7-3.9,2.1-5.3
			c0.2-0.2,0.4-0.4,0.7-0.6c-0.2-0.2-0.4-0.4-0.6-0.6c-1.4-1.4-2.2-3.2-2.2-5.2v-1.3c0-2,0.7-3.9,2.1-5.3c1.4-1.5,3.3-2.3,5.3-2.3
			c0,0,21.8,0,21.8,0c0.5-1.2,1.4-2.2,2.7-2.9c1.3-0.7,2.8-1.1,4.4-1.1h2.2c1.7,0,3.2,0.4,4.5,1.1c1.2,0.7,2.1,1.7,2.6,2.9
			c0,0,21.8,0,21.8,0c2.1,0,4,0.8,5.4,2.3c1.4,1.5,2.1,3.3,2.1,5.3v1.3c0,2-0.7,3.8-2.2,5.2c-0.2,0.2-0.4,0.4-0.6,0.6
			c0.2,0.2,0.5,0.4,0.7,0.6c1.4,1.4,2.1,3.3,2.1,5.3v1.2c0,1.9-0.7,3.7-1.9,5.1c1.3,1.4,1.9,3.1,1.9,5.1v10.9c0,1.6-0.4,3.2-1.3,4.9
			c-0.8,1.6-1.9,2.9-3.2,3.8l-1.4,1.2c1.5,0.3,2.8,1,3.8,2.1c1.4,1.4,2.1,3.2,2.1,5.2v1.5c0,2-0.7,3.8-2.1,5.2c0,0,0,0-0.1,0.1
			c0,0,0.1,0.1,0.1,0.1c1.4,1.4,2.1,3.3,2.1,5.3v9.8c0,1.6-0.4,3.2-1.3,4.9c-0.8,1.6-1.8,2.9-2.9,3.8l-1.8,1.6
			c-0.1,0.1-0.2,0.2-0.3,0.3c-1,0.7-2.3,1.4-3.9,2c-1.7,0.6-3.3,1-4.8,1H1665.8z"/>
		<path class="st1" d="M1697-54.3c1,0,1.9,0.2,2.5,0.6c0.7,0.4,1,0.9,1,1.5c0,0.5,0.4,1,1,1.4c0.7,0.4,1.6,0.6,2.7,0.6h21.7
			c1,0,1.8,0.4,2.5,1.1c0.7,0.7,1,1.6,1,2.6v1.3c0,0.9-0.3,1.8-1,2.4c-0.7,0.7-1.5,1-2.5,1h-21.7c-1.1,0-2,0.2-2.7,0.8
			c-0.7,0.5-1,1-1,1.6c0,0.7,0.4,1.2,1,1.6c0.7,0.4,1.6,0.7,2.7,0.7h21.7c1,0,1.8,0.3,2.5,1c0.7,0.7,1,1.5,1,2.5v1.2
			c0,1-0.3,1.9-1,2.5c-0.7,0.7-1.5,1.1-2.5,1.1h-60.1c-0.9,0-1.7-0.4-2.4-1.1c-0.7-0.7-1-1.5-1-2.5v-1.2c0-1,0.3-1.8,1-2.5
			c0.7-0.7,1.5-1,2.4-1h21.8c1,0,1.9-0.2,2.5-0.7c0.7-0.4,1.1-1,1.1-1.6c0-0.6-0.4-1.1-1.1-1.6c-0.7-0.5-1.5-0.8-2.5-0.8h-21.8
			c-0.9,0-1.7-0.3-2.4-1c-0.7-0.7-1-1.5-1-2.4v-1.3c0-1,0.3-1.9,1-2.6c0.7-0.7,1.5-1.1,2.4-1.1h21.8c1,0,1.9-0.2,2.5-0.6
			c0.7-0.4,1.1-0.8,1.1-1.4c0-0.6,0.4-1.1,1.1-1.5c0.7-0.4,1.5-0.6,2.5-0.6H1697 M1725.9-25.7c1,0,1.8,0.3,2.5,1
			c0.7,0.7,1,1.5,1,2.5v10.9c0,0.9-0.3,2-0.9,3.1c-0.6,1.1-1.2,1.9-2,2.5l-1.6,1.3l-2.1,1.4c-0.6,0.4-0.9,0.6-1,0.6
			c-0.1,0-0.1,0.2-0.1,0.7V0c0,0.7,0.3,1.3,1,1.8c0.7,0.5,1.5,0.7,2.4,0.7h0.8c1,0,1.8,0.3,2.5,1c0.7,0.7,1,1.5,1,2.4v1.5
			c0,0.9-0.3,1.7-1,2.4c-0.7,0.7-1.5,1-2.5,1h-60.1c-0.9,0-1.7-0.3-2.4-1c-0.7-0.7-1-1.5-1-2.4V5.9c0-0.9,0.3-1.7,1-2.4
			c0.6-0.7,1.4-1,2.4-1c0.9,0,1.7-0.2,2.4-0.7c0.7-0.5,1-1.1,1-1.8c0-0.7-0.3-1.3-1-1.8c-0.7-0.4-1.5-0.7-2.4-0.7
			c-0.9,0-1.7-0.4-2.4-1.1c-0.6-0.7-1-1.6-1-2.5v-16.1c0-1,0.3-1.8,1-2.5c0.7-0.7,1.5-1,2.4-1H1725.9 M1675.3-10.6h41.2
			c1,0,1.9-0.3,2.5-1c0.7-0.7,1.1-1.5,1.1-2.4v-0.2c0-1-0.4-1.9-1.1-2.6c-0.7-0.7-1.5-1-2.5-1h-41.2c-1,0-1.8,0.4-2.5,1
			c-0.7,0.7-1,1.6-1,2.6v0.2c0,0.9,0.3,1.7,1,2.4C1673.5-11,1674.3-10.6,1675.3-10.6 M1682,2.5h26.7c0.9,0,1.8-0.2,2.4-0.7
			c0.7-0.5,1.1-1.1,1.1-1.8c0-0.7-0.4-1.3-1.1-1.8c-0.7-0.4-1.5-0.7-2.4-0.7H1682c-1,0-1.9,0.2-2.5,0.7c-0.7,0.4-1.1,1-1.1,1.8
			c0,0.8,0.4,1.4,1.1,1.8C1680.2,2.2,1681,2.5,1682,2.5 M1725.9,14.5c1,0,1.8,0.4,2.5,1.1c0.7,0.7,1,1.5,1,2.5v9.8
			c0,0.9-0.3,2-0.9,3.1c-0.6,1.1-1.2,2-2,2.6l-1.9,1.7c-0.7,0.5-1.7,1-3,1.5c-1.2,0.5-2.4,0.7-3.4,0.7h-52.6c-0.9,0-1.7-0.4-2.4-1
			c-0.7-0.7-1-1.5-1-2.5V18.1c0-1,0.3-1.9,1-2.5c0.7-0.7,1.5-1.1,2.4-1.1H1725.9 M1675.3,29.6h41.2c1,0,1.9-0.4,2.5-1
			c0.7-0.7,1.1-1.5,1.1-2.5c0-1-0.4-1.9-1.1-2.5c-0.7-0.7-1.5-1.1-2.5-1.1h-41.2c-1,0-1.8,0.4-2.5,1.1c-0.7,0.7-1,1.5-1,2.5
			c0,0.9,0.3,1.8,1,2.5C1673.5,29.2,1674.3,29.6,1675.3,29.6 M1697-62.3h-2.2c-2.3,0-4.4,0.5-6.3,1.6c-1.2,0.6-2.2,1.5-3,2.4h-19.6
			c-3.1,0-6.1,1.3-8.2,3.6c-2.1,2.2-3.2,5-3.2,8.1v1.3c0,2.1,0.6,4.1,1.6,5.8c-1,1.8-1.6,3.8-1.6,5.9v1.2c0,1.8,0.4,3.6,1.2,5.1
			c-0.8,1.6-1.2,3.3-1.2,5.1v16.1c0,2.2,0.6,4.2,1.7,6.1c-1.1,1.8-1.7,3.8-1.7,6v1.5c0,1.9,0.4,3.7,1.3,5.3
			c-0.8,1.6-1.3,3.5-1.3,5.4V34c0,3,1.1,5.8,3.2,8c2.2,2.3,5.1,3.5,8.2,3.5h52.6c2,0,4-0.4,6.2-1.2c1.9-0.7,3.5-1.5,4.8-2.5
			c0.2-0.2,0.4-0.3,0.6-0.5l1.8-1.6c1.5-1.3,2.8-3,3.9-5.1c1.1-2.3,1.7-4.5,1.7-6.7v-9.8c0-1.9-0.4-3.8-1.3-5.4
			c0.8-1.6,1.3-3.4,1.3-5.3V5.9c0-3-1.1-5.8-3.2-8c0,0,0,0-0.1-0.1c0.6-0.7,1.1-1.6,1.6-2.5c1.1-2.2,1.7-4.5,1.7-6.7v-10.9
			c0-1.8-0.4-3.5-1.2-5.1c0.8-1.6,1.2-3.3,1.2-5.1v-1.2c0-2.1-0.5-4.2-1.6-5.9c1-1.7,1.6-3.7,1.6-5.8v-1.3c0-3.1-1.1-5.8-3.2-8.1
			c-2.2-2.3-5.1-3.6-8.3-3.6h-19.6c-0.8-0.9-1.7-1.7-2.8-2.3C1701.6-61.8,1699.4-62.3,1697-62.3L1697-62.3z"/>
	</g>
	<g>
		<path class="st0" d="M1799.4,41.5c-1.8,0-3.5-0.6-5.1-1.8c-1.6-1.2-2.7-2.7-3.2-4.5l-1.6-5.8l-1.6,5.8c0,0.1-0.1,0.2-0.1,0.3
			c-0.6,1.7-1.6,3.1-3.1,4.2c-1.6,1.2-3.3,1.8-5.1,1.8h-5.2c-2,0-3.9-0.8-5.3-2.3c-0.2-0.2-0.3-0.4-0.5-0.6
			c-0.1,0.1-0.2,0.3-0.4,0.4c-1.5,1.4-3.3,2.1-5.2,2.1h-0.7c-1.7,0-3.4-0.5-5-1.4c-1.5-0.9-2.6-2-3.3-3.4c-0.7,1.4-1.9,2.5-3.4,3.4
			c-1.6,0.9-3.3,1.4-4.9,1.4h-0.7c-2,0-3.8-0.8-5.2-2.2c-1.4-1.4-2.2-3.2-2.2-5.2v-2.3c0-1.5,0.3-2.8,0.8-4c1-2.3,2.6-3.1,3.7-3.4
			c0.3-0.3,0.5-0.7,0.7-1.1l1.6-3.7c0.1-0.3,0.3-0.7,0.3-1.5c0-0.6-0.1-1.1-0.3-1.4l-4.2-8.7c0-0.1-0.1-0.2-0.1-0.3
			c-0.4-1-0.8-2.3-1.1-3.7c-0.4-1.6-0.6-3-0.6-4.3V-37c0-2.1,0.8-3.9,2.2-5.3c0.2-0.2,0.4-0.4,0.6-0.5c-0.2-0.2-0.4-0.4-0.6-0.5
			c-1.4-1.4-2.2-3.2-2.2-5.2V-51c0-2,0.7-3.8,2.2-5.2c1.4-1.4,3.3-2.2,5.3-2.2h16.1c2,0,3.8,0.7,5.2,2.2c0.2,0.2,0.4,0.4,0.5,0.6
			c0.2-0.2,0.3-0.4,0.5-0.6c1.4-1.4,3.2-2.2,5.2-2.2h2.3c1.7,0,3.3,0.5,4.7,1.4c1.4,1,2.3,2.2,2.7,3.7l21.4,0.1c2,0,3.9,0.7,5.3,2.2
			c1.4,1.4,2.2,3.2,2.2,5.2v37.4c0,2-0.8,3.8-2.2,5.2c-1.4,1.4-3.3,2.2-5.3,2.2h-2.2c-1.1,0-2.2-0.2-3.1-0.7l7,25.2
			c0,0.1,0,0.2,0.1,0.2c0,0.1,0.1,0.2,0.1,0.3c1.7,0.2,3.3,1.1,4.3,2.7c0.9,1.4,1.4,2.9,1.4,4.7v2.5c0,2-0.7,3.8-2.1,5.2
			c-1.4,1.5-3.3,2.3-5.4,2.3H1799.4z M1765.7,23.9c1.2,0.3,2.3,1,3.1,2.1c1-1.2,2.4-1.8,3.9-2c0.1-0.1,0.1-0.2,0.1-0.3
			c0-0.1,0-0.2,0.1-0.2l7.2-25.5c0.2-0.8,0.4-1.8,0.6-2.9c0.2-1.2,0.3-2.2,0.3-3l-0.1-23.2c0-1.9,0.6-3.6,1.9-5h-1.9
			c-1.5,0-3-0.3-4.6-0.9c-1.7-0.6-3.1-1.5-4.2-2.7l-2.3-2.2c-0.1-0.1-0.1-0.1-0.2-0.2c0,0-0.1-0.1-0.1-0.1v41.4
			c0,1.3-0.2,2.7-0.5,4.2c-0.3,1.5-0.7,2.7-1.1,3.8c0,0.1-0.1,0.2-0.1,0.3l-4.1,8.6c0,0.1-0.1,0.1-0.1,0.2c-0.1,0.3-0.2,0.7-0.2,1.2
			c0,0.7,0.1,1.3,0.2,1.8l1.7,3.7C1765.3,23.3,1765.5,23.6,1765.7,23.9z"/>
		<path class="st1" d="M1775.7-54.4c0.9,0,1.8,0.2,2.4,0.7c0.7,0.5,1.1,1.1,1.1,1.7c0,0.7,0.3,1.4,1,1.9c0.7,0.5,1.5,0.8,2.4,0.8
			l21.9,0.1c1,0,1.9,0.3,2.5,1c0.7,0.7,1,1.5,1,2.4v37.4c0,0.9-0.3,1.7-1,2.4c-0.7,0.7-1.5,1-2.5,1h-2.2c-1,0-1.9-0.3-2.5-1
			c-0.7-0.7-1-1.5-1-2.4v-28.1c0-0.9-0.4-1.8-1.1-2.5c-0.7-0.7-1.5-1.1-2.5-1.1h-14.3c-1,0-2.1-0.2-3.2-0.6c-1.1-0.4-2.1-1-2.8-1.8
			l-2.4-2.3c-0.7-0.7-1.2-1.7-1.7-2.9c-0.5-1.2-0.7-2.3-0.7-3.3c0-0.9,0.3-1.8,1-2.4c0.7-0.7,1.5-1,2.4-1H1775.7 M1761.9-54.4
			c0.9,0,1.7,0.3,2.4,1c0.7,0.7,1,1.5,1,2.4v50.1c0,1-0.1,2.1-0.4,3.4c-0.3,1.3-0.6,2.3-0.9,3.2l-4.1,8.6c-0.5,0.9-0.7,1.9-0.7,3.1
			c0,1.2,0.2,2.3,0.5,3.2l1.8,3.9c0.4,0.9,0.9,1.6,1.5,2.2c0.6,0.6,1.1,1,1.6,1c0.5,0,1,0.4,1.3,1.1c0.3,0.7,0.4,1.5,0.4,2.5v2.3
			c0,0.9-0.4,1.8-1.1,2.4c-0.7,0.7-1.5,1-2.5,1h-0.7c-1,0-2-0.3-3-0.9c-1-0.6-1.7-1.3-2.1-2.2l-1.7-3.7c-0.5-0.9-1-1.3-1.6-1.3
			s-1.1,0.4-1.5,1.3l-1.8,3.7c-0.3,0.9-1,1.7-2,2.2c-1,0.6-2,0.9-2.9,0.9h-0.7c-0.9,0-1.7-0.3-2.4-1c-0.7-0.7-1-1.5-1-2.4v-2.3
			c0-0.9,0.1-1.8,0.5-2.5c0.3-0.7,0.7-1.1,1.2-1.1c0.5,0,1.1-0.3,1.7-0.9c0.6-0.6,1.1-1.4,1.6-2.2l1.7-3.9c0.4-0.9,0.6-1.9,0.6-3.1
			c0-1.2-0.2-2.3-0.7-3.2l-4.1-8.6c-0.3-0.9-0.7-1.9-1-3.2c-0.3-1.3-0.5-2.4-0.5-3.4V-37c0-1,0.3-1.8,1-2.5c0.7-0.7,1.5-1,2.5-1h1.4
			c1,0,1.8,0.3,2.5,1c0.7,0.7,1,1.5,1,2.5v34.3c0,0.9,0.1,2,0.4,3.3c0.3,1.3,0.6,2.4,1,3.4l0.2,0.5c0.5,0.9,1,1.4,1.5,1.4
			c0.5,0,1-0.5,1.5-1.4l0.2-0.5c0.4-0.9,0.7-2,1-3.4c0.3-1.3,0.4-2.4,0.4-3.3v-38.9c0-0.9-0.3-1.8-1-2.4c-0.7-0.7-1.5-1.1-2.5-1.1
			l-7.6-0.1c-1,0-1.8-0.3-2.5-1c-0.7-0.7-1-1.5-1-2.4V-51c0-0.9,0.3-1.8,1-2.4c0.7-0.7,1.5-1,2.5-1H1761.9 M1790.6-34.6
			c0.9,0,1.8,0.3,2.5,1c0.7,0.7,1.1,1.5,1.1,2.5l0.1,23.6c0,0.9,0.1,2.1,0.3,3.4c0.2,1.3,0.4,2.5,0.7,3.4l7,25.3
			c0.2,0.9,0.6,1.7,1.3,2.4c0.7,0.7,1.4,1,2,1c0.7,0,1.3,0.3,1.8,1c0.5,0.7,0.7,1.5,0.7,2.4v2.5c0,0.9-0.3,1.8-1,2.5
			c-0.7,0.7-1.5,1.1-2.5,1.1h-5.1c-0.9,0-1.9-0.3-2.8-1c-0.9-0.7-1.5-1.5-1.8-2.4l-4.4-15.8c-0.3-0.9-0.7-1.4-1.1-1.4
			s-0.7,0.5-1,1.4l-4.5,15.8c-0.3,0.9-0.9,1.7-1.8,2.4c-0.9,0.7-1.8,1-2.7,1h-5.2c-0.9,0-1.7-0.4-2.4-1.1c-0.7-0.7-1-1.5-1-2.5v-2.5
			c0-0.9,0.2-1.8,0.7-2.4c0.5-0.7,1-1,1.7-1c0.7,0,1.4-0.3,2.1-1c0.7-0.7,1.1-1.5,1.4-2.4l7.2-25.5c0.3-0.9,0.5-2.1,0.7-3.5
			c0.2-1.4,0.3-2.5,0.3-3.5l-0.1-23.2c0-1,0.3-1.8,1-2.5c0.7-0.7,1.5-1,2.4-1H1790.6 M1775.7-62.4h-2.3c-2.1,0-4,0.5-5.8,1.6
			c-1.7-1-3.7-1.6-5.8-1.6h-16.1c-3.1,0-6,1.2-8.2,3.4c-2.1,2.2-3.3,5-3.3,8.1v2.3c0,2.1,0.5,4,1.6,5.8c-1,1.7-1.6,3.7-1.6,5.9v36.1
			c0,1.6,0.2,3.4,0.7,5.2c0.4,1.6,0.8,3,1.3,4.2c0.1,0.2,0.2,0.4,0.3,0.6l4,8.4c0,0,0,0,0,0.1l-1.3,3c-2.1,1-3.7,2.8-4.7,5.1
			c-0.7,1.7-1.1,3.6-1.1,5.6v2.3c0,3,1.2,5.9,3.3,8.1c2.2,2.2,5,3.4,8.1,3.4h0.7c2.3,0,4.6-0.6,6.8-1.9c0.5-0.3,1-0.6,1.4-0.9
			c0.4,0.3,0.9,0.6,1.3,0.9c2.2,1.3,4.6,1.9,7,1.9h0.7c1.9,0,3.7-0.5,5.4-1.3c1.8,1.1,3.9,1.7,6,1.7h5.2c2.7,0,5.3-0.9,7.6-2.7
			c0.9-0.7,1.7-1.5,2.4-2.3c0.7,0.9,1.5,1.7,2.5,2.4c2.3,1.7,4.9,2.6,7.5,2.6h5.1c3.2,0,6.1-1.3,8.3-3.6c2.1-2.2,3.2-5,3.2-8v-2.5
			c0-2.6-0.7-5-2.1-7c-1.2-1.7-2.7-2.9-4.4-3.7L1804.5,3c3.1,0,5.9-1.2,8.1-3.3c2.2-2.2,3.4-5,3.4-8.1v-37.4c0-3.1-1.2-5.9-3.4-8.1
			c-2.2-2.1-5.1-3.3-8.2-3.3l-18.8-0.1c-0.7-1.2-1.8-2.2-3-3C1780.6-61.7,1778.2-62.4,1775.7-62.4L1775.7-62.4z M1767.2,17.6l4-8.4
			c0.1-0.2,0.2-0.4,0.2-0.6c0.5-1.3,0.9-2.7,1.3-4.4c0.4-1.8,0.6-3.5,0.6-5.1v-33c0.5,0.2,1,0.4,1.4,0.6c0.7,0.3,1.4,0.5,2.1,0.7
			c-0.1,0.5-0.1,1-0.1,1.5l0.1,23.2c0,0.4,0,1.1-0.2,2.4c-0.2,1.3-0.4,2-0.5,2.4l-6.7,23.8c-0.2,0.1-0.3,0.1-0.5,0.2
			c-0.2-0.1-0.3-0.2-0.5-0.3l-1.3-2.8C1767.2,17.8,1767.2,17.7,1767.2,17.6L1767.2,17.6z"/>
	</g>
	<g>
		<path class="st0" d="M1862.2,41.5c-2,0-3.9-0.8-5.3-2.3c-0.9-0.9-1.5-2-1.8-3.1c-0.3,1.1-0.9,2.2-1.8,3.1
			c-1.4,1.5-3.3,2.3-5.3,2.3h-24.2c-2,0-3.9-0.8-5.3-2.3c-1.4-1.4-2.1-3.2-2.1-5.2v-81.5c0-1.9,0.7-3.7,2-5.2
			c1.4-1.6,3.3-2.4,5.4-2.4h13.6c0.1,0,0.1,0,0.2,0c0.6-1.1,1.6-2,2.9-2.5c1.1-0.5,2.5-0.7,4-0.7h2.2c1.8,0,3.4,0.5,4.8,1.5
			c0.5,0.4,1,0.8,1.4,1.3c0.2-0.2,0.3-0.4,0.5-0.6c1.4-1.4,3.3-2.2,5.3-2.2h2.3c1.9,0,3.6,0.6,5.1,1.9c1.3,1.1,2.1,2.6,2.4,4.1
			l15.3,0c2,0,3.9,0.8,5.3,2.3c1.4,1.5,2.1,3.3,2.1,5.3V34c0,2-0.7,3.8-2.1,5.2c-1.4,1.5-3.3,2.3-5.3,2.3H1862.2z M1850.6-38.9
			c1,0.4,1.9,1,2.7,1.8c1.4,1.4,2.1,3.3,2.1,5.3v60.5c0.4-0.9,0.9-1.6,1.6-2.3c1.4-1.4,3.2-2.2,5.2-2.2h11.6v-3.9
			c-1.2,1.3-2.8,1.9-4.4,1.9h-6.6c-2,0-3.9-0.8-5.3-2.3c-1.4-1.4-2.1-3.2-2.1-5.2v-41.6c0-2,0.7-3.8,2.1-5.2
			c1.4-1.5,3.3-2.3,5.3-2.3h2.3c2,0,3.9,0.8,5.3,2.3c1.4,1.4,2.1,3.2,2.1,5.2c0,0,0,32.3,0,32.3c0.5,0.2,0.9,0.5,1.3,0.9l0-41.4
			h-15.1c-2.1,0-4-0.8-5.4-2.3c-0.7-0.7-1.2-1.6-1.6-2.4C1851.4-39.4,1851-39.2,1850.6-38.9z M1838.1,24.2l0-15.3h-4.4l0,15.3
			L1838.1,24.2z M1838.1-8.4v-13.7h-4.4v13.7H1838.1z"/>
		<path class="st1" d="M1861-54.3c0.9,0,1.8,0.3,2.5,0.9c0.7,0.6,1,1.3,1,2.1c0,0.8,0.3,1.5,1,2.1c0.7,0.6,1.5,0.9,2.4,0.9h15.8
			c0.9,0,1.7,0.4,2.4,1c0.7,0.7,1,1.6,1,2.6V34c0,0.9-0.3,1.8-1,2.5c-0.7,0.7-1.5,1-2.4,1h-21.5c-0.9,0-1.7-0.4-2.4-1
			c-0.7-0.7-1-1.5-1-2.5v-2.3c0-1,0.3-1.8,1-2.5c0.7-0.7,1.5-1,2.4-1h12.1c1,0,1.8-0.3,2.5-1c0.7-0.7,1-1.5,1-2.5v-60.2
			c0-0.9-0.3-1.8-1-2.4c-0.7-0.7-1.5-1.1-2.5-1.1h-15.6c-1,0-1.8-0.4-2.5-1c-0.7-0.7-1-1.5-1-2.5v-8.4c0-0.9,0.3-1.7,1-2.4
			c0.7-0.7,1.5-1,2.5-1H1861 M1846.7-54.3c0.9,0,1.8,0.2,2.4,0.8c0.7,0.5,1.1,1.1,1.1,1.9v6.5c0,0.9-0.4,1.7-1.1,2.4
			c-0.7,0.7-1.5,1-2.4,1h-13.5c-1,0-1.8,0.3-2.5,1c-0.7,0.7-1,1.4-1,2.3c0,0.9,0.3,1.6,1,2.2c0.7,0.6,1.5,0.9,2.5,0.9h14.8
			c0.9,0,1.7,0.4,2.4,1c0.7,0.7,1,1.6,1,2.6V34c0,0.9-0.3,1.8-1,2.5c-0.7,0.7-1.5,1-2.4,1h-24.2c-0.9,0-1.7-0.4-2.4-1
			c-0.7-0.7-1-1.5-1-2.5v-81.5c0-0.9,0.3-1.8,1-2.5c0.7-0.7,1.5-1.1,2.4-1.1h13.6c1,0,1.9-0.1,2.6-0.4c0.7-0.3,1-0.7,1-1.1
			c0-0.5,0.3-0.9,1-1.2c0.7-0.3,1.5-0.4,2.5-0.4H1846.7 M1833.2-4.4h5.4c1,0,1.8-0.3,2.5-1c0.7-0.7,1-1.5,1-2.4v-14.7
			c0-0.9-0.3-1.7-1-2.4c-0.7-0.7-1.5-1-2.5-1h-5.4c-1,0-1.8,0.3-2.5,1c-0.7,0.7-1,1.5-1,2.4v14.7c0,0.9,0.3,1.7,1,2.4
			C1831.4-4.8,1832.2-4.4,1833.2-4.4 M1833.2,28.2h5.4c1,0,1.8-0.3,2.5-1c0.7-0.7,1-1.5,1-2.5V8.5c0-1-0.3-1.9-1-2.5
			c-0.7-0.7-1.5-1.1-2.5-1.1h-5.4c-1,0-1.8,0.4-2.5,1.1c-0.7,0.7-1,1.5-1,2.5v16.2c0,1,0.3,1.8,1,2.5
			C1831.4,27.8,1832.2,28.2,1833.2,28.2 M1865.1-30.4c0.9,0,1.7,0.4,2.4,1c0.7,0.7,1,1.5,1,2.5V5.4c0,1,0.2,1.8,0.5,2.5
			c0.4,0.7,0.8,1,1.2,1c0.5,0,1,0.3,1.3,1c0.3,0.7,0.5,1.5,0.5,2.5v2.3c0,0.9-0.3,1.8-0.8,2.4c-0.5,0.7-1.1,1.1-1.8,1.1h-6.6
			c-0.9,0-1.7-0.4-2.4-1.1c-0.7-0.7-1-1.5-1-2.4v-41.6c0-0.9,0.3-1.8,1-2.5c0.7-0.7,1.5-1,2.4-1H1865.1 M1861-62.3h-2.3
			c-2.1,0-4.1,0.6-5.9,1.6c-1.8-1-3.9-1.6-6.1-1.6h-2.2c-2,0-3.9,0.3-5.5,1c-1.3,0.5-2.5,1.3-3.4,2.2h-11.8c-3.2,0-6.1,1.3-8.3,3.7
			c-2,2.2-3.1,4.9-3.1,7.9V34c0,3,1.1,5.8,3.2,8c2.2,2.3,5.1,3.5,8.2,3.5h24.2c2.6,0,5.1-0.9,7.1-2.5c2,1.6,4.5,2.5,7.1,2.5h21.5
			c3.1,0,6-1.3,8.2-3.5c2.1-2.2,3.2-5,3.2-8v-78.7c0-3.1-1.1-5.9-3.2-8.1c-2.2-2.3-5.1-3.5-8.2-3.5h-12.5c-0.6-1.2-1.5-2.2-2.6-3.2
			C1866.5-61.3,1863.9-62.3,1861-62.3L1861-62.3z"/>
	</g>
	<g>
		<path class="st0" d="M1901,32.2c-2.2,0-4-1.8-4-4v-9.3c0-2.2,1.8-4,4-4h28.4V0.3H1902c-2.2,0-4-1.8-4-4V-13c0-2.2,1.8-4,4-4h27.4
			v-14.9H1901c-2.2,0-4-1.8-4-4v-9.3c0-2.2,1.8-4,4-4h34.3c1.1,0,2.1,0.4,2.8,1.2l7.4,7.3c0.8,0.8,1.2,1.8,1.2,2.8V-13
			c0,1.1-0.4,2.1-1.2,2.8l-1.8,1.8l1.8,1.8c0.7,0.7,1.2,1.8,1.2,2.8v24.5c0,1.1-0.4,2.1-1.2,2.8l-7.4,7.4c-0.8,0.8-1.8,1.2-2.8,1.2
			H1901z"/>
		<path class="st1" d="M1935.3-45.2l7.4,7.3V-13l-4.6,4.6l4.6,4.7v24.5l-7.4,7.4H1901v-9.3h32.4V-3.7H1902V-13h31.4v-22.9H1901v-9.3
			H1935.3 M1935.3-53.2H1901c-4.4,0-8,3.6-8,8v9.3c0,4.4,3.6,8,8,8h24.4v6.9H1902c-4.4,0-8,3.6-8,8v9.3c0,4.4,3.6,8,8,8h23.4v6.6
			H1901c-4.4,0-8,3.6-8,8v9.3c0,4.4,3.6,8,8,8h34.3c2.1,0,4.2-0.8,5.7-2.4l7.4-7.4c1.5-1.5,2.3-3.5,2.3-5.6V-3.7
			c0-1.7-0.5-3.3-1.5-4.7c1-1.3,1.5-3,1.5-4.7v-24.9c0-2.1-0.9-4.2-2.4-5.7l-7.4-7.3C1939.4-52.4,1937.4-53.2,1935.3-53.2
			L1935.3-53.2z"/>
	</g>
	<g>
		<path class="st0" d="M1980.1,41.5c-2,0-3.8-0.8-5.3-2.2c-1-1-1.6-2.1-2-3.3c-0.3,1.2-1,2.3-1.9,3.3c-1.4,1.5-3.3,2.3-5.3,2.3h-2.3
			c-2.1,0-4-0.8-5.4-2.3c-1.4-1.4-2.1-3.3-2.1-5.2v-52.3c0-0.2,0-0.3,0-0.5c-0.7-0.5-1.3-1.3-1.9-2.6c-0.5-1.1-0.7-2.4-0.8-3.8
			l-0.1-2.1c-0.1-1.8,0.3-3.5,1.3-4.9c1-1.5,2.3-2.4,3.9-2.7v-15.9c0-2,0.8-3.8,2.2-5.3c1.5-1.4,3.3-2.2,5.3-2.2h2.2
			c2.1,0,4,0.8,5.4,2.3c0.9,0.9,1.5,1.9,1.8,3.1c1.4-1.2,3.1-1.8,4.9-1.8h30.4c0.5-1.1,1.5-2,2.7-2.6c1.2-0.6,2.6-0.9,4.3-0.9h2.3
			c1.8,0,3.5,0.6,4.9,1.7c1.6,1.3,2.5,3.1,2.5,5c0,1.3-0.3,2.7-1,4.3c-0.7,1.5-1.5,2.8-2.5,3.8c0,0-2.5,2.3-2.5,2.3
			c-0.3,0.3-0.6,0.6-0.9,0.9c1.9,0.1,3.6,0.9,5,2.4c1.3,1.5,2,3.3,2,5.2v2.2c0,2.1-0.8,3.9-2.2,5.3c-1,1-2.2,1.7-3.6,2
			c0.1,0,0.1,0.1,0.2,0.2c1.4,1.4,2.2,3.3,2.2,5.3v30.2c0,1.4-0.3,2.9-0.9,4.5c-0.6,1.7-1.5,3.2-2.7,4.3c0,0-2.6,2.5-2.6,2.6
			c-0.1,0.1-0.2,0.2-0.3,0.3h2.5c2,0,3.8,0.8,5.2,2.2c1.4,1.4,2.2,3.3,2.2,5.3v2.2c0,2-0.7,3.8-2.1,5.2c-1.4,1.5-3.3,2.3-5.3,2.3
			H1980.1z M1973.4-25.4c0,0.1-0.1,0.2-0.1,0.3c-0.1,0.6-0.2,1.2-0.2,1.8V29c0.4-1,1-1.9,1.8-2.6c1.4-1.4,3.3-2.1,5.2-2.1h2.4
			c-0.1-0.1-0.3-0.3-0.4-0.4l-2.5-2.4c-0.1-0.1-0.1-0.1-0.2-0.2c-1-1.1-1.8-2.5-2.5-4.1c-0.7-1.6-1-3.2-1-4.7v-30.2
			c0-2.1,0.8-3.9,2.2-5.3c0.1-0.1,0.1-0.1,0.2-0.2c-1.3-0.3-2.5-0.9-3.5-1.9c-0.3-0.3-0.6-0.7-0.9-1
			C1973.8-25.9,1973.6-25.7,1973.4-25.4z M2000.6,24.2c-0.2-0.3-0.3-0.5-0.5-0.8c-0.1,0.3-0.3,0.5-0.5,0.8H2000.6z M1993.4,10.1
			c2.1,0,3.9,0.8,5.4,2.2c0.5,0.6,1,1.2,1.3,1.8c0.3-0.6,0.7-1.2,1.2-1.7c1.4-1.5,3.2-2.3,5.3-2.3v-27.8c0-2.1,0.7-3.9,2.1-5.3
			h-17.7c1.4,1.4,2.2,3.2,2.2,5.3L1993.4,10.1L1993.4,10.1z M1975.5-38.7c0.1-0.1,0.2-0.2,0.3-0.2c-0.1-0.1-0.2-0.1-0.3-0.2V-38.7z"
			/>
		<path class="st1" d="M2019.8-54.3c0.9,0,1.7,0.3,2.4,0.8c0.7,0.5,1,1.2,1,1.9c0,0.7-0.2,1.6-0.7,2.7c-0.5,1.1-1,1.9-1.7,2.6
			l-2.5,2.3c-0.7,0.7-1.6,1.3-2.8,1.8c-1.2,0.5-2.2,0.7-3.2,0.7h-32.3c-0.9,0-1.8-0.3-2.5-1c-0.7-0.7-1-1.5-1-2.5v-2.2
			c0-1,0.4-1.9,1-2.5c0.7-0.7,1.5-1,2.5-1h30.5c0.9,0,1.7-0.2,2.4-0.5c0.7-0.3,1-0.7,1-1.3c0-0.5,0.3-0.9,1-1.3
			c0.7-0.3,1.5-0.5,2.5-0.5H2019.8 M1968-54.3c1,0,1.9,0.4,2.5,1c0.7,0.7,1,1.5,1,2.5v18.1c0,0.9-0.1,1.9-0.3,2.8
			c-0.2,0.9-0.5,1.6-0.8,1.9c-0.3,0.3-0.6,1-0.9,1.9c-0.2,0.9-0.4,1.9-0.4,2.9V34c0,0.9-0.3,1.8-1,2.5c-0.7,0.7-1.5,1-2.4,1h-2.3
			c-1,0-1.9-0.4-2.5-1c-0.7-0.7-1-1.5-1-2.5v-52.3c0-1-0.1-1.8-0.4-2.5c-0.3-0.7-0.5-1-0.9-1s-0.6-0.4-0.9-1.1
			c-0.3-0.7-0.5-1.5-0.5-2.5l-0.1-2.1c-0.1-0.9,0.1-1.8,0.6-2.4c0.5-0.7,1.1-1.1,1.8-1.1c0.9,0,1.6-0.4,2.1-1
			c0.5-0.7,0.8-1.5,0.8-2.5v-16.3c0-0.9,0.4-1.8,1.1-2.5c0.7-0.7,1.5-1,2.5-1H1968 M2019.8-36.3c0.9,0,1.7,0.4,2.4,1.1
			c0.7,0.7,1,1.6,1,2.5v2.2c0,1-0.3,1.8-1,2.5c-0.7,0.7-1.5,1-2.4,1h-39.7c-0.9,0-1.8-0.3-2.5-1c-0.7-0.7-1-1.5-1-2.5v-2.2
			c0-0.9,0.4-1.8,1-2.5c0.7-0.7,1.5-1.1,2.5-1.1H2019.8 M2016.4-21.2c0.9,0,1.7,0.3,2.4,1c0.7,0.7,1,1.5,1,2.5v30.2
			c0,0.9-0.2,2-0.7,3.2c-0.4,1.2-1,2.1-1.8,2.9l-2.5,2.4c-0.7,0.7-1.7,1.2-2.8,1.7c-1.2,0.5-2.2,0.7-3.2,0.7h-2.1
			c-1,0-1.8-0.3-2.5-1c-0.7-0.7-1-1.5-1-2.4v-2.3c0-0.9,0.3-1.8,1-2.5c0.7-0.7,1.5-1.1,2.5-1.1h0.3c0.9,0,1.8-0.3,2.5-1
			c0.7-0.7,1.1-1.5,1.1-2.4v-28.4c0-1,0.3-1.8,1-2.5c0.7-0.7,1.5-1,2.4-1H2016.4 M1985.8-21.2c0.9,0,1.8,0.3,2.5,1
			c0.7,0.7,1.1,1.5,1.1,2.5v28.4c0,0.9,0.3,1.7,1,2.4c0.7,0.7,1.5,1,2.4,1h0.7c1,0,1.9,0.4,2.6,1.1c0.7,0.7,1,1.5,1,2.5v2.3
			c0,0.9-0.4,1.8-1,2.4c-0.7,0.7-1.6,1-2.6,1h-2.5c-0.9,0-2-0.2-3.2-0.7c-1.2-0.5-2.1-1-2.8-1.7l-2.5-2.4c-0.7-0.7-1.2-1.7-1.7-2.9
			c-0.5-1.2-0.7-2.2-0.7-3.2v-30.2c0-1,0.3-1.8,1-2.5c0.7-0.7,1.5-1,2.4-1H1985.8 M2019.8,28.2c0.9,0,1.7,0.3,2.4,1
			c0.7,0.7,1,1.5,1,2.5v2.2c0,0.9-0.3,1.8-1,2.5c-0.7,0.7-1.5,1.1-2.4,1.1h-39.7c-0.9,0-1.8-0.4-2.5-1.1c-0.7-0.7-1-1.5-1-2.5v-2.2
			c0-1,0.4-1.9,1-2.5c0.7-0.7,1.5-1,2.5-1H2019.8 M2019.8-62.3h-2.3c-2.2,0-4.2,0.4-6,1.3c-1.2,0.6-2.2,1.3-3,2.2h-28.4
			c-1.2,0-2.3,0.2-3.4,0.5c-0.1-0.2-0.3-0.3-0.5-0.5c-2.2-2.3-5.1-3.5-8.3-3.5h-2.2c-3,0-5.9,1.2-8.1,3.4c-2.2,2.2-3.4,5.1-3.4,8.1
			v13.3c-1.3,0.8-2.4,1.8-3.3,3.2c-1.4,2.1-2.1,4.7-1.9,7.3l0.1,2c0,0,0,0.1,0,0.1c0.1,1.9,0.5,3.6,1.1,5.1c0.4,1.1,1,2,1.6,2.7V34
			c0,3,1.2,5.8,3.3,8c2.2,2.3,5.1,3.5,8.3,3.5h2.3c2.7,0,5.2-0.9,7.2-2.6c2.1,1.7,4.6,2.6,7.2,2.6h39.7c3.1,0,6-1.3,8.2-3.6
			c2.1-2.2,3.2-5,3.2-8v-2.2c0-3.1-1.2-6-3.3-8.2c-0.8-0.8-1.7-1.5-2.7-2c0.6-1,1.1-2,1.5-3.1c0.8-2.1,1.1-4.1,1.1-5.9v-30.2
			c0-1.4-0.2-2.7-0.7-4c0.3-0.2,0.5-0.4,0.7-0.7c2.2-2.2,3.3-5.1,3.3-8.2v-2.2c0-2.9-1.1-5.7-3.1-7.9c-0.3-0.3-0.6-0.6-0.9-0.9
			c1-1.2,1.9-2.6,2.6-4.2c0.9-2.1,1.4-4,1.4-5.9c0-3.2-1.4-6.1-4-8.1C2025.1-61.4,2022.5-62.3,2019.8-62.3L2019.8-62.3z M1997.2-19
			h5.5c0,0.4-0.1,0.9-0.1,1.3V6.8c-0.9,0.3-1.8,0.8-2.6,1.4c-0.9-0.6-1.8-1.1-2.8-1.5v-24.5C1997.3-18.2,1997.3-18.6,1997.2-19
			L1997.2-19z"/>
	</g>
	<g>
		<path class="st0" d="M2039.4,41.8c-2.1,0-3.9-0.8-5.4-2.4c-1.3-1.5-2-3.3-2-5.2v-6.4c0-1.6,0.4-3.3,1.3-5c0.9-1.7,1.9-3,3.2-3.9
			l42.7-30.9h-39.7c-2,0-3.9-0.8-5.3-2.3c-1.4-1.4-2.1-3.3-2.1-5.3v-2.2c0-2,0.7-3.8,2.1-5.2c1.1-1.2,2.5-1.9,4.1-2.2c0,0,0,0,0,0
			c-1.4-1.3-2.2-3-2.3-4.9c-1-0.4-2.1-1.2-2.9-2.8c-0.7-1.3-1-2.8-1-4.4v-2.3c0-1.6,0.4-3.1,1-4.3c0.7-1.3,1.7-2.2,2.9-2.7v-0.1
			c0-2,0.8-3.9,2.3-5.3c1.4-1.4,3.2-2.1,5.2-2.1h2.3c1.9,0,3.7,0.7,5.2,2.1c1.5,1.4,2.3,3.1,2.4,5h31.5c0.1-1.9,0.9-3.7,2.3-5
			c1.5-1.4,3.3-2.1,5.2-2.1h2.2c2.1,0,3.9,0.7,5.3,2.2c1.4,1.4,2.2,3.2,2.2,5.2c1.3,0.4,2.4,1.3,3.2,2.5c0.9,1.3,1.3,2.9,1.3,4.6
			v2.3c0,1.7-0.4,3.3-1.2,4.7c-0.8,1.3-2,2.2-3.3,2.7c-0.1,1.8-0.9,3.4-2.2,4.7c0,0,0,0,0,0c1.6,0.2,3.1,1,4.3,2.2
			c1.5,1.5,2.2,3.3,2.2,5.3v6.5c0,1.6-0.4,3.3-1.3,5c-0.9,1.7-2,3.1-3.4,4l-43.2,30.7h40.3c2,0,3.9,0.7,5.3,2.1
			c1.5,1.4,2.3,3.3,2.3,5.3v2.3c0,2-0.7,3.8-2.2,5.3c-1.5,1.5-3.3,2.3-5.4,2.3H2039.4z M2086.9-29.2c-1.2-1.2-2-2.7-2.2-4.4h-31.6
			c-0.2,1.7-0.9,3.2-2.2,4.4H2086.9z"/>
		<path class="st1" d="M2094.5-54c1,0,1.9,0.3,2.5,1c0.7,0.7,1,1.5,1,2.4v0.2c0,0.9,0.2,1.8,0.6,2.5c0.4,0.7,1,1,1.6,1
			c0.7,0,1.2,0.3,1.6,1c0.4,0.7,0.6,1.5,0.6,2.4v2.3c0,1-0.2,1.8-0.6,2.5c-0.4,0.7-1,1-1.6,1c-0.6,0-1.1,0.3-1.6,1
			c-0.4,0.6-0.6,1.4-0.6,2.2c0,0.9-0.3,1.7-1,2.4c-0.7,0.7-1.5,1-2.5,1h-2.2c-0.9,0-1.8-0.3-2.5-1c-0.7-0.7-1.1-1.5-1.1-2.4
			c0-0.9-0.4-1.6-1.1-2.2c-0.7-0.6-1.5-1-2.5-1h-32.6c-0.9,0-1.7,0.3-2.4,1c-0.7,0.6-1,1.4-1,2.2c0,0.9-0.4,1.7-1.1,2.4
			c-0.7,0.7-1.5,1-2.5,1h-2.3c-0.9,0-1.7-0.3-2.4-1c-0.7-0.7-1-1.5-1-2.4c0-0.9-0.2-1.6-0.5-2.2c-0.4-0.6-0.9-1-1.5-1
			c-0.5,0-1-0.3-1.3-1c-0.4-0.7-0.6-1.5-0.6-2.5v-2.3c0-0.9,0.2-1.7,0.6-2.4c0.4-0.7,0.8-1,1.3-1c0.6,0,1.1-0.4,1.5-1
			c0.4-0.7,0.5-1.5,0.5-2.5v-0.2c0-0.9,0.3-1.7,1-2.4c0.7-0.7,1.5-1,2.4-1h2.3c0.9,0,1.7,0.3,2.5,1c0.7,0.7,1.1,1.5,1.1,2.4v0.2
			c0,0.9,0.3,1.8,1,2.5c0.7,0.7,1.5,1,2.4,1h32.6c0.9,0,1.8-0.4,2.5-1c0.7-0.7,1.1-1.5,1.1-2.5v-0.2c0-0.9,0.4-1.7,1.1-2.4
			c0.7-0.7,1.5-1,2.5-1H2094.5 M2098.7-25.2c1,0,1.9,0.3,2.5,1c0.7,0.7,1.1,1.5,1.1,2.5v6.5c0,1-0.3,2.1-0.9,3.2
			c-0.6,1.1-1.2,2-2.1,2.5L2049,26.3c-0.8,0.7-1.1,1.2-1,1.6c0.1,0.4,0.7,0.6,1.7,0.6h49c1,0,1.9,0.3,2.5,1c0.7,0.7,1.1,1.5,1.1,2.4
			v2.3c0,0.9-0.4,1.8-1.1,2.5c-0.7,0.7-1.5,1.1-2.5,1.1h-59.3c-0.9,0-1.7-0.4-2.4-1.1c-0.7-0.7-1-1.6-1-2.5v-6.4
			c0-1,0.3-2.1,0.9-3.2c0.6-1.1,1.2-1.9,2-2.4l49.9-36.1c0.8-0.5,1.1-1,1-1.4s-0.6-0.6-1.6-0.6h-48.7c-0.9,0-1.7-0.4-2.4-1
			c-0.7-0.7-1-1.6-1-2.6v-2.2c0-0.9,0.3-1.8,1-2.5c0.7-0.7,1.5-1,2.4-1H2098.7 M2094.5-62h-2.2c-3,0-5.8,1.1-8,3.2
			c-1.2,1.1-2.1,2.5-2.7,3.9h-25.2c-0.6-1.5-1.6-2.8-2.8-4c-2.2-2-4.9-3.1-7.9-3.1h-2.3c-3,0-5.8,1.1-8,3.2
			c-1.7,1.6-2.8,3.7-3.3,5.9c-1,0.8-1.9,1.9-2.6,3.1c-1,1.8-1.5,4-1.5,6.2v2.3c0,2.3,0.5,4.4,1.5,6.3c0.7,1.4,1.7,2.5,2.8,3.4
			c0.1,0.2,0.1,0.5,0.2,0.7c-0.4,0.4-0.9,0.7-1.3,1.2c-2.1,2.2-3.2,5-3.2,8v2.2c0,3.1,1.1,5.9,3.2,8.1c2.2,2.3,5.1,3.5,8.2,3.5h27.4
			l-32.6,23.6c-1.8,1.3-3.2,3.1-4.4,5.3c-1.2,2.2-1.7,4.5-1.7,6.8v6.4c0,2.9,1.1,5.7,3.1,7.9c2.2,2.4,5.1,3.7,8.3,3.7h59.3
			c3.2,0,6.1-1.3,8.3-3.6c2.1-2.2,3.3-5,3.3-8v-2.3c0-3.1-1.3-6-3.5-8.2c-2.2-2.1-5-3.2-8.1-3.2H2071l33-23.4
			c1.9-1.3,3.5-3.2,4.6-5.5c1.1-2.3,1.7-4.5,1.7-6.8v-6.5c0-3-1.2-5.9-3.4-8.1c-0.4-0.4-0.9-0.8-1.4-1.2c0-0.1,0-0.1,0.1-0.2
			c1.2-0.8,2.3-1.9,3.1-3.2c1.2-2,1.9-4.3,1.9-6.8v-2.3c0-2.5-0.7-4.8-1.9-6.8c-0.8-1.2-1.8-2.2-2.9-3c-0.5-2.1-1.5-3.9-3.1-5.5
			C2100.4-60.8,2097.6-62,2094.5-62L2094.5-62z"/>
	</g>
	<g>
		<path class="st0" d="M2169.9,41.5c-1.8,0-3.6-0.6-5.2-1.7c-1.6-1.1-2.7-2.6-3.3-4.3l-13-36.4l-13.1,36.5c-0.6,1.7-1.7,3.1-3.3,4.3
			c-1.6,1.1-3.3,1.7-5.2,1.7h-8.4c-2,0-3.9-0.8-5.3-2.3c-1.4-1.4-2.1-3.2-2.1-5.2v-2.3c0-2.1,0.8-3.9,2.2-5.3
			c1.4-1.4,3.2-2.2,5.2-2.2h1.9c0.1,0,0.2,0,0.5-0.2c0.3-0.2,0.4-0.4,0.4-0.4l17.6-48.8c0.3-0.7,0.5-1.6,0.7-2.7
			c0.2-1.1,0.3-2,0.3-2.8v-20.1c0-2,0.8-3.8,2.2-5.2c1.4-1.4,3.2-2.2,5.2-2.2h2.3c2,0,3.8,0.7,5.2,2.1c1.5,1.4,2.3,3.3,2.3,5.3v20.1
			c0,0.8,0.1,1.8,0.3,2.9c0.2,1.1,0.4,2,0.6,2.6l17.6,48.8c0,0.1,0.1,0.2,0.4,0.4c0.3,0.2,0.5,0.2,0.5,0.2h1.7
			c2.1,0,3.9,0.8,5.3,2.2c1.4,1.4,2.2,3.3,2.2,5.3V34c0,2-0.7,3.8-2.1,5.2c-1.4,1.5-3.3,2.3-5.4,2.3H2169.9z"/>
		<path class="st1" d="M2149.6-54.3c0.9,0,1.8,0.3,2.5,1c0.7,0.7,1.1,1.5,1.1,2.4v20.1c0,1,0.1,2.2,0.3,3.5c0.2,1.3,0.5,2.5,0.8,3.4
			l17.6,48.8c0.3,0.9,0.9,1.7,1.8,2.4c0.9,0.6,1.9,1,2.9,1h1.7c1,0,1.8,0.3,2.5,1c0.7,0.7,1,1.5,1,2.5V34c0,0.9-0.3,1.8-1,2.5
			c-0.7,0.7-1.5,1-2.5,1h-8.3c-1,0-1.9-0.3-2.8-0.9c-0.9-0.6-1.5-1.4-1.9-2.4l-15.6-43.7c-0.3-0.9-0.7-1.4-1.2-1.4s-0.8,0.5-1.2,1.4
			l-15.7,43.7c-0.3,0.9-0.9,1.7-1.9,2.4c-0.9,0.6-1.8,0.9-2.8,0.9h-8.4c-0.9,0-1.7-0.4-2.4-1c-0.7-0.7-1-1.5-1-2.5v-2.3
			c0-1,0.3-1.8,1-2.5c0.7-0.7,1.5-1,2.4-1h1.9c1,0,1.9-0.3,2.8-1c0.9-0.6,1.5-1.4,1.9-2.4l17.6-48.8c0.3-0.9,0.6-2.1,0.9-3.4
			c0.2-1.3,0.4-2.5,0.4-3.5v-20.1c0-0.9,0.3-1.7,1-2.4c0.7-0.7,1.5-1,2.4-1H2149.6 M2149.6-62.3h-2.3c-3,0-5.9,1.2-8.1,3.3
			c-2.2,2.2-3.4,5-3.4,8.1v20.1c0,0.4,0,1-0.2,2.1c-0.2,1.1-0.4,1.7-0.5,2.1l-16.9,46.8c-3,0.1-5.7,1.2-7.9,3.3
			c-2.1,2.1-3.3,5-3.3,8.1V34c0,3,1.1,5.8,3.2,8c2.2,2.3,5.1,3.5,8.2,3.5h8.4c2.6,0,5.2-0.8,7.5-2.4c2.2-1.6,3.9-3.7,4.8-6.2l9.3-26
			l9.3,26c0.9,2.5,2.5,4.6,4.8,6.2c2.2,1.6,4.8,2.4,7.5,2.4h8.3c3.2,0,6.1-1.3,8.3-3.5c2.1-2.2,3.2-5,3.2-8v-2.3
			c0-3.1-1.2-6-3.3-8.2c-2.1-2.1-4.8-3.2-7.7-3.3l-16.9-46.8c-0.1-0.2-0.3-0.8-0.4-1.9c-0.2-1.2-0.2-1.9-0.2-2.3v-20.1
			c0-3.1-1.3-6-3.6-8.2C2155.3-61.2,2152.6-62.3,2149.6-62.3L2149.6-62.3z"/>
	</g>
	<g>
		<path class="st0" d="M2233.5,41.5c-2.1,0-4-0.8-5.4-2.3c-0.9-1-1.5-2.1-1.9-3.3c-0.3,1.2-0.9,2.3-1.8,3.3
			c-1.4,1.5-3.3,2.3-5.4,2.3h-0.3c-1.8,0-3.5-0.5-5.1-1.5c-1.6-1-2.8-2.3-3.6-3.9l-1.9-3.5c0,0-1.9,3.6-1.9,3.6
			c-0.9,1.5-2.1,2.8-3.6,3.7c-1.6,1-3.3,1.5-5,1.5h-0.4c-2,0-3.9-0.8-5.3-2.3c-1.4-1.4-2.1-3.2-2.1-5.2v-2.3c0-1.5,0.2-2.8,0.7-4
			c0.9-2.3,2.6-3.1,3.7-3.4c0.2-0.2,0.4-0.5,0.6-0.9l2.2-4.5c-0.1-0.1-0.2-0.2-0.3-0.3c-0.8-0.7-1.6-1.5-2.4-2.4
			c-0.1-0.1-0.2-0.2-0.3-0.4l-1.1-1.6c-0.9-1.2-1.7-2.6-2.2-4.2c-0.5-1.6-0.8-3.2-0.8-4.6v-53.2c0-2.1,0.7-3.9,2.2-5.3
			c1.4-1.4,3.2-2.2,5.2-2.2h0.5c1.1,0,2.2,0.2,3.1,0.6c0.3-0.6,0.8-1.2,1.3-1.7c1.4-1.4,3.2-2.2,5.2-2.2h1.5c2,0,3.8,0.7,5.2,2.1
			c0.5,0.5,1,1.1,1.3,1.7c0.9-0.4,1.9-0.6,3-0.6h0.5c1.2,0,2.3,0.3,3.3,0.8c0.4-0.7,0.9-1.3,1.5-1.9c1.5-1.4,3.3-2.1,5.2-2.1h28
			c2.1,0,3.9,0.8,5.3,2.2c1.4,1.4,2.2,3.2,2.2,5.2v2.3c0,1.9-0.6,3.7-1.8,5.1c-1.1,1.3-2.6,2.2-4.3,2.4l0,75.2c0,2-0.7,3.8-2.1,5.2
			c-1.4,1.5-3.3,2.3-5.3,2.3H2233.5z M2222.1,24.3c1.1,0.3,2.6,1,3.6,3.2c0.3,0.6,0.5,1.2,0.6,2c0.3-1.2,1-2.2,1.9-3.1
			c1.4-1.4,3.3-2.2,5.3-2.2h7.7l0-65.3h-12.1c-0.9,0-1.8-0.2-2.6-0.5v47c0,1.4-0.3,3-0.8,4.6c-0.5,1.7-1.3,3.1-2.3,4.3l-1.3,1.6
			c-0.1,0.1-0.1,0.2-0.2,0.3c-0.8,0.9-1.6,1.6-2.4,2.3c-0.1,0.1-0.3,0.2-0.4,0.3l2.3,4.3c0,0.1,0.1,0.1,0.1,0.2
			C2221.7,23.8,2221.9,24.1,2222.1,24.3z"/>
		<path class="st1" d="M2257.1-54.4c1,0,1.8,0.3,2.5,1c0.7,0.7,1,1.5,1,2.4v2.3c0,1-0.3,1.9-0.9,2.5c-0.6,0.7-1.3,1-2.1,1
			c-0.9,0-1.6,0.4-2.2,1.1c-0.6,0.7-0.9,1.5-0.9,2.4V34c0,0.9-0.3,1.8-1,2.5c-0.7,0.7-1.5,1-2.4,1h-17.6c-1,0-1.8-0.4-2.5-1
			c-0.7-0.7-1-1.5-1-2.5v-2.3c0-1,0.3-1.8,1-2.5c0.7-0.7,1.5-1,2.5-1h8.2c1,0,1.8-0.3,2.5-1c0.7-0.7,1-1.5,1-2.5v-66.3
			c0-0.9-0.3-1.8-1-2.4c-0.7-0.7-1.5-1.1-2.5-1.1h-12.6c-0.9,0-1.8-0.3-2.5-1c-0.7-0.7-1.1-1.5-1.1-2.5V-51c0-0.9,0.4-1.8,1.1-2.4
			c0.7-0.7,1.6-1,2.5-1H2257.1 M2209-54.4c0.9,0,1.8,0.3,2.5,1c0.7,0.7,1,1.5,1,2.4V3.7c0,1,0.1,1.8,0.4,2.5c0.2,0.7,0.5,1,0.9,1
			c0.4,0,0.7-0.3,1-1c0.3-0.7,0.4-1.5,0.4-2.5v-51.4c0-1,0.3-1.8,1-2.5c0.7-0.7,1.5-1,2.5-1h0.5c1,0,1.8,0.3,2.5,1
			c0.7,0.7,1,1.5,1,2.5V5.5c0,1-0.2,2.1-0.6,3.4c-0.4,1.2-0.9,2.3-1.6,3.1l-1.3,1.7c-0.7,0.7-1.4,1.4-2,2c-0.7,0.6-1.3,0.9-1.8,0.9
			c-1,0-1.1,1-0.2,3.1l2.9,5.5c0.4,0.9,0.9,1.6,1.5,2.2c0.6,0.6,1.1,0.9,1.6,0.9c0.4,0,0.8,0.3,1.1,1c0.3,0.7,0.4,1.5,0.4,2.5V34
			c0,0.9-0.3,1.8-1,2.5c-0.7,0.7-1.5,1-2.5,1h-0.3c-1,0-2-0.3-2.9-0.9c-1-0.6-1.7-1.4-2.1-2.3l-3.8-7.1c-0.5-0.9-1-1.4-1.6-1.4
			s-1.2,0.5-1.6,1.4l-3.7,7.1c-0.5,0.9-1.3,1.7-2.2,2.3c-1,0.6-1.9,0.9-2.8,0.9h-0.4c-0.9,0-1.7-0.4-2.4-1c-0.7-0.7-1-1.5-1-2.5
			v-2.3c0-1,0.1-1.8,0.4-2.5c0.3-0.7,0.6-1,1-1c0.5,0,1-0.3,1.7-0.9c0.6-0.6,1.1-1.3,1.5-2.2l2.7-5.5c1.1-2.1,1.1-3.1,0-3.1
			c-0.5,0-1.2-0.3-1.9-0.9c-0.7-0.6-1.4-1.3-2.1-2l-1.2-1.7c-0.7-0.8-1.2-1.8-1.6-3.1s-0.6-2.4-0.6-3.4v-53.2c0-1,0.3-1.8,1-2.5
			c0.7-0.7,1.5-1,2.4-1h0.5c1,0,1.8,0.3,2.5,1c0.7,0.7,1,1.5,1,2.5V3.7c0,1,0.1,1.8,0.4,2.5c0.2,0.7,0.6,1,1,1s0.7-0.3,1-1
			c0.3-0.7,0.4-1.5,0.4-2.5V-51c0-0.9,0.3-1.7,1-2.4c0.7-0.7,1.5-1,2.4-1H2209 M2257.1-62.4h-28c-3,0-5.7,1.1-7.9,3.1
			c-0.1,0.1-0.2,0.2-0.2,0.2c-0.6-0.1-1.3-0.2-1.9-0.2h-0.5c-0.5,0-1,0-1.5,0.1c0,0-0.1-0.1-0.1-0.1c-2.2-2.1-5-3.2-8-3.2h-1.5
			c-3,0-5.9,1.2-8,3.3c-0.5-0.1-1-0.1-1.6-0.1h-0.5c-3,0-5.9,1.2-8.1,3.4c-2.2,2.2-3.3,5.1-3.3,8.2V5.5c0,1.8,0.3,3.8,1,5.8
			c0.7,2.1,1.6,3.9,2.8,5.4l1,1.5c0.2,0.3,0.4,0.5,0.6,0.8c0.3,0.3,0.5,0.6,0.8,0.9l-0.6,1.2c-1.9,0.9-3.6,2.5-4.7,5.2
			c-0.6,1.6-1,3.4-1,5.5V34c0,3,1.1,5.8,3.2,8c2.2,2.3,5.1,3.5,8.2,3.5h0.4c2.4,0,4.8-0.7,7.1-2.1c1.3-0.8,2.4-1.8,3.4-2.9
			c0.9,1.1,2,2.1,3.3,2.9c2.2,1.4,4.7,2.1,7.2,2.1h0.3c2.7,0,5.2-0.9,7.2-2.6c2,1.7,4.6,2.6,7.2,2.6h17.6c3.1,0,6-1.3,8.2-3.5
			c2.1-2.2,3.2-5,3.2-8v-72.3c1.3-0.6,2.4-1.6,3.4-2.7c1.8-2.1,2.7-4.8,2.7-7.7V-51c0-3-1.2-5.9-3.3-8
			C2263.1-61.2,2260.2-62.4,2257.1-62.4L2257.1-62.4z M2230.5-37.1h6.7v57.3h-3.7c-2.5,0-4.8,0.8-6.7,2.1c-0.6-0.5-1.2-0.9-1.9-1.3
			l-0.7-1.3c0.3-0.3,0.5-0.5,0.8-0.8c0.2-0.2,0.3-0.3,0.4-0.5l1.2-1.6c1.3-1.6,2.2-3.4,2.9-5.5c0.7-2,1-4,1-5.8V-37.1L2230.5-37.1z"
			/>
	</g>
	<g>
		<path class="st0" d="M2308.9,41.5c-0.8,0-1.6-0.3-2.3-0.7c-0.9,0.5-1.8,0.6-2.4,0.6c-1.3,0-2.7-0.4-4.2-1.4
			c-1.2-0.7-2.2-1.6-3.1-2.6c0-0.1-0.2-0.2-0.2-0.2c-0.4,0.8-0.9,1.5-1.5,2.1c-1.5,1.5-3.3,2.2-5.3,2.2h-1.4c-2.1,0-4-0.8-5.4-2.3
			c-0.5-0.5-0.9-1.1-1.3-1.8c-0.8,1-1.8,1.8-2.8,2.5c-1.5,1-2.9,1.5-4.2,1.5c-1,0-3.5-0.3-4.9-3.3c-0.6-1.2-0.9-2.6-0.9-4.2v-2.4
			c0-1.2,0.1-2.3,0.3-3.2c0.2-1.1,0.6-1.9,1-2.5c0-0.3,0-0.7,0-1.2V-5c0-2,0.8-3.9,2.3-5.3c0.1-0.1,0.1-0.1,0.2-0.2
			c-0.6-0.4-1.2-0.9-1.8-1.5c-1.3-1.5-2-3.3-2-5.2v-2.1c0-2.1,0.7-3.9,2.2-5.3c1.1-1.1,2.3-1.8,3.7-2.1c-1.4-0.3-2.7-1-3.8-2.2
			c-1.4-1.4-2.1-3.2-2.1-5.2v-9.5c0-1.4,0.3-3,1-4.6c0.7-1.7,1.5-3.1,2.6-4.1l2.7-2.6c1-1,2.4-1.9,4.1-2.5c1.6-0.7,3.2-1,4.6-1h17.5
			c2,0,3.9,0.7,5.3,2.1c0.8,0.8,1.5,1.7,1.8,2.8l1.1-1.2c0,0,0.1-0.1,0.1-0.1c1-1.1,2.4-1.9,4.1-2.6c1.6-0.7,3.2-1,4.7-1h17.6
			c2.1,0,3.9,0.8,5.3,2.2c1.4,1.4,2.2,3.2,2.2,5.2v2.3c0,2.1-0.7,3.9-2.2,5.3c-0.3,0.3-0.7,0.6-1,0.9c0.4,0.3,0.7,0.6,1,0.9
			c1.4,1.4,2.1,3.2,2.1,5.2v2.4c0,2-0.7,3.8-2.1,5.2c-0.1,0.1-0.2,0.2-0.4,0.4c0.1,0.1,0.3,0.2,0.4,0.4c1.4,1.4,2.1,3.2,2.1,5.2
			v49.4c0,1.4-0.3,3-1,4.6c-0.7,1.7-1.6,3-2.7,4l-2.2,2.4c0,0-0.1,0.1-0.1,0.1c-1.1,1.1-2.5,2-4.1,2.7c-1.6,0.7-3.2,1-4.7,1H2308.9z
			 M2326.4,24.1l0-0.3h-4.2v0.3H2326.4z M2326.4,6.5l0-1.2h-4.2v1.2H2326.4z M2326.4-11.8v-1.3l-4.2,0v1.3H2326.4z M2302.9-26.7
			c0.9,0.2,1.7,0.5,2.5,1c0.3-0.8,0.8-1.6,1.4-2.3c-0.2-0.1-0.3-0.2-0.4-0.4C2305.4-27.5,2304.2-26.9,2302.9-26.7z M2281.5-26.8
			c0-0.1,0.1-0.1,0.1-0.2c-0.2,0.1-0.4,0.1-0.6,0.2H2281.5z M2286.2-32.6c-0.2,1-0.6,1.9-1.1,2.7c1-0.4,2.1-0.5,3.3-0.5
			C2288.4-30.4,2286.2-32.6,2286.2-32.6z M2323.1-30.4c0,0-2.2-2.3-2.2-2.3c-0.1,0.8-0.4,1.6-0.8,2.3H2323.1z"/>
		<path class="st1" d="M2336.2-54.4c1,0,1.8,0.3,2.5,1c0.7,0.7,1,1.5,1,2.4v2.3c0,1-0.3,1.9-1,2.5c-0.7,0.7-1.5,1-2.5,1h-2.1
			c-1,0-1.9,0.3-2.6,0.8c-0.7,0.5-1.1,1.2-1.1,1.8c0,0.7,0.4,1.4,1.1,1.9c0.7,0.5,1.6,0.8,2.6,0.8h2.1c1,0,1.8,0.3,2.5,1
			c0.7,0.7,1,1.5,1,2.4v2.4c0,0.9-0.3,1.7-1,2.4c-0.7,0.7-1.5,1-2.5,1h-3.9c-1,0-2.1-0.2-3.3-0.8c-1.2-0.5-2.1-1.1-2.8-1.8l-2.4-2.5
			c-0.7-0.7-1.4-1.6-1.9-2.8c-0.5-1.2-0.8-2.2-0.8-3.1v-0.2c0-0.9-0.2-1.8-0.6-2.4c-0.4-0.7-0.9-1.1-1.4-1.1c-0.5,0-1,0.4-1.5,1.1
			c-0.4,0.7-0.6,1.5-0.6,2.4v7.6c0,0.9-0.4,1.8-1,2.5c-0.7,0.7-1.5,1-2.5,1h-2.2c-1,0-1.8-0.4-2.5-1.1c-0.7-0.7-1-1.5-1-2.5v-9.5
			c0-0.9,0.2-2,0.7-3.2c0.5-1.2,1.1-2.1,1.8-2.8l2.3-2.5c0.7-0.7,1.6-1.2,2.8-1.7c1.2-0.5,2.2-0.7,3.2-0.7H2336.2 M2301.4-54.4
			c1,0,1.9,0.3,2.6,1c0.7,0.7,1,1.5,1,2.4v2.3c0,1-0.4,1.9-1,2.5c-0.7,0.7-1.6,1-2.6,1h-2.2c-0.9,0-1.8,0.3-2.5,0.8
			c-0.7,0.5-1,1.2-1,1.8c0,0.7,0.4,1.4,1,1.9c0.7,0.5,1.5,0.8,2.5,0.8h2.2c1,0,1.9,0.3,2.6,1c0.7,0.7,1,1.5,1,2.4v2.4
			c0,0.9-0.4,1.7-1,2.4c-0.7,0.7-1.6,1-2.6,1h-4c-0.9,0-2-0.2-3.2-0.8s-2.1-1.1-2.8-1.8l-2.5-2.5c-0.7-0.7-1.3-1.6-1.8-2.8
			c-0.5-1.2-0.7-2.2-0.7-3.1v-0.2c0-0.9-0.2-1.8-0.6-2.4c-0.4-0.7-0.9-1.1-1.4-1.1c-0.5,0-1,0.4-1.4,1.1c-0.4,0.7-0.6,1.5-0.6,2.4
			v7.6c0,0.9-0.3,1.8-1,2.5c-0.7,0.7-1.5,1-2.5,1h-2.4c-0.9,0-1.7-0.4-2.4-1.1c-0.7-0.7-1-1.5-1-2.5v-9.5c0-0.9,0.2-2,0.7-3.2
			s1-2.1,1.7-2.8l2.6-2.5c0.7-0.7,1.6-1.2,2.8-1.7s2.2-0.7,3.2-0.7H2301.4 M2332.6-26.4c0,0.1,0.4,0.1,1.1,0.1h2.5
			c1,0,1.8,0.4,2.5,1c0.7,0.7,1,1.5,1,2.4v49.4c0,0.9-0.2,2-0.7,3.1c-0.5,1.2-1.1,2-1.8,2.6l-2.4,2.6c-0.7,0.7-1.7,1.3-2.8,1.8
			c-1.1,0.5-2.2,0.7-3.2,0.7h-19.9V-23c0-0.9,0.3-1.7,1-2.4c0.7-0.7,1.5-1,2.5-1H2332.6 M2321.7-7.8h5.2c1,0,1.8-0.4,2.5-1.1
			c0.7-0.7,1-1.6,1-2.5v-2.2c0-1-0.3-1.8-1-2.5c-0.7-0.7-1.5-1-2.5-1h-5.2c-0.9,0-1.8,0.3-2.5,1c-0.7,0.7-1,1.5-1,2.5v2.2
			c0,0.9,0.4,1.8,1,2.5C2319.9-8.2,2320.8-7.8,2321.7-7.8 M2321.7,10.5h5.2c1,0,1.8-0.3,2.5-1c0.7-0.7,1-1.5,1-2.5V4.9
			c0-0.9-0.3-1.8-1-2.5c-0.7-0.7-1.5-1.1-2.5-1.1h-5.2c-0.9,0-1.8,0.4-2.5,1.1c-0.7,0.7-1,1.6-1,2.5V7c0,1,0.4,1.8,1,2.5
			C2319.9,10.1,2320.8,10.5,2321.7,10.5 M2321.7,28.1h5.2c1,0,1.8-0.3,2.5-1c0.7-0.7,1-1.5,1-2.5v-1.2c0-0.9-0.3-1.8-1-2.5
			c-0.7-0.7-1.5-1.1-2.5-1.1h-5.2c-0.9,0-1.8,0.4-2.5,1.1c-0.7,0.7-1,1.6-1,2.5v1.2c0,1,0.4,1.8,1,2.5
			C2319.9,27.7,2320.8,28.1,2321.7,28.1 M2289.9-26.4c0.9,0,1.8,0.2,2.5,0.5c0.7,0.3,1,0.7,1,1.2c0,0.5,0.3,0.9,1,1.3
			c0.7,0.4,1.5,0.6,2.4,0.6h4.5c1,0,1.8,0.3,2.5,1s1,1.5,1,2.5v2.1c0,0.9-0.3,1.8-1,2.5c-0.7,0.7-1.5,1.1-2.5,1.1h-4.5
			c-0.9,0-1.7,0.4-2.4,1.1c-0.7,0.7-1,1.5-1,2.4v44c0,0.9-0.3,1.8-1,2.5c-0.7,0.7-1.5,1-2.5,1h-1.4c-1,0-1.8-0.4-2.5-1
			c-0.7-0.7-1-1.5-1-2.5v-44c0-0.9-0.3-1.8-1-2.4c-0.7-0.7-1.5-1.1-2.5-1.1h-5.1c-0.9,0-1.7-0.4-2.4-1.1c-0.7-0.7-1-1.6-1-2.5v-2.1
			c0-1,0.3-1.9,1-2.5c0.7-0.7,1.5-1,2.4-1h5.1c1,0,1.8-0.2,2.5-0.6c0.7-0.4,1-0.8,1-1.3c0-0.5,0.3-0.9,1-1.2
			c0.7-0.3,1.5-0.5,2.5-0.5H2289.9 M2300.5-8.4c1,0,1.9,0.3,2.6,1c0.7,0.7,1,1.5,1,2.4v29.6c0,1,0.1,1.8,0.3,2.5
			c0.2,0.7,0.5,1,0.8,1s0.6,0.3,0.8,1c0.2,0.7,0.3,1.5,0.3,2.4v2.4c0,0.9-0.2,1.8-0.6,2.5c-0.4,0.7-0.9,1-1.4,1
			c-0.5,0-1.2-0.3-2.1-0.8c-0.9-0.5-1.6-1.2-2.3-1.9l-1.8-2.2c-0.7-0.7-1.2-1.6-1.7-2.8c-0.5-1.2-0.7-2.3-0.7-3.3V-5
			c0-0.9,0.4-1.7,1-2.4c0.7-0.7,1.5-1,2.5-1H2300.5 M2279.2-8.4c1,0,1.8,0.3,2.5,1c0.7,0.7,1,1.5,1,2.4v31.6c0,0.9-0.2,2-0.6,3.2
			c-0.4,1.2-1,2.2-1.7,3l-1.5,1.9c-0.6,0.7-1.3,1.4-2.1,1.9c-0.8,0.5-1.5,0.8-2,0.8c-0.5,0-1-0.3-1.3-1c-0.3-0.7-0.5-1.5-0.5-2.5
			v-2.4c0-0.9,0.1-1.7,0.2-2.4c0.1-0.7,0.3-1,0.4-1c0.3,0,0.5-0.3,0.5-1c0.1-0.7,0.2-1.5,0.2-2.5V-5c0-0.9,0.3-1.7,1-2.4
			c0.7-0.7,1.5-1,2.5-1H2279.2 M2336.2-62.4h-17.6c-2,0-4.1,0.4-6.2,1.3c-1.2,0.5-2.2,1-3.2,1.7c-2.1-1.9-4.9-2.9-7.8-2.9h-17.5
			c-2,0-4,0.4-6.1,1.3c-2.1,0.9-4,2-5.4,3.4l-2.6,2.5c0,0-0.1,0.1-0.1,0.1c-1.4,1.4-2.6,3.3-3.5,5.4c-0.8,2.1-1.3,4.2-1.3,6.1v9.5
			c0,2.7,0.9,5.2,2.6,7.3c-1.7,2.1-2.6,4.7-2.6,7.4v2.1c0,2.6,0.8,5.1,2.5,7.2c-0.8,1.5-1.2,3.2-1.2,5v29.6c0,0,0,0.1,0,0.1
			c-0.4,0.8-0.7,1.7-0.9,2.9c-0.2,1.2-0.4,2.5-0.4,4v2.4c0,2.1,0.4,4.1,1.3,5.9c1.7,3.5,4.9,5.6,8.5,5.6c2.2,0,4.3-0.7,6.4-2.1
			c0.1-0.1,0.2-0.1,0.2-0.2c2,1.6,4.4,2.4,7,2.4h1.4c2.7,0,5.2-0.9,7.2-2.6c0.3,0.2,0.5,0.3,0.8,0.5c2.2,1.4,4.2,2,6.3,2
			c0.8,0,1.5-0.1,2.2-0.3c0.8,0.2,1.6,0.4,2.4,0.4h19.9c2,0,4.1-0.4,6.2-1.3c2.1-0.9,3.9-2.1,5.4-3.5c0.1-0.1,0.2-0.2,0.2-0.2
			l2.1-2.3c1.5-1.4,2.8-3.2,3.6-5.4c0.9-2.1,1.3-4.2,1.3-6.1v-49.4c0-2-0.5-3.9-1.4-5.6c0.9-1.7,1.4-3.6,1.4-5.6v-2.4
			c0-2.2-0.6-4.3-1.8-6.1c1.2-1.8,1.8-4,1.8-6.2V-51c0-3-1.2-5.9-3.3-8.1C2342.2-61.2,2339.3-62.4,2336.2-62.4L2336.2-62.4z"/>
	</g>
	<g>
		<path class="st0" d="M2408.5,41.5c-2,0-3.7-0.7-5.1-2.1c-1.3,1.4-3.1,2.1-5.1,2.1h-6.8c-2,0-3.8-0.7-5.2-2.1
			c-1.3,1.4-3.1,2.1-5,2.1h-6.8c-2.1,0-3.9-0.8-5.4-2.2c-0.3-0.3-0.7-0.7-0.9-1.1c-0.3,0.4-0.6,0.8-0.9,1.1
			c-1.5,1.5-3.3,2.2-5.3,2.2h-6.9c-2.1,0-4-0.9-5.4-2.5c-1.1-1.4-1.7-3.1-1.7-5v-2.3c0-1.7,0.4-3.3,1.2-4.6c0.7-1.2,1.8-2.1,3-2.6
			v-9.2c0-1.8,0.6-3.4,1.8-4.7c-0.4-0.3-0.7-0.5-1-0.9c-1.5-1.5-2.2-3.3-2.2-5.3v-31.7c0-2,0.8-3.8,2.2-5.3c1.5-1.5,3.3-2.2,5.3-2.2
			h5.8v-16.2c0-2,0.8-3.8,2.2-5.2c1.4-1.4,3.3-2.2,5.3-2.2h2.2c1.9,0,3.6,0.6,5,1.7c1.3,1,2.1,2.4,2.4,3.8h33.8
			c2.1,0,3.9,0.8,5.3,2.2c1.4,1.4,2.2,3.3,2.2,5.3v2.3c0,2-0.7,3.8-2.1,5.2c-1.4,1.5-3.3,2.3-5.4,2.3h-33.7v0.8l31.1,0
			c2,0,3.8,0.8,5.3,2.2c1.5,1.5,2.2,3.3,2.2,5.3V4.5c0,2-0.8,3.8-2.2,5.3c-0.3,0.3-0.7,0.6-1,0.9c1.1,1.3,1.7,3,1.7,4.8v9.1
			c1.2,0.5,2.2,1.4,3,2.6c0.8,1.3,1.1,2.8,1.1,4.5V34c0,1.9-0.6,3.6-1.9,5.1c-1.4,1.6-3.2,2.4-5.2,2.4H2408.5z M2383.4,12
			c0.4,0.7,0.6,1.4,0.7,2.2c0.1-0.8,0.4-1.5,0.7-2.2H2383.4z M2400.6,12c0.3,0.5,0.5,1.1,0.7,1.7c0.1-0.6,0.3-1.1,0.6-1.7H2400.6z
			 M2402.6-5.3v-12.1H2368v12.1L2402.6-5.3z"/>
		<path class="st1" d="M2373.8-54.3c1,0,1.9,0.3,2.5,0.8c0.7,0.5,1,1.2,1,1.9c0,0.7,0.3,1.4,1,2c0.7,0.6,1.5,0.9,2.5,0.9h34.1
			c1,0,1.8,0.3,2.5,1c0.7,0.7,1,1.5,1,2.5v2.3c0,0.9-0.3,1.8-1,2.5c-0.7,0.7-1.5,1-2.5,1h-34.1c-1,0-1.8,0.3-2.5,1
			c-0.7,0.7-1,1.5-1,2.4v2c0,0.9,0.3,1.7,1,2.4c0.7,0.7,1.5,1,2.5,1h31.5c0.9,0,1.8,0.3,2.5,1s1,1.5,1,2.5V4.5
			c0,0.9-0.4,1.8-1.1,2.5c-0.7,0.7-1.5,1-2.5,1h-54.2c-0.9,0-1.8-0.4-2.5-1c-0.7-0.7-1.1-1.5-1.1-2.5v-31.7c0-0.9,0.4-1.8,1-2.5
			c0.7-0.7,1.5-1,2.5-1h6.2c1,0,1.9-0.3,2.6-1c0.7-0.7,1-1.5,1-2.4v-16.8c0-0.9,0.3-1.7,1-2.4c0.7-0.7,1.5-1,2.5-1H2373.8
			 M2367.5-1.3h35.5c0.9,0,1.8-0.3,2.5-1c0.7-0.7,1.1-1.5,1.1-2.5V-18c0-0.9-0.4-1.7-1.1-2.4c-0.7-0.7-1.6-1-2.5-1h-35.5
			c-1,0-1.8,0.3-2.5,1c-0.7,0.7-1,1.5-1,2.4v13.2c0,1,0.3,1.8,1,2.5C2365.7-1.7,2366.5-1.3,2367.5-1.3 M2410.9,12c1,0,1.9,0.3,2.5,1
			c0.7,0.7,1,1.5,1,2.4v9.3c0,1,0.2,1.8,0.6,2.5c0.4,0.7,0.9,1,1.5,1c0.5,0,1,0.3,1.4,1c0.4,0.7,0.6,1.5,0.6,2.5V34
			c0,0.9-0.3,1.8-0.9,2.5c-0.6,0.7-1.3,1-2.2,1h-6.9c-0.9,0-1.7-0.4-2.4-1c-0.7-0.7-1-1.5-1-2.5V15.4c0-0.9,0.3-1.7,1-2.4
			c0.7-0.7,1.5-1,2.4-1H2410.9 M2393.9,12c0.9,0,1.8,0.3,2.5,1c0.7,0.7,1.1,1.5,1.1,2.4l-0.2,9.3c0,1,0.2,1.8,0.6,2.5
			c0.4,0.7,0.9,1,1.4,1c0.6,0,1.2,0.3,1.6,1c0.4,0.7,0.6,1.5,0.6,2.5V34c0,0.9-0.3,1.8-0.9,2.5c-0.6,0.7-1.4,1-2.3,1h-6.8
			c-1,0-1.8-0.4-2.5-1c-0.7-0.7-1-1.5-1-2.5V15.4c0-0.9,0.3-1.7,1-2.4c0.7-0.7,1.5-1,2.5-1H2393.9 M2376.7,12c0.9,0,1.8,0.3,2.4,1
			c0.7,0.7,1.1,1.5,1.1,2.4v9.3c0,1,0.2,1.8,0.6,2.5c0.4,0.7,0.9,1,1.5,1c0.6,0,1.1,0.3,1.5,1c0.4,0.7,0.6,1.5,0.6,2.5V34
			c0,0.9-0.3,1.8-0.9,2.5c-0.6,0.7-1.3,1-2.2,1h-6.8c-1,0-1.9-0.4-2.5-1c-0.7-0.7-1.1-1.5-1.1-2.5V15.4c0-0.9,0.4-1.7,1.1-2.4
			c0.7-0.7,1.5-1,2.5-1H2376.7 M2362,12c0.9,0,1.8,0.3,2.5,1c0.7,0.7,1,1.5,1,2.4V34c0,0.9-0.4,1.8-1,2.5c-0.7,0.7-1.5,1-2.5,1h-6.9
			c-0.9,0-1.7-0.4-2.2-1c-0.6-0.7-0.9-1.5-0.9-2.5v-2.3c0-1,0.2-1.8,0.6-2.5c0.4-0.7,0.9-1,1.6-1c0.5,0,1-0.3,1.4-1
			c0.4-0.7,0.6-1.5,0.6-2.5v-9.3c0-0.9,0.4-1.7,1-2.4c0.7-0.7,1.6-1,2.6-1H2362 M2373.8-62.3h-2.2c-3.1,0-6,1.2-8.2,3.3
			c-2.2,2.2-3.4,5-3.4,8.1v12.2h-1.8c-3,0-5.9,1.2-8.1,3.4c-2.2,2.2-3.4,5.1-3.4,8.1V4.5c0,2.5,0.8,4.8,2.3,6.8
			c-0.5,1.3-0.8,2.7-0.8,4.1v6.9c-1,0.8-1.8,1.7-2.5,2.8c-1.2,1.9-1.7,4.1-1.7,6.6V34c0,2.8,0.9,5.4,2.6,7.5c2.1,2.6,5.1,4,8.5,4
			h6.9c2.2,0,4.4-0.6,6.2-1.8c1.9,1.2,4,1.8,6.3,1.8h6.8c1.8,0,3.5-0.4,5-1.2c1.6,0.8,3.3,1.2,5.2,1.2h6.8c1.8,0,3.5-0.4,5.1-1.2
			c1.6,0.8,3.3,1.2,5.1,1.2h6.9c3.2,0,6.1-1.4,8.3-3.8c1.9-2.2,2.8-4.8,2.8-7.7v-2.3c0-2.4-0.6-4.6-1.7-6.5
			c-0.7-1.1-1.5-2.1-2.4-2.9v-6.9c0-1.4-0.3-2.8-0.8-4.1c1.5-2,2.3-4.3,2.3-6.8v-31.7c0-2.4-0.7-4.6-2.1-6.5c0.5-0.4,1-0.8,1.5-1.3
			c2.1-2.2,3.2-5,3.2-8v-2.3c0-3.1-1.2-6-3.3-8.2c-2.2-2.2-5.1-3.3-8.2-3.3h-31.1c-0.7-1.1-1.5-2.1-2.6-3
			C2379.2-61.4,2376.6-62.3,2373.8-62.3L2373.8-62.3z M2372-13.4h26.6v4.1H2372V-13.4L2372-13.4z"/>
	</g>
	<g>
		<path class="st0" d="M2487.1,41.5c-1.4,0-3-0.3-4.6-1c-1.8-0.7-3.2-1.6-4.3-2.8l-2.3-2.4c-1.1-1-2-2.3-2.7-4.1
			c-0.7-1.7-1-3.2-1-4.6v-1.1h-16.5v1.1c0,1.4-0.3,3-1,4.7c-0.7,1.7-1.6,3.1-2.8,4.1l-2.2,2.4c0,0-0.1,0.1-0.1,0.1
			c-1.1,1.1-2.5,2-4.2,2.7c-1.6,0.7-3.2,1-4.6,1h-6.3c-2,0-3.9-0.8-5.3-2.3c-1.4-1.5-2.1-3.3-2.1-5.2v-2.2c0-2.1,0.7-3.9,2.2-5.3
			c1.4-1.4,3.2-2.2,5.2-2.2h4v-1c-0.6,0.1-1.1,0.2-1.7,0.2h-2.2c-2,0-3.9-0.8-5.3-2.3c-1.4-1.4-2.1-3.2-2.1-5.1V3.8
			c0-1.9,0.7-3.7,1.9-5.1c-1.3-1.4-1.9-3.1-1.9-5.1v-17.3c0-2,0.7-3.8,2.1-5.2c0,0,0,0,0,0c-1.4-1.4-2.1-3.2-2.1-5.2v-1.4
			c0-2,0.7-3.8,2.1-5.2c0.1-0.1,0.2-0.2,0.3-0.3c-0.1-0.1-0.2-0.2-0.3-0.3c-1.4-1.4-2.2-3.3-2.2-5.3V-48c0-2,0.8-3.8,2.2-5.2
			c1.4-1.4,3.2-2.2,5.2-2.2c0,0,50.3,0,50.3,0c0.5-0.8,1.4-1.6,2.8-2.2c1.1-0.5,2.5-0.7,4-0.7h2.3c1.7,0,3.2,0.4,4.6,1.2
			c1.9,1.2,2.9,3,2.9,5.1c0,1.3-0.4,2.7-1.3,4.3c-0.8,1.4-1.7,2.5-2.8,3.4l-1.6,1.4c1.3,0.3,2.6,1,3.6,2.1c1.4,1.5,2.2,3.3,2.2,5.3
			v1.4c0,2-0.8,3.8-2.2,5.2c1.4,1.4,2.2,3.3,2.2,5.2v10c0,1.5-0.4,3.1-1.1,4.7c-0.7,1.6-1.6,3-2.6,4l-1.6,1.5c1.1,0.4,2.1,1,3,1.9
			c1.5,1.5,2.2,3.3,2.2,5.4V16c0,1.9-0.8,3.7-2.2,5.2c-1.5,1.5-3.3,2.2-5.3,2.2h-2.3c-0.8,0-1.5-0.1-2.2-0.3v1.1h4.5
			c2,0,3.8,0.7,5.2,2.1c1.5,1.4,2.3,3.3,2.3,5.4v2.2c0,2-0.8,3.8-2.2,5.3c-1.5,1.5-3.3,2.3-5.3,2.3H2487.1z"/>
		<path class="st1" d="M2493.8-54.3c0.9,0,1.8,0.2,2.4,0.6c0.7,0.4,1.1,1,1.1,1.6c0,0.6-0.3,1.4-0.8,2.3c-0.5,0.9-1.2,1.7-1.9,2.3
			l-2.1,1.8c-0.7,0.7-1.7,1.3-2.9,1.8c-1.2,0.4-2.3,0.7-3.2,0.7h-52c-0.9,0-1.7-0.3-2.4-1c-0.7-0.7-1-1.5-1-2.5V-48
			c0-0.9,0.3-1.7,1-2.4c0.7-0.7,1.5-1,2.4-1h50.2c0.9,0,1.7-0.1,2.4-0.5c0.7-0.3,1-0.6,1-1s0.3-0.7,1-1c0.7-0.3,1.5-0.4,2.5-0.4
			H2493.8 M2493.8-39.1c0.9,0,1.8,0.4,2.4,1.1c0.7,0.7,1.1,1.5,1.1,2.5v1.4c0,0.9-0.4,1.8-1.1,2.4c-0.7,0.7-1.5,1-2.4,1h-59.4
			c-0.9,0-1.7-0.3-2.4-1c-0.7-0.7-1-1.5-1-2.4v-1.4c0-0.9,0.3-1.8,1-2.5c0.7-0.7,1.5-1.1,2.4-1.1H2493.8 M2493.8-27.2
			c0.9,0,1.8,0.3,2.4,1c0.7,0.7,1.1,1.5,1.1,2.5v10c0,0.9-0.2,2-0.8,3.1c-0.5,1.2-1.1,2.1-1.8,2.8l-2.5,2.4
			c-0.7,0.7-1.6,1.3-2.8,1.8c-1.2,0.5-2.2,0.7-3.2,0.7h-52c-0.9,0-1.7-0.3-2.4-1c-0.7-0.7-1-1.5-1-2.5v-17.3c0-0.9,0.3-1.8,1-2.5
			c0.7-0.7,1.5-1,2.4-1H2493.8 M2443.7-11.3h40.9c0.9,0,1.7-0.3,2.4-1c0.7-0.7,1-1.5,1-2.4v-0.5c0-1-0.3-1.9-1-2.6
			c-0.7-0.7-1.5-1-2.4-1h-40.9c-0.9,0-1.7,0.4-2.4,1c-0.7,0.7-1,1.6-1,2.6v0.5c0,0.9,0.3,1.7,1,2.4
			C2442-11.7,2442.8-11.3,2443.7-11.3 M2493.8,0.2c0.9,0,1.8,0.4,2.4,1c0.7,0.7,1.1,1.6,1.1,2.6V16c0,0.9-0.4,1.6-1.1,2.4
			c-0.7,0.7-1.5,1-2.4,1h-2.3c-1,0-1.8-0.3-2.5-1c-0.7-0.7-1-1.5-1-2.4v-4c0-0.9-0.3-1.7-1-2.4c-0.7-0.7-1.5-1-2.4-1h-40.9
			c-0.9,0-1.7,0.3-2.4,1c-0.7,0.7-1,1.5-1,2.4v4c-0.1,0.9-0.5,1.6-1.2,2.4c-0.7,0.7-1.5,1-2.4,1h-2.2c-0.9,0-1.8-0.3-2.4-1
			c-0.7-0.7-1-1.5-1-2.4V3.8c0-1,0.3-1.9,1-2.6c0.7-0.7,1.5-1,2.4-1H2493.8 M2481.9,12.2c0.9,0,1.7,0.1,2.4,0.2c0.7,0.1,1,0.3,1,0.6
			v11.8c0,0.9,0.3,1.7,1,2.4c0.7,0.7,1.5,1,2.5,1h5c0.9,0,1.8,0.3,2.4,1c0.7,0.7,1.1,1.5,1.1,2.5v2.2c0,0.9-0.4,1.8-1.1,2.5
			c-0.7,0.7-1.5,1.1-2.4,1.1h-6.7c-0.9,0-2-0.2-3.2-0.7c-1.2-0.5-2.1-1.1-2.8-1.8l-2.5-2.6c-0.7-0.5-1.2-1.4-1.7-2.6
			c-0.5-1.2-0.7-2.3-0.7-3.2v-1.5c0-1-0.4-1.9-1-2.5c-0.7-0.7-1.5-1.1-2.4-1.1h-17.4c-1,0-1.8,0.4-2.5,1.1c-0.7,0.7-1,1.5-1,2.5v1.5
			c0,0.9-0.2,2-0.7,3.2c-0.5,1.2-1.1,2.1-1.8,2.6l-2.4,2.6c-0.7,0.7-1.7,1.3-2.9,1.8c-1.2,0.5-2.2,0.7-3.2,0.7h-6.3
			c-0.9,0-1.7-0.4-2.4-1.1c-0.7-0.7-1-1.5-1-2.5v-2.2c0-1,0.3-1.9,1-2.5c0.7-0.7,1.5-1,2.4-1h4.4c1,0,1.8-0.3,2.5-1
			c0.7-0.7,1-1.5,1-2.4V13c0-0.3,0.3-0.5,1-0.6c0.7-0.1,1.5-0.2,2.5-0.2H2481.9 M2493.8-62.3h-2.3c-2,0-3.9,0.3-5.5,1
			c-1.3,0.5-2.3,1.2-3.1,1.9l-48.5,0c-3,0-5.9,1.2-8.1,3.3c-2.2,2.2-3.3,5-3.3,8.1v1.3c0,2,0.5,3.9,1.4,5.6
			c-0.9,1.7-1.4,3.6-1.4,5.6v1.4c0,1.8,0.4,3.6,1.2,5.2c-0.8,1.6-1.2,3.4-1.2,5.2v17.3c0,1.8,0.4,3.5,1.2,5.1
			c-0.8,1.6-1.2,3.3-1.2,5.1V16c0,2.9,1.1,5.6,3.1,7.8c-2,2.1-3.1,4.9-3.1,8v2.2c0,3,1.1,5.8,3.2,8c2.2,2.3,5.1,3.6,8.2,3.6h6.3
			c1.9,0,4-0.4,6.1-1.3c2.2-0.9,4-2.1,5.6-3.6c0.1-0.1,0.2-0.2,0.2-0.2l2-2.2c1.6-1.4,2.9-3.3,3.8-5.5c0.4-1.1,0.7-2.2,1-3.2h9.1
			c0.2,1,0.5,2.1,0.9,3.2c0.9,2.3,2.1,4.1,3.6,5.5l2.2,2.3c1.5,1.6,3.4,2.9,5.7,3.8c2.2,0.8,4.2,1.2,6.1,1.2h6.7
			c3.1,0,5.9-1.2,8.1-3.4c2.2-2.2,3.4-5.1,3.4-8.1v-2.2c0-3-1.1-5.8-3.2-8c2-2.2,3.2-4.9,3.2-7.8V3.8c0-3-1.1-5.8-3.2-8
			c0.7-1,1.3-2,1.8-3.2c0.9-2.2,1.4-4.3,1.4-6.3v-10c0-1.8-0.4-3.6-1.3-5.2c0.8-1.6,1.3-3.4,1.3-5.2v-1.4c0-3-1.2-5.9-3.3-8
			c0.5-0.7,1-1.4,1.4-2.1c1.2-2.2,1.9-4.2,1.9-6.3c0-3.5-1.8-6.5-4.8-8.4C2498.5-61.7,2496.2-62.3,2493.8-62.3L2493.8-62.3z"/>
	</g>
	<g>
		<path class="st0" d="M2521.9,40.9c-1.1,0-2.1-0.4-2.8-1.2l-4.6-4.7c-1.5-1.5-1.5-4,0-5.6l3.5-3.6h-0.6c-2.2,0-4-1.8-4-4v-76.6
			c0-2.2,1.8-4,4-4h9.3c2.2,0,4,1.8,4,4v76.6c0,2.2-1.8,4-4,4h-0.7l3.5,3.6c1.5,1.6,1.5,4.1,0,5.6l-4.7,4.7
			C2524,40.5,2523,40.9,2521.9,40.9C2521.9,40.9,2521.9,40.9,2521.9,40.9z"/>
		<path class="st1" d="M2526.6-54.8v76.6h-9.3v-76.6H2526.6 M2521.9,27.4l4.7,4.8l-4.7,4.7l-4.6-4.7L2521.9,27.4 M2526.6-62.8h-9.3
			c-4.4,0-8,3.6-8,8v76.6c0,2,0.7,3.8,1.9,5.2c-2.7,3.1-2.6,7.8,0.4,10.8l4.6,4.7c1.5,1.5,3.5,2.4,5.7,2.4c0,0,0,0,0,0
			c2.1,0,4.2-0.8,5.7-2.3l4.7-4.7c3-3,3.1-7.7,0.4-10.9c1.2-1.4,1.9-3.2,1.9-5.2v-76.6C2534.6-59.2,2531-62.8,2526.6-62.8
			L2526.6-62.8z"/>
	</g>
	<g>
		<path class="st0" d="M1457.4,177.4c-1.1,0-2.1-0.4-2.8-1.2l-7.5-7.5c-0.7-0.8-1.2-1.8-1.2-2.8v-58.4c0-1.1,0.4-2.1,1.2-2.8
			l7.5-7.5c0.8-0.8,1.8-1.2,2.8-1.2h25.4c1.1,0,2.1,0.4,2.8,1.2l7.5,7.5c0.7,0.7,1.2,1.8,1.2,2.8v21c0,2.2-1.8,4-4,4h-9.3
			c-2.2,0-4-1.8-4-4v-15.2h-13.8v46.8h13.8v-14.2c0-2.2,1.8-4,4-4h9.3c2.2,0,4,1.8,4,4v20c0,1.1-0.4,2.1-1.2,2.8l-7.5,7.5
			c-0.8,0.8-1.8,1.2-2.8,1.2H1457.4z"/>
		<path class="st1" d="M1482.8,100l7.5,7.5v21h-9.3v-19.2h-21.8v54.8h21.8v-18.2h9.3v20l-7.5,7.5h-25.4l-7.5-7.5v-58.4l7.5-7.5
			H1482.8 M1482.8,92h-25.4c-2.1,0-4.2,0.8-5.7,2.4l-7.5,7.5c-1.5,1.5-2.3,3.5-2.3,5.6v58.4c0,2.1,0.8,4.1,2.3,5.6l7.5,7.5
			c1.5,1.5,3.5,2.4,5.7,2.4h25.4c2.1,0,4.2-0.8,5.7-2.4l7.5-7.5c1.5-1.5,2.3-3.5,2.3-5.6v-20c0-4.4-3.6-8-8-8h-9.3c-4.4,0-8,3.6-8,8
			v10.2h-5.8v-38.8h5.8v11.2c0,4.4,3.6,8,8,8h9.3c4.4,0,8-3.6,8-8v-21c0-2.1-0.8-4.2-2.3-5.6l-7.5-7.5C1487,92.9,1485,92,1482.8,92
			L1482.8,92z"/>
	</g>
	<g>
		<path class="st0" d="M1505.8,177.4c-1.1,0-2.1-0.4-2.8-1.2l-7.5-7.5c-0.8-0.8-1.2-1.8-1.2-2.8v-35.4c0-1.1,0.4-2.1,1.2-2.8
			l7.5-7.5c0.7-0.7,1.8-1.2,2.8-1.2h18.6c1.1,0,2.1,0.4,2.8,1.2l7.4,7.5c0.7,0.7,1.2,1.8,1.2,2.8v35.4c0,1.1-0.4,2.1-1.2,2.8
			l-7.4,7.5c-0.8,0.8-1.8,1.2-2.8,1.2H1505.8z M1518.5,160.1v-23.8h-6.9v23.8H1518.5z"/>
		<path class="st1" d="M1524.4,123l7.4,7.5v35.4l-7.4,7.5h-18.6l-7.5-7.5v-35.4l7.5-7.5H1524.4 M1507.6,164.1h14.9v-31.8h-14.9
			V164.1 M1524.4,115h-18.6c-2.1,0-4.1,0.8-5.6,2.3l-7.5,7.5c-1.5,1.5-2.4,3.5-2.4,5.7v35.4c0,2.1,0.8,4.2,2.4,5.7l7.5,7.5
			c1.5,1.5,3.5,2.3,5.6,2.3h18.6c2.1,0,4.2-0.9,5.7-2.4l7.4-7.5c1.5-1.5,2.3-3.5,2.3-5.6v-35.4c0-2.1-0.8-4.1-2.3-5.6l-7.4-7.5
			C1528.6,115.9,1526.5,115,1524.4,115L1524.4,115z"/>
	</g>
	<g>
		<path class="st0" d="M1578.6,177.3c-2.2,0-4-1.8-4-4v-36.6h-2v36.6c0,2.2-1.8,4-4,4h-9.3c-2.2,0-4-1.8-4-4v-36.6h-2.4v36.6
			c0,2.2-1.8,4-4,4h-9.3c-2.2,0-4-1.8-4-4v-42.5c0-1.1,0.4-2.1,1.2-2.8l7.4-7.4c0.8-0.8,1.8-1.2,2.8-1.2h12.3c1.1,0,2.1,0.4,2.8,1.2
			l1.8,1.8l1.8-1.8c0.8-0.8,1.8-1.2,2.8-1.2h11.9c1.1,0,2.1,0.4,2.8,1.2l7.4,7.4c0.8,0.8,1.2,1.8,1.2,2.8v42.5c0,2.2-1.8,4-4,4
			H1578.6z"/>
		<path class="st1" d="M1580.5,123.4l7.4,7.4v42.5h-9.3v-40.6h-10v40.6h-9.3v-40.6h-10.4v40.6h-9.3v-42.5l7.4-7.4h12.3l4.6,4.7
			l4.7-4.7H1580.5 M1580.5,115.4h-11.9c-1.7,0-3.3,0.5-4.7,1.5c-1.3-1-3-1.5-4.7-1.5H1547c-2.1,0-4.2,0.8-5.7,2.3l-7.4,7.4
			c-1.5,1.5-2.3,3.5-2.3,5.7v42.5c0,4.4,3.6,8,8,8h9.3c2,0,3.8-0.7,5.2-1.9c1.4,1.2,3.2,1.9,5.2,1.9h9.3c1.9,0,3.6-0.7,5-1.8
			c1.4,1.1,3.1,1.8,5,1.8h9.3c4.4,0,8-3.6,8-8v-42.5c0-2.1-0.8-4.2-2.3-5.7l-7.4-7.4C1584.7,116.3,1582.6,115.4,1580.5,115.4
			L1580.5,115.4z"/>
	</g>
	<g>
		<path class="st0" d="M1603.1,177.3c-1.1,0-2.1-0.4-2.9-1.2l-7.4-7.5c-0.7-0.7-1.1-1.8-1.1-2.8v-35.3c0-1.1,0.4-2.1,1.2-2.8
			l7.4-7.3c0.7-0.7,1.8-1.2,2.8-1.2h18.5c1.1,0,2.1,0.4,2.8,1.2l7.3,7.3c0.7,0.7,1.2,1.8,1.2,2.8v24.2c0,2.2-1.8,4-4,4H1609v1.3
			h19.9c2.2,0,4,1.8,4,4v9.3c0,2.2-1.8,4-4,4H1603.1z M1615.6,142.4v-5.9h-6.6v5.9H1615.6z"/>
		<path class="st1" d="M1621.6,123.2l7.3,7.3v24.2H1605v9.3h23.9v9.3h-25.8l-7.4-7.5v-35.3l7.4-7.3H1621.6 M1605,146.4h14.6v-13.9
			H1605V146.4 M1621.6,115.2h-18.5c-2.1,0-4.1,0.8-5.6,2.3l-7.4,7.3c-1.5,1.5-2.4,3.6-2.4,5.7v35.3c0,2.1,0.8,4.1,2.3,5.6l7.4,7.5
			c1.5,1.5,3.6,2.4,5.7,2.4h25.8c4.4,0,8-3.6,8-8V164c0-1.7-0.6-3.3-1.5-4.6c0.9-1.3,1.5-2.9,1.5-4.6v-24.2c0-2.1-0.8-4.1-2.3-5.6
			l-7.3-7.3C1625.8,116.1,1623.7,115.2,1621.6,115.2L1621.6,115.2z"/>
	</g>
	<g>
		<path class="st0" d="M1674.5,177.4c-1.1,0-2.1-0.4-2.8-1.2l-7.5-7.5c-0.8-0.8-1.2-1.8-1.2-2.8v-35.4c0-1.1,0.4-2.1,1.2-2.8
			l7.5-7.5c0.7-0.7,1.8-1.2,2.8-1.2h18.6c1.1,0,2.1,0.4,2.8,1.2l7.4,7.5c0.7,0.7,1.2,1.8,1.2,2.8v35.4c0,1.1-0.4,2.1-1.2,2.8
			l-7.4,7.5c-0.8,0.8-1.8,1.2-2.8,1.2H1674.5z M1687.2,160.1v-23.8h-6.9v23.8H1687.2z"/>
		<path class="st1" d="M1693.1,123l7.4,7.5v35.4l-7.4,7.5h-18.6l-7.5-7.5v-35.4l7.5-7.5H1693.1 M1676.3,164.1h14.9v-31.8h-14.9
			V164.1 M1693.1,115h-18.6c-2.1,0-4.1,0.8-5.6,2.3l-7.5,7.5c-1.5,1.5-2.4,3.5-2.4,5.7v35.4c0,2.1,0.8,4.2,2.4,5.7l7.5,7.5
			c1.5,1.5,3.5,2.3,5.6,2.3h18.6c2.1,0,4.2-0.9,5.7-2.4l7.4-7.5c1.5-1.5,2.3-3.5,2.3-5.6v-35.4c0-2.1-0.8-4.1-2.3-5.6l-7.4-7.5
			C1697.3,115.9,1695.2,115,1693.1,115L1693.1,115z"/>
	</g>
	<g>
		<path class="st0" d="M1732.5,177.5c-2.2,0-4-1.8-4-4v-37.2h-6.9v37.2c0,2.2-1.8,4-4,4h-9.3c-2.2,0-4-1.8-4-4v-43
			c0-1.1,0.4-2.1,1.2-2.8l7.5-7.5c0.7-0.7,1.8-1.2,2.8-1.2h18.6c1.1,0,2.1,0.4,2.8,1.2l7.4,7.5c0.7,0.7,1.2,1.8,1.2,2.8v43
			c0,2.2-1.8,4-4,4H1732.5z"/>
		<path class="st1" d="M1734.4,123l7.4,7.5v43h-9.3v-41.2h-14.9v41.2h-9.3v-43l7.5-7.5H1734.4 M1734.4,115h-18.6
			c-2.1,0-4.1,0.8-5.6,2.3l-7.5,7.5c-1.5,1.5-2.4,3.5-2.4,5.7v43c0,4.4,3.6,8,8,8h9.3c3.4,0,6.3-2.1,7.4-5.1c1.2,3,4.1,5.1,7.4,5.1
			h9.3c4.4,0,8-3.6,8-8v-43c0-2.1-0.8-4.1-2.3-5.6l-7.4-7.5C1738.6,115.9,1736.5,115,1734.4,115L1734.4,115z"/>
	</g>
	<g>
		<path class="st0" d="M1763.7,186.1c-1.1,0-2.1-0.4-2.8-1.2l-4.6-4.7c-1.5-1.5-1.5-4,0-5.6l3.5-3.6h-0.6c-2.2,0-4-1.8-4-4V90.4
			c0-2.2,1.8-4,4-4h9.3c2.2,0,4,1.8,4,4V167c0,2.2-1.8,4-4,4h-0.7l3.5,3.6c1.5,1.6,1.5,4.1,0,5.6l-4.7,4.7
			C1765.8,185.7,1764.8,186.1,1763.7,186.1C1763.7,186.1,1763.7,186.1,1763.7,186.1z"/>
		<path class="st1" d="M1768.4,90.4V167h-9.3V90.4H1768.4 M1763.7,172.6l4.7,4.8l-4.7,4.7l-4.6-4.7L1763.7,172.6 M1768.4,82.4h-9.3
			c-4.4,0-8,3.6-8,8V167c0,2,0.7,3.8,1.9,5.2c-2.7,3.1-2.6,7.8,0.4,10.8l4.6,4.7c1.5,1.5,3.5,2.4,5.7,2.4c0,0,0,0,0,0
			c2.1,0,4.2-0.8,5.7-2.3l4.7-4.7c3-3,3.1-7.7,0.4-10.9c1.2-1.4,1.9-3.2,1.9-5.2V90.4C1776.4,86,1772.8,82.4,1768.4,82.4
			L1768.4,82.4z"/>
	</g>
	<g>
		<path class="st0" d="M1822.7,177.4c-1.1,0-2.1-0.4-2.9-1.2l-7.3-7.5c-0.7-0.7-1.1-1.7-1.1-2.8V100c0-2.2,1.8-4,4-4h9.3
			c2.2,0,4,1.8,4,4v60.1h27c2.2,0,4,1.8,4,4v9.3c0,2.2-1.8,4-4,4H1822.7z"/>
		<path class="st1" d="M1824.7,100v64.1h31v9.3h-33l-7.3-7.5V100H1824.7 M1824.7,92h-9.3c-4.4,0-8,3.6-8,8v65.9
			c0,2.1,0.8,4.1,2.3,5.6l7.3,7.5c1.5,1.5,3.6,2.4,5.7,2.4h33c4.4,0,8-3.6,8-8v-9.3c0-4.4-3.6-8-8-8h-23V100
			C1832.7,95.6,1829.1,92,1824.7,92L1824.7,92z"/>
	</g>
	<g>
		<path class="st0" d="M1863.8,177.4c-2.2,0-4-1.8-4-4v-58.2c0-2.2,1.8-4,4-4h0.5l-3.6-3.6c-0.8-0.8-1.2-1.8-1.2-2.8
			c0-1.1,0.4-2.1,1.2-2.8l4.8-4.7c0.8-0.8,1.8-1.1,2.8-1.1c1,0,2,0.4,2.8,1.2l4.7,4.7c1.6,1.6,1.6,4.1,0,5.6l-3.5,3.6h0.7
			c2.2,0,4,1.8,4,4v58.2c0,2.2-1.8,4-4,4H1863.8z"/>
		<path class="st1" d="M1868.4,100.1l4.7,4.7l-4.7,4.8l-4.8-4.8L1868.4,100.1 M1873.1,115.2v58.2h-9.3v-58.2H1873.1 M1868.4,92.1
			c-2,0-4,0.8-5.6,2.3l-4.8,4.7c-1.5,1.5-2.4,3.5-2.4,5.7c0,2,0.7,3.9,2,5.4c-1.1,1.4-1.8,3.2-1.8,5.1v58.2c0,4.4,3.6,8,8,8h9.3
			c4.4,0,8-3.6,8-8v-58.2c0-2-0.7-3.8-1.9-5.2c2.7-3.1,2.6-7.9-0.4-10.9l-4.7-4.7C1872.5,92.9,1870.4,92.1,1868.4,92.1L1868.4,92.1z
			"/>
	</g>
	<g>
		<path class="st0" d="M1881.9,186.5c-2.2,0-4-1.8-4-4v-9.3c0-2.2,1.8-4,4-4h19v-2.5h-12.5c-1.1,0-2.1-0.4-2.8-1.2l-7.5-7.4
			c-0.8-0.8-1.2-1.8-1.2-2.8v-25c0-1.1,0.4-2.1,1.2-2.8l7.5-7.4c0.7-0.7,1.8-1.2,2.8-1.2h25.8c2.2,0,4,1.8,4,4v52.2
			c0,1.1-0.4,2.1-1.2,2.8l-7.4,7.4c-0.8,0.8-1.8,1.2-2.8,1.2H1881.9z M1900.9,149.4v-13.2h-6.7v13.2H1900.9z"/>
		<path class="st1" d="M1914.2,122.9v52.2l-7.4,7.4h-24.9v-9.3h23v-10.5h-16.5l-7.5-7.4v-25l7.5-7.4H1914.2 M1890.2,153.4h14.7
			v-21.2h-14.7V153.4 M1914.2,114.9h-25.8c-2.1,0-4.1,0.8-5.6,2.3l-7.5,7.4c-1.5,1.5-2.4,3.6-2.4,5.7v25c0,2.1,0.9,4.2,2.4,5.7
			l4.5,4.5c-3.4,0.9-5.9,4-5.9,7.7v9.3c0,4.4,3.6,8,8,8h24.9c2.1,0,4.2-0.8,5.7-2.3l7.4-7.4c1.5-1.5,2.3-3.5,2.3-5.7v-52.2
			C1922.2,118.5,1918.6,114.9,1914.2,114.9L1914.2,114.9z"/>
	</g>
	<g>
		<path class="st0" d="M1946.1,177.5c-2.2,0-4-1.8-4-4v-36.7h-6.6v36.7c0,2.2-1.8,4-4,4h-9.3c-2.2,0-4-1.8-4-4v-73.1
			c0-2.2,1.8-4,4-4h9.3c2.2,0,4,1.8,4,4v19.1h12.5c1.1,0,2.1,0.4,2.8,1.2l7.4,7.5c0.7,0.7,1.2,1.8,1.2,2.8v42.5c0,2.2-1.8,4-4,4
			H1946.1z"/>
		<path class="st1" d="M1931.5,100.4v23.1h16.5l7.4,7.5v42.5h-9.3v-40.7h-14.6v40.7h-9.3v-73.1H1931.5 M1931.5,92.4h-9.3
			c-4.4,0-8,3.6-8,8v73.1c0,4.4,3.6,8,8,8h9.3c3.3,0,6-1.9,7.3-4.7c1.3,2.8,4,4.7,7.3,4.7h9.3c4.4,0,8-3.6,8-8V131
			c0-2.1-0.8-4.1-2.3-5.6l-7.4-7.5c-1.5-1.5-3.5-2.4-5.7-2.4h-8.5v-15.1C1939.5,96,1935.9,92.4,1931.5,92.4L1931.5,92.4z"/>
	</g>
	<g>
		<path class="st0" d="M1979,177.4c-1.1,0-2.1-0.4-2.8-1.2l-7.5-7.5c-0.8-0.8-1.2-1.8-1.2-2.8v-29.2h-4.1c-2.2,0-4-1.8-4-4v-9.3
			c0-2.2,1.8-4,4-4h4.1v-8.2c0-2.2,1.8-4,4-4h9.3c2.2,0,4,1.8,4,4v8.2h8.2c2.2,0,4,1.8,4,4v9.3c0,2.2-1.8,4-4,4h-8.2v23.4h8.2
			c2.2,0,4,1.8,4,4v9.3c0,2.2-1.8,4-4,4H1979z"/>
		<path class="st1" d="M1980.8,111.2v12.2h12.2v9.3h-12.2v31.4h12.2v9.3h-14l-7.5-7.5v-33.2h-8.1v-9.3h8.1v-12.2H1980.8
			 M1980.8,103.2h-9.3c-4.4,0-8,3.6-8,8v4.2h-0.1c-4.4,0-8,3.6-8,8v9.3c0,4.4,3.6,8,8,8h0.1v25.2c0,2.1,0.8,4.2,2.3,5.7l7.5,7.5
			c1.5,1.5,3.5,2.3,5.7,2.3h14c4.4,0,8-3.6,8-8v-9.3c0-4.4-3.6-8-8-8h-4.2v-15.4h4.2c4.4,0,8-3.6,8-8v-9.3c0-4.4-3.6-8-8-8h-4.2
			v-4.2C1988.8,106.8,1985.2,103.2,1980.8,103.2L1980.8,103.2z"/>
	</g>
	<g>
		<path class="st0" d="M2038.5,177.4c-1.1,0-2.1-0.4-2.8-1.2l-7.5-7.5c-0.8-0.8-1.2-1.8-1.2-2.8v-42.8c0-2.2,1.8-4,4-4h9.3
			c2.2,0,4,1.8,4,4v37h6.7v-37c0-2.2,1.8-4,4-4h9.3c2.2,0,4,1.8,4,4v42.8c0,1.1-0.4,2.1-1.2,2.8l-7.4,7.5c-0.8,0.8-1.8,1.2-2.8,1.2
			H2038.5z"/>
		<path class="st1" d="M2064.3,123.1v42.8l-7.4,7.5h-18.4l-7.5-7.5v-42.8h9.3v41h14.7v-41H2064.3 M2064.3,115.1h-9.3
			c-3.3,0-6.1,2-7.4,4.8c-1.2-2.8-4.1-4.8-7.4-4.8h-9.3c-4.4,0-8,3.6-8,8v42.8c0,2.1,0.8,4.2,2.3,5.7l7.5,7.5
			c1.5,1.5,3.5,2.3,5.7,2.3h18.4c2.1,0,4.2-0.9,5.7-2.4l7.4-7.5c1.5-1.5,2.3-3.5,2.3-5.6v-42.8
			C2072.3,118.7,2068.7,115.1,2064.3,115.1L2064.3,115.1z"/>
	</g>
	<g>
		<path class="st0" d="M2072.3,186.8c-2.2,0-4-1.8-4-4v-59.6c0-2.2,1.8-4,4-4h26c1.1,0,2.1,0.4,2.8,1.2l7.3,7.4
			c0.7,0.7,1.2,1.8,1.2,2.8v24.7c0,1-0.4,2.1-1.1,2.8l-7.4,7.5c-0.8,0.8-1.8,1.2-2.9,1.2h-12.6v16c0,2.2-1.8,4-4,4H2072.3z
			 M2092.3,149.5v-13.2h-6.7v13.2H2092.3z"/>
		<path class="st1" d="M2098.3,123.2l7.3,7.4v24.7l-7.4,7.5h-16.6v20h-9.3v-59.6H2098.3 M2081.6,153.5h14.7v-21.2h-14.7V153.5
			 M2098.3,115.2h-26c-4.4,0-8,3.6-8,8v59.6c0,4.4,3.6,8,8,8h9.3c4.4,0,8-3.6,8-8v-12h8.6c2.1,0,4.2-0.9,5.7-2.4l7.4-7.5
			c1.5-1.5,2.3-3.5,2.3-5.6v-24.7c0-2.1-0.8-4.1-2.3-5.6l-7.3-7.4C2102.5,116.1,2100.4,115.2,2098.3,115.2L2098.3,115.2z"/>
	</g>
	<g>
		<path class="st0" d="M2159.1,177.4c-1.1,0-2.1-0.4-2.8-1.2l-7.5-7.5c-0.8-0.8-1.2-1.8-1.2-2.8v-29.2h-4.1c-2.2,0-4-1.8-4-4v-9.3
			c0-2.2,1.8-4,4-4h4.1v-8.2c0-2.2,1.8-4,4-4h9.3c2.2,0,4,1.8,4,4v8.2h8.2c2.2,0,4,1.8,4,4v9.3c0,2.2-1.8,4-4,4h-8.2v23.4h8.2
			c2.2,0,4,1.8,4,4v9.3c0,2.2-1.8,4-4,4H2159.1z"/>
		<path class="st1" d="M2160.9,111.2v12.2h12.2v9.3h-12.2v31.4h12.2v9.3h-14l-7.5-7.5v-33.2h-8.1v-9.3h8.1v-12.2H2160.9
			 M2160.9,103.2h-9.3c-4.4,0-8,3.6-8,8v4.2h-0.1c-4.4,0-8,3.6-8,8v9.3c0,4.4,3.6,8,8,8h0.1v25.2c0,2.1,0.8,4.2,2.3,5.7l7.5,7.5
			c1.5,1.5,3.5,2.3,5.7,2.3h14c4.4,0,8-3.6,8-8v-9.3c0-4.4-3.6-8-8-8h-4.2v-15.4h4.2c4.4,0,8-3.6,8-8v-9.3c0-4.4-3.6-8-8-8h-4.2
			v-4.2C2168.9,106.8,2165.3,103.2,2160.9,103.2L2160.9,103.2z"/>
	</g>
	<g>
		<path class="st0" d="M2205,177.5c-2.2,0-4-1.8-4-4v-36.7h-6.6v36.7c0,2.2-1.8,4-4,4h-9.3c-2.2,0-4-1.8-4-4v-73.1c0-2.2,1.8-4,4-4
			h9.3c2.2,0,4,1.8,4,4v19.1h12.5c1.1,0,2.1,0.4,2.8,1.2l7.4,7.5c0.7,0.7,1.2,1.8,1.2,2.8v42.5c0,2.2-1.8,4-4,4H2205z"/>
		<path class="st1" d="M2190.4,100.4v23.1h16.5l7.4,7.5v42.5h-9.3v-40.7h-14.6v40.7h-9.3v-73.1H2190.4 M2190.4,92.4h-9.3
			c-4.4,0-8,3.6-8,8v73.1c0,4.4,3.6,8,8,8h9.3c3.3,0,6-1.9,7.3-4.7c1.3,2.8,4,4.7,7.3,4.7h9.3c4.4,0,8-3.6,8-8V131
			c0-2.1-0.8-4.1-2.3-5.6l-7.4-7.5c-1.5-1.5-3.5-2.4-5.7-2.4h-8.5v-15.1C2198.4,96,2194.8,92.4,2190.4,92.4L2190.4,92.4z"/>
	</g>
	<g>
		<path class="st0" d="M2229.7,177.3c-1.1,0-2.1-0.4-2.9-1.2l-7.4-7.5c-0.7-0.7-1.1-1.8-1.1-2.8v-35.3c0-1.1,0.4-2.1,1.2-2.8
			l7.4-7.3c0.7-0.7,1.8-1.2,2.8-1.2h18.5c1.1,0,2.1,0.4,2.8,1.2l7.3,7.3c0.7,0.7,1.2,1.8,1.2,2.8v24.2c0,2.2-1.8,4-4,4h-19.9v1.3
			h19.9c2.2,0,4,1.8,4,4v9.3c0,2.2-1.8,4-4,4H2229.7z M2242.2,142.4v-5.9h-6.6v5.9H2242.2z"/>
		<path class="st1" d="M2248.2,123.2l7.3,7.3v24.2h-23.9v9.3h23.9v9.3h-25.8l-7.4-7.5v-35.3l7.4-7.3H2248.2 M2231.6,146.4h14.6
			v-13.9h-14.6V146.4 M2248.2,115.2h-18.5c-2.1,0-4.1,0.8-5.6,2.3l-7.4,7.3c-1.5,1.5-2.4,3.6-2.4,5.7v35.3c0,2.1,0.8,4.1,2.3,5.6
			l7.4,7.5c1.5,1.5,3.6,2.4,5.7,2.4h25.8c4.4,0,8-3.6,8-8V164c0-1.7-0.6-3.3-1.5-4.6c0.9-1.3,1.5-2.9,1.5-4.6v-24.2
			c0-2.1-0.8-4.1-2.3-5.6l-7.3-7.3C2252.4,116.1,2250.3,115.2,2248.2,115.2L2248.2,115.2z"/>
	</g>
	<g>
		<path class="st0" d="M2293.6,177.4c-2.2,0-4-1.8-4-4v-12c0-0.7,0.2-1.4,0.6-2.1l27.7-46.2h-24.2c-2.2,0-4-1.8-4-4v-9.3
			c0-2.2,1.8-4,4-4h40.6c2.2,0,4,1.8,4,4V112c0,0.7-0.2,1.4-0.6,2l-27.5,46.1h24.1c2.2,0,4,1.8,4,4v9.3c0,2.2-1.8,4-4,4H2293.6z"/>
		<path class="st1" d="M2334.2,99.8V112l-31.1,52.1h31.1v9.3h-40.6v-12l31.3-52.3h-31.3v-9.3H2334.2 M2334.2,91.8h-40.6
			c-4.4,0-8,3.6-8,8v9.3c0,4.4,3.6,8,8,8h17.2l-24.1,40.2c-0.7,1.2-1.1,2.7-1.1,4.1v12c0,4.4,3.6,8,8,8h40.6c4.4,0,8-3.6,8-8v-9.3
			c0-4.4-3.6-8-8-8h-17l23.9-40c0.7-1.2,1.1-2.7,1.1-4.1V99.8C2342.2,95.4,2338.6,91.8,2334.2,91.8L2334.2,91.8z"/>
	</g>
	<g>
		<path class="st0" d="M2385.6,177.3c-2.2,0-4-1.8-4-4V157l-3.2,11.1c-0.5,1.7-2.1,2.9-3.8,2.9h-11.1c-1.7,0-3.3-1.1-3.8-2.8
			l-4.4-13.6v18.8c0,2.2-1.8,4-4,4h-9.3c-2.2,0-4-1.8-4-4v-73.2c0-2.2,1.8-4,4-4h9.3c1.8,0,3.3,1.1,3.8,2.8l13.6,43.6l12.8-43.6
			c0.5-1.7,2.1-2.9,3.8-2.9h9.5c2.2,0,4,1.8,4,4v73.2c0,2.2-1.8,4-4,4H2385.6z"/>
		<path class="st1" d="M2394.9,100.1v73.2h-9.3V129l-11.1,37.9h-11.1l-12.2-38.1v44.5h-9.3v-73.2h9.3l17.5,56.2l16.6-56.2H2394.9
			 M2394.9,92.1h-9.5c-3.5,0-6.7,2.3-7.7,5.7l-9.1,30.9l-9.7-31c-1-3.3-4.1-5.6-7.6-5.6h-9.3c-4.4,0-8,3.6-8,8v73.2c0,4.4,3.6,8,8,8
			h9.3c4.3,0,7.8-3.4,8-7.6c1.2,0.8,2.7,1.2,4.2,1.2h11.1c1.1,0,2.2-0.2,3.1-0.6c0.5,4,3.9,7,7.9,7h9.3c4.4,0,8-3.6,8-8v-73.2
			C2402.9,95.7,2399.3,92.1,2394.9,92.1L2394.9,92.1z"/>
	</g>
	<g>
		<path class="st0" d="M2403,177.4c-2.2,0-4-1.8-4-4v-73.3c0-2.2,1.8-4,4-4h40.3c2.2,0,4,1.8,4,4v9.3c0,2.2-1.8,4-4,4h-27v17.5h27
			c2.2,0,4,1.8,4,4v9.3c0,2.2-1.8,4-4,4h-27v25.2c0,2.2-1.8,4-4,4H2403z"/>
		<path class="st1" d="M2443.3,100.1v9.3h-31v25.5h31v9.3h-31v29.2h-9.3v-73.3H2443.3 M2443.3,92.1H2403c-4.4,0-8,3.6-8,8v73.3
			c0,4.4,3.6,8,8,8h9.3c4.4,0,8-3.6,8-8v-21.2h23c4.4,0,8-3.6,8-8v-9.3c0-4.4-3.6-8-8-8h-23v-9.5h23c4.4,0,8-3.6,8-8v-9.3
			C2451.3,95.7,2447.7,92.1,2443.3,92.1L2443.3,92.1z"/>
	</g>
	<g>
		<path class="st0" d="M2465.2,186.1c-1.1,0-2.1-0.4-2.8-1.2l-4.6-4.7c-1.5-1.5-1.5-4,0-5.6l3.5-3.6h-0.6c-2.2,0-4-1.8-4-4V90.4
			c0-2.2,1.8-4,4-4h9.3c2.2,0,4,1.8,4,4V167c0,2.2-1.8,4-4,4h-0.7l3.5,3.6c1.5,1.6,1.5,4.1,0,5.6l-4.7,4.7
			C2467.3,185.7,2466.3,186.1,2465.2,186.1C2465.2,186.1,2465.2,186.1,2465.2,186.1z"/>
		<path class="st1" d="M2469.9,90.4V167h-9.3V90.4H2469.9 M2465.2,172.6l4.7,4.8l-4.7,4.7l-4.6-4.7L2465.2,172.6 M2469.9,82.4h-9.3
			c-4.4,0-8,3.6-8,8V167c0,2,0.7,3.8,1.9,5.2c-2.7,3.1-2.6,7.8,0.4,10.8l4.6,4.7c1.5,1.5,3.5,2.4,5.7,2.4c0,0,0,0,0,0
			c2.1,0,4.2-0.8,5.7-2.3l4.7-4.7c3-3,3.1-7.7,0.4-10.9c1.2-1.4,1.9-3.2,1.9-5.2V90.4C2477.9,86,2474.3,82.4,2469.9,82.4
			L2469.9,82.4z"/>
	</g>
</g>
</svg>
