<?xml version="1.0" encoding="utf-8"?>
<!-- Generator: Adobe Illustrator 19.0.0, SVG Export Plug-In . SVG Version: 6.00 Build 0)  -->
<svg version="1.1" id="图层_1" xmlns="http://www.w3.org/2000/svg" xmlns:xlink="http://www.w3.org/1999/xlink" x="0px" y="0px"
	 viewBox="1060 -260 2200 600" style="enable-background:new 1060 -260 2200 600;" xml:space="preserve">
<style type="text/css">
	.st0{fill:#5909a5;}
	.st1{fill:#0d0717;}
	.st2{fill:#943cff;}
	.st3{fill:#8f52ff;}
	.st4{fill:#571892;}
</style>
<g>
	<polygon class="st0" points="3140.5,202 1334.2,195.7 1256.8,62.6 3063.2,68.9 	"/>
	<path class="st1" d="M3140.5,205.1C3140.5,205.1,3140.5,205.1,3140.5,205.1l-1806.4-6.2c-1.1,0-2.1-0.6-2.7-1.5l-77.4-133.1
		c-0.6-1-0.6-2.2,0-3.1c0.6-1,1.6-1.6,2.7-1.6c0,0,0,0,0,0l1806.4,6.2c1.1,0,2.1,0.6,2.7,1.5l77.4,133.1c0.6,1,0.6,2.2,0,3.1
		C3142.7,204.5,3141.6,205.1,3140.5,205.1z M1336,192.6l1799.2,6.2L3061.4,72l-1799.2-6.2L1336,192.6z"/>
	<polygon class="st2" points="3063.2,17.4 1256.8,11.1 1334.2,-122.8 3140.5,-116.6 	"/>
	<path class="st1" d="M3063.2,20.5C3063.2,20.5,3063.2,20.5,3063.2,20.5l-1806.4-6.2c-1.1,0-2.1-0.6-2.7-1.6s-0.6-2.1,0-3.1
		l77.3-134c0.6-1,1.6-1.6,2.7-1.6c0,0,0,0,0,0l1806.4,6.2c1.1,0,2.1,0.6,2.7,1.6c0.6,1,0.6,2.1,0,3.1l-77.3,134
		C3065.3,19.9,3064.3,20.5,3063.2,20.5z M1262.2,8l1799.2,6.2l73.8-127.8L1336-119.7L1262.2,8z"/>
	<polygon class="st0" points="2985.8,202.8 1179.5,196.6 1164.6,170.9 2970.9,177.2 	"/>
	<path class="st1" d="M2985.8,206C2985.8,206,2985.8,206,2985.8,206l-1806.4-6.2c-1.1,0-2.1-0.6-2.7-1.5l-14.9-25.7
		c-0.6-1-0.6-2.2,0-3.1c0.6-1,1.6-1.6,2.7-1.6c0,0,0,0,0,0l1806.4,6.2c1.1,0,2.1,0.6,2.7,1.5l14.9,25.7c0.6,1,0.6,2.2,0,3.1
		C2988,205.4,2986.9,206,2985.8,206z M1181.3,193.5l1799.2,6.2l-11.3-19.4L1170,174.1L1181.3,193.5z"/>
	<polygon class="st2" points="2970.9,177.2 1164.6,170.9 1241.9,37 3048.3,43.2 	"/>
	<path class="st1" d="M2970.9,180.3C2970.9,180.3,2970.9,180.3,2970.9,180.3L1164.5,174c-1.1,0-2.1-0.6-2.7-1.6s-0.6-2.1,0-3.1
		l77.4-134c0.6-1,1.6-1.6,2.7-1.6c0,0,0,0,0,0l1806.4,6.2c1.1,0,2.1,0.6,2.7,1.6c0.6,1,0.6,2.1,0,3.1l-77.4,134
		C2973,179.7,2972,180.3,2970.9,180.3z M1169.9,167.9l1799.2,6.2l73.8-127.8l-1799.2-6.2L1169.9,167.9z"/>
	<polygon class="st3" points="2985.8,-115.7 3063.2,17.4 3140.5,-116.6 3155.4,-90.9 3078.1,43 3155.4,176.1 3140.5,202 
		3063.2,68.9 2985.8,202.8 2970.9,177.2 3048.3,43.2 2970.9,-89.9 	"/>
	<path class="st1" d="M2985.8,206c-1.1,0-2.1-0.6-2.7-1.5l-14.9-25.7c-0.6-1-0.6-2.2,0-3.1l76.5-132.4l-76.4-131.5
		c-0.6-1-0.6-2.2,0-3.1l14.9-25.8c0.6-1,1.6-1.6,2.7-1.6c0,0,0,0,0,0c1.1,0,2.1,0.6,2.7,1.5l74.7,128.5l74.7-129.3
		c0.6-1,1.6-1.6,2.7-1.6c0,0,0,0,0,0c1.1,0,2.1,0.6,2.7,1.5l14.9,25.7c0.6,1,0.6,2.2,0,3.1L3081.7,43l76.4,131.6
		c0.6,1,0.6,2.2,0,3.1l-14.9,25.8c-0.6,1-1.6,1.6-2.7,1.6c0,0,0,0,0,0c-1.1,0-2.1-0.6-2.7-1.5l-74.7-128.5l-74.7,129.3
		C2988,205.4,2986.9,206,2985.8,206C2985.8,206,2985.8,206,2985.8,206z M2974.5,177.2l11.3,19.5l74.7-129.3c0.6-1,1.6-1.6,2.7-1.6
		c0,0,0,0,0,0c1.1,0,2.1,0.6,2.7,1.5l74.7,128.5l11.3-19.6l-76.4-131.6c-0.6-1-0.6-2.2,0-3.1l76.4-132.4l-11.3-19.5l-74.7,129.3
		c-0.6,1-1.6,1.6-2.7,1.6c0,0,0,0,0,0c-1.1,0-2.1-0.6-2.7-1.5l-74.7-128.5l-11.3,19.6l76.4,131.5c0.6,1,0.6,2.2,0,3.1L2974.5,177.2z
		"/>
	<polygon class="st4" points="3048.3,43.2 1241.9,37 1164.6,-96.1 2970.9,-89.9 	"/>
	<path class="st1" d="M3048.3,46.3C3048.3,46.3,3048.3,46.3,3048.3,46.3l-1806.4-6.2c-1.1,0-2.1-0.6-2.7-1.5l-77.3-133.1
		c-0.6-1-0.6-2.2,0-3.1c0.6-1,1.6-1.6,2.7-1.6c0,0,0,0,0,0L2970.9-93c1.1,0,2.1,0.6,2.7,1.5l77.3,133.1c0.6,1,0.6,2.2,0,3.1
		C3050.4,45.7,3049.4,46.3,3048.3,46.3z M1243.7,33.9l1799.2,6.2l-73.7-126.9L1170-93L1243.7,33.9z"/>
	<polygon class="st2" points="2970.9,-89.9 1164.6,-96.1 1179.5,-122 2985.8,-115.7 	"/>
	<path class="st1" d="M2970.9-86.8C2970.9-86.8,2970.9-86.8,2970.9-86.8L1164.5-93c-1.1,0-2.1-0.6-2.7-1.6s-0.6-2.1,0-3.1l14.9-25.8
		c0.6-1,1.6-1.6,2.7-1.6c0,0,0,0,0,0l1806.4,6.2c1.1,0,2.1,0.6,2.7,1.6c0.6,1,0.6,2.1,0,3.1l-14.9,25.8
		C2973-87.4,2972-86.8,2970.9-86.8z M1169.9-99.2L2969.1-93l11.3-19.6l-1799.2-6.2L1169.9-99.2z"/>
</g>
</svg>
