<?xml version="1.0" encoding="utf-8"?>
<!-- Generator: Adobe Illustrator 19.0.0, SVG Export Plug-In . SVG Version: 6.00 Build 0)  -->
<svg version="1.1" id="图层_1" xmlns="http://www.w3.org/2000/svg" xmlns:xlink="http://www.w3.org/1999/xlink" x="0px" y="0px"
	 viewBox="260 -260 600 600" style="enable-background:new 260 -260 600 600;" xml:space="preserve">
<style type="text/css">
	.st0{opacity:0.94;}
	.st1{enable-background:new    ;}
	.st2{fill:#FEE00D;stroke:#DABD00;stroke-width:6;stroke-linejoin:round;stroke-miterlimit:10;}
	.st3{fill:#FFE00E;stroke:#DABD00;stroke-width:6;stroke-linejoin:round;stroke-miterlimit:10;}
	.st4{fill:#ECD007;stroke:#DABD00;stroke-width:6;stroke-linejoin:round;stroke-miterlimit:10;}
	.st5{fill:#1D2084;}
	.st6{fill:#FFFFFF;}
	.st7{fill:#FFED00;}
	.st8{fill:#262DFF;}
</style>
<g class="st0">
	<g class="st1">
		<g>
			<polygon class="st2" points="3171.3,-883 2963.3,-730.8 2710.2,-853.7 2919.1,-1008.9 			"/>
		</g>
		<g>
			<polygon class="st3" points="3171.3,-883 3171.5,-624.3 2962.6,-471.1 2963.3,-730.8 			"/>
		</g>
		<g>
			<polygon class="st4" points="2963.3,-730.8 2962.6,-471.1 2708.5,-598 2710.2,-853.7 			"/>
		</g>
	</g>
</g>
<g>
	<polygon class="st5" points="467.2,116.3 467.3,116.3 467.3,116.3 	"/>
	<polygon class="st5" points="487.7,-78.1 374.2,-21.1 342.1,24 368.9,39.1 306.3,109.8 297.9,119.4 309.7,125.2 393.7,158.6 
		489.3,102.6 500.7,139.9 559.9,93.9 564.6,89.7 573.2,121.5 613.2,74.6 621.2,98.8 654,77.8 697,157.1 739.5,118.7 745.9,101.6 
		731.7,63.7 784.5,39.7 783.1,3.6 819.2,-37 784.1,-58.4 599,-39.1 603.2,-22.2 577.4,-19.1 508.5,-44.7 492.5,-70.9 	"/>
	<polygon class="st6" points="311.7,120.8 305.8,117.8 310,113 376.6,37.8 349.2,22.4 377.5,-17.3 486,-71.8 488.4,-68.2 
		509.6,-33.4 510.6,-38.7 576.8,-14.1 609.3,-18 605.1,-34.8 782.9,-53.3 811.6,-35.8 779.6,0.1 778,0.5 779.5,36.6 725.5,61.1 
		740.7,101.6 735.3,115.9 698.3,149.3 654.7,68.7 622.9,88.3 615.2,64.9 612.6,67.8 575.5,111.3 563.7,67.8 564.7,82.9 556.7,90.2 
		503.3,131.7 492.2,95.3 393.3,153.1 	"/>
	<path class="st5" d="M804-34.7l-22.2-13.5L611.3-30.5l4.1,16.6l-39.1,4.7l-61.9-23l-2.2,12.2l-27.9-45.6l0,0l-103.5,52l-24.4,34.3
		l27.9,15.7l-70.6,79.7l0,0l79.1,31.4l95.6-55.9l0,0l0,0l1-3.6l9.5-33l-5.1,28.7l12,39.5l47.7-37l6.1-5.5l-3.8-61l21.9,81.2
		l31.1-36.5l8.2-9.2l7.5,22.5l0,0l0,0l23.4-31.4l51.6,95l31.5-28.4l4.3-11.4l-16.1-43.1l55.2-25L773-3.3l4-1L804-34.7z M497.5,21.6
		L497.5,21.6l8-3.7l-1.8,10.2L497.5,21.6z M769.1,16.7L769.1,16.7L769.1,16.7L769.1,16.7z"/>
	<polygon class="st5" points="494.9,18.4 528.7,0.4 538.4,30.1 509.5,44.9 	"/>
	<polygon class="st5" points="772.6,-11.6 769.2,16.6 713.1,43.7 717.6,59.3 774.5,33.5 	"/>
	<polygon class="st5" points="611.3,-30.5 615.4,-13.8 699.6,141.4 731.1,113 	"/>
	<polygon class="st7" points="497.5,21.6 497.5,21.6 497.5,21.6 	"/>
	<polygon class="st7" points="496.6,-13.7 496.6,-13.7 496.6,-13.7 	"/>
	<polygon class="st5" points="356.4,20.8 356.4,20.8 384.3,36.5 416.3,0.4 	"/>
	<polygon class="st5" points="496.6,-13.7 496.6,-13.7 401.1,66.5 497.5,21.6 497.5,21.6 528.7,7.1 	"/>
	<polygon class="st5" points="484.3,-65.4 496.6,-13.7 496.6,-13.7 528.7,7.1 	"/>
	<polygon class="st7" points="483.7,89.1 483.9,89.1 483.7,89 	"/>
	<polygon class="st7" points="488.4,91.8 488.4,91.8 488.5,91.8 	"/>
	<polygon class="st7" points="467.2,116.3 467.3,116.3 467.3,116.3 	"/>
	<polygon class="st5" points="483.9,89.1 483.7,89.1 313.7,116.3 392.8,147.7 488.4,91.8 	"/>
	<polygon class="st5" points="497.5,21.6 483.7,89 483.9,89.1 488.4,91.8 488.5,91.8 489.5,88.2 506,30.5 	"/>
	<polygon class="st5" points="481.8,-57.7 481.4,-59.5 384.4,-11 365.1,14.5 367.6,13.7 385.3,-9.6 	"/>
	<polygon class="st7" points="389.1,75.8 388.4,74.7 489.5,-14.8 481.8,-57.7 385.3,-9.6 367.6,13.7 423.2,-4.2 424,-2.7 
		388.4,38.8 327.9,109.2 479.2,84.3 490.6,30.6 	"/>
	<polygon class="st5" points="423.2,-4.2 387.1,38.1 326.2,109.5 327.9,109.2 388.4,38.8 424,-2.7 	"/>
	<path class="st8" d="M497.5,21.6l-96.4,44.9l95.5-80.2l0,0l-12.3-51.7l0,0l-103.5,52l-24.4,34.3l59.9-20.5l-32,36.2l-70.6,79.7l0,0
		l170-27.2l0-0.1L497.5,21.6L497.5,21.6z M479.2,84.3l-151.2,24.9l-1.7,0.3l60.9-71.4l36.1-42.3l-55.6,18l-2.5,0.8L384.4-11
		l97.1-48.5l0.3,1.8l7.8,42.9L388.4,74.7l102.7-46l-0.4,1.8L479.2,84.3z"/>
	<polygon class="st5" points="490.6,30.6 491,28.7 388.4,74.7 389.1,75.8 	"/>
	<polygon class="st5" points="555.9,19.8 561.4,6 555,6 	"/>
	<polygon class="st5" points="505.9,123.5 553.5,86.4 559.6,80.9 493.9,83.9 	"/>
	<polygon class="st7" points="579,82.7 579,82.7 579,82.7 	"/>
	<polygon class="st7" points="624.6,77.8 624.6,77.8 624.6,77.8 	"/>
	<polygon class="st5" points="583.6,78.3 561.4,6 561.4,6 555.9,19.8 555.9,19.9 577.8,101 608.9,64.6 617.2,55.3 617.6,54.8 	"/>
	<path class="st8" d="M615.4-13.8l-39.1,4.8l-61.9-23l-20.5,116l65.8-3l-3.8-61l0,0l0,0L555,6h6.4h0l22.2,72.3l34.1-23.5l-14.3-41.6
		l4.3-1.2l25.9,31.4l0,0l29.2-16.6L615.4-13.8z M635.1,39.2L609,9.1l-9.2,2l13.8,41.3l-1.5,1.1l-27,19.3L563.9,3.9h-11.9l4,73.2
		l-0.8,0l-57.4,3.1l18.7-105.7l0.2-1.3L577-5.2l35.8-6l43.5,38l-1.8,1.1L635.1,39.2z"/>
	<polygon class="st7" points="555.8,19.8 555.9,19.9 555.9,19.8 	"/>
	<polygon class="st5" points="551.9,3.9 551.3,4.6 555.1,77.2 555.9,77.1 	"/>
	<polygon class="st5" points="612,53.5 613.6,52.4 599.8,11.2 598.8,12.4 	"/>
	<polygon class="st7" points="609,9.1 635.1,39.2 654.5,27.9 611.7,-9.9 575.8,-4 516.4,-25.3 497.8,80.3 555.1,77.2 551.3,4.6 
		551.9,3.9 563.9,3.9 585.1,72.8 612,53.5 598.8,12.4 599.8,11.1 	"/>
	<polygon class="st5" points="611.7,-9.9 654.5,27.9 656.3,26.8 612.8,-11.2 577,-5.2 516.7,-26.7 516.4,-25.3 575.8,-4 	"/>
	<polygon class="st5" points="603.3,13.2 604.7,17.1 607.7,12 	"/>
	<polygon class="st5" points="633.6,43.4 633.6,43.4 607.7,12 607.7,12 604.7,17.1 617.6,54.8 617.2,55.3 624.6,77.8 624.6,77.8 
		656.2,60.7 662.8,26.9 	"/>
	<polygon class="st7" points="702.6,-0.6 702.6,-0.6 702.6,-0.6 	"/>
	<polygon class="st5" points="696.3,-2.9 696.3,2.8 703.3,14.7 776.9,-4.3 804,-34.7 	"/>
	<path class="st8" d="M804-34.7l-22.2-13.5L611.3-30.5L731.1,113l4.3-11.4L696.3-2.9L804-34.7z M725.1,84.5L620.8-27.8l158.7-17
		l16.4,9.5L690.5-5.7L725.1,84.5z"/>
	<polygon class="st5" points="792.2,-34.3 795.9,-35.3 779.5,-44.8 620.8,-27.8 623,-25.5 778,-42.3 	"/>
	<polygon class="st8" points="699.6,12.1 772.6,-11.6 770.8,15.8 711.5,47.4 	"/>
	<polygon class="st7" points="690.5,-5.7 792.2,-34.3 778,-42.3 623,-25.5 729.9,104.7 731.5,99.3 709.2,42.1 768.1,12.9 
		769.4,-6.9 699.5,17.4 	"/>
	<polygon class="st5" points="699.5,17.4 699.5,17.4 690.5,-5.7 690.7,-1.1 698.6,20.3 769.3,-5.3 769.4,-6.9 	"/>
</g>
</svg>
