<?xml version="1.0" encoding="utf-8"?>
<!-- Generator: Adobe Illustrator 19.0.0, SVG Export Plug-In . SVG Version: 6.00 Build 0)  -->
<svg version="1.1" id="图层_1" xmlns="http://www.w3.org/2000/svg" xmlns:xlink="http://www.w3.org/1999/xlink" x="0px" y="0px"
	 viewBox="1715 -55 522 238" style="enable-background:new 1715 -55 522 238;" xml:space="preserve">
<style type="text/css">
	.st0{fill:#1D2084;}
	.st1{fill:#FFFFFF;}
	.st2{fill:#FFED00;}
	.st3{fill:#262DFF;}
</style>
<g>
	<polygon class="st0" points="1884.7,140.1 1884.8,140.1 1884.8,140.1 	"/>
	<polygon class="st0" points="1905.2,-54.4 1791.7,2.6 1759.6,47.7 1786.3,62.8 1723.8,133.6 1715.3,143.1 1727.2,148.9 
		1811.2,182.4 1906.8,126.3 1918.2,163.6 1977.3,117.6 1982,113.4 1990.7,145.2 2030.7,98.3 2038.7,122.6 2071.4,101.6 
		2114.4,180.9 2156.9,142.4 2163.4,125.3 2149.1,87.4 2201.9,63.4 2200.6,27.3 2236.6,-13.3 2201.6,-34.7 2016.4,-15.4 2020.7,1.5 
		1994.8,4.6 1925.9,-21 1909.9,-47.2 	"/>
	<polygon class="st1" points="1729.2,144.6 1723.2,141.6 1727.4,136.8 1794.1,61.5 1766.7,46.1 1794.9,6.4 1903.4,-48.1 
		1905.8,-44.5 1927.1,-9.7 1928.1,-15 1994.2,9.6 2026.8,5.7 2022.5,-11.1 2200.4,-29.6 2229.1,-12.1 2197.1,23.8 2195.4,24.2 
		2196.9,60.3 2142.9,84.8 2158.1,125.3 2152.8,139.6 2115.8,173.1 2072.1,92.4 2040.3,112.1 2032.7,88.6 2030,91.6 1992.9,135.1 
		1981.2,91.6 1982.2,106.6 1974.2,113.9 1920.8,155.4 1909.7,119.1 1810.8,176.9 	"/>
	<path class="st0" d="M2221.4-11l-22.2-13.5L2028.8-6.8l4.1,16.6l-39.1,4.7l-61.9-23l-2.2,12.2l-27.9-45.6l0,0l-103.5,52l-24.4,34.3
		l27.9,15.7l-70.6,79.7l0,0l79.1,31.4l95.6-55.9l0,0l0,0l1-3.6l9.5-33l-5.1,28.7l12,39.5l47.7-37l6.1-5.5l-3.8-61l21.9,81.2
		l31.1-36.5l8.2-9.2l7.5,22.5l0,0l0,0l23.4-31.4l51.6,95l31.5-28.4l4.3-11.4l-16.1-43.1l55.2-25l-1.4-36.7l4-1L2221.4-11z
		 M1914.9,45.3L1914.9,45.3l8-3.7l-1.8,10.2L1914.9,45.3z M2186.6,40.4L2186.6,40.4L2186.6,40.4L2186.6,40.4z"/>
	<polygon class="st0" points="1912.3,42.1 1946.2,24.1 1955.8,53.8 1926.9,68.6 	"/>
	<polygon class="st0" points="2190.1,12.1 2186.6,40.3 2130.6,67.4 2135.1,83 2191.9,57.2 	"/>
	<polygon class="st0" points="2028.8,-6.8 2032.8,9.9 2117.1,165.1 2148.6,136.8 	"/>
	<path class="st2" d="M1914.9,45.3L1914.9,45.3L1914.9,45.3z"/>
	<path class="st2" d="M1914.1,10L1914.1,10L1914.1,10z"/>
	<polygon class="st0" points="1773.8,44.5 1773.8,44.5 1801.8,60.2 1833.8,24.1 	"/>
	<polygon class="st0" points="1914.1,10 1914.1,10 1818.6,90.2 1914.9,45.3 1914.9,45.3 1946.2,30.8 	"/>
	<polygon class="st0" points="1901.8,-41.7 1914.1,10 1914.1,10 1946.2,30.8 	"/>
	<polygon class="st2" points="1901.2,112.8 1901.3,112.8 1901.2,112.8 	"/>
	<polygon class="st2" points="1905.8,115.6 1905.8,115.6 1905.9,115.6 	"/>
	<polygon class="st2" points="1884.7,140.1 1884.8,140.1 1884.8,140.1 	"/>
	<polygon class="st0" points="1901.3,112.8 1901.2,112.8 1731.2,140.1 1810.2,171.4 1905.8,115.6 	"/>
	<polygon class="st0" points="1914.9,45.3 1901.2,112.8 1901.3,112.8 1905.8,115.6 1905.9,115.6 1906.9,111.9 1923.4,54.2 	"/>
	<polygon class="st0" points="1899.2,-34 1898.8,-35.8 1801.8,12.7 1782.6,38.2 1785.1,37.4 1802.8,14.1 	"/>
	<polygon class="st2" points="1806.6,99.6 1805.8,98.4 1906.9,8.9 1899.2,-34 1802.8,14.1 1785.1,37.4 1840.7,19.5 1841.4,21 
		1805.8,62.5 1745.3,132.9 1896.7,108.1 1908.1,54.3 	"/>
	<polygon class="st0" points="1840.7,19.5 1804.6,61.8 1743.7,133.2 1745.3,132.9 1805.8,62.5 1841.4,21 	"/>
	<path class="st3" d="M1914.9,45.3l-96.4,44.9l95.5-80.2l0,0l-12.3-51.7l0,0l-103.5,52l-24.4,34.3l59.9-20.5l-32,36.2l-70.6,79.7
		l0,0l170-27.2v-0.1L1914.9,45.3L1914.9,45.3z M1896.7,108.1l-151.2,24.9l-1.7,0.3l60.9-71.4l36.1-42.3l-55.6,18l-2.5,0.8l19.2-25.6
		l97.1-48.5l0.3,1.8l7.8,42.9l-101.2,89.5l102.7-46l-0.4,1.8L1896.7,108.1z"/>
	<polygon class="st0" points="1908.1,54.3 1908.4,52.4 1805.8,98.4 1806.6,99.6 	"/>
	<polygon class="st0" points="1973.3,43.5 1978.8,29.7 1972.4,29.7 	"/>
	<polygon class="st0" points="1923.3,147.2 1970.9,110.1 1977,104.6 1911.3,107.6 	"/>
	<path class="st2" d="M1996.4,106.4L1996.4,106.4L1996.4,106.4z"/>
	<path class="st2" d="M2042,101.6L2042,101.6L2042,101.6z"/>
	<polygon class="st0" points="2001,102.1 1978.8,29.7 1978.8,29.7 1973.3,43.5 1973.3,43.6 1995.2,124.8 2026.3,88.3 2034.7,79 
		2035,78.5 	"/>
	<path class="st3" d="M2032.8,9.9l-39.1,4.8l-61.9-23l-20.5,116l65.8-3l-3.8-61l0,0l0,0l-0.9-14h6.4l0,0l22.2,72.3l34.1-23.5
		L2020.8,37l4.3-1.2l25.9,31.4l0,0l29.2-16.6L2032.8,9.9z M2052.6,62.9l-26.1-30.1l-9.2,2l13.8,41.3l-1.5,1.1l-27,19.3l-21.2-68.9
		h-11.9l4,73.2h-0.8l-57.4,3.1l18.7-105.7l0.2-1.3l60.3,21.6l35.8-6l43.5,38l-1.8,1.1L2052.6,62.9z"/>
	<polygon class="st2" points="1973.2,43.5 1973.3,43.6 1973.3,43.5 	"/>
	<polygon class="st0" points="1969.3,27.6 1968.8,28.3 1972.5,100.9 1973.3,100.8 	"/>
	<polygon class="st0" points="2029.4,77.2 2031,76.1 2017.2,34.9 2016.2,36.1 	"/>
	<polygon class="st2" points="2026.4,32.8 2052.6,62.9 2071.9,51.6 2029.2,13.8 1993.2,19.7 1933.8,-1.6 1915.2,104.1 1972.5,100.9 
		1968.8,28.3 1969.3,27.6 1981.3,27.6 2002.5,96.6 2029.4,77.2 2016.2,36.1 2017.2,34.8 	"/>
	<polygon class="st0" points="2029.2,13.8 2071.9,51.6 2073.8,50.5 2030.2,12.5 1994.4,18.5 1934.2,-3 1933.8,-1.6 1993.2,19.7 	"/>
	<polygon class="st0" points="2020.8,36.9 2022.2,40.8 2025.2,35.7 	"/>
	<polygon class="st0" points="2051.1,67.1 2051.1,67.1 2025.2,35.7 2025.2,35.7 2022.2,40.8 2035,78.5 2034.7,79 2042,101.6 
		2042,101.6 2073.6,84.4 2080.2,50.6 	"/>
	<path class="st2" d="M2120.1,23.1L2120.1,23.1L2120.1,23.1z"/>
	<polygon class="st0" points="2113.8,20.8 2113.8,26.5 2120.8,38.4 2194.4,19.4 2221.4,-11 	"/>
	<path class="st3" d="M2221.4-11l-22.2-13.5L2028.8-6.8l119.8,143.5l4.3-11.4l-39.1-104.5L2221.4-11z M2142.6,108.2L2038.2-4.1
		l158.7-17l16.4,9.5L2107.9,18L2142.6,108.2z"/>
	<polygon class="st0" points="2209.6,-10.6 2213.4,-11.6 2196.9,-21.1 2038.2,-4.1 2040.4,-1.8 2195.4,-18.6 	"/>
	<polygon class="st3" points="2117.1,35.8 2190.1,12.1 2188.2,39.5 2128.9,71.1 	"/>
	<polygon class="st2" points="2107.9,18 2209.6,-10.6 2195.4,-18.6 2040.4,-1.8 2147.4,128.4 2148.9,123.1 2126.6,65.8 2185.6,36.6 
		2186.9,16.8 2116.9,41.1 	"/>
	<polygon class="st0" points="2116.9,41.1 2116.9,41.1 2107.9,18 2108.1,22.6 2116.1,44 2186.8,18.4 2186.9,16.8 	"/>
</g>
</svg>
