<svg id="图层_1" xmlns="http://www.w3.org/2000/svg" viewBox="-44 -11 648 152"><style>.st0{fill:#1d2084}</style><path class="st0" d="M-39.3-5.2h29.9L-3 1.3v23.4l-6.4 6.6h-21.8v19.6H-3V59h-29.9l-6.4-5.7V29.6l6.4-6.4h21.8V3h-28.2v-8.2zM14.9-5.2h23.4l6.4 6.5v51.4L38.1 59H14.7l-6.4-6.4V1.2l6.6-6.4zm21.6 56.1V3H16.4v48h20.1zM71.3 50.8h5.3V59h-20v-8.1h6.6v-48h-6.6v-8.1h8.3l6.4 6.4v49.6zM93.1-5.2h23.6l6.4 6.4v20.2l-4 4.1 4 4.1v23l-6.5 6.5H93l-6.4-6.5v-23l4-4-4-4V1.1l6.5-6.3zm21.8 26.6V2.9H94.7v18.5h20.2zm0 29.4V29.5H94.7v21.3h20.2zM-21.4 85.6h-15.8v9.1H-25l3.6 3.6v15.1L-25 117h-13.1l-3.6-3.6V84.7l3.6-3.6h16.7v4.5zm-4.5 13.6h-11.3v13.2h11.3V99.2zM-6.8 121.5h-5v-6.2h5v6.2zM2.6 81.2h16.7l3.6 3.6v13.1l-3.6 3.7H7.2v10.9h15.7v4.5H6.2l-3.6-3.2v-13.2L6.2 97h12.2V85.7H2.6v-4.5zM49.5 84.7v12.2l-2.2 2.3 2.2 2.3v11.9l-3.6 3.6H29.2v-4.5H45v-11H29.6V97H45V85.7H29.2v-4.5h16.7l3.6 3.5zM67.3 102.1H54.2v-4.7h13.2v4.7zM72 81.2h16.7l3.6 3.6v13.1l-3.6 3.7H76.5v10.9h15.7v4.5H75.5l-3.6-3.2v-13.2l3.6-3.6h12.2V85.7H72v-4.5zM114.2 81.2h4.5V117h-4.5v-11.8h-12.1l-3.6-3.6V81.2h4.5v19.4h11.2V81.2z"/><g><path class="st0" d="M221.5 43.3c0-.6.1-1.1.3-1.5.2-.4.4-.6.7-.6.2 0 .4-.2.6-.6.2-.4.3-.9.3-1.5V34c0-.6.2-1.1.6-1.5.4-.4.9-.6 1.5-.6h1.4c.6 0 1.1.2 1.5.6.4.4.6.9.6 1.5v6.3c0 .6-.1 1.2-.4 2-.3.7-.7 1.3-1.1 1.6l-1.5 1.6c-.5.5-1 .8-1.6 1.1-.6.3-1.1.4-1.6.4-.4 0-.8-.2-1-.7-.3-.4-.4-.9-.4-1.5v-1.5zm2-18.9c.5 0 1-.2 1.3-.6.3-.4.5-.9.5-1.5v-.8c0-.6-.2-1.1-.5-1.5-.3-.4-.8-.6-1.3-.6s-.9-.2-1.3-.7c-.3-.4-.5-1-.5-1.6v-1.4c0-.6.2-1.1.5-1.5.3-.4.8-.6 1.3-.6s1-.2 1.3-.7c.3-.4.5-.9.5-1.5V2c0-.6-.2-1.1-.5-1.5-.3-.4-.8-.6-1.3-.6s-.9-.2-1.3-.7c-.3-.4-.5-.9-.5-1.5v-1.4c0-.6.2-1.1.5-1.5.3-.4.8-.6 1.3-.6s1-.2 1.3-.6c.3-.4.5-.9.5-1.5s.2-1.1.6-1.4.9-.6 1.4-.6h1.5c.6 0 1.1.2 1.5.6.4.4.6.8.6 1.4 0 .6.1 1.1.4 1.5.3.4.7.6 1.1.6.4 0 .8.2 1.1.6.3.4.5.9.5 1.5v1.4c0 .6-.2 1.1-.5 1.5-.3.4-.7.7-1.1.7-.4 0-.8.2-1.1.6-.3.4-.4.9-.4 1.5v9.4c0 .6.1 1.1.4 1.5.3.4.7.7 1.1.7.4 0 .8.2 1.1.6.3.4.5.9.5 1.5v1.4c0 .6-.2 1.1-.5 1.6-.3.4-.7.7-1.1.7-.4 0-.8.2-1.1.6-.3.4-.4.9-.4 1.5v1.9c0 .6-.1 1.3-.4 2-.3.7-.7 1.3-1.1 1.8l-1.5 1.5c-.5.5-1 .8-1.7 1.1-.7.3-1.4.4-2 .4h-.4c-.6 0-1.1-.2-1.5-.6-.4-.4-.6-.9-.6-1.6v-1.4c0-.6.2-1.1.5-1.5.4-.4.8-.7 1.3-.7zm9.8 9.4c0-.6.2-1.1.6-1.5.4-.4.9-.6 1.5-.6h1.5c.6 0 1.1.2 1.5.6.4.4.6.9.6 1.5V39c0 .6.1 1.1.3 1.5.2.4.4.6.6.6.3 0 .5.2.7.6.2.4.3.9.3 1.5v1.4c0 .6-.2 1.1-.5 1.5-.3.4-.7.7-1.2.7-.4 0-.9-.1-1.5-.4-.6-.3-1.1-.7-1.5-1.1l-1.5-1.6a5 5 0 0 1-1.1-1.6c-.3-.7-.4-1.4-.4-2v-6.3zm8.6-9.4c.6 0 1.1-.2 1.5-.5.4-.3.6-.7.6-1.2 0-.6-.2-1-.5-1.3-.3-.3-.7-.5-1.2-.5s-1.1-.2-1.7-.5c-.6-.3-1.2-.7-1.6-1.1l-1.5-1.5c-.4-.4-.8-1-1.1-1.7-.3-.7-.4-1.4-.4-2V4.4c0-.6.2-1.1.6-1.5.4-.4.9-.6 1.5-.6h1.4c.6 0 1.1.2 1.5.6.4.4.6.9.6 1.5V13c0 .6.1 1.1.4 1.5.2.4.5.6.8.6.3 0 .6-.2.8-.6.2-.4.3-.9.3-1.5V.6c0-.6-.2-1.1-.6-1.5-.4-.5-.9-.7-1.5-.7H238c-.6 0-1.1-.2-1.5-.6-.4-.4-.6-.9-.6-1.5v-1.4c0-.6.2-1.1.6-1.6.4-.4.9-.7 1.5-.7h3.8c.6 0 1.1-.1 1.5-.4.4-.2.6-.5.6-.9s.2-.7.6-.9c.4-.2.9-.4 1.5-.4h1.5c.6 0 1.1.1 1.5.4.4.2.6.6.6.9 0 .3.2.6.6.9.4.2.9.4 1.5.4h6.5c.6 0 1.1.2 1.5.6.4.4.7 1 .7 1.6v27.4c0 .6.1 1.1.3 1.5.2.4.4.6.7.6.3 0 .5.2.7.7.2.4.3.9.3 1.5V28c0 .6-.2 1.1-.5 1.6-.3.4-.7.6-1.1.6-.4 0-1-.1-1.5-.4-.6-.3-1.1-.6-1.5-1.1l-1.5-1.4c-.4-.5-.8-1-1.1-1.8-.3-.7-.4-1.4-.4-2V.6c0-.6-.2-1.1-.6-1.5-.4-.5-.9-.7-1.5-.7h-.9c-.6 0-1.1.2-1.5.7-.4.5-.6 1-.6 1.5V13c0 .6.2 1.1.6 1.5.4.4.9.6 1.4.6.6 0 1.1.2 1.5.6.4.4.6.9.6 1.5v1.5c0 .6-.2 1.1-.6 1.5s-.9.7-1.5.7-1.1.2-1.4.6c-.4.4-.6.9-.6 1.5v.4c0 .6-.1 1.3-.4 2-.3.7-.7 1.3-1.1 1.8l-1.5 1.5c-.4.5-1 .8-1.7 1.1-.7.3-1.4.4-1.9.4h-5c-.6 0-1.1-.2-1.5-.6-.4-.4-.6-.9-.6-1.6v-1.4c0-.6.2-1.1.6-1.5.4-.4.9-.7 1.5-.7h3.8zm5.7 7.3c.6 0 1.1.2 1.6.6.4.4.6.9.6 1.5V39c0 .6.1 1.1.3 1.5.2.4.4.6.6.6.3 0 .5.2.7.6.2.4.2.9.2 1.5v1.4c0 .6-.1 1.1-.4 1.5-.3.4-.6.7-1 .7s-1-.1-1.5-.4c-.6-.3-1.1-.7-1.5-1.1l-1.5-1.6c-.5-.4-.8-.9-1.1-1.6-.3-.7-.4-1.4-.4-2v-6.3c0-.6.2-1.1.6-1.5.4-.4.9-.6 1.5-.6h1.3zm10.8 0c.6 0 1.1.2 1.5.6.4.4.6.9.6 1.5V39c0 .6.1 1.1.3 1.5.2.4.4.6.7.6.2 0 .5.2.6.6.2.4.3.9.3 1.5v1.4c0 .6-.1 1.1-.4 1.5-.3.4-.7.7-1.1.7s-1-.1-1.5-.4c-.6-.3-1.1-.7-1.5-1.1l-1.5-1.6a5 5 0 0 1-1.1-1.6c-.3-.7-.4-1.4-.4-2v-6.3c0-.6.2-1.1.6-1.5.4-.4.9-.6 1.5-.6h1.4zM271.1 15.4c0-.6.2-1.1.6-1.5.4-.4.9-.6 1.5-.6h1.5c.6 0 1.1.2 1.5.6.4.4.6.9.6 1.5v29.3c0 .6-.2 1.1-.6 1.5-.4.4-.9.7-1.5.7h-3.8c-.4 0-.7-.2-.9-.7-.3-.4-.4-.9-.4-1.5V43c0-.6.1-1.1.2-1.6.1-.4.3-.6.6-.6s.4-.2.6-.6c.1-.4.2-1 .2-1.6V15.4zm4.4-18.8c-.4.5-.9.7-1.5.7s-1.1-.2-1.5-.7l-1-1c-.4-.5-.7-1-.7-1.5 0-.6.2-1.1.7-1.5l1-1c.4-.4.9-.6 1.5-.6s1.1.2 1.5.6l1 1c.4.5.6 1 .6 1.5 0 .6-.2 1.1-.6 1.5l-1 1zm0 11.9c-.4.5-.9.7-1.5.7s-1.1-.2-1.5-.7l-1-1c-.4-.4-.7-.9-.7-1.5s.2-1.1.7-1.5l1-1.1c.4-.5.9-.7 1.5-.7s1.1.2 1.5.7l1 1.1c.4.4.6.9.6 1.5s-.2 1.1-.6 1.5l-1 1zm7.9 38.4h-3.7c-.4 0-.7-.2-.9-.7-.3-.4-.4-1-.4-1.5v-1.4c0-.6.1-1.1.2-1.6.2-.4.3-.6.6-.6s.4-.2.5-.6c.1-.4.2-.9.2-1.5V-4.4c0-.6.2-1.1.7-1.5.5-.4 1-.6 1.5-.6l10 .1c.6 0 1.1-.2 1.5-.5.4-.4.6-.8.6-1.2 0-.5.2-.9.6-1.3.4-.4.9-.5 1.5-.5h1.5c.6 0 1.1.2 1.5.5.4.3.6.8.6 1.2 0 .4.2.8.6 1.2.4.3.9.5 1.5.5h6.3c.6 0 1.1.2 1.5.6.4.4.6.9.6 1.5V5c0 .6-.2 1.1-.6 1.5-.4.4-.9.6-1.5.6h-1.4c-.6 0-1.1-.2-1.6-.6-.4-.4-.6-.9-.6-1.5V1.4c0-.6-.2-1.1-.6-1.5-.4-.4-.9-.6-1.5-.6h-.6c-.6 0-1 .2-1.5.7-.4.4-.6.9-.6 1.5v9.4c0 .6.2 1.1.6 1.5.4.4.9.6 1.5.6h6.3c.6 0 1.1.2 1.5.6s.6.9.6 1.5V29c0 .6-.2 1.2-.5 1.9s-.7 1.3-1.2 1.6l-4.1 3.8c-.4.4-.7.8-.7 1.4 0 .6.2 1.1.6 1.5l.3.3c.4.5.9.8 1.6 1.1.7.3 1.3.4 1.9.4.6 0 1.1.2 1.4.6.4.4.6.9.6 1.6v1.4c0 .6-.2 1.1-.6 1.5-.4.4-.9.7-1.5.7h-2c-.5 0-1.2-.1-1.9-.4-.7-.3-1.3-.7-1.7-1.1l-2.4-2.3c-.4-.4-.9-.6-1.5-.7-.6 0-1.1.2-1.6.7l-2.7 2.4c-.4.4-1 .8-1.7 1.1-.7.3-1.4.4-2 .4h-1.4c-.6 0-1.1-.2-1.5-.7-.4-.4-.6-.9-.6-1.5v-1.4c0-.6.2-1.1.6-1.6.4-.4.9-.6 1.4-.6.6 0 1.2-.1 1.9-.4.7-.3 1.3-.6 1.7-1l.4-.4c.4-.4.6-.9.6-1.5s-.2-1.1-.6-1.5l-3.8-3.6c-.4-.4-.8-1-1-1.7-.3-.7-.4-1.4-.4-1.9v-5.3c0-.6.2-1.1.6-1.5.4-.4.9-.6 1.5-.6h1.4c.6 0 1.1.2 1.5.6.4.4.6.9.6 1.5v2.5c0 .6.2 1.2.5 1.9s.7 1.3 1.1 1.7l2.3 2.3c.4.5 1 .7 1.5.7s1.1-.2 1.6-.6l2.4-2.4c.4-.4.8-1 1.1-1.7.3-.7.4-1.4.4-1.9V21c0-.6-.2-1.1-.6-1.5-.4-.4-.9-.6-1.5-.6h-14.8c-.6 0-1.1.2-1.6.6-.4.4-.6.9-.6 1.5v23.9c0 .6-.2 1.1-.6 1.5-.2.2-.7.5-1.4.5zm4.4-47.6c-.6 0-1.1.2-1.6.7-.4.4-.6.9-.6 1.5v9.4c0 .6.2 1.1.6 1.5.4.4 1 .6 1.6.6h4.3c.6 0 1.1-.2 1.5-.6.4-.4.6-.9.6-1.5V1.5c0-.6-.2-1.1-.6-1.5-.4-.4-.9-.7-1.5-.7h-4.3zM352.5-8.8c0-.3.2-.6.6-.8.4-.2.9-.3 1.5-.3h1.5c.6 0 1.1.2 1.5.5.4.4.6.8.6 1.3s-.1 1-.4 1.6c-.3.6-.6 1.1-1 1.5l-1.5 1.6c-.4.4-1 .8-1.7 1.1-.7.3-1.4.5-1.9.5h-31.9c-.6 0-1.1-.2-1.5-.7-.4-.4-.6-.9-.6-1.5v-1.4c0-.6.2-1.1.6-1.5.4-.4.9-.6 1.5-.6h30.7c.6 0 1.1-.1 1.5-.4.3-.3.5-.6.5-.9zm2.2 14.7c-.6 0-1.1.2-1.5.6-.4.4-.6.9-.6 1.5v2.8c0 .6.2 1.1.6 1.5.4.4.9.6 1.5.6h1.4c.6 0 1.1.2 1.5.6.4.4.6.9.6 1.5v1.4c0 .6-.2 1.1-.6 1.5-.4.4-.9.7-1.5.7h-36.5c-.6 0-1.1-.2-1.5-.7-.4-.4-.6-.9-.6-1.5V15c0-.6.2-1.1.6-1.5.4-.4.9-.6 1.5-.6h1.4c.6 0 1.1-.2 1.5-.6.4-.4.6-.9.6-1.5V8c0-.6-.2-1.1-.6-1.5-.4-.4-.9-.6-1.5-.6h-1.4c-.6 0-1.1-.2-1.5-.6-.4-.4-.6-.9-.6-1.5V2.4c0-.6.2-1.1.6-1.5.4-.4.9-.6 1.5-.6h36.5c.6 0 1.1.2 1.5.6.4.4.6.9.6 1.5v1.4c0 .6-.2 1.1-.6 1.5-.4.4-.9.6-1.5.6h-1.4zm3.5 34.3c0 .6-.1 1.2-.4 2-.3.7-.6 1.3-1 1.6l-1.5 1.6c-.4.5-1 .8-1.7 1.1-.7.3-1.4.4-1.9.4h-31.9c-.6 0-1.1-.2-1.5-.7-.4-.4-.6-.9-.6-1.5V23c0-.6.2-1.1.6-1.5.4-.4.9-.6 1.5-.6h36.5c.6 0 1.1.2 1.5.6.4.4.6.9.6 1.5v17.2zm-32.8-13.6c-.6 0-1.1.2-1.5.6-.4.4-.6.9-.6 1.5l-.1.2c0 .6.2 1.1.6 1.5.4.4.9.6 1.5.6h25c.6 0 1.1-.2 1.5-.6.4-.4.6-.9.6-1.5v-.2c0-.6-.2-1.1-.6-1.5-.4-.4-.9-.6-1.5-.6h-24.9zm24.9 14.6c.6 0 1.1-.2 1.5-.6.4-.4.6-.9.6-1.5v-.2c0-.6-.2-1.1-.6-1.5-.4-.4-.9-.6-1.5-.6h-25c-.6 0-1.1.2-1.5.6-.4.4-.6.9-.6 1.5l-.1.2c0 .6.2 1.1.6 1.5.4.4.9.6 1.5.6h25.1zM346.9 8c0-.6-.2-1.1-.6-1.5-.4-.4-.9-.6-1.5-.6H331c-.6 0-1.1.2-1.5.6-.3.4-.5.9-.5 1.5v2.8c0 .6.2 1.1.6 1.5.4.4.9.6 1.5.6h13.7c.6 0 1.1-.2 1.5-.6.4-.4.6-.9.6-1.5V8zM365.6-4.5c0-.6.2-1.1.6-1.5.4-.5.9-.7 1.5-.7h30.9c.6 0 1.1-.1 1.5-.4.4-.3.6-.7.6-1.1 0-.5.2-.8.6-1.1.4-.3.9-.5 1.6-.5h1.4c.6 0 1.1.2 1.5.6.4.4.6.9.6 1.5v.1c0 .6-.1 1.3-.4 2-.3.7-.6 1.3-1 1.8l-1.5 1.5c-.4.4-1 .8-1.7 1.1-.8 0-1.4.2-2 .2h-7.5c-.6 0-1.1.2-1.5.7-.4.4-.6.9-.6 1.5V13c0 .6.2 1.1.6 1.5.4.4.9.6 1.5.6h12.1c.6 0 1.1.2 1.5.6.4.4.6.9.6 1.5v1.5c0 .6-.2 1.1-.6 1.5-.4.4-.9.7-1.5.7h-12.1c-.6 0-1.1.2-1.5.6-.4.4-.6.9-.6 1.5v17.1c0 .6-.1 1.2-.4 2-.3.7-.7 1.3-1.1 1.6l-1.4 1.6c-.4.5-1 .8-1.7 1.1-.7.3-1.4.4-1.9.4h-3.3c-.6 0-1.1-.2-1.5-.7-.4-.4-.6-.9-.6-1.5v-1.4c0-.6.2-1.1.6-1.5.4-.4.9-.6 1.5-.6h2.1c.6 0 1.1-.2 1.5-.6.4-.4.6-.9.6-1.5V23.1c0-.6-.2-1.1-.6-1.5-.4-.4-.9-.6-1.5-.6h-10c-.6 0-1.2-.2-1.9-.5s-1.3-.7-1.7-1.1l-1.6-1.5c-.4-.4-.8-1-1-1.7-.3-.7-.4-1.4-.4-2V-4.5zm8.4 44.7c0 .6-.1 1.2-.4 2-.3.7-.6 1.3-1 1.6l-1.5 1.6c-.5.5-1 .8-1.7 1.1-.7.3-1.3.4-1.8.4-.6 0-1-.2-1.4-.7-.4-.4-.5-.9-.5-1.5v-1.4c0-.6.1-1.1.4-1.5.3-.4.6-.6.9-.6.3 0 .6-.2.9-.6.3-.4.4-.9.4-1.5V28c0-.6.2-1.1.6-1.5.4-.4.9-.6 1.5-.6h1.4c.6 0 1.1.2 1.5.6.4.4.6.9.6 1.5v12.2zm10.4-39.1c0-.6-.2-1.1-.6-1.5-.4-.4-.9-.7-1.5-.7h-8.8c-.6 0-1.1.2-1.5.7-.4.4-.6.9-.6 1.5V13c0 .6.2 1.1.6 1.5.4.4.9.6 1.5.6h8.8c.6 0 1.1-.2 1.5-.6.4-.4.6-.9.6-1.5V1.1zm17.3 24.7c.6 0 1.1.2 1.5.6.4.4.6.9.6 1.5v11c0 .6.1 1.1.4 1.5.3.4.6.6.9.6.3 0 .6.2.9.6.3.4.4.9.4 1.5v1.4c0 .6-.2 1.1-.5 1.5s-.8.7-1.4.7c-.5 0-1.1-.1-1.8-.4-.7-.3-1.2-.7-1.5-1.1l-1.6-1.6a5 5 0 0 1-1.1-1.6c-.3-.7-.4-1.4-.4-2V28c0-.6.2-1.1.6-1.5.4-.4.9-.6 1.5-.6h1.5zM423-7.2c0 .6.2 1.1.6 1.5.4.4.9.7 1.5.7h17.4c.6 0 1.1-.2 1.5-.7s.6-.9.6-1.5v-.7c0-.6.2-1.1.6-1.5.4-.4.9-.6 1.5-.6h1.4c.6 0 1.1.2 1.5.6.4.4.6.9.6 1.5v.7c0 .6.2 1.1.6 1.5.4.4.8.7 1.3.7.6 0 1.1.2 1.4.7.4.4.6.9.6 1.5v1.3c0 .6-.2 1.1-.6 1.5-.4.4-.9.6-1.4.6-.5 0-.9.2-1.3.7-.4.4-.6 1-.6 1.6v.2c0 .6-.2 1.1-.6 1.5-.4.4-.9.6-1.5.6h-1.4c-.6 0-1.1-.2-1.5-.6-.4-.4-.6-.9-.6-1.5v-.2c0-.6-.2-1.1-.6-1.6s-.9-.7-1.5-.7h-17.4c-.6 0-1.1.2-1.5.7-.4.4-.6 1-.6 1.6v.2c0 .6-.2 1.1-.6 1.5-.4.4-.9.6-1.5.6h-1.3c-.6 0-1.1-.2-1.6-.6-.4-.4-.6-.9-.6-1.5v-.2c0-.6-.2-1.1-.5-1.6-.3-.4-.7-.7-1.2-.7-.6 0-1-.2-1.4-.6-.3-.4-.5-.9-.5-1.5v-1.3c0-.6.2-1.1.5-1.5.3-.4.8-.7 1.4-.7.5 0 .9-.2 1.2-.7.3-.4.5-.9.5-1.5v-.7c0-.6.2-1.1.6-1.5.4-.4 1-.6 1.6-.6h1.3c.6 0 1.1.2 1.5.6.4.4.6.9.6 1.5v.7zm23.3 43c.6 0 1.1-.2 1.5-.6.4-.4.6-1 .6-1.6V18.4c0-.6-.2-1.1-.6-1.5-.4-.4-.9-.6-1.5-.6h-11.9c-.6 0-1.1.2-1.5.7-.4.4-.6.9-.6 1.5v26.4c0 .6-.2 1.1-.6 1.5-.4.4-.9.7-1.5.7h-1.4c-.6 0-1.1-.2-1.5-.7-.4-.4-.6-.9-.6-1.5V18.4c0-.6-.2-1.1-.6-1.5-.4-.4-.9-.7-1.5-.7h-8.7c-.6 0-1.1-.2-1.5-.6-.4-.4-.6-.9-.6-1.5v-1.4c0-.6.2-1.1.6-1.5.4-.4.9-.7 1.5-.7H452c.6 0 1.1.2 1.5.7.4.4.6.9.6 1.5v22.2c0 .6-.1 1.3-.4 2-.3.7-.7 1.3-1.1 1.7l-1.5 1.4c-.4.5-1 .8-1.7 1.1-.7.3-1.4.5-1.9.5h-5.1c-.6 0-1.1-.2-1.5-.7-.4-.4-.6-1-.6-1.6V38c0-.6.2-1.1.6-1.6.4-.4.9-.6 1.5-.6h3.9zM461.7 43.3c0-.6.1-1.1.4-1.6.3-.4.6-.6.9-.6.4 0 .8-.2 1-.6.3-.4.4-.9.4-1.5V-1.8c0-.6.2-1.1.6-1.5.4-.4.9-.7 1.5-.7h17.3c.6 0 1.1-.2 1.5-.6.4-.4.7-.9.7-1.5v-1.8c0-.6.2-1.1.6-1.5.4-.4.9-.6 1.5-.6h1.4c.6 0 1.1.2 1.5.6.5.4.7.9.7 1.5V-6c0 .6.2 1.1.6 1.5.4.4.9.6 1.4.6h.6c.6 0 1.1-.2 1.5-.5.4-.3.6-.8.6-1.4s.2-1 .6-1.4c.4-.4.9-.6 1.5-.6h1.3c.6 0 1.1.2 1.5.7.4.4.6.9.6 1.5v5.4c0 .6-.2 1.1-.6 1.5-.4.4-.9.6-1.5.6h-6.1c-.6 0-1 .2-1.4.7-.4.4-.6.9-.6 1.5v22.8c0 .6.2 1.1.6 1.5.4.5.9.7 1.4.7h.6c.6 0 1.1-.2 1.5-.7.4-.5.6-1 .6-1.5V7.4c0-.6.2-1.1.6-1.5.4-.5.9-.7 1.5-.7h1.3c.6 0 1.1.2 1.5.7.4.5.6 1 .6 1.5v25.1c0 .6-.2 1.1-.6 1.5-.4.4-.9.7-1.5.7h-6.1c-.6 0-1 .2-1.4.6-.4.4-.6.9-.6 1.5V39c0 .6.2 1.1.6 1.5.4.4.9.6 1.4.6h6.1c.6 0 1.1.2 1.5.6.4.4.6.9.6 1.6v1.4c0 .6-.2 1.1-.6 1.5-.4.4-.9.7-1.5.7H488c-.6 0-1.1-.2-1.5-.7-.4-.4-.6-.9-.6-1.5V4c0-.6-.2-1.1-.7-1.5-.4-.4-1-.7-1.5-.7h-11.6c-.6 0-1.1.2-1.5.6-.4.4-.6.9-.6 1.5V7c0 .6.2 1.1.6 1.5.4.4.9.6 1.5.6h7.3c.6 0 1.1.2 1.5.6.4.4.6.9.6 1.6v33.3c0 .6-.2 1.1-.6 1.5-.4.4-.9.7-1.5.7h-4.8c-.6 0-1.1-.2-1.5-.7-.4-.4-.6-1-.6-1.5v-1.4c0-.6.2-1.1.5-1.6.3-.4.7-.6 1.1-.6.4 0 .8-.2 1.2-.6.3-.4.5-.9.5-1.5V17.1c0-.6-.2-1.1-.6-1.5-.4-.4-.9-.6-1.5-.6H472c-.6 0-1.1.2-1.5.6-.4.4-.6.9-.6 1.5v27.6c0 .6-.2 1.1-.6 1.5-.4.4-.9.7-1.5.7h-4.3c-.6 0-1-.2-1.4-.7-.4-.4-.6-1-.6-1.5v-1.4zM509.8-5.4c0-.6.2-1.1.6-1.5.4-.4.9-.6 1.5-.6h4.5c.6 0 1.1-.1 1.5-.4.4-.2.6-.5.6-.9 0-.3.2-.6.6-.9.4-.2.9-.4 1.6-.4h1.3c.6 0 1.1.1 1.5.4.4.2.6.5.6.9 0 .3.2.6.6.9.4.2.9.4 1.5.4h5.1c.6 0 1.1.2 1.6.6.4.4.6.9.6 1.5V-4c0 .6-.2 1.1-.6 1.5-.4.4-1 .7-1.6.7h-5.1c-.6 0-1.1.2-1.5.7-.4.4-.6.9-.6 1.5v4.8c0 .6.1 1.1.4 1.5.3.4.6.7 1 .7s.7-.2 1-.7c.3-.4.4-.9.4-1.5V4c0-.6.2-1.1.6-1.6.4-.4.9-.7 1.5-.7h.9c.6 0 1.1.2 1.5.7.4.4.6 1 .6 1.6v1.2c0 .6.1 1.1.2 1.5.1.4.3.7.5.7s.4.2.5.7c.1.4.2.9.2 1.5V11c0 .6-.2 1.1-.6 1.6-.4.4-1 .7-1.6.7h-11.9c-.6 0-1.1.2-1.5.5-.4.4-.6.8-.6 1.4 0 .6.2 1 .6 1.4s.9.6 1.5.6h12.2c.4 0 .8.2 1.1.7.3.4.5.9.5 1.5v25.5c0 .6-.2 1.1-.6 1.5-.4.4-.9.7-1.5.7h-17.4c-.6 0-1.1-.2-1.5-.7-.4-.4-.6-.9-.6-1.5v-17c0-.6-.1-1.1-.3-1.5-.2-.4-.4-.7-.7-.7-.3 0-.5-.2-.7-.6-.2-.4-.3-.9-.3-1.5v-1.4c0-.6.1-1.1.3-1.6.2-.4.4-.7.7-.7.7 0 1-.1 1-.2v-4.5c0-.6-.1-1.1-.3-1.5-.2-.4-.4-.6-.7-.6-.3 0-.5-.2-.7-.7-.2-.4-.3-1-.3-1.6V9.5c0-.6.2-1.1.6-1.5.4-.4.9-.7 1.5-.7h4.5c.6 0 1.1-.2 1.5-.7.4-.4.6-.9.6-1.5V.4c0-.6-.2-1.1-.6-1.5-.4-.4-.9-.7-1.5-.7h-4.5c-.6 0-1.1-.2-1.5-.7-.4-.4-.6-.9-.6-1.5v-1.4zm17.9 30.5c0-.6-.2-1.1-.6-1.6-.4-.4-.9-.7-1.5-.7h-5.9c-.6 0-1.1.2-1.5.7-.4.4-.6 1-.6 1.6v1.5c0 .6.2 1.1.6 1.5.4.4.9.6 1.5.6h5.9c.6 0 1.1-.2 1.5-.6.4-.4.6-.9.6-1.5v-1.5zm-2.2 16.1c.6 0 1.1-.2 1.5-.6.4-.4.6-.9.6-1.5v-2.3c0-.6-.2-1.1-.6-1.5-.4-.4-.9-.6-1.5-.6h-5.9c-.6 0-1.1.2-1.5.6-.4.4-.6.9-.6 1.5V39c0 .6.2 1.1.6 1.5.4.4.9.6 1.5.6h5.9zm25.1-29.8c0 .6-.1 1.2-.4 1.9-.3.7-.6 1.2-.9 1.6-.4.4-.6.8-.6 1.3s.2 1 .6 1.3c.3.3.6.8.9 1.5.3.7.4 1.3.4 1.9v21.3c0 .6-.2 1.1-.6 1.5-.4.4-.9.7-1.5.7h-5.4c-.6 0-1.1.1-1.5.4-.4.2-.6.5-.6.9 0 .3-.2.6-.6.9-.4.2-.9.4-1.5.4h-1.4c-.6 0-1.1-.2-1.5-.7-.4-.4-.6-.9-.6-1.5V-7.9c0-.6.2-1.1.6-1.5s.9-.6 1.5-.6h11.1c.6 0 1.1.2 1.5.6.4.4.6.9.6 1.5v19.3zm-7.6 2.1c.6 0 1-.2 1.4-.6.4-.4.5-.9.5-1.5V-2.1c0-.6-.2-1.1-.5-1.5-.4-.4-.8-.6-1.4-.6-.6 0-1 .2-1.4.7-.4.4-.6.9-.6 1.5v13.4c0 .6.2 1.1.6 1.5.4.4.8.6 1.4.6zm1.9 7.8c0-.6-.2-1.1-.5-1.5-.4-.4-.8-.6-1.4-.6-.6 0-1 .2-1.4.6-.4.4-.6.9-.6 1.5v15.2c0 .6.2 1.1.6 1.5.4.4.9.6 1.4.6.6 0 1-.2 1.4-.6.4-.4.5-.9.5-1.5V21.3zM577.7-8.5c0 .4-.1.9-.4 1.5-.3.6-.7 1.1-1.1 1.5L574.6-4c-.4.4-1 .7-1.7 1-.7.3-1.4.5-1.9.5h-11.1c-.6 0-1.1-.2-1.5-.6-.4-.4-.6-.9-.6-1.5V-6c0-.6.2-1.1.6-1.5.4-.4.9-.6 1.5-.6h10c.6 0 1.1-.1 1.5-.2.4-.2.6-.4.6-.6 0-.2.2-.5.6-.6.4-.2.9-.2 1.5-.2h1.3c.6 0 1.1.1 1.6.4.5.1.7.4.7.8zM557.8 2.9c0-.6.2-1.1.6-1.5.4-.4.9-.6 1.5-.6h15.5c.6 0 1.1.2 1.6.6.4.4.6.9.6 1.5v1.4c0 .6-.2 1.1-.6 1.5-.4.4-.9.7-1.6.7h-15.5c-.6 0-1.1-.2-1.5-.7-.4-.4-.6-.9-.6-1.5V2.9zm0 40.3c0-.6.2-1.1.6-1.5.4-.4.9-.6 1.5-.6h15.5c.6 0 1.1.2 1.6.6.4.4.6.9.6 1.5v1.5c0 .6-.2 1.1-.6 1.5-.4.4-.9.7-1.6.7h-15.5c-.6 0-1.1-.2-1.5-.7-.4-.4-.6-.9-.6-1.5v-1.5zm4.5-33.5c.6 0 1.1.2 1.5.6.4.4.6.9.6 1.5v18.3c0 .6.1 1.1.2 1.6.1.4.3.7.5.7h1c.1 0 .2.2.2.6 0 .4.1.9.1 1.5v1.4c0 .6-.2 1.1-.5 1.6-.3.4-.7.7-1.1.7-.4 0-.9-.2-1.5-.5s-1.1-.7-1.5-1.1l-1.5-1.5c-.5-.5-.8-1-1.1-1.8-.3-.7-.4-1.4-.4-2V11.9c0-.6.2-1.1.6-1.5.4-.4.9-.6 1.5-.6h1.4zm8 22.7c.2 0 .4-.2.5-.7.1-.4.2-1 .2-1.6V11.9c0-.6.2-1.1.6-1.5.4-.4.9-.6 1.6-.6h1.3c.6 0 1.1.2 1.5.6.4.4.6.9.6 1.5v19.4c0 .6-.1 1.2-.4 2-.3.7-.7 1.3-1.1 1.8l-1.5 1.5c-.5.5-1 .8-1.6 1.1-.6.3-1.1.5-1.6.5-.4 0-.8-.2-1.1-.7-.3-.4-.5-1-.5-1.6v-1.4c0-.6 0-1.1.1-1.5.1-.4.1-.6.2-.6h1.2zm21.4-29.7c-.6 0-1.1.2-1.5.7-.4.4-.6.9-.6 1.5v5c0 .6.2 1.1.6 1.5.4.4.9.6 1.5.6h4.8c.6 0 1.1.2 1.5.7.4.4.6 1 .6 1.6v25.9c0 .6-.1 1.2-.4 2-.3.7-.7 1.3-1.1 1.6l-1.4 1.5c-.4.5-1 .8-1.7 1.1-.7.3-1.4.4-1.9.4h-11c-.6 0-1.1-.2-1.5-.7-.4-.4-.6-.9-.6-1.5V14.3c0-.6.2-1.1.6-1.6.4-.4.9-.7 1.5-.7h.7c.6 0 1.1-.2 1.5-.6.4-.4.6-.9.6-1.5V-7.7c0-.6.2-1.1.6-1.5s.9-.7 1.5-.7h1.3c.6 0 1.1.2 1.6.6.4.4.6.9.6 1.5v2.5c0 .6.2 1.1.6 1.5.4.4.9.6 1.5.6h4.8c.6 0 1.1.2 1.5.6.4.4.6.9.6 1.6V.4c0 .6-.2 1.1-.6 1.5-.4.4-.9.6-1.5.6h-4.7zm1.2 17.2c0-.6-.2-1.1-.6-1.5-.4-.4-.9-.6-1.5-.6h-4.1c-.6 0-1.1.2-1.5.6-.4.4-.7.9-.7 1.5V39c0 .6.2 1.1.7 1.5.4.4 1 .6 1.5.6h4.1c.6 0 1.1-.2 1.5-.6.4-.4.6-.9.6-1.5V19.9zM221.1 112.1c0-.6.1-1 .3-1.4.2-.4.5-.6.8-.6.4 0 .7-.2.9-.5.2-.4.3-.8.3-1.4V72.4c0-.5.2-1 .5-1.3.4-.4.8-.6 1.3-.6h15.2c.5 0 1-.2 1.4-.5.4-.4.6-.8.6-1.3V67c0-.5.2-.9.5-1.3.4-.4.8-.5 1.3-.5h1.2c.5 0 1 .2 1.4.5.4.4.6.8.6 1.3v1.6c0 .5.2.9.5 1.3s.8.5 1.2.5h.5c.5 0 .9-.2 1.3-.5s.6-.7.6-1.2.2-.9.5-1.3.8-.5 1.3-.5h1.2c.5 0 1 .2 1.3.6.4.4.5.8.5 1.3v4.7c0 .5-.2.9-.5 1.3-.4.4-.8.5-1.3.5h-5.4c-.5 0-.9.2-1.3.6s-.5.8-.5 1.3v20.1c0 .5.2 1 .5 1.4.3.4.8.6 1.2.6h.5c.5 0 .9-.2 1.3-.6.4-.4.6-.9.6-1.4V80.5c0-.5.2-1 .5-1.4.4-.4.8-.6 1.3-.6h1.2c.5 0 1 .2 1.3.6.4.4.5.9.5 1.4v22.1c0 .5-.2 1-.5 1.3-.4.4-.8.6-1.3.6H249c-.5 0-.9.2-1.3.5-.3.4-.5.8-.5 1.3v2c0 .5.2 1 .5 1.3.3.4.8.5 1.3.5h5.4c.5 0 1 .2 1.3.6.4.4.5.8.5 1.4v1.2c0 .5-.2 1-.5 1.3-.4.4-.8.6-1.3.6h-10.3c-.5 0-.9-.2-1.3-.6-.4-.4-.5-.8-.5-1.3V77.5c0-.5-.2-1-.6-1.3s-.8-.6-1.3-.6h-10.2c-.5 0-.9.2-1.3.6-.4.4-.5.8-.5 1.3v2.8c0 .5.2.9.5 1.3.4.4.8.6 1.3.6h6.5c.5 0 .9.2 1.3.5.4.4.6.8.6 1.4v29.3c0 .5-.2 1-.6 1.3-.4.4-.8.6-1.3.6h-4.2c-.5 0-.9-.2-1.3-.6-.4-.4-.5-.8-.5-1.3v-1.2c0-.6.1-1 .4-1.4.3-.4.6-.6 1-.6s.7-.2 1-.5c.3-.4.4-.8.4-1.4V89c0-.5-.2-.9-.5-1.3-.4-.4-.8-.5-1.3-.5h-1.5c-.5 0-.9.2-1.3.5-.4.4-.5.8-.5 1.3v24.3c0 .5-.2 1-.5 1.3-.4.4-.8.6-1.3.6h-3.8c-.5 0-.9-.2-1.2-.6-.3-.4-.5-.8-.5-1.3v-1.2zM263.4 69.2c0-.5.2-1 .5-1.3.4-.4.8-.6 1.3-.6h4c.5 0 1-.1 1.3-.3.4-.2.5-.5.5-.8 0-.3.2-.5.6-.8.4-.2.8-.3 1.4-.3h1.2c.5 0 .9.1 1.3.3.4.2.6.5.6.8 0 .3.2.5.6.8.4.2.8.3 1.3.3h4.4c.5 0 1 .2 1.4.6.4.4.6.8.6 1.3v1.3c0 .5-.2 1-.6 1.3-.4.4-.8.6-1.4.6H278c-.5 0-.9.2-1.3.6-.4.4-.6.8-.6 1.3v4.2c0 .5.1 1 .4 1.3.3.4.6.6.9.6.3 0 .6-.2.9-.6.3-.4.4-.8.4-1.3v-1c0-.5.2-1 .6-1.4.4-.4.8-.6 1.3-.6h.8c.5 0 .9.2 1.3.6s.5.8.5 1.4v1c0 .5.1 1 .2 1.3.1.4.3.6.5.6s.3.2.4.6c.1.4.2.8.2 1.3v1.2c0 .5-.2 1-.6 1.4-.4.4-.8.6-1.4.6H272c-.5 0-.9.2-1.3.5s-.6.7-.6 1.2.2.9.6 1.3c.4.3.8.5 1.3.5h10.7c.4 0 .7.2 1 .6.3.4.4.8.4 1.3v22.4c0 .5-.2 1-.5 1.3-.4.4-.8.6-1.3.6H267c-.5 0-.9-.2-1.3-.6-.4-.4-.6-.8-.6-1.3V98.5c0-.5-.1-1-.2-1.3s-.4-.6-.7-.6c-.2 0-.4-.2-.6-.5-.2-.4-.2-.8-.2-1.4v-1.2c0-.5.1-1 .2-1.4.2-.4.4-.6.6-.6.6 0 .9-.1.9-.2v-3.9c0-.5-.1-1-.2-1.4-.2-.4-.4-.5-.7-.5-.2 0-.4-.2-.6-.6-.2-.4-.2-.8-.2-1.4v-1.2c0-.5.2-1 .5-1.3.4-.4.8-.6 1.3-.6h4c.5 0 1-.2 1.3-.6.4-.4.5-.8.5-1.3v-4.2c0-.5-.2-1-.5-1.3s-.8-.6-1.3-.6h-4c-.5 0-.9-.2-1.3-.6-.4-.4-.5-.8-.5-1.3v-1.3zM279.1 96c0-.5-.2-1-.5-1.4-.4-.4-.8-.6-1.3-.6H272c-.5 0-.9.2-1.3.6-.4.4-.6.8-.6 1.4v1.4c0 .5.2 1 .6 1.4.4.4.8.5 1.3.5h5.2c.5 0 1-.2 1.3-.5.4-.4.5-.8.5-1.4V96zm-1.8 14.2c.5 0 1-.2 1.3-.5.4-.4.5-.8.5-1.4v-2c0-.5-.2-1-.5-1.4-.4-.4-.8-.5-1.3-.5H272c-.5 0-.9.2-1.3.5-.4.4-.6.8-.6 1.4v2c0 .5.2 1 .6 1.4.4.4.8.5 1.3.5h5.3zm22-26.2c0 .5-.1 1.1-.4 1.7-.3.6-.5 1.1-.8 1.4-.3.3-.5.7-.5 1.2s.2.8.5 1.2c.3.3.6.7.8 1.3.3.6.4 1.2.4 1.7v18.8c0 .5-.2 1-.5 1.3-.4.4-.8.6-1.3.6h-4.8c-.5 0-.9.1-1.3.3-.4.2-.6.5-.6.8 0 .3-.2.5-.5.8-.4.2-.8.3-1.3.3h-1.3c-.5 0-1-.2-1.4-.6-.4-.4-.5-.8-.5-1.3V67c0-.5.2-.9.5-1.3.4-.4.8-.5 1.3-.5h9.7c.5 0 .9.2 1.3.5.4.4.5.8.5 1.3v17zm-6.7 1.8c.5 0 .9-.2 1.2-.5.3-.4.5-.8.5-1.4V72.1c0-.5-.2-1-.5-1.3-.3-.4-.7-.6-1.2-.6s-.9.2-1.2.6c-.3.4-.5.8-.5 1.3v11.8c0 .5.2 1 .5 1.4.3.3.7.5 1.2.5zm1.7 6.9c0-.5-.2-.9-.5-1.3s-.7-.5-1.2-.5-.9.2-1.2.5c-.3.4-.5.8-.5 1.3v13.4c0 .5.2 1 .5 1.4.3.4.8.5 1.2.5.5 0 .9-.2 1.2-.5.3-.4.5-.8.5-1.4V92.7zM341.6 113.3c0 .5-.2 1-.5 1.3-.4.4-.8.6-1.3.6h-32.3c-.5 0-.9-.2-1.3-.6-.4-.4-.5-.8-.5-1.3V67c0-.5.2-.9.5-1.3.4-.4.8-.5 1.3-.5h32.3c.5 0 .9.2 1.3.5.4.4.5.8.5 1.3v46.3zm-5-41.2c0-.5-.2-1-.5-1.3-.4-.4-.8-.6-1.3-.6h-22.1c-.5 0-1 .2-1.3.6-.4.4-.5.8-.5 1.3v36.1c0 .5.2 1 .5 1.4.4.4.8.5 1.3.5h22.1c.5 0 1-.2 1.3-.5.4-.4.5-.8.5-1.4V72.1zm-1.9 33.2c0 .5-.2 1-.6 1.3s-.8.6-1.3.6h-18.3c-.5 0-.9-.2-1.3-.6-.4-.4-.6-.8-.6-1.3V104c0-.5.2-1 .6-1.3.4-.4.8-.6 1.3-.6h4.7c.5 0 1-.2 1.3-.5.4-.4.6-.8.6-1.4V94c0-.5-.2-1-.6-1.3-.4-.4-.8-.6-1.3-.6h-4.7c-.5 0-.9-.2-1.3-.6-.4-.4-.6-.8-.6-1.3V89c0-.5.2-1 .6-1.4.4-.4.8-.6 1.3-.6h4.7c.5 0 1-.2 1.3-.6.4-.4.6-.8.6-1.4v-4.4c0-.5-.2-.9-.6-1.3-.4-.4-.8-.5-1.3-.5h-4.7c-.5 0-.9-.2-1.3-.6-.4-.4-.6-.8-.6-1.3v-1.3c0-.5.2-1 .6-1.4.4-.4.8-.5 1.3-.5h18.3c.5 0 .9.2 1.3.5.4.4.6.8.6 1.4v1.3c0 .5-.2 1-.6 1.3-.4.4-.8.6-1.3.6h-4.7c-.5 0-.9.2-1.3.5-.4.4-.6.8-.6 1.3V85c0 .5.2 1 .6 1.4.4.4.8.6 1.3.6h4.7c.5 0 .9.2 1.3.6.4.4.6.9.6 1.4v1.2c0 .5-.2 1-.6 1.3-.4.4-.8.6-1.3.6h-4.7c-.5 0-.9.2-1.3.6-.4.4-.6.8-.6 1.3v6.2c0 .5.2 1 .5 1.4.3.4.7.5 1.2.5s.9-.2 1.2-.5c.3-.4.5-.8.5-1.4V98c0-.5.2-1 .5-1.3.4-.4.8-.6 1.4-.6h1.2c.5 0 1 .2 1.3.6.4.4.6.8.6 1.3v7.3zM361 84c0 .5-.1 1.1-.3 1.7-.2.6-.4 1.1-.7 1.4-.3.3-.4.7-.4 1.1 0 .5.1.8.4 1.2.3.3.5.7.7 1.4.2.6.3 1.2.3 1.7V106c0 .5-.1 1.1-.4 1.7-.3.6-.6 1.1-1 1.4l-1.3 1.4c-.3.4-.8.7-1.4 1-.6.3-1.2.4-1.7.4h-.3c-.5 0-1 .2-1.3.5-.4.3-.5.7-.5 1.2s-.2.9-.5 1.2c-.4.3-.8.5-1.3.5H350c-.5 0-.9-.2-1.3-.6-.4-.4-.5-.8-.5-1.3V67c0-.5.2-.9.5-1.3.4-.4.8-.5 1.3-.5h9.2c.5 0 1 .2 1.4.5.4.4.6.8.6 1.3v17zm-8-.1c0 .5.1 1 .4 1.4.3.4.6.5 1 .5s.7-.2 1.1-.5c.3-.4.5-.8.5-1.4V72.1c0-.5-.2-1-.5-1.3s-.7-.6-1.1-.6c-.4 0-.7.2-1 .6-.3.4-.4.8-.4 1.3v11.8zm3 8.8c0-.5-.2-.9-.5-1.3s-.7-.5-1.1-.5c-.4 0-.7.2-1 .5-.3.4-.4.8-.4 1.3v12.2c0 .5.1 1 .4 1.3.3.4.6.6 1 .6s.8-.2 1.1-.6c.3-.4.5-.8.5-1.3V92.7zm6.6-25.7c0-.5.2-1 .5-1.3.4-.4.8-.6 1.3-.6h17.7c.5 0 .9.2 1.3.6.4.4.5.8.5 1.3v1.3c0 .6-.2 1-.5 1.4-.4.4-.8.6-1.3.6h-17.7c-.5 0-.9-.2-1.3-.6-.4-.4-.5-.8-.5-1.4V67zm0 13.3c0-.5.2-1 .5-1.3.4-.4.8-.5 1.3-.5h17.7c.5 0 .9.2 1.3.5.4.4.5.8.5 1.3v1.2c0 .5-.2 1-.5 1.3-.4.4-.8.6-1.3.6h-4.7c-.5 0-.9.2-1.3.5-.4.4-.6.8-.6 1.3v24c0 .5-.1 1.1-.3 1.7-.2.7-.5 1.2-.9 1.6l-1 1.1c-.4.4-.8.7-1.2 1-.5.3-.8.4-1.1.4-.3 0-.6-.2-.8-.6-.2-.4-.3-.8-.3-1.3v-1.3c0-.5.1-1 .2-1.4.1-.4.3-.5.5-.5s.3-.2.4-.5c.1-.4.2-.8.2-1.4V85.3c0-.5-.2-.9-.5-1.3-.4-.4-.8-.5-1.3-.5h-4.7c-.5 0-.9-.2-1.3-.6-.4-.4-.5-.8-.5-1.3v-1.3zm0 31.8c0-.5.1-1 .2-1.4.1-.4.3-.5.4-.5.2 0 .3-.2.5-.5.1-.4.2-.8.2-1.4V89c0-.5.2-1 .6-1.3.4-.4.8-.6 1.3-.6h1.3c.5 0 .9.2 1.3.6.4.4.6.8.6 1.3v20.3c0 .5-.1 1.1-.3 1.7-.2.7-.5 1.2-.9 1.6l-1 1.1c-.3.4-.7.7-1.3 1-.5.3-1 .4-1.4.4-.4 0-.7-.2-1-.6-.3-.4-.4-.8-.4-1.3v-1.1zm18.1-25c.5 0 1 .2 1.3.6.4.4.5.8.5 1.3v19.2c0 .5.1 1 .2 1.4.1.4.3.5.5.5s.3.2.4.5c.1.4.2.8.2 1.4v1.3c0 .5-.1 1-.4 1.3s-.6.6-1 .6c-.3 0-.7-.1-1.3-.4-.5-.3-1-.6-1.3-1l-1-1.1c-.4-.4-.7-.9-.9-1.6-.2-.7-.4-1.2-.4-1.7V89c0-.5.2-1 .6-1.3.4-.4.8-.6 1.3-.6h1.3zM398.1 106.2c.5 0 1-.2 1.3-.6.4-.4.5-.8.5-1.3v-9.8c0-.5-.2-1-.5-1.4-.4-.4-.8-.6-1.3-.6h-6c-.5 0-.9-.2-1.3-.6-.4-.4-.5-.8-.5-1.3v-1.2c0-.5.2-1 .5-1.4.4-.4.8-.6 1.3-.6h6c.5 0 1-.2 1.3-.5.4-.4.5-.8.5-1.3v-9.8c0-.5-.2-.9-.5-1.3-.4-.4-.8-.5-1.3-.5h-6c-.5 0-.9-.2-1.3-.6-.4-.4-.5-.9-.5-1.4v-1.2c0-.5.2-1 .5-1.3.4-.4.8-.6 1.3-.6h6c.5 0 1-.2 1.3-.6.4-.4.5-.8.5-1.3s.2-.9.6-1.3c.4-.4.8-.5 1.3-.5h1.2c.5 0 1 .2 1.4.5.4.4.5.8.5 1.3v46.3c0 .5-.2 1-.5 1.3-.4.4-.8.6-1.4.6h-1.2c-.5 0-1-.2-1.3-.6-.4-.4-.6-.8-.6-1.3v-.2c0-.5-.2-.9-.5-1.3-.4-.4-.8-.5-1.3-.5h-6c-.5 0-.9-.2-1.3-.6-.4-.4-.5-.8-.5-1.3v-1.3c0-.5.2-1 .5-1.3.4-.4.8-.6 1.3-.6h6zM416 67c0 .5.2.9.5 1.3.4.4.8.6 1.3.6h6c.5 0 1 .2 1.3.6.4.4.5.8.5 1.3V72c0 .5-.2 1-.5 1.4-.4.4-.8.6-1.3.6h-6c-.5 0-1 .2-1.3.5-.4.4-.5.8-.5 1.3v9.8c0 .5.2.9.5 1.3.4.4.8.5 1.3.5h6c.5 0 1 .2 1.3.6.4.4.5.9.5 1.4v1.2c0 .5-.2 1-.5 1.3-.4.4-.8.6-1.3.6h-6c-.5 0-1 .2-1.3.6-.4.4-.5.9-.5 1.4v9.8c0 .5.2.9.5 1.3.4.4.8.6 1.3.6h6c.5 0 1 .2 1.3.6.4.4.5.8.5 1.3v1.3c0 .5-.2 1-.5 1.3-.4.4-.8.6-1.3.6h-6c-.5 0-1 .2-1.3.5-.4.4-.5.8-.5 1.3v.2c0 .5-.2 1-.5 1.3-.4.4-.8.6-1.4.6h-1.2c-.5 0-1-.2-1.3-.6-.4-.4-.6-.8-.6-1.3V67.1c0-.5.2-.9.6-1.3.4-.4.8-.5 1.3-.5h1.2c.5 0 1 .2 1.4.5.3.3.5.7.5 1.2zM434.1 81.2c0-.5-.1-1-.3-1.4-.2-.4-.4-.5-.6-.5-.2 0-.4-.2-.6-.5-.1-.4-.2-.8-.2-1.4v-1.3c0-.5.1-.9.4-1.3.3-.4.5-.5.9-.5h3.4c.5 0 1 .2 1.3.5.4.4.6.8.6 1.3V103c0 .5.1 1.1.4 1.7.2.6.5 1 .8 1.3.4.3.7.4.9.2.3-.2.4-.5.4-1v-.2c0-.5.2-1 .5-1.3.4-.4.8-.6 1.3-.6h3.7c.5 0 1-.1 1.6-.4.6-.3 1-.7 1.3-1.1l1.1-1.4c.3-.4.6-.9.8-1.4.2-.6.3-1 .3-1.3 0-.4.2-.7.5-.9.4-.3.8-.4 1.3-.4h1.2c.5 0 1 .1 1.3.4.4.3.5.6.5.9 0 .3.1.8.4 1.3.2.5.5 1 .8 1.4l1.4 1.6c.3.4.8.7 1.4 1 .6.3 1.2.4 1.7.4h3.8c.5 0 1 .2 1.4.6.4.4.5.8.5 1.3v1.3c0 .5-.2.9-.5 1.3-.4.4-.8.5-1.3.5l-5.9.1c-.5 0-1.1-.1-1.6-.4-.6-.3-1.1-.6-1.5-1l-1.4-1.6c-.4-.4-.8-.5-1.3-.5-.4 0-.8.2-1.1.6l-1.1 1.4c-.3.4-.8.8-1.4 1.1-.6.3-1.1.5-1.6.5l-5.2-.1c-.5 0-.8.1-1 .3-.2.2-.1.4.2.7.3.3.7.5 1.3.7.6.2 1.1.3 1.6.3h19.9c.5 0 1 .2 1.3.5.4.4.5.8.5 1.4v1.3c0 .5-.2 1-.5 1.3-.4.4-.8.6-1.3.6h-22c-.5 0-1.1-.1-1.7-.4-.6-.3-1.2-.6-1.5-.9l-1.3-1.2c-.4-.4-.9-.6-1.4-.5-.5 0-1 .2-1.3.6l-1.1 1.1c-.4.4-.8.7-1.3 1-.5.3-1 .4-1.3.4-.3 0-.6-.2-.9-.6-.3-.4-.4-.8-.4-1.3v-1.2c0-.5.1-1 .2-1.4.1-.4.3-.5.6-.5.2 0 .4-.1.6-.4.2-.3.3-.6.3-1V81.2zm3.3-10.2c-.3.4-.7.6-1.3.6-.5 0-1-.2-1.4-.6l-.9-.9c-.4-.4-.5-.9-.5-1.4 0-.5.2-1 .5-1.4l.9-.9c.4-.4.9-.5 1.4-.5.5 0 .9.2 1.3.5l.9.9c.4.4.6.9.6 1.4 0 .5-.2 1-.6 1.4l-.9.9zm29.3-3.5c.5 0 1 .2 1.4.6.4.4.5.9.5 1.4v6.1c0 .5-.1 1.1-.4 1.7-.3.6-.6 1.1-.9 1.5l-1.4 1.4c-.4.4-.9.7-1.5 1-.6.3-1.2.4-1.7.4h-3.5c-.5 0-1 .1-1.4.2-.4.1-.5.3-.5.5s.2.3.5.5c.4.1.8.2 1.4.2h7.5c.5 0 1 .2 1.4.6.4.4.5.8.5 1.4v1.3c0 .5-.2.9-.5 1.3-.4.4-.8.5-1.3.5h-23.3c-.5 0-.9-.2-1.3-.5-.4-.4-.5-.8-.5-1.3V85c0-.5.2-1 .5-1.4.4-.4.8-.6 1.3-.6h7c.5 0 .9-.1 1.3-.2s.5-.3.5-.5-.2-.4-.5-.5c-.4-.1-.8-.2-1.3-.2h-7c-.5 0-.9-.2-1.3-.6-.4-.4-.5-.8-.5-1.3V69.5c0-.5.2-1 .5-1.4.4-.4.8-.6 1.3-.6h7c.5 0 .9-.1 1.3-.3.4-.2.5-.5.5-.8 0-.3.2-.6.5-.9.4-.2.8-.4 1.3-.4h1.3c.5 0 1 .1 1.3.4.4.2.5.5.5.9 0 .3.2.6.5.8s.8.3 1.4.3h7.6zm-1.2 34.1c-.5 0-.9-.2-1.3-.6-.4-.4-.5-.8-.5-1.3v-3.2c0-.5-.2-.9-.6-1.3-.4-.4-.8-.6-1.3-.6h-13.2c-.5 0-.9.2-1.3.6-.4.4-.6.8-.6 1.3v3.2c0 .5-.2.9-.6 1.3-.4.4-.8.6-1.3.6h-1.3c-.5 0-.9-.2-1.3-.6-.4-.4-.5-.8-.5-1.3v-8.2c0-.5.2-1 .5-1.3.4-.4.8-.6 1.3-.6h23.3c.5 0 1 .2 1.3.6.4.4.5.8.5 1.3v8.2c0 .5-.2 1-.5 1.3-.4.4-.8.6-1.4.6h-1.2zm-15-25.1c.5 0 .9-.2 1.3-.5.4-.4.5-.8.5-1.4v-.1c0-.5-.2-.9-.5-1.3-.4-.4-.8-.5-1.3-.5h-2c-.5 0-.9.2-1.3.5-.4.4-.6.8-.6 1.3v.1c0 .5.2 1 .6 1.4.4.4.8.5 1.3.5h2zm11.2 0c.5 0 .9-.2 1.3-.5.4-.4.6-.8.6-1.4v-.1c0-.5-.2-.9-.6-1.3-.4-.4-.8-.5-1.3-.5h-2.5c-.5 0-1 .2-1.3.5-.4.4-.5.8-.5 1.3v.1c0 .5.2 1 .5 1.4.4.4.8.5 1.3.5h2.5zM482.7 80.4c-.2 0-.4.2-.6.5-.2.4-.3.8-.3 1.3v31.1c0 .5-.2 1-.5 1.3-.4.4-.8.6-1.3.6h-1.3c-.5 0-1-.2-1.4-.6-.4-.4-.5-.8-.5-1.3V82.2c0-.5-.1-.9-.3-1.3-.2-.4-.4-.5-.7-.5-.3 0-.5-.2-.7-.6s-.3-.8-.3-1.3v-1.3c0-.5.1-1 .3-1.4.2-.4.4-.5.7-.5.3 0 .5-.2.7-.5.2-.4.3-.8.3-1.3v-6.4c0-.5.2-.9.5-1.3.4-.4.8-.5 1.4-.5h1.3c.5 0 .9.2 1.3.5.4.4.5.8.5 1.3v6.4c0 .5.1.9.3 1.3.2.4.4.5.6.5.3 0 .5.2.7.5.2.4.3.8.3 1.4v1.3c0 .5-.1.9-.3 1.3-.2.4-.4.6-.7.6zm21 24c0-.5-.2-1-.6-1.3-.4-.4-.8-.6-1.3-.6h-15.9c-.5 0-1-.2-1.3-.5-.4-.4-.6-.8-.6-1.3v-.8c0-.5.2-1 .6-1.4.4-.4.8-.6 1.3-.6h15.9c.5 0 1-.1 1.3-.2.4-.1.6-.3.6-.5s.2-.4.5-.5c.4-.1.8-.2 1.3-.2h1.3c.5 0 1 .1 1.3.2.4.1.6.3.6.5s.1.4.3.5c.2.1.4.2.6.2.3 0 .6.2.8.6.2.4.3.9.3 1.4v.8c0 .5-.1.9-.3 1.3-.2.4-.5.5-.8.5-.2 0-.4.2-.6.6-.2.4-.3.8-.3 1.3v8.9c0 .5-.2 1-.6 1.3s-.8.6-1.3.6h-12.5c-.5 0-1-.2-1.3-.6s-.6-.8-.6-1.3v-.8c0-.5.2-.9.6-1.3.4-.4.8-.5 1.3-.5h7.5c.5 0 1-.2 1.3-.5.4-.4.6-.8.6-1.4v-4.4zm-3.4 3.1c0 .5-.2 1-.6 1.4-.4.4-.8.6-1.3.6h-12c-.5 0-.9-.2-1.3-.6s-.6-.8-.6-1.3v-2.1c0-.5.2-.9.6-1.3.4-.4.8-.5 1.3-.5h1.3c.5 0 .9.1 1.3.2s.5.2.5.4.2.4.5.5c.4.1.8.2 1.3.2h7.1c.5 0 .9.2 1.3.6.4.4.6.8.6 1.4v.5zm-10.4-12.8c0 .3-.2.5-.6.8-.4.2-.8.3-1.3.3h-1.2c-.5 0-.9-.2-1.3-.5-.4-.4-.6-.8-.6-1.3V76c0-.5.2-.9.6-1.3.4-.4.8-.5 1.3-.5h6.7c.5 0 .9-.1 1.3-.3.4-.2.5-.4.5-.7 0-.3-.2-.6-.5-.8-.4-.2-.8-.3-1.3-.3h-6.7c-.5 0-1-.2-1.3-.5-.4-.4-.6-.8-.6-1.3V69c0-.5.2-1 .6-1.4.4-.4.8-.6 1.3-.6h6.7c.5 0 .9-.1 1.3-.2.4-.2.5-.4.5-.6 0-.3.2-.5.6-.7.4-.1.8-.2 1.3-.2h1.2c.5 0 .9.1 1.3.2s.6.4.6.7c0 .3.2.5.5.6.4.2.8.2 1.3.2h1.6c.5 0 1-.1 1.4-.2.4-.2.5-.4.5-.6 0-.3.2-.5.6-.7.4-.1.8-.2 1.4-.2h1.2c.5 0 .9.1 1.3.4.4.3.5.6.5 1v3.5c0 .5-.2.9-.5 1.3-.4.4-.8.5-1.3.5h-6.7c-.5 0-.9.1-1.3.3-.4.2-.5.5-.5.8 0 .3.2.5.5.7.4.2.8.3 1.3.3h6.7c.5 0 .9.2 1.3.5.4.4.5.8.5 1.3v17.9c0 .5-.2.9-.5 1.3-.4.4-.8.5-1.3.5h-1.2c-.5 0-1-.1-1.4-.3-.4-.2-.6-.5-.6-.8 0-.3-.2-.6-.5-.8-.4-.2-.8-.3-1.4-.3h-1.6c-.5 0-.9.1-1.3.3-.4.2-.5.5-.5.8 0 .3-.2.5-.6.8-.4.2-.8.3-1.3.3h-1.2c-.5 0-.9-.1-1.3-.3-.4-.2-.6-.5-.6-.8 0-.3-.2-.6-.5-.8-.4-.2-.8-.3-1.3-.3h-1.7c-.5 0-1 .1-1.3.3-.4.4-.6.7-.6 1zm1.9-15.4c-.5 0-1 .2-1.3.5-.4.3-.6.7-.6 1.1 0 .4.2.8.6 1.1.4.3.8.5 1.3.5h1.7c.5 0 .9-.2 1.3-.5s.5-.7.5-1.1c0-.4-.2-.8-.5-1.1-.4-.3-.8-.5-1.3-.5h-1.7zm1.7 10.2c.5 0 .9-.1 1.3-.4.4-.3.5-.6.5-1s-.2-.8-.5-1.1c-.4-.3-.8-.5-1.3-.5h-1.7c-.5 0-1 .2-1.3.5-.4.3-.6.7-.6 1.1 0 .4.2.7.6 1 .4.3.8.4 1.3.4h1.7zm8.7-10.2c-.5 0-.9.2-1.3.5s-.5.7-.5 1.1c0 .4.2.8.5 1.1.4.3.8.5 1.3.5h1.6c.5 0 1-.2 1.4-.5.4-.3.5-.7.5-1.1 0-.4-.2-.8-.5-1.1-.4-.3-.8-.5-1.4-.5h-1.6zm1.6 10.2c.5 0 1-.1 1.4-.4.4-.3.5-.6.5-1s-.2-.8-.5-1.1c-.4-.3-.8-.5-1.4-.5h-1.6c-.5 0-.9.2-1.3.5s-.5.7-.5 1.1c0 .4.2.7.5 1 .4.3.8.4 1.3.4h1.6zM518.9 84.9c-.5 0-.9-.2-1.3-.6-.4-.4-.5-.8-.5-1.4V67c0-.5.2-.9.5-1.3.4-.4.8-.5 1.3-.5h1.3c.5 0 1 .2 1.3.5.4.4.5.8.5 1.3v16c0 .5-.2 1-.5 1.4-.4.4-.8.6-1.3.6h-1.3zm34.2 18.9c0 .5-.2 1-.5 1.3-.4.4-.8.6-1.3.6H550c-.5 0-1 0-1.4-.1-.4-.1-.6-.1-.6-.2V94.6c0-.5-.2-1-.5-1.3-.4-.4-.8-.6-1.3-.6H524c-.5 0-1 .2-1.3.6-.4.4-.5.8-.5 1.3v9.2c0 .5-.2 1-.5 1.3-.4.4-.8.6-1.3.6h-1.3c-.5 0-.9-.2-1.3-.6-.4-.4-.5-.8-.5-1.3V89.6c0-.6.1-1 .3-1.4.2-.4.5-.6.8-.6h33c.5 0 .9.2 1.3.6.4.4.5.8.5 1.4v14.2zm0 9.5c0 .5-.2 1-.5 1.3s-.8.6-1.3.6h-10.1c-.5 0-1.1-.1-1.7-.4-.6-.3-1.1-.6-1.5-1l-1.2-1.4c-.4-.3-.7-.8-1-1.4-.3-.6-.4-1.2-.4-1.7s-.1-.8-.4-1c-.3-.1-.6 0-1 .4l-5.4 5.2c-.4.4-.9.7-1.5.9-.6.3-1.2.4-1.7.4h-6.3c-.5 0-.9-.2-1.3-.6s-.5-.8-.5-1.3V112c0-.5.2-1 .5-1.4.4-.4.8-.5 1.3-.5h4.3c.5 0 1.1-.1 1.8-.4.6-.3 1.1-.6 1.5-.9l4.7-4.5c.4-.4.7-.9 1-1.5.3-.6.4-1.2.4-1.7v-3.7c0-.5.2-1 .5-1.4.4-.4.8-.5 1.3-.5h1.3c.5 0 1 .2 1.3.5.4.4.6.8.6 1.4v4.6c0 .5.1 1 .4 1.3.3.4.6.6 1 .6s.7.2.9.5c.3.4.4.8.4 1.3v2.6c0 .5.2 1 .5 1.4.4.4.8.5 1.3.5h9.1c.5 0 .9.2 1.3.5.4.4.5.8.5 1.4v1.2zM528 84.9c-.5 0-1-.2-1.3-.6-.4-.4-.5-.8-.5-1.4V67c0-.5.2-.9.5-1.3.4-.4.8-.5 1.3-.5h1.2c.5 0 .9.2 1.3.5.4.4.6.8.6 1.3v16c0 .5-.2 1-.6 1.4-.4.4-.8.6-1.3.6H528zm25.1-16.6c0 .6-.2 1-.5 1.4-.4.4-.8.6-1.3.6h-8.5c-.5 0-.9.2-1.3.6s-.5.8-.5 1.3V79c0 .5-.1 1.1-.4 1.7-.3.6-.6 1.1-1 1.5l-1.4 1.3c-.3.4-.7.7-1.3 1-.5.3-.9.4-1.3.4s-.7-.2-.9-.6c-.2-.4-.4-.8-.4-1.4v-1.2c0-.5.1-1 .2-1.4.1-.4.3-.5.5-.5.3 0 .4-.2.6-.6.1-.4.2-.8.2-1.3V67c0-.5.2-.9.5-1.3.4-.4.8-.5 1.3-.5h13.5c.5 0 .9.2 1.3.6.4.4.5.8.5 1.3v1.2zm0 14.7c0 .5-.2 1-.5 1.4-.4.4-.8.6-1.3.6h-.6c-.5 0-1.1-.1-1.7-.4-.7-.3-1.2-.6-1.5-1l-1.4-1.3c-.4-.4-.7-.9-.9-1.5-.3-.6-.4-1.2-.4-1.7v-4.6c0-.5.2-1 .5-1.4.4-.4.8-.5 1.4-.5h1.3c.5 0 .9.2 1.3.5.4.4.5.8.5 1.4V78c0 .5.2 1 .5 1.3.3.4.7.6 1.2.6s.9.2 1.2.5c.3.4.5.8.5 1.4V83zM559.4 67c0-.5.2-.9.5-1.3.4-.4.8-.5 1.3-.5h32.3c.5 0 .9.2 1.3.5.4.4.5.8.5 1.3v42.3c0 .5-.1 1.1-.4 1.7-.3.6-.6 1.1-.9 1.4l-1.3 1.4c-.4.4-.9.7-1.5 1-.6.3-1.2.4-1.7.4h-28.2c-.5 0-.9-.1-1.3-.2s-.5-.3-.5-.5V67zm30.9 5.1c0-.5-.2-1-.5-1.3s-.8-.6-1.3-.6h-22.1c-.5 0-1 .2-1.3.6s-.5.8-.5 1.3v36.1c0 .5.2 1 .5 1.4.4.4.8.5 1.3.5h22.1c.5 0 1-.2 1.3-.5.4-.4.5-.8.5-1.4V72.1zm-2 5.5c0 .5-.2.9-.5 1.3-.4.4-.8.5-1.3.5h-18.2c-.5 0-.9-.2-1.3-.5-.4-.4-.6-.8-.6-1.3v-1.3c0-.5.2-.9.6-1.3.4-.4.8-.5 1.3-.5h18.2c.5 0 .9.2 1.3.5.4.4.5.8.5 1.3v1.3zM568 102c.5 0 .9-.2 1.2-.5.3-.4.5-.8.5-1.4v-7.9c0-.5-.2-.9-.5-1.3s-.7-.5-1.2-.5c-.4 0-.8-.2-1.1-.6-.3-.4-.5-.8-.5-1.3v-1.3c0-.5.2-.9.6-1.3.4-.4.8-.5 1.3-.5h18.3c.5 0 .9.2 1.3.5.4.4.5.8.5 1.3v1.3c0 .5-.2 1-.5 1.3-.3.4-.7.6-1.2.6-.4 0-.8.2-1.2.5-.3.4-.5.8-.5 1.3v7.9c0 .5.2 1 .5 1.4.3.4.7.5 1.2.5s.9.2 1.2.6c.3.4.5.8.5 1.4v1.2c0 .5-.2 1-.5 1.4-.4.4-.8.5-1.3.5h-.6c-.5 0-1.1-.1-1.7-.4-.6-.3-1.1-.6-1.5-1l-1.4-1.3c-.4-.4-.7-.9-.9-1.5-.3-.6-.4-1.2-.4-1.7v-9c0-.5-.2-.9-.6-1.3-.4-.4-.8-.5-1.3-.5h-1.6c-.5 0-1 .2-1.3.5-.4.4-.5.8-.5 1.3v9c0 .5-.1 1.1-.4 1.7-.3.6-.6 1.1-.9 1.5l-1.4 1.3c-.4.4-.9.7-1.5 1-.6.3-1.2.4-1.7.4h-.5c-.5 0-.9-.2-1.3-.5-.4-.4-.6-.8-.6-1.4V104c0-.5.2-1 .5-1.4.2-.4.5-.6 1-.6z"/></g><path class="st0" d="M169.5-6.1h3v125.5h-3zM-43 135.8h646v4.2H-43z"/></svg>